v -0.106679 -0.794519 0.421513
v 0.107243 -0.794644 0.4211
v 0.103182 0.31575 0.420935
v -0.103182 0.31575 0.420853
v -0.162924 0.302227 0.385699
v -0.162924 -0.78613 0.385699
v -0.199255 -0.808543 0.354589
v -0.133194 -0.823444 0.389
v -0.0911654 -0.826073 0.406989
v 0.0777388 -0.827075 0.407897
v 0.131276 0.302227 0.409712
v 0.107187 -0.82144 0.408805
v 0.134379 -0.814303 0.399975
v 0.199932 -0.809545 0.355084
v 0.141036 0.332779 0.396097
v 0.121065 0.341669 0.38867
v -0.121009 0.341544 0.38867
v -0.144251 0.332027 0.394611
v -0.191244 0.329148 0.363749
v -0.216405 0.310866 0.345924
v -0.216405 -0.78613 0.345924
v -0.239704 -0.818435 0.310441
v -0.199763 -0.83872 0.320508
v -0.163094 -0.820188 0.370763
v -0.252454 -0.790387 0.315722
v -0.104479 -0.847109 0.380748
v -0.0777389 -0.857126 0.377695
v 0.0777388 -0.857126 0.377695
v 0.198973 0.331276 0.356404
v 0.233273 0.302227 0.335527
v 0.107864 -0.849238 0.376044
v 0.19965 -0.847359 0.311761
v 0.225036 -0.825322 0.320426
v 0.252736 -0.796523 0.315062
v 0.19006 0.33954 0.345594
v 0.146846 0.341418 0.371506
v 0.128737 0.405528 0.181297
v 0.102674 0.405528 0.196976
v 0.070687 0.405528 0.210426
v 0.0301816 0.405528 0.217028
v -0.0182218 0.405528 0.218018
v -0.0561886 0.405528 0.213892
v -0.102279 0.405528 0.197058
v -0.144703 0.405528 0.169909
v -0.146846 0.341168 0.371506
v -0.181428 0.338163 0.354259
v -0.209917 0.334532 0.339653
v -0.247094 0.317628 0.320591
v -0.27203 -0.816181 0.111237
v -0.247094 -0.834588 0.181379
v -0.217759 -0.857126 0.250531
v -0.217928 -0.84786 0.293854
v -0.264301 -0.78613 0.276442
v -0.150288 -0.866893 0.320426
v -0.261311 0.331151 0.285025
v -0.264301 0.310866 0.276442
v -0.0959607 -0.870649 0.345677
v 0.0962991 -0.870649 0.345594
v 0.246756 0.325642 0.321333
v 0.249182 0.338288 0.291461
v 0.147862 -0.866768 0.324222
v 0.159991 -0.860757 0.323974
v 0.218662 -0.848612 0.291874
v 0.246474 -0.825322 0.283044
v 0.252397 -0.822692 0.250531
v 0.268475 -0.78613 0.233284
v 0.268475 0.302227 0.233284
v 0.159427 0.405528 0.157613
v -0.175618 0.405528 0.137644
v -0.239309 0.345175 0.287995
v -0.276655 -0.80053 0.135746
v -0.287713 -0.792641 -0.0236833
v -0.275302 -0.819812 -0.043158
v -0.269322 -0.822317 0.077734
v -0.257982 -0.836967 0.043158
v -0.221934 -0.861258 0.164133
v -0.210764 -0.867018 0.215955
v -0.201004 -0.867894 0.257215
v -0.27344 -0.78613 0.181379
v -0.155478 -0.873153 0.293689
v -0.129527 -0.872277 0.3196
v -0.277897 0.328271 0.122542
v -0.210482 0.405528 0.0524828
v -0.216123 0.405528 0.0172467
v -0.263003 0.332904 0.250531
v -0.279476 0.332153 0.0863161
v -0.284159 0.315249 0.0690693
v -0.27344 0.302227 0.181379
v -0.112264 -0.873654 0.3196
v 0.112264 -0.873654 0.3196
v 0.138215 -0.872778 0.311018
v 0.216123 0.405528 0.0173292
v 0.210312 0.405528 0.0528129
v 0.184644 0.405528 0.121717
v 0.276881 0.328772 0.142265
v 0.194291 -0.869773 0.264312
v 0.209748 -0.866267 0.237575
v 0.218605 -0.858003 0.233284
v 0.275301 -0.819812 0.043158
v 0.276881 -0.812675 0.10051
v 0.276599 -0.802533 0.133022
v 0.225431 -0.85625 0.181379
v 0.281902 -0.78613 0.0948981
v 0.287713 0.302227 0.0344934
v 0.282692 0.310866 0.0863161
v -0.189608 0.405528 0.111815
v -0.283369 -0.78613 0.077734
v -0.288164 0.314873 0
v -0.287713 0.302227 -0.0344934
v -0.281902 -0.78613 -0.0948981
v -0.276599 -0.802533 -0.133022
v -0.276881 -0.812675 -0.10051
v -0.252397 -0.822692 -0.250531
v -0.229832 -0.851867 -0.181379
v -0.244161 -0.85337 -0.0172467
v -0.264978 -0.833085 0
v -0.235473 -0.857627 0.0604047
v -0.226221 -0.865515 0.0733604
v -0.205743 -0.870524 0.179234
v -0.198691 -0.873529 0.138139
v -0.216123 0.405528 -0.0173292
v -0.281112 0.33378 -0.0518226
v -0.281056 0.333655 0.0518226
v -0.112264 -0.873654 -0.3196
v 0.112264 -0.873654 -0.3196
v 0.198691 -0.873529 0.138139
v 0.198691 -0.873028 0.172715
v 0.198691 -0.871776 0.215955
v 0.278968 0.331527 0.0992717
v 0.281112 0.33378 0.0518226
v 0.216123 0.405528 -0.0172467
v 0.287487 0.319506 0.0344934
v 0.228196 -0.867143 0.0344934
v 0.22656 -0.865766 0.0690693
v 0.212851 -0.86827 0.172715
v 0.244161 -0.85337 0.0172467
v 0.264978 -0.833085 0
v 0.269322 -0.822317 -0.077734
v 0.272029 -0.816181 -0.111237
v 0.287713 -0.792641 0.0236833
v 0.288164 0.314873 0
v -0.287487 0.319506 -0.0344934
v -0.282692 0.310866 -0.0863161
v -0.265147 0.319506 -0.267778
v -0.268475 -0.78613 -0.233284
v -0.252736 -0.796523 -0.315062
v -0.246474 -0.825322 -0.283044
v -0.218605 -0.858003 -0.233284
v -0.221087 -0.860507 -0.181379
v -0.22656 -0.865766 -0.0690693
v -0.228196 -0.867143 -0.0344934
v -0.230678 -0.864013 0.024756
v -0.21601 -0.872152 -0.0258288
v -0.198691 -0.873529 -0.138139
v -0.210312 0.405528 -0.0528129
v -0.249182 0.338288 -0.291461
v -0.276881 0.328772 -0.142265
v -0.278968 0.331527 -0.0992717
v -0.198691 -0.873028 -0.172715
v -0.138215 -0.872778 -0.311018
v -0.0962991 -0.870649 -0.345594
v 0.0959606 -0.870649 -0.345677
v 0.129527 -0.872277 -0.3196
v 0.155478 -0.873153 -0.293689
v 0.198691 -0.873529 -0.138139
v 0.21601 -0.872152 0.0258288
v 0.281056 0.333655 -0.0518226
v 0.279476 0.332153 -0.0863161
v 0.263003 0.332904 -0.250531
v 0.261311 0.331151 -0.285025
v 0.210425 0.405528 -0.0524828
v 0.226221 -0.865515 -0.0733604
v 0.230678 -0.864013 -0.024756
v 0.235473 -0.857627 -0.0604047
v 0.257982 -0.836967 -0.043158
v 0.247094 -0.834588 -0.181379
v 0.239704 -0.818435 -0.310441
v 0.264301 -0.78613 -0.276442
v 0.276655 -0.80053 -0.135746
v 0.283369 -0.78613 -0.077734
v 0.284159 0.315249 -0.0690693
v -0.246756 0.325642 -0.321333
v -0.199932 -0.809545 -0.355084
v -0.225036 -0.825322 -0.320426
v -0.233273 0.302227 -0.335527
v -0.218662 -0.848612 -0.291874
v -0.209748 -0.866267 -0.237575
v -0.212851 -0.86827 -0.172715
v -0.198691 -0.871025 -0.237575
v -0.184644 0.405528 -0.121717
v -0.159427 0.405528 -0.157613
v -0.19006 0.33954 -0.345594
v -0.198973 0.331276 -0.356404
v -0.189947 -0.869147 -0.278093
v -0.147862 -0.866768 -0.324222
v -0.107864 -0.849238 -0.376044
v -0.0777389 -0.857126 -0.377695
v 0.0777388 -0.857126 -0.377695
v 0.104479 -0.847109 -0.380748
v 0.150288 -0.866893 -0.320426
v 0.18707 -0.869898 -0.277268
v 0.198691 -0.870399 -0.250531
v 0.205743 -0.870524 -0.179234
v 0.277897 0.328271 -0.122542
v 0.264301 0.310866 -0.276442
v 0.252454 -0.790387 -0.315722
v 0.247094 0.317628 -0.320591
v 0.209917 0.334532 -0.339653
v 0.239309 0.345175 -0.287995
v 0.189608 0.405528 -0.111815
v 0.210764 -0.867018 -0.215955
v 0.209128 -0.865641 -0.250531
v 0.221934 -0.861258 -0.164133
v 0.217759 -0.857126 -0.250531
v 0.217928 -0.84786 -0.293854
v 0.199763 -0.83872 -0.320508
v 0.199255 -0.808543 -0.354589
v 0.27344 -0.78613 -0.181379
v 0.27344 0.302227 -0.181379
v -0.131276 0.302227 -0.409712
v -0.107244 -0.794644 -0.4211
v -0.134379 -0.814303 -0.399975
v -0.19965 -0.847359 -0.311761
v -0.128737 0.405528 -0.181297
v -0.146846 0.341418 -0.371506
v -0.141036 0.332779 -0.396097
v -0.159991 -0.860757 -0.323974
v -0.107187 -0.82144 -0.408805
v -0.0777389 -0.827075 -0.407897
v 0.0911654 -0.826073 -0.406989
v 0.133194 -0.823444 -0.389
v 0.216405 -0.78613 -0.345924
v 0.216405 0.310866 -0.345924
v 0.191244 0.329148 -0.363749
v 0.144251 0.332027 -0.394611
v 0.181428 0.338163 -0.354259
v 0.146846 0.341168 -0.371506
v 0.144703 0.405528 -0.169909
v 0.175618 0.405528 -0.137644
v 0.163094 -0.820188 -0.370763
v 0.106679 -0.794519 -0.421513
v 0.162924 -0.78613 -0.385699
v -0.103182 0.31575 -0.420935
v -0.102674 0.405528 -0.196976
v -0.121065 0.341669 -0.38867
v 0.162924 0.302227 -0.385699
v 0.121009 0.341544 -0.38867
v 0.103182 0.31575 -0.420853
v 0.102279 0.405528 -0.197058
v -0.0706871 0.405528 -0.210426
v 0.0182218 0.405528 -0.218018
v -0.0301816 0.405528 -0.217028
v 0.0561886 0.405528 -0.213892
f 1 2 3
f 1 3 4
f 1 4 5
f 1 5 6
f 1 6 7
f 1 7 8
f 1 8 9
f 1 9 10
f 1 10 2
f 2 11 3
f 2 10 12
f 2 12 13
f 2 13 14
f 2 14 11
f 3 11 15
f 3 15 16
f 3 16 4
f 4 16 17
f 4 17 18
f 4 18 5
f 5 18 19
f 5 19 20
f 5 20 21
f 5 21 6
f 6 21 7
f 7 22 23
f 7 23 24
f 7 24 8
f 7 21 25
f 7 25 22
f 8 24 23
f 8 23 26
f 8 26 9
f 9 26 27
f 9 27 10
f 10 27 28
f 10 28 12
f 11 29 15
f 11 14 30
f 11 30 29
f 12 28 31
f 12 31 13
f 13 31 32
f 13 32 33
f 13 33 14
f 14 34 30
f 14 33 34
f 15 35 36
f 15 36 16
f 15 29 35
f 16 36 37
f 16 37 38
f 16 38 39
f 16 39 40
f 16 40 41
f 16 41 17
f 17 41 42
f 17 42 43
f 17 43 44
f 17 44 45
f 17 45 18
f 18 45 46
f 18 46 47
f 18 47 19
f 19 48 20
f 19 47 48
f 20 48 21
f 21 48 25
f 22 49 50
f 22 50 51
f 22 51 52
f 22 52 23
f 22 25 53
f 22 53 49
f 23 52 54
f 23 54 26
f 25 48 55
f 25 55 56
f 25 56 53
f 26 54 57
f 26 57 27
f 27 57 28
f 28 57 58
f 28 58 31
f 29 30 59
f 29 59 60
f 29 60 35
f 30 34 59
f 31 58 61
f 31 61 62
f 31 62 32
f 32 63 33
f 32 62 61
f 32 61 63
f 33 63 64
f 33 64 34
f 34 64 65
f 34 65 66
f 34 66 67
f 34 67 59
f 35 60 68
f 35 68 37
f 35 37 36
f 37 68 94
f 37 94 93
f 37 93 92
f 37 92 131
f 37 131 171
f 37 171 210
f 37 210 239
f 37 239 238
f 37 238 249
f 37 249 253
f 37 253 251
f 37 251 252
f 37 252 250
f 37 250 244
f 37 244 224
f 37 224 191
f 37 191 190
f 37 190 155
f 37 155 121
f 37 121 84
f 37 84 83
f 37 83 106
f 37 106 69
f 37 69 44
f 37 44 43
f 37 43 42
f 37 42 41
f 37 41 40
f 37 40 39
f 37 39 38
f 44 69 70
f 44 70 45
f 45 70 46
f 46 70 47
f 47 70 55
f 47 55 48
f 49 71 72
f 49 72 73
f 49 73 74
f 49 74 50
f 49 53 71
f 50 75 76
f 50 76 51
f 50 74 75
f 51 76 77
f 51 77 78
f 51 78 52
f 52 78 54
f 53 56 88
f 53 88 79
f 53 79 71
f 54 78 80
f 54 80 81
f 54 81 57
f 55 82 56
f 55 70 83
f 55 83 84
f 55 84 85
f 55 85 86
f 55 86 82
f 56 82 87
f 56 87 88
f 57 81 89
f 57 89 90
f 57 90 58
f 58 90 91
f 58 91 61
f 59 67 60
f 60 92 93
f 60 93 94
f 60 94 68
f 60 67 95
f 60 95 92
f 61 91 96
f 61 96 63
f 63 96 97
f 63 97 64
f 64 97 98
f 64 98 65
f 65 99 100
f 65 100 101
f 65 101 66
f 65 98 102
f 65 102 99
f 66 103 67
f 66 101 103
f 67 103 104
f 67 104 105
f 67 105 95
f 69 106 70
f 70 106 83
f 71 79 107
f 71 107 72
f 72 107 108
f 72 108 109
f 72 109 110
f 72 110 111
f 72 111 112
f 72 112 73
f 73 112 113
f 73 113 114
f 73 114 115
f 73 115 116
f 73 116 74
f 74 116 75
f 75 116 117
f 75 117 76
f 76 117 118
f 76 118 77
f 77 118 119
f 77 119 78
f 78 119 120
f 78 120 80
f 79 88 107
f 80 120 89
f 80 89 81
f 82 86 87
f 84 121 122
f 84 122 123
f 84 123 86
f 84 86 85
f 86 123 108
f 86 108 87
f 87 108 107
f 87 107 88
f 89 120 154
f 89 154 124
f 89 124 125
f 89 125 90
f 90 125 165
f 90 165 126
f 90 126 127
f 90 127 91
f 91 127 128
f 91 128 96
f 92 95 129
f 92 129 130
f 92 130 131
f 95 105 132
f 95 132 129
f 96 128 97
f 97 133 134
f 97 134 102
f 97 102 98
f 97 128 135
f 97 135 133
f 99 102 136
f 99 136 137
f 99 137 138
f 99 138 139
f 99 139 140
f 99 140 100
f 100 140 101
f 101 140 103
f 102 134 136
f 103 140 104
f 104 140 141
f 104 141 132
f 104 132 105
f 108 142 109
f 108 123 142
f 109 142 143
f 109 143 144
f 109 144 110
f 110 145 111
f 110 144 145
f 111 113 112
f 111 145 113
f 113 145 146
f 113 146 147
f 113 147 148
f 113 148 114
f 114 148 149
f 114 149 115
f 115 149 150
f 115 150 151
f 115 151 152
f 115 152 116
f 116 152 117
f 117 152 118
f 118 151 153
f 118 153 119
f 118 152 151
f 119 153 120
f 120 153 154
f 121 155 156
f 121 156 157
f 121 157 158
f 121 158 122
f 122 158 142
f 122 142 123
f 124 154 159
f 124 159 160
f 124 160 161
f 124 161 162
f 124 162 125
f 125 162 163
f 125 163 164
f 125 164 165
f 126 165 166
f 126 166 127
f 127 166 128
f 128 166 135
f 129 132 130
f 130 132 167
f 130 167 131
f 131 167 168
f 131 168 169
f 131 169 170
f 131 170 171
f 132 141 167
f 133 135 166
f 133 166 172
f 133 172 173
f 133 173 136
f 133 136 134
f 136 173 137
f 137 173 174
f 137 174 175
f 137 175 138
f 138 175 176
f 138 176 139
f 139 176 177
f 139 177 178
f 139 178 179
f 139 179 140
f 140 180 141
f 140 179 180
f 141 180 181
f 141 181 168
f 141 168 167
f 142 157 144
f 142 144 143
f 142 158 157
f 144 157 156
f 144 156 182
f 144 182 146
f 144 146 145
f 146 183 184
f 146 184 147
f 146 182 185
f 146 185 183
f 147 184 186
f 147 186 187
f 147 187 148
f 148 187 149
f 149 187 150
f 150 187 151
f 151 187 188
f 151 188 153
f 153 188 189
f 153 189 159
f 153 159 154
f 155 190 156
f 156 190 191
f 156 191 192
f 156 192 193
f 156 193 182
f 159 189 160
f 160 189 194
f 160 194 195
f 160 195 161
f 161 195 196
f 161 196 197
f 161 197 162
f 162 198 199
f 162 199 200
f 162 200 163
f 162 197 198
f 163 200 164
f 164 200 201
f 164 201 202
f 164 202 165
f 165 202 203
f 165 203 166
f 166 203 172
f 168 181 204
f 168 204 170
f 168 170 169
f 170 204 205
f 170 205 206
f 170 206 207
f 170 207 208
f 170 208 209
f 170 209 171
f 171 209 210
f 172 203 211
f 172 211 212
f 172 212 213
f 172 213 174
f 172 174 173
f 174 213 175
f 175 213 176
f 176 213 214
f 176 214 177
f 177 214 215
f 177 215 216
f 177 216 217
f 177 217 206
f 177 206 178
f 178 206 205
f 178 205 219
f 178 219 218
f 178 218 179
f 179 218 180
f 180 218 219
f 180 219 181
f 181 219 205
f 181 205 204
f 182 193 185
f 183 185 220
f 183 220 221
f 183 221 222
f 183 222 184
f 184 223 186
f 184 222 223
f 185 193 220
f 186 223 195
f 186 195 194
f 186 194 187
f 187 194 189
f 187 189 188
f 191 224 192
f 192 224 225
f 192 225 226
f 192 226 193
f 193 226 220
f 195 223 227
f 195 227 196
f 196 223 222
f 196 222 228
f 196 228 197
f 196 227 223
f 197 228 229
f 197 229 198
f 198 229 230
f 198 230 199
f 199 230 231
f 199 231 216
f 199 216 200
f 200 216 215
f 200 215 201
f 201 212 202
f 201 215 212
f 202 212 211
f 202 211 203
f 206 232 207
f 206 217 232
f 207 233 234
f 207 234 208
f 207 232 233
f 208 235 236
f 208 236 209
f 208 234 235
f 209 236 237
f 209 237 238
f 209 238 239
f 209 239 210
f 212 214 213
f 212 215 214
f 216 231 240
f 216 240 217
f 217 240 231
f 217 231 241
f 217 241 242
f 217 242 232
f 220 226 243
f 220 243 221
f 221 229 228
f 221 228 222
f 221 243 241
f 221 241 229
f 224 244 245
f 224 245 225
f 225 245 226
f 226 245 243
f 229 241 230
f 230 241 231
f 232 242 246
f 232 246 233
f 233 246 234
f 234 246 235
f 235 247 237
f 235 237 236
f 235 246 248
f 235 248 247
f 237 247 238
f 238 247 249
f 241 243 248
f 241 248 246
f 241 246 242
f 243 245 248
f 244 250 245
f 245 251 247
f 245 247 248
f 245 250 252
f 245 252 251
f 247 251 253
f 247 253 249
