v 0.0086325 0.405528 0.218613
v -0.00910058 0.405528 0.21857
v 0.0258978 0.405528 0.217457
v 0.0086325 0.838187 0.216986
v -0.0086328 0.838187 0.216986
v -0.0268762 0.405528 0.217414
v 0.0431631 0.405528 0.216173
v 0.0258978 0.838187 0.214761
v 0.0431631 0.855829 0.207143
v 0.0258978 0.857525 0.208255
v 0.0086325 0.860365 0.207228
v -0.0258981 0.838187 0.214761
v -0.0441415 0.405528 0.216173
v -0.0086328 0.860365 0.207228
v -0.0258981 0.857525 0.208255
v -0.0431634 0.855829 0.207143
v 0.070677 0.405528 0.210524
v 0.0431631 0.838187 0.21245
v 0.0762478 0.862336 0.191693
v 0.0258978 0.868797 0.196828
v 0.0602583 0.845244 0.2068
v -0.0431634 0.838187 0.21245
v -0.0682959 0.405528 0.211594
v -0.0258981 0.868797 0.196828
v -0.0762481 0.862336 0.191693
v -0.0602586 0.845244 0.2068
v 0.0945337 0.405528 0.20098
v 0.0777362 0.838187 0.201878
v 0.1098 0.863573 0.171449
v 0.0604709 0.869209 0.187456
v 0.0973829 0.847718 0.191008
v 0.0431631 0.870767 0.188568
v 0.0258978 0.873471 0.181464
v 0.0086325 0.873654 0.181464
v -0.0777365 0.838187 0.201878
v -0.0941513 0.405528 0.201065
v -0.0086328 0.873654 0.181464
v -0.0258981 0.873471 0.181464
v -0.0431634 0.870767 0.188568
v -0.0604712 0.869209 0.187456
v -0.109801 0.863573 0.171449
v -0.0973832 0.847718 0.191008
v 0.110736 0.405528 0.19319
v 0.118986 0.841166 0.180308
v 0.137782 0.866277 0.148552
v 0.144161 0.844923 0.160108
v 0.153942 0.854592 0.145856
v 0.112309 0.873013 0.146883
v 0.0777362 0.873517 0.164173
v 0.0604709 0.873654 0.164173
v -0.118986 0.841166 0.180308
v -0.110694 0.405528 0.193019
v -0.0604712 0.873654 0.164173
v -0.0777365 0.873517 0.164173
v -0.11231 0.873013 0.146883
v -0.137782 0.866277 0.148552
v -0.153942 0.854592 0.145856
v -0.144161 0.844923 0.160108
v 0.128809 0.405528 0.181335
v 0.151092 0.405528 0.166014
v 0.157471 0.838187 0.149665
v 0.154027 0.865544 0.132503
v 0.167337 0.868934 0.105069
v 0.146882 0.873013 0.112302
v 0.129575 0.873425 0.129593
v 0.174056 0.84419 0.126896
v 0.175587 0.858212 0.11457
v 0.095044 0.873654 0.146883
v -0.157472 0.838187 0.149665
v -0.155388 0.405528 0.162419
v -0.133998 0.405528 0.177612
v -0.0950444 0.873654 0.146883
v -0.129575 0.873425 0.129593
v -0.146883 0.873013 0.112302
v -0.167337 0.868934 0.105069
v -0.154027 0.865544 0.132503
v -0.174056 0.84419 0.126896
v -0.175587 0.858212 0.11457
v 0.167167 0.405528 0.150007
v 0.184943 0.838187 0.113244
v 0.191704 0.862336 0.0762662
v 0.187452 0.869209 0.0604737
v 0.164148 0.873517 0.0777641
v 0.146882 0.873654 0.0950545
v 0.190981 0.847718 0.0973656
v -0.184943 0.838187 0.113244
v -0.17563 0.405528 0.137724
v -0.146883 0.873654 0.0950545
v -0.164148 0.873517 0.0777641
v -0.191705 0.862336 0.0762662
v -0.187452 0.869209 0.0604737
v -0.190982 0.847718 0.0973656
v 0.179925 0.405528 0.131219
v 0.18945 0.405528 0.112388
v 0.201868 0.838187 0.0777641
v 0.196807 0.868797 0.0258928
v 0.206801 0.845244 0.0602597
v 0.207098 0.855829 0.0431833
v 0.188557 0.870767 0.0431833
v 0.181413 0.873654 0.00860241
v 0.164148 0.873654 0.0604737
v 0.181413 0.873471 0.0258928
v -0.201868 0.838187 0.0777641
v -0.189621 0.405528 0.111874
v -0.164148 0.873654 0.0604737
v -0.181413 0.873654 0.00860241
v -0.181413 0.873471 0.0258928
v -0.188558 0.870767 0.0431833
v -0.196808 0.868797 0.0258928
v -0.207099 0.855829 0.0431833
v -0.206801 0.845244 0.0602597
v 0.207949 0.405528 0.0624424
v 0.212457 0.838187 0.0431833
v 0.208247 0.857525 0.0258928
v 0.207183 0.860365 0.00860241
v 0.196807 0.868797 -0.0258928
v 0.216964 0.838187 0.00860241
v 0.181413 0.873654 -0.00860241
v -0.212457 0.838187 0.0431833
v -0.208119 0.405528 0.0620572
v -0.181413 0.873654 -0.00860241
v -0.196808 0.868797 -0.0258928
v -0.207184 0.860365 0.00860241
v -0.208247 0.857525 0.0258928
v -0.216965 0.838187 0.00860241
v 0.212797 0.405528 0.0431833
v 0.215051 0.405528 0.0259356
v 0.207183 0.860365 -0.00860241
v 0.187452 0.869209 -0.0604737
v 0.188557 0.870767 -0.0431833
v 0.181413 0.873471 -0.0258928
v 0.208247 0.857525 -0.0258928
v 0.207098 0.855829 -0.0431833
v 0.191704 0.862336 -0.0762662
v 0.217219 0.405528 0.008902
v 0.216964 0.838187 -0.00860241
v 0.164148 0.873517 -0.0777641
v 0.164148 0.873654 -0.0604737
v -0.215051 0.405528 0.0258928
v -0.212797 0.405528 0.0428837
v -0.164148 0.873654 -0.0604737
v -0.164148 0.873517 -0.0777641
v -0.181413 0.873471 -0.0258928
v -0.188558 0.870767 -0.0431833
v -0.187452 0.869209 -0.0604737
v -0.191705 0.862336 -0.0762662
v -0.207099 0.855829 -0.0431833
v -0.208247 0.857525 -0.0258928
v -0.207184 0.860365 -0.00860241
v -0.216965 0.838187 -0.00860241
v -0.21722 0.405528 -0.008902
v -0.217177 0.405528 0.00860241
v 0.167337 0.868934 -0.105069
v 0.212457 0.838187 -0.0431833
v 0.206801 0.845244 -0.0602597
v 0.190981 0.847718 -0.0973656
v 0.175587 0.858212 -0.11457
v 0.217177 0.405528 -0.00860241
v 0.215051 0.405528 -0.0258928
v 0.146882 0.873654 -0.0950545
v 0.146882 0.873013 -0.112302
v 0.129575 0.873425 -0.129593
v -0.146883 0.873654 -0.0950545
v -0.129575 0.873425 -0.129593
v -0.146883 0.873013 -0.112302
v -0.167337 0.868934 -0.105069
v -0.175587 0.858212 -0.11457
v -0.190982 0.847718 -0.0973656
v -0.206801 0.845244 -0.0602597
v -0.212457 0.838187 -0.0431833
v -0.215051 0.405528 -0.0259356
v 0.154027 0.865544 -0.132503
v 0.137782 0.866277 -0.148552
v 0.212797 0.405528 -0.0428837
v 0.208119 0.405528 -0.0620572
v 0.201868 0.838187 -0.0777641
v 0.184943 0.838187 -0.113244
v 0.174056 0.84419 -0.126896
v 0.153942 0.854592 -0.145856
v 0.095044 0.873654 -0.146883
v 0.112309 0.873013 -0.146883
v 0.0777362 0.873517 -0.164173
v -0.0950444 0.873654 -0.146883
v -0.11231 0.873013 -0.146883
v -0.137782 0.866277 -0.148552
v -0.0777365 0.873517 -0.164173
v -0.154027 0.865544 -0.132503
v -0.153942 0.854592 -0.145856
v -0.174056 0.84419 -0.126896
v -0.184943 0.838187 -0.113244
v -0.201868 0.838187 -0.0777641
v -0.207949 0.405528 -0.0624424
v -0.212797 0.405528 -0.0431833
v 0.114521 0.858212 -0.1756
v 0.10508 0.868934 -0.16734
v 0.18962 0.405528 -0.111874
v 0.17563 0.405528 -0.137724
v 0.157471 0.838187 -0.149665
v 0.144161 0.844923 -0.160108
v 0.0604709 0.873654 -0.164173
v 0.0086325 0.873654 -0.181464
v 0.0604709 0.869209 -0.187456
v 0.0431631 0.870767 -0.188568
v 0.0258978 0.873471 -0.181464
v -0.0604712 0.873654 -0.164173
v -0.10508 0.868934 -0.16734
v -0.114521 0.858212 -0.1756
v -0.0086328 0.873654 -0.181464
v -0.0258981 0.873471 -0.181464
v -0.0431634 0.870767 -0.188568
v -0.0604712 0.869209 -0.187456
v -0.144161 0.844923 -0.160108
v -0.157472 0.838187 -0.149665
v -0.167167 0.405528 -0.150007
v -0.179925 0.405528 -0.131219
v -0.189451 0.405528 -0.112388
v 0.0762478 0.862336 -0.191693
v 0.118986 0.841166 -0.180308
v 0.0973829 0.847718 -0.191008
v 0.155388 0.405528 -0.162419
v 0.0258978 0.868797 -0.196828
v -0.0762481 0.862336 -0.191693
v -0.0973832 0.847718 -0.191008
v -0.118986 0.841166 -0.180308
v -0.0258981 0.868797 -0.196828
v -0.151093 0.405528 -0.166014
v 0.0602583 0.845244 -0.2068
v 0.0431631 0.855829 -0.207143
v 0.133997 0.405528 -0.177612
v 0.110693 0.405528 -0.193019
v 0.0777362 0.838187 -0.201878
v 0.0258978 0.857525 -0.208255
v 0.0086325 0.860365 -0.207228
v -0.0431634 0.855829 -0.207143
v -0.0602586 0.845244 -0.2068
v -0.0777365 0.838187 -0.201878
v -0.110736 0.405528 -0.19319
v -0.128809 0.405528 -0.181335
v -0.0086328 0.860365 -0.207228
v -0.0258981 0.857525 -0.208255
v 0.0431631 0.838187 -0.21245
v 0.0258978 0.838187 -0.214761
v 0.0086325 0.838187 -0.216986
v 0.094151 0.405528 -0.201065
v 0.0682956 0.405528 -0.211594
v -0.0086328 0.838187 -0.216986
v -0.0258981 0.838187 -0.214761
v -0.0431634 0.838187 -0.21245
v -0.0706773 0.405528 -0.210524
v -0.094534 0.405528 -0.20098
v 0.0441412 0.405528 -0.216173
v 0.0268759 0.405528 -0.217414
v 0.00910027 0.405528 -0.21857
v -0.0086328 0.405528 -0.218613
v -0.0258981 0.405528 -0.217457
v -0.0431634 0.405528 -0.216173
f 1 2 6
f 1 6 13
f 1 13 23
f 1 23 36
f 1 36 52
f 1 52 71
f 1 71 70
f 1 70 87
f 1 87 104
f 1 104 120
f 1 120 140
f 1 140 139
f 1 139 152
f 1 152 151
f 1 151 171
f 1 171 193
f 1 193 192
f 1 192 216
f 1 216 215
f 1 215 214
f 1 214 226
f 1 226 238
f 1 238 237
f 1 237 250
f 1 250 249
f 1 249 256
f 1 256 255
f 1 255 254
f 1 254 253
f 1 253 252
f 1 252 251
f 1 251 245
f 1 245 244
f 1 244 230
f 1 230 229
f 1 229 220
f 1 220 197
f 1 197 196
f 1 196 175
f 1 175 174
f 1 174 159
f 1 159 158
f 1 158 135
f 1 135 127
f 1 127 126
f 1 126 112
f 1 112 94
f 1 94 93
f 1 93 79
f 1 79 60
f 1 60 59
f 1 59 43
f 1 43 27
f 1 27 17
f 1 17 7
f 1 7 3
f 1 3 4
f 1 4 5
f 1 5 2
f 2 5 6
f 3 7 4
f 4 7 8
f 4 8 9
f 4 9 10
f 4 10 11
f 4 11 14
f 4 14 5
f 5 12 13
f 5 13 6
f 5 14 15
f 5 15 16
f 5 16 12
f 7 17 18
f 7 18 8
f 8 18 9
f 9 19 20
f 9 20 10
f 9 18 21
f 9 21 19
f 10 20 11
f 11 20 24
f 11 24 14
f 12 22 13
f 12 16 22
f 13 22 23
f 14 24 15
f 15 24 16
f 16 24 25
f 16 25 26
f 16 26 22
f 17 27 28
f 17 28 18
f 18 28 21
f 19 29 30
f 19 30 20
f 19 21 31
f 19 31 29
f 20 30 32
f 20 32 33
f 20 33 34
f 20 34 37
f 20 37 24
f 21 28 31
f 22 35 23
f 22 26 35
f 23 35 36
f 24 37 38
f 24 38 39
f 24 39 40
f 24 40 25
f 25 40 41
f 25 41 42
f 25 42 26
f 26 42 35
f 27 43 28
f 28 44 31
f 28 43 44
f 29 45 30
f 29 31 46
f 29 46 47
f 29 47 45
f 30 48 49
f 30 49 32
f 30 45 48
f 31 44 46
f 32 49 33
f 33 49 34
f 34 49 50
f 34 50 68
f 34 68 84
f 34 84 101
f 34 101 100
f 34 100 118
f 34 118 138
f 34 138 160
f 34 160 180
f 34 180 200
f 34 200 201
f 34 201 208
f 34 208 205
f 34 205 183
f 34 183 163
f 34 163 141
f 34 141 121
f 34 121 106
f 34 106 105
f 34 105 88
f 34 88 72
f 34 72 53
f 34 53 37
f 35 42 51
f 35 51 52
f 35 52 36
f 37 53 54
f 37 54 38
f 38 54 39
f 39 54 40
f 40 54 55
f 40 55 56
f 40 56 41
f 41 56 57
f 41 57 58
f 41 58 42
f 42 58 51
f 43 59 44
f 44 59 60
f 44 60 61
f 44 61 46
f 45 62 63
f 45 63 64
f 45 64 65
f 45 65 48
f 45 47 62
f 46 61 47
f 47 61 66
f 47 66 67
f 47 67 62
f 48 65 49
f 49 68 50
f 49 65 68
f 51 58 69
f 51 69 70
f 51 70 71
f 51 71 52
f 53 72 54
f 54 72 73
f 54 73 55
f 55 73 56
f 56 73 74
f 56 74 75
f 56 75 76
f 56 76 57
f 57 77 69
f 57 69 58
f 57 76 78
f 57 78 77
f 60 79 61
f 61 80 66
f 61 79 80
f 62 67 63
f 63 67 81
f 63 81 82
f 63 82 83
f 63 83 64
f 64 83 65
f 65 83 84
f 65 84 68
f 66 85 67
f 66 80 85
f 67 85 81
f 69 77 86
f 69 86 87
f 69 87 70
f 72 88 73
f 73 88 89
f 73 89 74
f 74 89 75
f 75 90 78
f 75 78 76
f 75 89 91
f 75 91 90
f 77 78 92
f 77 92 86
f 78 90 92
f 79 93 80
f 80 93 94
f 80 94 95
f 80 95 85
f 81 96 82
f 81 85 97
f 81 97 98
f 81 98 96
f 82 99 83
f 82 96 99
f 83 100 101
f 83 101 84
f 83 99 102
f 83 102 100
f 85 95 97
f 86 103 104
f 86 104 87
f 86 92 103
f 88 105 89
f 89 105 106
f 89 106 107
f 89 107 108
f 89 108 91
f 90 91 109
f 90 109 110
f 90 110 111
f 90 111 92
f 91 108 109
f 92 111 103
f 94 112 95
f 95 112 113
f 95 113 97
f 96 98 114
f 96 114 115
f 96 115 128
f 96 128 116
f 96 116 118
f 96 118 100
f 96 100 102
f 96 102 99
f 97 113 98
f 98 113 117
f 98 117 114
f 103 119 120
f 103 120 104
f 103 111 119
f 106 121 122
f 106 122 109
f 106 109 107
f 107 109 108
f 109 122 149
f 109 149 123
f 109 123 124
f 109 124 110
f 110 124 125
f 110 125 119
f 110 119 111
f 112 126 113
f 113 126 127
f 113 127 117
f 114 117 115
f 115 117 136
f 115 136 128
f 116 129 130
f 116 130 131
f 116 131 118
f 116 128 132
f 116 132 133
f 116 133 134
f 116 134 129
f 117 127 135
f 117 135 136
f 118 131 137
f 118 137 138
f 119 125 139
f 119 139 140
f 119 140 120
f 121 141 142
f 121 142 143
f 121 143 122
f 122 143 144
f 122 144 145
f 122 145 146
f 122 146 147
f 122 147 148
f 122 148 149
f 123 149 150
f 123 150 125
f 123 125 124
f 125 150 151
f 125 151 152
f 125 152 139
f 128 136 132
f 129 134 153
f 129 153 137
f 129 137 130
f 130 137 131
f 132 136 133
f 133 136 154
f 133 154 155
f 133 155 134
f 134 155 156
f 134 156 157
f 134 157 153
f 135 158 136
f 136 158 159
f 136 159 154
f 137 160 138
f 137 153 161
f 137 161 162
f 137 162 160
f 141 163 142
f 142 163 164
f 142 164 165
f 142 165 166
f 142 166 145
f 142 145 144
f 142 144 143
f 145 166 146
f 146 167 168
f 146 168 169
f 146 169 147
f 146 166 167
f 147 169 170
f 147 170 150
f 147 150 148
f 148 150 149
f 150 170 171
f 150 171 151
f 153 157 172
f 153 172 173
f 153 173 161
f 154 159 174
f 154 174 175
f 154 175 176
f 154 176 155
f 155 176 156
f 156 176 177
f 156 177 178
f 156 178 157
f 157 178 179
f 157 179 172
f 160 162 180
f 161 173 162
f 162 173 181
f 162 181 182
f 162 182 180
f 163 183 164
f 164 184 185
f 164 185 165
f 164 183 186
f 164 186 184
f 165 185 166
f 166 185 187
f 166 187 167
f 167 187 188
f 167 188 189
f 167 189 168
f 168 189 190
f 168 190 191
f 168 191 169
f 169 191 170
f 170 191 192
f 170 192 193
f 170 193 171
f 172 179 173
f 173 194 195
f 173 195 181
f 173 179 194
f 175 196 176
f 176 196 177
f 177 196 197
f 177 197 198
f 177 198 178
f 178 198 179
f 179 198 199
f 179 199 194
f 180 182 200
f 181 195 182
f 182 201 200
f 182 195 202
f 182 202 203
f 182 203 204
f 182 204 201
f 183 205 186
f 184 186 206
f 184 206 185
f 185 206 207
f 185 207 188
f 185 188 187
f 186 205 208
f 186 208 209
f 186 209 210
f 186 210 211
f 186 211 206
f 188 212 213
f 188 213 189
f 188 207 212
f 189 213 190
f 190 213 214
f 190 214 215
f 190 215 216
f 190 216 191
f 191 216 192
f 194 217 195
f 194 199 218
f 194 218 219
f 194 219 217
f 195 217 202
f 197 220 198
f 198 218 199
f 198 220 218
f 201 204 221
f 201 221 225
f 201 225 208
f 202 217 221
f 202 221 203
f 203 221 204
f 206 211 222
f 206 222 207
f 207 222 223
f 207 223 224
f 207 224 212
f 208 225 209
f 209 225 210
f 210 225 211
f 211 225 222
f 212 224 213
f 213 224 226
f 213 226 214
f 217 219 227
f 217 227 228
f 217 228 221
f 218 220 229
f 218 229 230
f 218 230 231
f 218 231 219
f 219 231 227
f 221 228 232
f 221 232 233
f 221 233 239
f 221 239 225
f 222 225 234
f 222 234 235
f 222 235 223
f 223 235 236
f 223 236 224
f 224 236 237
f 224 237 238
f 224 238 226
f 225 239 240
f 225 240 234
f 227 231 241
f 227 241 228
f 228 241 242
f 228 242 243
f 228 243 232
f 230 244 231
f 231 244 245
f 231 245 241
f 232 243 233
f 233 243 246
f 233 246 239
f 234 246 247
f 234 247 248
f 234 248 235
f 234 240 246
f 235 248 236
f 236 248 249
f 236 249 250
f 236 250 237
f 239 246 240
f 241 245 251
f 241 251 242
f 242 251 243
f 243 251 252
f 243 252 253
f 243 253 254
f 243 254 246
f 246 254 255
f 246 255 256
f 246 256 247
f 247 256 248
f 248 256 249
