v 0.547956 0.167315 -0.0494526
v 0.547956 0.226692 -0.0424021
v 0.547956 0.156039 -0.0452168
v 0.426053 0.157162 -0.0440524
v 0.426053 0.167315 -0.0473988
v 0.547956 0.226692 0.0394987
v 0.468012 0.226692 -0.0375704
v 0.547956 0.150494 -0.0427963
v 0.449097 0.152337 -0.0424113
v 0.431483 0.152636 -0.0422921
v 0.426053 0.15279 -0.0422187
v 0.426053 0.170952 -0.0452901
v 0.547956 0.178122 0.0442112
v 0.466473 0.226692 0.0263238
v 0.426053 0.167315 0.0427443
v 0.426053 0.178509 -0.0403942
v 0.460196 0.226692 -0.0264125
v 0.547956 0.145006 -0.0284295
v 0.449097 0.146065 -0.0264125
v 0.431483 0.146647 -0.0264125
v 0.426053 0.148659 -0.0312351
v 0.547956 0.167315 0.044147
v 0.458692 0.226692 0.0096099
v 0.426053 0.178493 0.0383526
v 0.426053 0.153735 0.0396087
v 0.431483 0.153598 0.0396729
v 0.426053 0.179431 -0.0358376
v 0.4601 0.226692 -0.0257157
v 0.547956 0.144246 -0.0264125
v 0.449097 0.14596 -0.00880013
v 0.547956 0.144117 -0.00880013
v 0.431483 0.146542 -0.00880013
v 0.426053 0.146857 -0.00880013
v 0.426053 0.14697 -0.0264125
v 0.547956 0.151157 0.0398838
v 0.449097 0.153331 0.0397737
v 0.458561 0.226692 0.00880308
v 0.426053 0.180894 0.0264155
v 0.426053 0.147916 0.0264155
v 0.431483 0.147617 0.0264155
v 0.449097 0.147059 0.0264155
v 0.426053 0.18091 -0.0264125
v 0.458513 0.226692 -0.00880013
v 0.449097 0.14596 0.00880308
v 0.547956 0.144125 0.00880308
v 0.431483 0.146542 0.00880308
v 0.426053 0.146857 0.00880308
v 0.547956 0.144917 0.0264155
v 0.458513 0.226692 -0.00737904
v 0.426053 0.180918 0.0142399
v 0.426053 0.180918 -0.00880013
v 0.547956 0.144739 0.0235549
f 1 2 6
f 1 6 13
f 1 13 22
f 1 22 35
f 1 35 48
f 1 48 52
f 1 52 45
f 1 45 31
f 1 31 29
f 1 29 18
f 1 18 8
f 1 8 3
f 1 3 4
f 1 4 5
f 1 5 2
f 2 5 7
f 2 7 17
f 2 17 28
f 2 28 43
f 2 43 49
f 2 49 37
f 2 37 23
f 2 23 14
f 2 14 6
f 3 8 9
f 3 9 4
f 4 9 10
f 4 10 11
f 4 11 21
f 4 21 34
f 4 34 33
f 4 33 47
f 4 47 39
f 4 39 25
f 4 25 15
f 4 15 24
f 4 24 38
f 4 38 50
f 4 50 51
f 4 51 42
f 4 42 27
f 4 27 16
f 4 16 12
f 4 12 5
f 5 12 7
f 6 14 15
f 6 15 13
f 7 12 16
f 7 16 17
f 8 18 19
f 8 19 10
f 8 10 9
f 10 19 20
f 10 20 11
f 11 20 21
f 13 15 22
f 14 23 24
f 14 24 15
f 15 25 26
f 15 26 22
f 16 27 17
f 17 27 28
f 18 29 19
f 19 30 32
f 19 32 20
f 19 29 31
f 19 31 30
f 20 32 33
f 20 33 34
f 20 34 21
f 22 26 36
f 22 36 35
f 23 37 24
f 24 37 38
f 25 39 40
f 25 40 41
f 25 41 26
f 26 41 35
f 26 35 36
f 27 42 28
f 28 42 43
f 30 44 46
f 30 46 32
f 30 31 44
f 31 45 44
f 32 46 47
f 32 47 33
f 35 41 48
f 37 49 38
f 38 49 50
f 39 47 46
f 39 46 40
f 40 46 44
f 40 44 41
f 41 44 48
f 42 51 43
f 43 51 50
f 43 50 49
f 44 45 52
f 44 52 48
