v 0.547956 0.2786 -0.0514922
v 0.547956 0.2786 0.0465611
v 0.547956 0.276888 -0.0513002
v 0.544979 0.2786 -0.0514826
v 0.53714 0.2786 0.0463403
v 0.547956 0.226692 0.0394969
v 0.547956 0.262161 -0.0496398
v 0.474678 0.2786 -0.0494094
v 0.433209 0.2786 0.0423091
v 0.547956 0.226692 -0.0423933
v 0.466467 0.226692 0.0263285
v 0.468006 0.226692 -0.0375655
v 0.433209 0.2786 -0.0462709
v 0.433209 0.276405 0.0405047
v 0.433209 0.276151 0.0402936
v 0.458695 0.226692 0.00960873
v 0.4602 0.226692 -0.0264126
v 0.433209 0.275607 -0.0428348
v 0.433209 0.269982 0.0264148
v 0.45856 0.226692 0.0088025
v 0.460099 0.226692 -0.0257119
v 0.433209 0.269438 -0.0264126
v 0.433209 0.274982 -0.0412127
v 0.433209 0.269438 0.0088025
v 0.458515 0.226692 -0.00737974
v 0.458515 0.226692 -0.00880024
f 1 2 6
f 1 6 10
f 1 10 7
f 1 7 3
f 1 3 4
f 1 4 8
f 1 8 13
f 1 13 9
f 1 9 5
f 1 5 2
f 2 5 6
f 3 7 4
f 4 7 8
f 5 9 6
f 6 9 11
f 6 11 16
f 6 16 20
f 6 20 25
f 6 25 26
f 6 26 21
f 6 21 17
f 6 17 12
f 6 12 10
f 7 10 8
f 8 12 13
f 8 10 12
f 9 13 18
f 9 18 23
f 9 23 22
f 9 22 24
f 9 24 19
f 9 19 15
f 9 15 14
f 9 14 11
f 11 14 15
f 11 15 16
f 12 17 13
f 13 17 18
f 15 19 16
f 16 19 20
f 17 21 22
f 17 22 23
f 17 23 18
f 19 24 20
f 20 24 25
f 21 26 22
f 22 26 25
f 22 25 24
