v -0.0616063 0.237752 -0.0902307
v -0.0616063 0.220138 -0.0900364
v -0.0753183 0.220138 -0.0890472
v -0.0757242 0.237752 -0.0891355
v -0.0616063 0.272964 -0.0902307
v 0.167303 0.237752 -0.0902307
v -0.0616063 0.209976 -0.0889412
v -0.0734239 0.210425 -0.0886409
v 0.167303 0.220138 -0.0900364
v -0.184879 0.184926 -0.0752511
v -0.0757242 0.272964 -0.0891355
v -0.0750477 0.278605 -0.0889942
v -0.0664326 0.278605 -0.0896478
v -0.0616063 0.278605 -0.0898598
v 0.167303 0.272964 -0.0902307
v 0.178128 0.237752 -0.0891355
v 0.177993 0.220138 -0.0890472
v -0.149652 0.158929 -0.0702874
v -0.167288 0.158929 -0.0702697
v -0.167288 0.167728 -0.0732904
v 0.167303 0.209976 -0.0889412
v -0.184879 0.16877 -0.0728311
v 0.177226 0.210425 -0.0886409
v -0.194937 0.171912 -0.0717182
v -0.195569 0.184926 -0.0723718
v -0.194802 0.202524 -0.0715946
v -0.193945 0.211948 -0.070676
v -0.202199 0.278605 -0.0212682
v 0.167303 0.278605 -0.0898598
v 0.177857 0.278605 -0.0889942
v 0.178128 0.272964 -0.0891355
v 0.232886 0.184926 -0.0548485
v -0.149652 0.149698 -0.0645817
v 0.184894 0.154426 -0.0556435
v -0.167288 0.149698 -0.0645641
v -0.184879 0.138094 -0.0553961
v -0.184879 0.159971 -0.0684149
v 0.231262 0.172953 -0.0540183
v 0.225533 0.161221 -0.0515629
v 0.213761 0.157407 -0.0535767
v 0.20253 0.155644 -0.0548132
v -0.194712 0.139408 -0.0541773
v -0.216543 0.278605 -0.00879696
v -0.213476 0.278605 -0.0152445
v 0.181601 0.278605 -0.0829706
v 0.234419 0.220138 -0.0406109
v 0.236765 0.20403 -0.0456983
v 0.231893 0.199158 -0.0543363
v 0.240508 0.184926 -0.0440202
v -0.149652 0.137533 -0.0559261
v -0.167288 0.137533 -0.0559261
v 0.184894 0.145627 -0.0482243
v -0.186367 0.128333 -0.042713
v -0.193178 0.123685 -0.0350642
v -0.167288 0.128718 -0.0451683
v 0.236223 0.167183 -0.045027
v 0.233697 0.153753 -0.0398336
v 0.225984 0.142005 -0.0334037
v 0.219895 0.149714 -0.0440202
v 0.214212 0.139953 -0.0364597
v 0.20253 0.146845 -0.0470585
v -0.195163 0.121618 -0.0233349
v -0.213611 0.278605 0.00946822
v -0.19602 0.120432 -0.00879696
v -0.19593 0.120592 0.00879696
v -0.195027 0.121826 0.0212682
v -0.194892 0.137453 0.0406992
v -0.195208 0.152919 0.0554315
v 0.183405 0.278605 -0.0797379
v 0.241907 0.220138 -0.0264086
v 0.244162 0.202524 -0.0264086
v 0.244162 0.184926 -0.0264086
v 0.243936 0.167312 -0.0264086
v -0.149652 0.128718 -0.0451683
v 0.184894 0.137677 -0.0394274
v 0.20253 0.138575 -0.0382615
v -0.181451 0.122852 -0.0359828
v -0.186367 0.12056 -0.0280867
v -0.167288 0.122628 -0.0363537
v 0.2369 0.148608 -0.0270798
v 0.232389 0.138991 -0.0216744
v 0.220121 0.137036 -0.0270798
v 0.20253 0.132404 -0.0264086
v -0.184879 0.116233 -0.00879696
v -0.200305 0.278605 0.0186008
v -0.195163 0.167312 0.0580282
v -0.191239 0.184926 0.0676024
v -0.195433 0.220138 0.0560674
v -0.194847 0.230812 0.0543186
v -0.184879 0.116601 0.00879696
v -0.192637 0.141187 0.0524462
v -0.184879 0.120576 0.0240062
v -0.184879 0.12548 0.0328031
v -0.185646 0.168546 0.0665248
v 0.188908 0.278605 -0.0616141
v 0.234284 0.23296 -0.0264086
v 0.236359 0.235716 -0.00879696
v 0.243981 0.220138 -0.00879696
v 0.244162 0.202524 0.00879696
v 0.244162 0.167312 -0.00879696
v 0.242313 0.149698 -0.00879696
v -0.149652 0.122628 -0.0363537
v 0.184894 0.130721 -0.0264086
v -0.167288 0.118989 -0.0264086
v -0.167288 0.11487 -0.00879696
v 0.220121 0.131539 -0.00879696
v 0.23469 0.137485 -0.00879696
v 0.20253 0.127436 -0.00879696
v -0.0750477 0.278605 0.0889942
v -0.180233 0.175245 0.070729
v -0.182443 0.184926 0.0708703
v -0.180413 0.195231 0.070729
v -0.185736 0.201658 0.0667191
v -0.167288 0.115303 0.00879696
v -0.186006 0.148111 0.0571273
v -0.167288 0.124038 0.033704
v -0.180864 0.140386 0.0532587
v -0.167288 0.120079 0.0249071
v 0.189539 0.278605 -0.0440202
v 0.236133 0.235332 0.00879696
v 0.243801 0.220138 0.00879696
v 0.189675 0.278605 -0.0264086
v 0.18972 0.278605 -0.0172406
v 0.18972 0.278605 0.0178412
v 0.189675 0.278605 0.0355765
v 0.189449 0.278605 0.0542126
v 0.243981 0.202524 0.0264086
v 0.244162 0.184926 0.0264086
v 0.244162 0.167312 0.00879696
v 0.241681 0.149698 0.00879696
v -0.149652 0.118989 -0.0264086
v -0.139142 0.122852 -0.0359828
v 0.184894 0.125865 -0.00879696
v -0.149652 0.11487 -0.00879696
v 0.234058 0.13787 0.00879696
v 0.220121 0.13226 0.00879696
v 0.20253 0.128045 0.00879696
v 0.184894 0.126426 0.00879696
v -0.0757242 0.272964 0.0891355
v -0.0616063 0.272964 0.0902307
v -0.0616063 0.278605 0.0898598
v -0.167288 0.165997 0.067832
v -0.0734239 0.210425 0.0886409
v -0.0753183 0.220138 0.0890472
v -0.0757242 0.237752 0.0891355
v -0.149652 0.115303 0.00879696
v -0.167288 0.149698 0.0596886
v -0.167288 0.132084 0.0440202
v -0.149652 0.124038 0.033704
v -0.167288 0.140129 0.0534884
v -0.149652 0.120079 0.0249071
v 0.233517 0.232527 0.0234056
v 0.237622 0.221853 0.028122
v 0.188953 0.278605 0.0614374
v 0.186157 0.278605 0.0736083
v 0.233743 0.217141 0.039286
v 0.236359 0.202524 0.0425717
v 0.236539 0.184926 0.0435962
v 0.243305 0.167312 0.0264086
v 0.235908 0.149409 0.0261966
v 0.231532 0.13952 0.020173
v 0.218362 0.138174 0.0261966
v 0.20253 0.134424 0.0264086
v 0.184894 0.132693 0.0264086
v -0.0616063 0.237752 0.0902307
v 0.167303 0.272964 0.0902307
v 0.167303 0.278605 0.0898598
v -0.149652 0.165997 0.067832
v -0.0616063 0.209976 0.0889412
v -0.0616063 0.220138 0.0900364
v -0.149652 0.149698 0.0596886
v -0.149652 0.132084 0.0440202
v 0.184894 0.139088 0.0373429
v -0.149652 0.140129 0.0534884
v 0.18354 0.278605 0.0797556
v 0.177857 0.278605 0.0889942
v 0.227518 0.184926 0.0524108
v 0.235682 0.167312 0.0414588
v 0.232886 0.155083 0.0380848
v 0.223098 0.143351 0.0319199
v 0.211325 0.140883 0.0352232
v 0.20253 0.139985 0.0362831
v 0.167303 0.237752 0.0902307
v 0.178128 0.272964 0.0891355
v 0.171272 0.278605 0.0896478
v 0.167303 0.209976 0.0889412
v 0.167303 0.220138 0.0900364
v 0.195358 0.158048 0.0531174
v 0.184894 0.149008 0.0461399
v -0.139323 0.140386 0.0532587
v 0.178128 0.237752 0.0891355
v 0.177993 0.220138 0.0890472
v 0.177226 0.210425 0.0886409
v 0.221023 0.166863 0.0502028
v 0.207085 0.160708 0.0518986
v 0.218362 0.149409 0.0399043
v 0.201718 0.151188 0.0460692
f 1 2 3
f 1 3 4
f 1 4 11
f 1 11 5
f 1 5 15
f 1 15 6
f 1 6 9
f 1 9 2
f 2 7 8
f 2 8 3
f 2 9 21
f 2 21 7
f 3 8 10
f 3 10 4
f 4 10 11
f 5 11 12
f 5 12 13
f 5 13 14
f 5 14 29
f 5 29 15
f 6 15 31
f 6 31 16
f 6 16 17
f 6 17 9
f 7 18 19
f 7 19 20
f 7 20 8
f 7 21 18
f 8 20 22
f 8 22 10
f 9 17 23
f 9 23 21
f 10 22 24
f 10 24 25
f 10 25 26
f 10 26 12
f 10 12 11
f 12 26 27
f 12 27 28
f 12 28 44
f 12 44 43
f 12 43 63
f 12 63 85
f 12 85 109
f 12 109 141
f 12 141 167
f 12 167 185
f 12 185 176
f 12 176 175
f 12 175 155
f 12 155 154
f 12 154 126
f 12 126 125
f 12 125 124
f 12 124 123
f 12 123 122
f 12 122 119
f 12 119 95
f 12 95 69
f 12 69 45
f 12 45 30
f 12 30 29
f 12 29 14
f 12 14 13
f 15 29 30
f 15 30 31
f 16 31 32
f 16 32 17
f 17 32 23
f 18 33 35
f 18 35 19
f 18 21 34
f 18 34 33
f 19 35 36
f 19 36 37
f 19 37 22
f 19 22 20
f 21 23 34
f 22 37 24
f 23 32 38
f 23 38 39
f 23 39 40
f 23 40 41
f 23 41 34
f 24 42 43
f 24 43 25
f 24 37 42
f 25 43 26
f 26 43 44
f 26 44 27
f 27 44 28
f 30 45 46
f 30 46 47
f 30 47 48
f 30 48 32
f 30 32 31
f 32 48 49
f 32 49 38
f 33 50 51
f 33 51 35
f 33 34 50
f 34 41 52
f 34 52 50
f 35 51 36
f 36 53 54
f 36 54 42
f 36 42 37
f 36 51 55
f 36 55 53
f 38 49 56
f 38 56 57
f 38 57 39
f 39 57 58
f 39 58 59
f 39 59 40
f 40 59 60
f 40 60 61
f 40 61 41
f 41 61 52
f 42 54 62
f 42 62 43
f 43 62 64
f 43 64 65
f 43 65 66
f 43 66 67
f 43 67 68
f 43 68 63
f 45 69 46
f 46 70 47
f 46 69 70
f 47 70 49
f 47 49 48
f 49 70 71
f 49 71 72
f 49 72 73
f 49 73 56
f 50 74 55
f 50 55 51
f 50 52 75
f 50 75 74
f 52 61 76
f 52 76 75
f 53 55 77
f 53 77 54
f 54 77 78
f 54 78 62
f 55 79 77
f 55 74 102
f 55 102 79
f 56 73 57
f 57 73 80
f 57 80 81
f 57 81 58
f 58 81 82
f 58 82 60
f 58 60 59
f 60 83 76
f 60 76 61
f 60 82 83
f 62 78 84
f 62 84 64
f 63 68 86
f 63 86 87
f 63 87 88
f 63 88 89
f 63 89 85
f 64 84 65
f 65 84 90
f 65 90 66
f 66 91 67
f 66 90 92
f 66 92 93
f 66 93 91
f 67 91 68
f 68 91 94
f 68 94 87
f 68 87 86
f 69 95 96
f 69 96 70
f 70 96 97
f 70 97 98
f 70 98 71
f 71 98 99
f 71 99 128
f 71 128 129
f 71 129 100
f 71 100 72
f 72 100 73
f 73 100 101
f 73 101 80
f 74 75 102
f 75 76 103
f 75 103 102
f 76 83 103
f 77 79 104
f 77 104 78
f 78 104 105
f 78 105 84
f 79 102 131
f 79 131 104
f 80 101 81
f 81 106 82
f 81 101 107
f 81 107 106
f 82 106 83
f 83 106 108
f 83 108 103
f 84 105 90
f 85 89 109
f 87 94 110
f 87 110 111
f 87 111 112
f 87 112 113
f 87 113 89
f 87 89 88
f 89 113 109
f 90 105 114
f 90 114 92
f 91 115 94
f 91 93 116
f 91 116 117
f 91 117 115
f 92 114 118
f 92 118 116
f 92 116 93
f 94 115 110
f 95 119 97
f 95 97 96
f 97 120 121
f 97 121 98
f 97 119 122
f 97 122 123
f 97 123 124
f 97 124 125
f 97 125 126
f 97 126 120
f 98 121 127
f 98 127 99
f 99 127 128
f 100 129 101
f 101 129 130
f 101 130 107
f 102 103 132
f 102 132 131
f 103 108 133
f 103 133 131
f 103 131 132
f 104 131 134
f 104 134 105
f 105 134 146
f 105 146 114
f 106 107 135
f 106 135 136
f 106 136 137
f 106 137 108
f 107 130 135
f 108 137 138
f 108 138 133
f 109 139 140
f 109 140 141
f 109 113 112
f 109 112 111
f 109 111 139
f 110 115 142
f 110 142 143
f 110 143 144
f 110 144 111
f 111 144 145
f 111 145 139
f 114 146 151
f 114 151 118
f 115 117 147
f 115 147 142
f 116 148 117
f 116 118 151
f 116 151 149
f 116 149 172
f 116 172 148
f 117 148 150
f 117 150 147
f 120 152 153
f 120 153 121
f 120 126 154
f 120 154 155
f 120 155 152
f 121 153 127
f 127 153 156
f 127 156 157
f 127 157 158
f 127 158 128
f 128 158 159
f 128 159 129
f 129 159 130
f 130 159 160
f 130 160 161
f 130 161 135
f 131 133 134
f 133 138 146
f 133 146 134
f 135 161 136
f 136 162 163
f 136 163 137
f 136 161 162
f 137 163 164
f 137 164 138
f 138 164 151
f 138 151 146
f 139 145 165
f 139 165 140
f 140 165 183
f 140 183 166
f 140 166 167
f 140 167 141
f 142 147 171
f 142 171 168
f 142 168 186
f 142 186 169
f 142 169 143
f 143 169 170
f 143 170 144
f 144 170 165
f 144 165 145
f 147 150 174
f 147 174 171
f 148 172 174
f 148 174 150
f 149 151 164
f 149 164 173
f 149 173 172
f 152 155 153
f 153 155 175
f 153 175 156
f 156 175 176
f 156 176 157
f 157 177 158
f 157 176 177
f 158 177 178
f 158 178 159
f 159 178 179
f 159 179 160
f 160 179 161
f 161 179 180
f 161 180 181
f 161 181 162
f 162 181 163
f 163 181 182
f 163 182 164
f 164 182 173
f 165 170 187
f 165 187 183
f 166 183 191
f 166 191 184
f 166 184 176
f 166 176 185
f 166 185 167
f 168 171 186
f 169 186 187
f 169 187 170
f 171 174 186
f 172 173 174
f 173 182 188
f 173 188 189
f 173 189 190
f 173 190 174
f 174 190 188
f 174 188 186
f 176 184 177
f 177 191 192
f 177 192 193
f 177 193 194
f 177 194 178
f 177 184 191
f 178 194 179
f 179 194 195
f 179 195 196
f 179 196 180
f 180 196 181
f 181 197 182
f 181 196 197
f 182 197 188
f 183 187 192
f 183 192 191
f 186 188 193
f 186 193 187
f 187 193 192
f 188 197 195
f 188 195 193
f 188 190 189
f 193 195 194
f 195 197 196
