v 0.343428 0.184922 -0.0488325
v 0.343428 0.16962 -0.041779
v 0.325517 0.184765 -0.0423955
v 0.32581 0.202528 -0.0487962
v 0.396242 0.167307 -0.0483066
v 0.378637 0.167307 -0.0476448
v 0.35939 0.165596 -0.0430664
v 0.33118 0.173254 -0.0388144
v 0.364185 0.156781 -0.0380438
v 0.314577 0.190517 -0.0384155
v 0.308513 0.203927 -0.0406004
v 0.308206 0.220135 -0.0466294
v 0.308206 0.226692 -0.0478533
v 0.41386 0.167307 -0.0479984
v 0.426041 0.157164 -0.0440546
v 0.426041 0.152787 -0.0422142
v 0.41386 0.153147 -0.0420419
v 0.396242 0.153999 -0.0414345
v 0.378637 0.155241 -0.0402106
v 0.32939 0.171754 -0.0264119
v 0.320574 0.180038 -0.0264119
v 0.352458 0.158578 -0.0298661
v 0.378637 0.151873 -0.0264119
v 0.313295 0.188829 -0.0264119
v 0.29903 0.210734 -0.0358679
v 0.296372 0.220135 -0.0389776
v 0.301808 0.226692 -0.0448796
v 0.320735 0.226692 -0.0460582
v 0.426041 0.167307 -0.047391
v 0.426041 0.148653 -0.0312351
v 0.426041 0.146965 -0.0264119
v 0.41386 0.147684 -0.0264119
v 0.396242 0.149372 -0.0264119
v 0.345178 0.162103 -0.0249613
v 0.343402 0.162884 -0.00880548
v 0.32931 0.171691 -0.00880548
v 0.320508 0.179952 -0.00880548
v 0.35939 0.15639 -0.0249613
v 0.352217 0.1585 -0.0181164
v 0.378637 0.151756 -0.00880548
v 0.361019 0.155804 -0.00880548
v 0.313228 0.188743 -0.00880548
v 0.304426 0.201427 -0.00880548
v 0.304493 0.201528 -0.0264119
v 0.298776 0.210335 -0.0264119
v 0.293219 0.220135 -0.0264119
v 0.28972 0.226692 -0.0264119
v 0.291523 0.226692 -0.0335923
v 0.294168 0.226692 -0.0399295
v 0.325971 0.226692 -0.0436648
v 0.426041 0.178506 -0.0403919
v 0.426041 0.170949 -0.0452876
v 0.426041 0.146856 -0.00880548
v 0.41386 0.147575 -0.00880548
v 0.396242 0.149263 -0.00880548
v 0.352204 0.158492 -0.00880548
v 0.343402 0.162884 0.00880096
v 0.32931 0.171691 0.00880096
v 0.320508 0.179952 0.00880096
v 0.378637 0.151756 0.00880096
v 0.361019 0.155804 0.00880096
v 0.313228 0.188743 0.00880096
v 0.304426 0.201427 0.00880096
v 0.298709 0.210234 -0.00880548
v 0.293099 0.220135 -0.00880548
v 0.289666 0.226692 -0.0188054
v 0.333517 0.226692 -0.0268018
v 0.426041 0.179428 -0.0358407
v 0.426041 0.146856 0.00880096
v 0.41386 0.147575 0.00880096
v 0.396242 0.149263 0.00880096
v 0.352204 0.158492 0.00880096
v 0.352217 0.1585 0.0176948
v 0.345178 0.162845 0.024703
v 0.329924 0.172223 0.0264165
v 0.321122 0.180608 0.0264165
v 0.313762 0.189407 0.0264165
v 0.378637 0.152662 0.0264165
v 0.360245 0.156695 0.024703
v 0.298936 0.210601 0.022509
v 0.298709 0.210234 0.00880096
v 0.293099 0.220135 0.00880096
v 0.2896 0.226692 -0.00880548
v 0.333624 0.226692 -0.0264119
v 0.426041 0.180905 -0.0264119
v 0.426041 0.147911 0.0264165
v 0.41386 0.148575 0.0264165
v 0.396242 0.150208 0.0264165
v 0.353873 0.159188 0.0294355
v 0.331901 0.173879 0.0372777
v 0.315192 0.191291 0.0369604
v 0.299537 0.211515 0.0342496
v 0.303918 0.203849 0.0275951
v 0.365601 0.157297 0.0366793
v 0.295049 0.218486 0.0275951
v 0.290601 0.226692 0.027042
v 0.289987 0.226692 0.0160085
v 0.2896 0.226692 0.00880096
v 0.333731 0.226692 -0.00958517
v 0.426041 0.180913 -0.0209813
v 0.426041 0.153733 0.0396077
v 0.41386 0.154046 0.0394808
v 0.396242 0.154835 0.0389821
v 0.378637 0.156031 0.038003
v 0.325944 0.185227 0.039508
v 0.343428 0.170543 0.0392541
v 0.311345 0.202528 0.0390003
v 0.296345 0.223253 0.0379123
v 0.360245 0.165955 0.0400882
v 0.295089 0.226692 0.038139
v 0.333731 0.226692 -0.00880548
v 0.426041 0.180921 -0.00880548
v 0.426041 0.167307 0.0427446
v 0.41386 0.167307 0.0431798
v 0.396242 0.167307 0.0435152
v 0.378637 0.167307 0.0429622
v 0.343428 0.184922 0.0437328
v 0.32581 0.202528 0.0437872
v 0.306523 0.218486 0.0408226
v 0.307244 0.226692 0.0424363
v 0.333718 0.226692 0.00880096
v 0.426041 0.180921 0.0142406
v 0.426041 0.17849 0.0383566
v 0.32565 0.226692 0.0407319
v 0.333317 0.226692 0.0264165
v 0.426041 0.180889 0.0264165
f 1 2 3
f 1 3 4
f 1 4 5
f 1 5 6
f 1 6 7
f 1 7 2
f 2 8 3
f 2 7 9
f 2 9 8
f 3 8 10
f 3 10 11
f 3 11 12
f 3 12 4
f 4 12 13
f 4 13 14
f 4 14 5
f 5 14 15
f 5 15 16
f 5 16 17
f 5 17 6
f 6 17 18
f 6 18 19
f 6 19 7
f 7 19 9
f 8 20 21
f 8 21 10
f 8 9 22
f 8 22 20
f 9 19 23
f 9 23 22
f 10 21 24
f 10 24 25
f 10 25 26
f 10 26 11
f 11 26 12
f 12 26 27
f 12 27 13
f 13 27 49
f 13 49 48
f 13 48 47
f 13 47 66
f 13 66 83
f 13 83 98
f 13 98 97
f 13 97 96
f 13 96 110
f 13 110 120
f 13 120 124
f 13 124 125
f 13 125 121
f 13 121 111
f 13 111 99
f 13 99 84
f 13 84 67
f 13 67 50
f 13 50 28
f 13 28 29
f 13 29 14
f 14 29 15
f 15 29 52
f 15 52 51
f 15 51 68
f 15 68 85
f 15 85 100
f 15 100 112
f 15 112 122
f 15 122 126
f 15 126 123
f 15 123 113
f 15 113 101
f 15 101 86
f 15 86 69
f 15 69 53
f 15 53 31
f 15 31 30
f 15 30 16
f 16 30 17
f 17 30 31
f 17 31 32
f 17 32 18
f 18 32 19
f 19 32 33
f 19 33 23
f 20 22 34
f 20 34 35
f 20 35 36
f 20 36 37
f 20 37 21
f 21 37 42
f 21 42 24
f 22 23 38
f 22 38 39
f 22 39 34
f 23 33 40
f 23 40 41
f 23 41 38
f 24 42 43
f 24 43 44
f 24 44 25
f 25 45 46
f 25 46 47
f 25 47 48
f 25 48 26
f 25 44 45
f 26 48 49
f 26 49 27
f 28 50 51
f 28 51 52
f 28 52 29
f 31 53 54
f 31 54 32
f 32 54 55
f 32 55 33
f 33 55 40
f 34 39 35
f 35 39 56
f 35 56 72
f 35 72 57
f 35 57 58
f 35 58 36
f 36 58 59
f 36 59 37
f 37 59 62
f 37 62 42
f 38 41 39
f 39 41 56
f 40 55 71
f 40 71 60
f 40 60 61
f 40 61 41
f 41 61 72
f 41 72 56
f 42 62 63
f 42 63 43
f 43 63 81
f 43 81 64
f 43 64 45
f 43 45 44
f 45 64 46
f 46 65 66
f 46 66 47
f 46 64 65
f 50 67 51
f 51 67 68
f 53 69 70
f 53 70 54
f 54 70 71
f 54 71 55
f 57 72 73
f 57 73 74
f 57 74 75
f 57 75 58
f 58 75 59
f 59 75 76
f 59 76 77
f 59 77 62
f 60 71 78
f 60 78 79
f 60 79 61
f 61 79 73
f 61 73 72
f 62 77 63
f 63 77 80
f 63 80 81
f 64 81 82
f 64 82 65
f 65 82 98
f 65 98 83
f 65 83 66
f 67 84 85
f 67 85 68
f 69 86 87
f 69 87 70
f 70 87 88
f 70 88 71
f 71 88 78
f 73 79 89
f 73 89 74
f 74 90 75
f 74 89 90
f 75 90 76
f 76 91 77
f 76 90 91
f 77 91 92
f 77 92 93
f 77 93 80
f 78 94 79
f 78 88 94
f 79 94 89
f 80 95 96
f 80 96 97
f 80 97 82
f 80 82 81
f 80 93 92
f 80 92 95
f 82 97 98
f 84 99 85
f 85 99 100
f 86 101 102
f 86 102 87
f 87 102 103
f 87 103 104
f 87 104 88
f 88 104 94
f 89 94 90
f 90 105 91
f 90 94 106
f 90 106 105
f 91 107 108
f 91 108 92
f 91 105 107
f 92 108 96
f 92 96 95
f 94 109 106
f 94 104 109
f 96 108 110
f 99 111 122
f 99 122 112
f 99 112 100
f 101 113 114
f 101 114 115
f 101 115 102
f 102 115 116
f 102 116 103
f 103 116 104
f 104 116 109
f 105 106 117
f 105 117 118
f 105 118 107
f 106 109 117
f 107 119 108
f 107 118 119
f 108 119 110
f 109 116 117
f 110 119 120
f 111 121 122
f 113 123 124
f 113 124 120
f 113 120 118
f 113 118 114
f 114 118 115
f 115 117 116
f 115 118 117
f 118 120 119
f 121 125 126
f 121 126 122
f 123 126 125
f 123 125 124
