v 0.547956 0.144106 -0.0106108
v 0.547956 0.144106 0.00879789
v 0.547956 0.144235 -0.0264121
v 0.64756 -0.466656 -0.0087977
v 0.547956 0.144688 0.0235564
v 0.547956 0.144947 -0.0284319
v 0.649781 -0.466656 -0.0201367
v 0.651405 -0.475652 -0.0179384
v 0.65114 -0.475846 -0.0087977
v 0.651206 -0.475781 0.00284188
v 0.649085 -0.467627 0.00874152
v 0.547956 0.151095 0.0398837
v 0.547956 0.144882 0.0264123
v 0.547956 0.150448 -0.0427958
v 0.660454 -0.466656 -0.024646
v 0.547956 0.156014 -0.0452102
v 0.547956 0.167275 -0.049447
v 0.678055 -0.466656 -0.0266376
v 0.660454 -0.475911 -0.0187087
v 0.660454 -0.476429 -0.0087977
v 0.654289 -0.474099 0.0145754
v 0.660288 -0.47617 0.00874152
v 0.666023 -0.475846 0.0182486
v 0.650345 -0.462384 0.0189907
v 0.547956 0.167275 0.0441488
v 0.695655 -0.449052 -0.0310153
v 0.62522 -0.0969111 -0.0506025
v 0.547956 0.184491 -0.0471548
v 0.554519 0.184491 -0.0498228
v 0.554784 0.184491 -0.0499261
v 0.554784 0.167275 -0.0499637
v 0.713289 -0.449052 -0.0326217
v 0.730857 -0.449052 -0.0326969
v 0.695655 -0.466656 -0.0266845
v 0.678055 -0.47604 -0.0192912
v 0.678055 -0.476687 -0.0087977
v 0.678055 -0.476687 0.00879789
v 0.660288 -0.467627 0.0207663
v 0.678055 -0.466656 0.0234155
v 0.678055 -0.47604 0.0185586
v 0.62522 -0.0969111 0.045107
v 0.60931 -0.0969111 0.0401562
v 0.554784 0.167275 0.0445433
v 0.554353 0.184491 0.0446091
v 0.547956 0.178084 0.0442051
v 0.572385 0.184491 -0.0507058
v 0.62522 -0.0793073 -0.0507152
v 0.783692 -0.0969111 -0.0506213
v 0.547956 0.184491 0.0428242
v 0.836527 -0.449052 -0.0326969
v 0.713289 -0.466656 -0.0267221
v 0.854127 -0.466656 -0.0267221
v 0.871728 -0.47604 -0.0192536
v 0.871728 -0.476623 -0.0087977
v 0.871728 -0.476623 0.00879789
v 0.871728 -0.47604 0.0185398
v 0.695655 -0.466656 0.0234437
v 0.713289 -0.449052 0.0274738
v 0.854127 -0.466656 0.0234718
v 0.713289 -0.466656 0.0234718
v 0.64282 -0.0969111 0.0451258
v 0.62522 -0.0793073 0.0452479
v 0.571954 0.184491 0.0452009
v 0.554784 0.184491 0.0446279
v 0.607619 0.00877645 0.0452479
v 0.748457 0.184491 -0.0507058
v 0.783692 -0.0793073 -0.0507152
v 0.801292 -0.0793073 -0.0507058
v 0.801292 -0.0969111 -0.0501046
v 0.854127 -0.449052 -0.0326217
v 0.871728 -0.466656 -0.0263369
v 0.881174 -0.475846 -0.0187087
v 0.881473 -0.47604 -0.0087977
v 0.881473 -0.47604 0.00879789
v 0.881174 -0.475846 0.0182298
v 0.871728 -0.466656 0.02319
v 0.854127 -0.449052 0.0274738
v 0.783692 -0.0969111 0.0451822
v 0.801292 -0.0793073 0.0452479
v 0.713289 0.0968602 0.0452573
v 0.607619 0.132068 0.0452573
v 0.589985 0.149672 0.0452573
v 0.572385 0.184491 0.0452103
v 0.589985 0.114464 0.0452479
v 0.748888 0.184491 -0.0506119
v 0.801292 -0.044035 -0.0499073
v 0.801292 -0.0617035 -0.0505367
v 0.871728 -0.449052 -0.0307523
v 0.882998 -0.466656 -0.0217807
v 0.88545 -0.466656 -0.0087977
v 0.88545 -0.466656 0.00879789
v 0.882998 -0.466656 0.020259
v 0.871728 -0.449052 0.026121
v 0.801292 -0.0969111 0.0448346
v 0.820484 -0.0784012 0.0396959
v 0.801292 -0.0617035 0.0451258
v 0.748457 0.184491 0.0452573
v 0.748457 0.0968602 0.0452573
v 0.589985 0.184491 0.0452573
v 0.766091 0.184491 -0.0468542
v 0.801292 -0.0264312 -0.048423
v 0.818893 -0.0793073 -0.0447123
v 0.883561 -0.449052 -0.0232838
v 0.886577 -0.449052 -0.0087977
v 0.886577 -0.449052 0.00879789
v 0.883561 -0.449052 0.021189
v 0.828306 -0.0836435 0.0359945
v 0.817269 -0.0617035 0.0401092
v 0.801292 -0.044035 0.0446091
v 0.766091 0.184491 0.0421572
v 0.777162 0.184491 -0.0391038
v 0.816042 -0.044035 -0.042157
v 0.828671 -0.0793073 -0.0369619
v 0.827909 -0.0695993 -0.0356373
v 0.829698 -0.0793073 -0.0264121
v 0.829831 -0.0793073 -0.0087977
v 0.881639 -0.431448 0.0191035
v 0.829831 -0.0793073 0.00879789
v 0.828008 -0.0692757 0.0211139
v 0.827411 -0.0719292 0.0328568
v 0.776433 0.184491 0.0371406
v 0.815114 -0.044035 0.0395925
v 0.777228 0.184491 -0.0388032
v 0.828074 -0.0689521 -0.0264121
v 0.779581 0.184491 -0.0264121
v 0.828141 -0.0686933 -0.0087977
v 0.828141 -0.0686933 0.00879789
v 0.779714 0.184491 0.00879789
v 0.778819 0.184491 0.0264123
v 0.778786 0.184491 0.0266659
v 0.779714 0.184491 -0.0087977
f 1 2 5
f 1 5 13
f 1 13 12
f 1 12 25
f 1 25 45
f 1 45 49
f 1 49 28
f 1 28 17
f 1 17 16
f 1 16 14
f 1 14 6
f 1 6 3
f 1 3 4
f 1 4 2
f 2 4 5
f 3 6 4
f 4 7 8
f 4 8 9
f 4 9 10
f 4 10 11
f 4 11 12
f 4 12 13
f 4 13 5
f 4 6 14
f 4 14 7
f 7 15 8
f 7 14 16
f 7 16 17
f 7 17 15
f 8 15 18
f 8 18 19
f 8 19 20
f 8 20 9
f 9 20 10
f 10 21 11
f 10 20 22
f 10 22 23
f 10 23 21
f 11 21 24
f 11 24 12
f 12 24 25
f 15 26 18
f 15 17 27
f 15 27 26
f 17 28 29
f 17 29 30
f 17 30 31
f 17 31 27
f 18 26 32
f 18 32 33
f 18 33 34
f 18 34 35
f 18 35 19
f 19 35 36
f 19 36 20
f 20 36 37
f 20 37 22
f 21 38 24
f 21 23 38
f 22 37 23
f 23 39 38
f 23 37 40
f 23 40 39
f 24 38 41
f 24 41 42
f 24 42 25
f 25 42 41
f 25 41 43
f 25 43 44
f 25 44 45
f 26 27 32
f 27 31 46
f 27 46 47
f 27 47 48
f 27 48 33
f 27 33 32
f 28 49 44
f 28 44 64
f 28 64 63
f 28 63 83
f 28 83 99
f 28 99 97
f 28 97 110
f 28 110 121
f 28 121 130
f 28 130 129
f 28 129 128
f 28 128 131
f 28 131 125
f 28 125 123
f 28 123 111
f 28 111 100
f 28 100 85
f 28 85 66
f 28 66 46
f 28 46 30
f 28 30 29
f 30 46 31
f 33 50 52
f 33 52 51
f 33 51 34
f 33 48 50
f 34 51 35
f 35 51 52
f 35 52 53
f 35 53 36
f 36 54 55
f 36 55 37
f 36 53 54
f 37 55 56
f 37 56 40
f 38 39 41
f 39 40 57
f 39 57 58
f 39 58 41
f 40 56 59
f 40 59 60
f 40 60 57
f 41 61 62
f 41 62 43
f 41 58 61
f 43 63 64
f 43 64 44
f 43 62 65
f 43 65 63
f 44 49 45
f 46 66 67
f 46 67 47
f 47 67 48
f 48 67 68
f 48 68 69
f 48 69 70
f 48 70 50
f 50 70 52
f 52 70 71
f 52 71 53
f 53 71 72
f 53 72 54
f 54 72 73
f 54 73 74
f 54 74 55
f 55 74 75
f 55 75 56
f 56 75 76
f 56 76 59
f 57 60 58
f 58 60 59
f 58 59 77
f 58 77 78
f 58 78 61
f 59 76 77
f 61 78 62
f 62 78 79
f 62 79 98
f 62 98 80
f 62 80 81
f 62 81 82
f 62 82 65
f 63 65 83
f 65 82 84
f 65 84 83
f 66 85 86
f 66 86 87
f 66 87 68
f 66 68 67
f 68 87 88
f 68 88 70
f 68 70 69
f 70 88 71
f 71 88 89
f 71 89 72
f 72 89 90
f 72 90 73
f 73 90 91
f 73 91 74
f 74 91 75
f 75 91 92
f 75 92 76
f 76 92 93
f 76 93 77
f 77 93 94
f 77 94 78
f 78 94 79
f 79 94 93
f 79 93 95
f 79 95 96
f 79 96 97
f 79 97 98
f 80 98 97
f 80 97 99
f 80 99 82
f 80 82 81
f 82 99 83
f 82 83 84
f 85 100 86
f 86 101 102
f 86 102 87
f 86 100 101
f 87 102 88
f 88 103 89
f 88 102 103
f 89 103 104
f 89 104 90
f 90 104 105
f 90 105 91
f 91 105 92
f 92 105 106
f 92 106 93
f 93 106 95
f 95 107 108
f 95 108 109
f 95 109 96
f 95 106 107
f 96 109 97
f 97 109 110
f 100 111 112
f 100 112 102
f 100 102 101
f 102 112 113
f 102 113 103
f 103 113 114
f 103 114 104
f 104 114 115
f 104 115 116
f 104 116 118
f 104 118 105
f 105 117 106
f 105 118 119
f 105 119 120
f 105 120 117
f 106 117 107
f 107 120 121
f 107 121 122
f 107 122 108
f 107 117 120
f 108 122 110
f 108 110 109
f 110 122 121
f 111 123 114
f 111 114 113
f 111 113 112
f 114 124 115
f 114 123 125
f 114 125 124
f 115 124 116
f 116 124 126
f 116 126 127
f 116 127 118
f 118 127 119
f 119 127 128
f 119 128 129
f 119 129 120
f 120 129 130
f 120 130 121
f 124 125 131
f 124 131 126
f 126 131 128
f 126 128 127
