v -0.132151 0.476017 0.00237531
v -0.123001 0.475766 0.00130202
v -0.123001 0.475766 -0.00459226
v -0.132714 0.475921 -0.00980035
v -0.142991 0.475902 0.00186506
v -0.85407 0.427205 0.0424741
v -0.85407 0.42135 0.0512715
v -0.132151 0.468945 0.0111903
v 0.547956 0.435805 0.0460458
v 0.547956 0.441099 0.0372484
v 0.547956 0.441621 0.0305975
v 0.547956 0.44193 0.0264099
v 0.547956 0.44193 -0.0264099
v -0.138909 0.475534 -0.0176477
v -0.141161 0.475534 -0.0176477
v -0.142569 0.475824 -0.00879744
v 0.547956 0.441428 -0.0341869
v -0.127224 0.475225 -0.0163281
v -0.864629 0.44079 -0.00397644
v -0.864629 0.44079 0.00290316
v -0.85407 0.439476 0.013161
v -0.85407 0.435225 0.0264099
v -0.871668 0.42564 0.0399932
v -0.871668 0.419186 0.0487906
v -0.871668 0.410374 0.0572889
v -0.85407 0.412539 0.0591188
v 0.396195 0.426993 0.0562508
v 0.413793 0.426993 0.0562684
v 0.547956 0.426993 0.0562684
v 0.547956 0.441099 -0.0390782
v 0.547956 0.438587 -0.0478933
v 0.547956 0.433177 -0.0544034
v 0.547956 0.429776 -0.0584854
v 0.413793 0.429776 -0.0584854
v 0.396195 0.429756 -0.0584678
v -0.85407 0.404809 -0.0703092
v -0.85407 0.413853 -0.0624794
v -0.85407 0.423495 -0.0538052
v -0.85407 0.429428 -0.0440224
v -0.85407 0.437022 -0.0264099
v -0.85407 0.439901 -0.0147621
v -0.871668 0.433524 -0.0264099
v -0.870964 0.43735 -0.00943086
v -0.870964 0.437041 0.00877985
v -0.871668 0.431824 0.0264099
v -0.881381 0.423611 0.0367381
v -0.881804 0.407147 0.0545793
v -0.871949 0.396017 0.066192
v -0.866318 0.390007 0.0715056
v -0.85407 0.400094 0.0679163
v 0.396195 0.407089 0.0720511
v 0.396195 0.415901 0.0650659
v 0.413793 0.407109 0.0720686
v 0.547956 0.422722 0.0596643
v 0.547956 0.409949 -0.074444
v 0.413793 0.409949 -0.074444
v 0.396195 0.409911 -0.0744088
v -0.85407 0.396017 -0.0744088
v -0.871668 0.392944 -0.0729836
v -0.871668 0.401737 -0.068233
v -0.864629 0.423225 -0.0534884
v 0.396195 0.396249 -0.0809541
v -0.870964 0.426413 -0.0441456
v -0.881945 0.424404 -0.0383569
v -0.883352 0.426336 -0.0264099
v -0.884056 0.427998 -0.00879744
v -0.884056 0.427824 0.00879744
v -0.882789 0.425544 0.0264099
v -0.887435 0.413853 0.0264099
v -0.883634 0.41335 0.0431778
v -0.888139 0.396249 0.0440224
v -0.883493 0.396249 0.0575881
v -0.881381 0.372944 0.0712593
v -0.878143 0.384654 0.0691655
v -0.85407 0.378625 0.0759923
v -0.85407 0.391302 0.0720335
v -0.871949 0.378722 0.0731419
v 0.396195 0.396249 0.0763794
v 0.547956 0.402915 0.0737402
v 0.547956 0.407109 0.0720686
v 0.547956 0.396249 -0.0809893
v 0.413793 0.396249 -0.0809893
v -0.85407 0.378625 -0.0807429
v -0.871668 0.378625 -0.077699
v -0.881241 0.38906 -0.0711713
v -0.882367 0.408616 -0.0558638
v -0.870964 0.414239 -0.058503
v -0.876313 0.420346 -0.0500926
v 0.255275 0.378625 -0.0835053
v -0.884479 0.414239 -0.0441456
v -0.888139 0.413853 -0.0264099
v -0.888983 0.413853 -0.00879744
v -0.888843 0.413853 0.00879744
v -0.889969 0.396249 0.0264099
v -0.88659 0.361041 0.0616349
v -0.884479 0.378722 0.0626202
v -0.889687 0.378625 0.0440224
v -0.881804 0.361041 0.071664
v -0.871668 0.361041 0.0756228
v -0.85407 0.361041 0.07835
v 0.255275 0.378625 0.0790714
v 0.547956 0.396249 0.0763794
v 0.547956 0.385427 -0.0825376
v -0.85407 0.361041 -0.0831006
v -0.871668 0.361041 -0.0798808
v -0.882508 0.378625 -0.0725437
v -0.887153 0.378625 -0.0616349
v -0.883915 0.395456 -0.0616877
v 0.547956 0.378625 -0.0835053
v -0.0617614 0.278605 -0.0898747
v -0.0617614 0.29018 -0.0891357
v -0.888983 0.396249 -0.0440224
v -0.89011 0.396249 -0.0264099
v -0.890251 0.396249 -0.00879744
v -0.890251 0.396249 0.00879744
v -0.890251 0.378625 0.0264099
v -0.89011 0.361041 0.0440224
v -0.884479 0.343108 0.0627961
v -0.881381 0.348751 0.0712593
v -0.889687 0.343437 0.0440224
v -0.88842 0.325813 0.0440224
v -0.872372 0.343108 0.0732651
v -0.85407 0.343437 0.0762738
v -0.0617614 0.278605 0.0898747
v -0.0617614 0.29018 0.0891357
v 0.547956 0.378625 0.0790714
v -0.85407 0.343437 -0.0810244
v -0.871668 0.343437 -0.0779629
v -0.882508 0.343437 -0.0726669
v -0.883212 0.361041 -0.0735466
v -0.888139 0.361041 -0.0616349
v -0.89011 0.378625 -0.0440224
v 0.547956 0.343437 -0.0835053
v 0.167287 0.278605 -0.0898747
v -0.0665479 0.278605 -0.0896635
v -0.85407 0.325813 -0.0751478
v -0.890251 0.361041 -0.0440224
v -0.890251 0.343437 0.0264099
v -0.89011 0.325813 0.0264099
v -0.883634 0.325813 0.0580455
v -0.878707 0.337002 0.0694294
v -0.887857 0.308209 0.0264099
v -0.884056 0.308441 0.0435825
v -0.882085 0.314451 0.0549312
v -0.866881 0.331417 0.0716816
v -0.85407 0.329794 0.072315
v -0.0751355 0.278605 0.0889949
v 0.167287 0.278605 0.0898747
v -0.85407 0.321002 0.0685497
v -0.85407 0.308751 0.0597346
v 0.167287 0.29018 0.0891357
v 0.547956 0.343437 0.0790714
v -0.863784 0.316596 -0.0707314
v -0.870541 0.326297 -0.0728604
v -0.881381 0.33248 -0.0713473
v -0.887294 0.343437 -0.0616349
v -0.89011 0.343437 -0.0440224
v 0.547956 0.332615 -0.0827487
v 0.177846 0.278605 -0.0889949
v 0.547956 0.325813 -0.0822561
v 0.547956 0.311147 -0.0757284
v -0.0751355 0.278605 -0.0889949
v -0.85407 0.297813 -0.0546497
v -0.85407 0.307591 -0.0634472
v -0.890251 0.325813 -0.0264099
v -0.890251 0.325813 0.00879744
v -0.889265 0.308209 -0.00879744
v -0.889124 0.308209 0.00879744
v -0.872372 0.325659 0.0668078
v -0.884338 0.293369 0.00879744
v -0.883212 0.295804 0.0264099
v -0.881663 0.298006 0.0374067
v -0.871668 0.302161 0.0497583
v -0.871668 0.310953 0.057852
v -0.85407 0.299939 0.052204
v -0.85407 0.294084 0.0434066
v -0.85407 0.285291 0.0264099
v -0.85407 0.281813 0.0175245
v -0.85407 0.280248 0.00872706
v -0.85407 0.279842 -0.00879744
v -0.200289 0.278605 0.0185978
v 0.171229 0.278605 0.0896635
v 0.547956 0.325813 0.077787
v 0.547956 0.336635 0.0785788
v -0.866036 0.298335 -0.0540339
v -0.870823 0.308847 -0.0610015
v -0.875609 0.320751 -0.067969
v -0.882508 0.312847 -0.0562333
v -0.884056 0.326297 -0.0619164
v -0.889124 0.325813 -0.0440224
v 0.547956 0.278605 -0.0514826
v -0.213381 0.278605 -0.0152548
v -0.85407 0.281388 -0.0191784
v -0.85407 0.2839 -0.0279935
v -0.85407 0.291108 -0.0440224
v -0.88842 0.308209 -0.0264099
v -0.884338 0.293156 -0.00879744
v -0.875046 0.284345 -0.00879744
v -0.87209 0.284016 0.0105217
v -0.871668 0.28875 0.0264099
v -0.871668 0.295688 0.0409609
v -0.866459 0.28077 0.00580631
v -0.216478 0.278605 -0.00879744
v -0.213522 0.278605 0.00946605
v -0.866177 0.280828 -0.00879744
v -0.863784 0.281523 -0.0186506
v 0.177846 0.278605 0.0889949
v 0.547956 0.313369 0.0734762
v 0.547956 0.321021 0.0761331
v -0.871808 0.294799 -0.0446206
v -0.877862 0.301098 -0.050902
v -0.882226 0.297253 -0.0391662
v -0.884619 0.307475 -0.0446206
v 0.547956 0.278605 0.0465561
v -0.883634 0.295031 -0.0264099
v -0.870541 0.28618 -0.0252839
f 1 2 3
f 1 3 4
f 1 4 5
f 1 5 6
f 1 6 7
f 1 7 8
f 1 8 9
f 1 9 10
f 1 10 2
f 2 10 11
f 2 11 12
f 2 12 13
f 2 13 3
f 3 13 4
f 4 14 15
f 4 15 16
f 4 16 5
f 4 13 17
f 4 17 18
f 4 18 14
f 5 16 19
f 5 19 20
f 5 20 21
f 5 21 22
f 5 22 6
f 6 22 23
f 6 23 7
f 7 23 24
f 7 24 25
f 7 25 26
f 7 26 27
f 7 27 8
f 8 27 28
f 8 28 29
f 8 29 9
f 9 29 54
f 9 54 80
f 9 80 79
f 9 79 102
f 9 102 126
f 9 126 152
f 9 152 184
f 9 184 183
f 9 183 209
f 9 209 208
f 9 208 214
f 9 214 191
f 9 191 161
f 9 161 160
f 9 160 158
f 9 158 133
f 9 133 109
f 9 109 103
f 9 103 81
f 9 81 55
f 9 55 33
f 9 33 32
f 9 32 31
f 9 31 30
f 9 30 17
f 9 17 13
f 9 13 12
f 9 12 11
f 9 11 10
f 14 18 30
f 14 30 31
f 14 31 32
f 14 32 33
f 14 33 34
f 14 34 15
f 15 34 35
f 15 35 36
f 15 36 37
f 15 37 38
f 15 38 39
f 15 39 40
f 15 40 41
f 15 41 19
f 15 19 16
f 17 30 18
f 19 41 40
f 19 40 42
f 19 42 43
f 19 43 20
f 20 43 44
f 20 44 45
f 20 45 22
f 20 22 21
f 22 45 23
f 23 45 46
f 23 46 24
f 24 46 47
f 24 47 25
f 25 47 48
f 25 48 49
f 25 49 50
f 25 50 26
f 26 50 51
f 26 51 52
f 26 52 27
f 27 52 28
f 28 52 53
f 28 53 54
f 28 54 29
f 33 55 56
f 33 56 34
f 34 56 35
f 35 56 57
f 35 57 36
f 36 58 59
f 36 59 60
f 36 60 61
f 36 61 37
f 36 57 62
f 36 62 58
f 37 61 38
f 38 61 39
f 39 61 63
f 39 63 40
f 40 63 42
f 42 63 64
f 42 64 65
f 42 65 43
f 43 65 66
f 43 66 67
f 43 67 44
f 44 67 68
f 44 68 46
f 44 46 45
f 46 68 69
f 46 69 70
f 46 70 47
f 47 70 71
f 47 71 72
f 47 72 73
f 47 73 74
f 47 74 48
f 48 74 49
f 49 75 76
f 49 76 50
f 49 74 77
f 49 77 75
f 50 76 51
f 51 78 53
f 51 53 52
f 51 76 78
f 53 78 79
f 53 79 80
f 53 80 54
f 55 81 82
f 55 82 56
f 56 82 62
f 56 62 57
f 58 83 59
f 58 62 83
f 59 83 84
f 59 84 85
f 59 85 60
f 60 85 86
f 60 86 87
f 60 87 61
f 61 87 88
f 61 88 63
f 62 82 89
f 62 89 83
f 63 88 64
f 64 88 86
f 64 86 90
f 64 90 91
f 64 91 65
f 65 91 66
f 66 91 92
f 66 92 67
f 67 92 93
f 67 93 69
f 67 69 68
f 69 93 94
f 69 94 71
f 69 71 70
f 71 95 96
f 71 96 72
f 71 94 97
f 71 97 95
f 72 96 73
f 73 96 95
f 73 95 98
f 73 98 99
f 73 99 77
f 73 77 74
f 75 77 99
f 75 99 100
f 75 100 101
f 75 101 78
f 75 78 76
f 78 101 126
f 78 126 102
f 78 102 79
f 81 103 82
f 82 103 89
f 83 104 84
f 83 89 104
f 84 104 105
f 84 105 106
f 84 106 85
f 85 106 107
f 85 107 108
f 85 108 86
f 86 88 87
f 86 108 90
f 89 103 109
f 89 109 134
f 89 134 110
f 89 110 111
f 89 111 104
f 90 112 91
f 90 108 112
f 91 112 113
f 91 113 92
f 92 113 114
f 92 114 115
f 92 115 93
f 93 115 94
f 94 115 116
f 94 116 117
f 94 117 97
f 95 118 119
f 95 119 98
f 95 97 117
f 95 117 120
f 95 120 121
f 95 121 118
f 98 119 99
f 99 119 122
f 99 122 123
f 99 123 100
f 100 123 124
f 100 124 125
f 100 125 101
f 101 125 151
f 101 151 126
f 104 127 128
f 104 128 105
f 104 111 110
f 104 110 127
f 105 128 129
f 105 129 130
f 105 130 106
f 106 130 107
f 107 131 132
f 107 132 112
f 107 112 108
f 107 130 131
f 109 133 134
f 110 134 159
f 110 159 191
f 110 191 214
f 110 214 207
f 110 207 182
f 110 182 148
f 110 148 124
f 110 124 147
f 110 147 181
f 110 181 204
f 110 204 203
f 110 203 192
f 110 192 162
f 110 162 135
f 110 135 136
f 110 136 127
f 112 132 113
f 113 132 137
f 113 137 114
f 114 137 165
f 114 165 166
f 114 166 138
f 114 138 116
f 114 116 115
f 116 138 117
f 117 138 139
f 117 139 120
f 118 121 140
f 118 140 119
f 119 141 122
f 119 140 141
f 120 139 121
f 121 142 143
f 121 143 144
f 121 144 140
f 121 139 142
f 122 141 145
f 122 145 123
f 123 145 146
f 123 146 124
f 124 148 151
f 124 151 125
f 124 146 149
f 124 149 150
f 124 150 147
f 126 151 148
f 126 148 152
f 127 136 153
f 127 153 154
f 127 154 128
f 128 155 129
f 128 154 155
f 129 155 156
f 129 156 130
f 130 156 131
f 131 156 157
f 131 157 137
f 131 137 132
f 133 158 134
f 134 158 160
f 134 160 161
f 134 161 159
f 135 162 163
f 135 163 164
f 135 164 153
f 135 153 136
f 137 157 165
f 138 166 139
f 139 166 167
f 139 167 168
f 139 168 142
f 140 144 141
f 141 144 169
f 141 169 145
f 142 170 171
f 142 171 172
f 142 172 143
f 142 168 170
f 143 172 144
f 144 172 173
f 144 173 174
f 144 174 169
f 145 149 146
f 145 169 149
f 147 150 175
f 147 175 176
f 147 176 177
f 147 177 178
f 147 178 179
f 147 179 180
f 147 180 181
f 148 182 183
f 148 183 184
f 148 184 152
f 149 169 174
f 149 174 150
f 150 174 175
f 153 164 163
f 153 163 185
f 153 185 186
f 153 186 187
f 153 187 154
f 154 187 155
f 155 188 189
f 155 189 156
f 155 187 188
f 156 189 190
f 156 190 157
f 157 190 165
f 159 161 191
f 162 192 180
f 162 180 193
f 162 193 194
f 162 194 195
f 162 195 163
f 163 195 185
f 165 190 196
f 165 196 167
f 165 167 166
f 167 197 170
f 167 170 168
f 167 196 197
f 170 197 198
f 170 198 199
f 170 199 171
f 171 199 172
f 172 199 200
f 172 200 201
f 172 201 173
f 173 201 175
f 173 175 174
f 175 201 176
f 176 201 177
f 177 201 200
f 177 200 178
f 178 200 202
f 178 202 179
f 179 202 180
f 180 192 203
f 180 203 204
f 180 204 181
f 180 202 205
f 180 205 206
f 180 206 193
f 182 207 208
f 182 208 209
f 182 209 183
f 185 195 210
f 185 210 211
f 185 211 186
f 186 211 187
f 187 211 188
f 188 211 212
f 188 212 213
f 188 213 189
f 189 213 190
f 190 213 196
f 193 206 194
f 194 206 195
f 195 206 210
f 196 213 212
f 196 212 215
f 196 215 197
f 197 215 198
f 198 202 199
f 198 215 212
f 198 212 216
f 198 216 206
f 198 206 205
f 198 205 202
f 199 202 200
f 206 216 210
f 207 214 208
f 210 212 211
f 210 216 212
