v 0.308201 0.2786 -0.051506
v 0.308201 0.237754 -0.0499259
v 0.298439 0.2786 -0.0514964
v 0.325822 0.2786 -0.0509279
v 0.308201 0.226692 -0.0478544
v 0.281533 0.2786 -0.050504
v 0.2906 0.2786 -0.0512941
v 0.433209 0.2786 -0.0462647
v 0.32073 0.226692 -0.0460623
v 0.301809 0.226692 -0.0448773
v 0.264444 0.2786 -0.045359
v 0.433209 0.2786 0.0423086
v 0.433209 0.278285 -0.0459082
v 0.325968 0.226692 -0.0436633
v 0.294171 0.226692 -0.0399346
v 0.257264 0.2786 -0.0394432
v 0.315363 0.2786 0.0468948
v 0.308201 0.237754 0.0446114
v 0.307249 0.226692 0.0424339
v 0.325657 0.226692 0.0407285
v 0.433209 0.276151 0.040295
v 0.433209 0.275607 -0.0428347
v 0.433209 0.274982 -0.041216
v 0.433209 0.269438 -0.0264169
v 0.333514 0.226692 -0.0268022
v 0.291515 0.226692 -0.0335948
v 0.247593 0.2786 -0.0309452
v 0.308201 0.2786 0.0469237
v 0.2906 0.2786 0.0467021
v 0.272888 0.2786 0.0433203
v 0.295087 0.226692 0.0381367
v 0.333313 0.226692 0.0264111
v 0.433209 0.269982 0.0264111
v 0.433209 0.269438 0.00879858
v 0.333734 0.226692 -0.00958474
v 0.333624 0.226692 -0.0264169
v 0.28972 0.226692 -0.0264169
v 0.246696 0.2786 -0.0264169
v 0.258345 0.2786 0.03805
v 0.2906 0.226692 0.027047
v 0.247575 0.2786 0.0264111
v 0.333331 0.226692 0.0258812
v 0.333716 0.226692 0.00879858
v 0.333734 0.226692 -0.00880432
v 0.289592 0.226692 -0.00880432
v 0.24611 0.2786 -0.0180731
v 0.246091 0.2786 0.00879858
v 0.289592 0.226692 0.00879858
f 1 2 3
f 1 3 7
f 1 7 6
f 1 6 11
f 1 11 16
f 1 16 27
f 1 27 38
f 1 38 46
f 1 46 47
f 1 47 41
f 1 41 39
f 1 39 30
f 1 30 29
f 1 29 28
f 1 28 17
f 1 17 12
f 1 12 8
f 1 8 4
f 1 4 2
f 2 5 6
f 2 6 7
f 2 7 3
f 2 4 8
f 2 8 5
f 5 8 9
f 5 9 14
f 5 14 25
f 5 25 36
f 5 36 35
f 5 35 44
f 5 44 43
f 5 43 42
f 5 42 32
f 5 32 20
f 5 20 19
f 5 19 31
f 5 31 40
f 5 40 48
f 5 48 45
f 5 45 37
f 5 37 26
f 5 26 15
f 5 15 10
f 5 10 11
f 5 11 6
f 8 12 21
f 8 21 33
f 8 33 34
f 8 34 24
f 8 24 23
f 8 23 22
f 8 22 13
f 8 13 14
f 8 14 9
f 10 15 11
f 11 15 16
f 12 17 18
f 12 18 19
f 12 19 20
f 12 20 21
f 13 22 14
f 14 22 23
f 14 23 24
f 14 24 25
f 15 26 27
f 15 27 16
f 17 28 18
f 18 28 29
f 18 29 30
f 18 30 19
f 19 30 31
f 20 32 33
f 20 33 21
f 24 34 44
f 24 44 35
f 24 35 36
f 24 36 25
f 26 37 27
f 27 37 38
f 30 39 31
f 31 39 41
f 31 41 40
f 32 42 34
f 32 34 33
f 34 42 43
f 34 43 44
f 37 45 46
f 37 46 38
f 40 41 47
f 40 47 48
f 45 48 47
f 45 47 46
