v 0.818924 0.474415 0.02641
v 0.818924 0.466184 0.0414184
v 0.830614 0.463346 0.0392857
v 0.832092 0.466042 0.02641
v 0.818924 0.474387 -0.026414
v 0.547956 0.441946 0.0087914
v 0.547956 0.441946 0.02641
v 0.547956 0.441094 0.0372485
v 0.76609 0.407092 0.0720719
v 0.78369 0.407064 0.0720401
v 0.801291 0.406582 0.0716899
v 0.810781 0.405758 0.0710533
v 0.547956 0.435815 0.0460499
v 0.547956 0.432409 0.0499969
v 0.547956 0.426988 0.0562677
v 0.547956 0.412513 0.0677747
v 0.547956 0.407092 0.0720719
v 0.881971 0.290612 0.0371212
v 0.880821 0.299637 0.0355774
v 0.813079 0.39625 0.0730268
v 0.880953 0.299751 0.02641
v 0.880953 0.299751 -0.026414
v 0.832092 0.465985 -0.026414
v 0.830121 0.462523 -0.0440166
v 0.818924 0.467348 -0.0440166
v 0.547956 0.438568 -0.0478841
v 0.547956 0.439562 -0.0444941
v 0.547956 0.441094 -0.0390828
v 0.547956 0.441917 -0.026414
v 0.76609 0.39625 0.076385
v 0.78369 0.39625 0.0763532
v 0.801291 0.39625 0.0759871
v 0.547956 0.39625 0.076385
v 0.8822 0.278691 0.0373758
v 0.883415 0.290612 0.02641
v 0.814984 0.378625 0.0747139
v 0.801291 0.378625 0.079027
v 0.883415 0.290612 -0.026414
v 0.880821 0.299637 -0.0358678
v 0.82802 0.458634 -0.0530249
v 0.818924 0.45906 -0.0531363
v 0.80904 0.458691 -0.0530408
v 0.547956 0.42977 -0.0584839
v 0.547956 0.433176 -0.0543936
v 0.78369 0.378625 0.0790589
v 0.547956 0.389439 0.0774195
v 0.882988 0.276847 0.02641
v 0.814984 0.343403 0.0747139
v 0.814097 0.325834 0.0740773
v 0.812193 0.31468 0.072438
v 0.76609 0.184519 0.0421505
v 0.776434 0.184519 0.0371371
v 0.882988 0.276534 0.0087914
v 0.801291 0.343403 0.079027
v 0.78369 0.361028 0.0790748
v 0.882988 0.276534 -0.00879536
v 0.882988 0.276591 -0.026414
v 0.8822 0.278379 -0.0387486
v 0.881971 0.290612 -0.0383507
v 0.815017 0.39625 -0.0749407
v 0.801291 0.39625 -0.0801769
v 0.78369 0.39625 -0.0809568
v 0.76609 0.39625 -0.0809886
v 0.547956 0.39625 -0.0809886
v 0.547956 0.409959 -0.0744473
v 0.547956 0.378625 0.0790589
v 0.778798 0.184519 0.0266646
v 0.778831 0.184519 0.02641
v 0.779717 0.184519 0.0087914
v 0.801291 0.325834 0.0777379
v 0.765663 0.184519 0.0422301
v 0.78369 0.343403 0.0790748
v 0.779717 0.184519 -0.00879536
v 0.779586 0.184519 -0.026414
v 0.777189 0.184519 -0.0390987
v 0.813079 0.313488 -0.0736038
v 0.801291 0.325834 -0.0815616
v 0.815542 0.325834 -0.0756887
v 0.816494 0.343403 -0.0761821
v 0.816494 0.361028 -0.0761662
v 0.816494 0.378625 -0.0761503
v 0.76609 0.184519 -0.0468496
v 0.801291 0.378625 -0.0826597
v 0.78369 0.378625 -0.0834714
v 0.76609 0.378625 -0.0835192
v 0.547956 0.378625 -0.0835192
v 0.547956 0.343403 0.0790589
v 0.78369 0.325834 0.0777856
v 0.748457 0.184519 0.0452541
v 0.547956 0.336619 0.0785814
v 0.801291 0.343403 -0.0826757
v 0.748457 0.184519 -0.0507012
v 0.78369 0.325834 -0.0822141
v 0.78369 0.343403 -0.0834714
v 0.76609 0.343403 -0.0835192
v 0.547956 0.343403 -0.0835192
v 0.547956 0.325834 0.0777856
v 0.589987 0.184519 0.0452541
v 0.76609 0.325834 -0.0822619
v 0.572386 0.184519 -0.0507012
v 0.547956 0.325834 -0.0822619
v 0.547956 0.184519 0.042819
v 0.554359 0.184519 0.0446015
v 0.554786 0.184519 0.0446334
v 0.57196 0.184519 0.0452063
v 0.554786 0.184519 -0.0499213
v 0.55449 0.184519 -0.0498099
v 0.547956 0.184519 -0.047152
f 1 2 3
f 1 3 4
f 1 4 5
f 1 5 6
f 1 6 7
f 1 7 8
f 1 8 2
f 2 9 10
f 2 10 11
f 2 11 12
f 2 12 3
f 2 8 13
f 2 13 14
f 2 14 15
f 2 15 16
f 2 16 17
f 2 17 9
f 3 18 19
f 3 19 4
f 3 12 20
f 3 20 18
f 4 19 21
f 4 21 22
f 4 22 23
f 4 23 5
f 5 23 24
f 5 24 25
f 5 25 26
f 5 26 27
f 5 27 28
f 5 28 29
f 5 29 6
f 6 29 28
f 6 28 27
f 6 27 26
f 6 26 44
f 6 44 43
f 6 43 65
f 6 65 64
f 6 64 86
f 6 86 96
f 6 96 101
f 6 101 108
f 6 108 102
f 6 102 97
f 6 97 90
f 6 90 87
f 6 87 66
f 6 66 46
f 6 46 33
f 6 33 17
f 6 17 16
f 6 16 15
f 6 15 14
f 6 14 13
f 6 13 8
f 6 8 7
f 9 30 31
f 9 31 10
f 9 17 33
f 9 33 30
f 10 31 32
f 10 32 11
f 11 32 12
f 12 32 20
f 18 34 35
f 18 35 19
f 18 20 36
f 18 36 34
f 19 35 21
f 20 32 37
f 20 37 36
f 21 35 38
f 21 38 22
f 22 38 39
f 22 39 23
f 23 39 24
f 24 39 40
f 24 40 25
f 25 40 41
f 25 41 42
f 25 42 43
f 25 43 44
f 25 44 26
f 30 45 37
f 30 37 31
f 30 33 46
f 30 46 45
f 31 37 32
f 34 47 35
f 34 36 48
f 34 48 49
f 34 49 50
f 34 50 51
f 34 51 52
f 34 52 47
f 35 47 53
f 35 53 56
f 35 56 38
f 36 37 54
f 36 54 48
f 37 45 55
f 37 55 72
f 37 72 54
f 38 56 57
f 38 57 58
f 38 58 59
f 38 59 39
f 39 59 40
f 40 60 61
f 40 61 62
f 40 62 41
f 40 59 60
f 41 62 63
f 41 63 64
f 41 64 65
f 41 65 42
f 42 65 43
f 45 46 66
f 45 66 55
f 47 52 67
f 47 67 68
f 47 68 69
f 47 69 53
f 48 54 49
f 49 54 70
f 49 70 50
f 50 70 71
f 50 71 51
f 51 71 89
f 51 89 98
f 51 98 105
f 51 105 104
f 51 104 103
f 51 103 102
f 51 102 108
f 51 108 107
f 51 107 106
f 51 106 100
f 51 100 92
f 51 92 82
f 51 82 75
f 51 75 74
f 51 74 73
f 51 73 69
f 51 69 68
f 51 68 67
f 51 67 52
f 53 69 73
f 53 73 56
f 54 72 88
f 54 88 70
f 55 66 87
f 55 87 72
f 56 73 57
f 57 73 74
f 57 74 75
f 57 75 58
f 58 76 77
f 58 77 78
f 58 78 79
f 58 79 80
f 58 80 81
f 58 81 59
f 58 75 82
f 58 82 76
f 59 81 60
f 60 81 83
f 60 83 61
f 61 83 84
f 61 84 62
f 62 84 85
f 62 85 63
f 63 85 86
f 63 86 64
f 70 88 89
f 70 89 71
f 72 87 90
f 72 90 88
f 76 82 77
f 77 91 78
f 77 82 92
f 77 92 93
f 77 93 94
f 77 94 91
f 78 91 79
f 79 91 83
f 79 83 80
f 80 83 81
f 83 91 84
f 84 91 94
f 84 94 95
f 84 95 85
f 85 95 96
f 85 96 86
f 88 90 97
f 88 97 98
f 88 98 89
f 92 99 93
f 92 100 101
f 92 101 99
f 93 99 95
f 93 95 94
f 95 99 101
f 95 101 96
f 97 102 103
f 97 103 104
f 97 104 105
f 97 105 98
f 100 106 101
f 101 106 107
f 101 107 108
