# https://github.com/mikedh/trimesh
v -0.00000000 0.86414850 0.19355989
v -0.00000000 0.86414850 0.19355989
v -0.00000000 0.86414850 0.19355989
v -0.00000000 0.86414850 0.19355989
v 0.05398597 0.84925051 0.20148188
v 0.05398597 0.84925051 0.20148188
v 0.05398597 0.84925051 0.20148188
v 0.05398597 0.84925051 0.20148188
v 0.05009597 0.86414850 0.18696389
v 0.05009597 0.86414850 0.18696389
v 0.05009597 0.86414850 0.18696389
v 0.05009597 0.86414850 0.18696389
v -0.00000000 0.84925051 0.20858788
v -0.00000000 0.84925051 0.20858788
v -0.00000000 0.84925051 0.20858788
v -0.00000000 0.84925051 0.20858788
v 0.10429394 0.84925051 0.18064190
v 0.10429394 0.84925051 0.18064190
v 0.10429394 0.84925051 0.18064190
v 0.10429394 0.84925051 0.18064190
v -0.05009797 0.86414850 0.18696389
v -0.05009797 0.86414850 0.18696389
v -0.05009797 0.86414850 0.18696389
v -0.05009797 0.86414850 0.18696389
v -0.05398597 0.84925051 0.20148188
v -0.05398597 0.84925051 0.20148188
v -0.05398597 0.84925051 0.20148188
v -0.05398597 0.84925051 0.20148188
v 0.05398597 0.80455253 0.20148188
v 0.05398597 0.80455253 0.20148188
v 0.05398597 0.80455253 0.20148188
v 0.05398597 0.80455253 0.20148188
v 0.09677994 0.86414850 0.16762790
v 0.09677994 0.86414850 0.16762790
v 0.09677994 0.86414850 0.16762790
v 0.09677994 0.86414850 0.16762790
v 0.10429394 0.80455253 0.18064190
v 0.10429394 0.80455253 0.18064190
v 0.10429394 0.80455253 0.18064190
v 0.10429394 0.80455253 0.18064190
v -0.00000000 0.80455253 0.20858788
v -0.00000000 0.80455253 0.20858788
v -0.00000000 0.80455253 0.20858788
v -0.00000000 0.80455253 0.20858788
v 0.14749391 0.84925051 0.14749391
v 0.14749391 0.84925051 0.14749391
v 0.14749391 0.84925051 0.14749391
v 0.14749391 0.84925051 0.14749391
v 0.14749391 0.80455253 0.14749391
v 0.14749391 0.80455253 0.14749391
v 0.14749391 0.80455253 0.14749391
v 0.14749391 0.80455253 0.14749391
v -0.09677994 0.86414850 0.16762790
v -0.09677994 0.86414850 0.16762790
v -0.09677994 0.86414850 0.16762790
v -0.09677994 0.86414850 0.16762790
v -0.10429394 0.84925051 0.18064190
v -0.10429394 0.84925051 0.18064190
v -0.10429394 0.84925051 0.18064190
v -0.10429394 0.84925051 0.18064190
v -0.05398597 0.80455253 0.20148188
v -0.05398597 0.80455253 0.20148188
v -0.05398597 0.80455253 0.20148188
v -0.05398597 0.80455253 0.20148188
v 0.05398597 0.38737678 0.20148188
v 0.05398597 0.38737678 0.20148188
v 0.05398597 0.38737678 0.20148188
v 0.05398597 0.38737678 0.20148188
v 0.10429394 0.38737678 0.18064190
v 0.10429394 0.38737678 0.18064190
v 0.10429394 0.38737678 0.18064190
v 0.10429394 0.38737678 0.18064190
v 0.13686592 0.86414850 0.13686792
v 0.13686592 0.86414850 0.13686792
v 0.13686592 0.86414850 0.13686792
v 0.13686592 0.86414850 0.13686792
v -0.10429394 0.80455253 0.18064190
v -0.10429394 0.80455253 0.18064190
v -0.10429394 0.80455253 0.18064190
v -0.10429394 0.80455253 0.18064190
v 0.14749391 0.38737678 0.14749391
v 0.14749391 0.38737678 0.14749391
v 0.14749391 0.38737678 0.14749391
v 0.14749391 0.38737678 0.14749391
v -0.00000000 0.38737678 0.20858788
v -0.00000000 0.38737678 0.20858788
v -0.00000000 0.38737678 0.20858788
v -0.00000000 0.38737678 0.20858788
v 0.18064190 0.84925051 0.10429394
v 0.18064190 0.84925051 0.10429394
v 0.18064190 0.84925051 0.10429394
v 0.18064190 0.84925051 0.10429394
v -0.14749391 0.80455253 0.14749391
v -0.14749391 0.80455253 0.14749391
v -0.14749391 0.80455253 0.14749391
v -0.14749391 0.80455253 0.14749391
v 0.18064190 0.80455253 0.10429394
v 0.18064190 0.80455253 0.10429394
v 0.18064190 0.80455253 0.10429394
v 0.18064190 0.80455253 0.10429394
v -0.13686792 0.86414850 0.13686792
v -0.13686792 0.86414850 0.13686792
v -0.13686792 0.86414850 0.13686792
v -0.13686792 0.86414850 0.13686792
v -0.14749391 0.84925051 0.14749391
v -0.14749391 0.84925051 0.14749391
v -0.14749391 0.84925051 0.14749391
v -0.14749391 0.84925051 0.14749391
v -0.05398597 0.38737678 0.20148188
v -0.05398597 0.38737678 0.20148188
v -0.05398597 0.38737678 0.20148188
v -0.05398597 0.38737678 0.20148188
v -0.14749391 0.38737678 0.14749391
v -0.14749391 0.38737678 0.14749391
v -0.14749391 0.38737678 0.14749391
v -0.14749391 0.38737678 0.14749391
v 0.16762790 0.86414850 0.09677994
v 0.16762790 0.86414850 0.09677994
v 0.16762790 0.86414850 0.09677994
v 0.16762790 0.86414850 0.09677994
v -0.10429394 0.38737678 0.18064190
v -0.10429394 0.38737678 0.18064190
v -0.10429394 0.38737678 0.18064190
v -0.10429394 0.38737678 0.18064190
v 0.18064190 0.38737678 0.10429394
v 0.18064190 0.38737678 0.10429394
v 0.18064190 0.38737678 0.10429394
v 0.18064190 0.38737678 0.10429394
v 0.20147988 0.84925051 0.05398597
v 0.20147988 0.84925051 0.05398597
v 0.20147988 0.84925051 0.05398597
v 0.20147988 0.84925051 0.05398597
v -0.18064190 0.80455253 0.10429394
v -0.18064190 0.80455253 0.10429394
v -0.18064190 0.80455253 0.10429394
v -0.18064190 0.80455253 0.10429394
v 0.20147988 0.80455253 0.05398597
v 0.20147988 0.80455253 0.05398597
v 0.20147988 0.80455253 0.05398597
v 0.20147988 0.80455253 0.05398597
v -0.16762790 0.86414850 0.09677994
v -0.16762790 0.86414850 0.09677994
v -0.16762790 0.86414850 0.09677994
v -0.16762790 0.86414850 0.09677994
v -0.18064190 0.84925051 0.10429394
v -0.18064190 0.84925051 0.10429394
v -0.18064190 0.84925051 0.10429394
v -0.18064190 0.84925051 0.10429394
v -0.18064190 0.38737678 0.10429394
v -0.18064190 0.38737678 0.10429394
v -0.18064190 0.38737678 0.10429394
v -0.18064190 0.38737678 0.10429394
v 0.18696389 0.86414850 0.05009597
v 0.18696389 0.86414850 0.05009597
v 0.18696389 0.86414850 0.05009597
v 0.18696389 0.86414850 0.05009597
v 0.20147988 0.38737678 0.05398597
v 0.20147988 0.38737678 0.05398597
v 0.20147988 0.38737678 0.05398597
v 0.20147988 0.38737678 0.05398597
v 0.20858788 0.84925051 0.00000000
v 0.20858788 0.84925051 0.00000000
v 0.20858788 0.84925051 0.00000000
v 0.20858788 0.84925051 0.00000000
v -0.20148188 0.80455253 0.05398597
v -0.20148188 0.80455253 0.05398597
v -0.20148188 0.80455253 0.05398597
v -0.20148188 0.80455253 0.05398597
v -0.20148188 0.38737678 0.05398597
v -0.20148188 0.38737678 0.05398597
v -0.20148188 0.38737678 0.05398597
v -0.20148188 0.38737678 0.05398597
v 0.20858788 0.80455253 0.00000000
v 0.20858788 0.80455253 0.00000000
v 0.20858788 0.80455253 0.00000000
v 0.20858788 0.80455253 0.00000000
v -0.18696589 0.86414850 0.05009597
v -0.18696589 0.86414850 0.05009597
v -0.18696589 0.86414850 0.05009597
v -0.18696589 0.86414850 0.05009597
v -0.20148188 0.84925051 0.05398597
v -0.20148188 0.84925051 0.05398597
v -0.20148188 0.84925051 0.05398597
v -0.20148188 0.84925051 0.05398597
v 0.19355989 0.86414850 0.00000000
v 0.19355989 0.86414850 0.00000000
v 0.19355989 0.86414850 0.00000000
v 0.19355989 0.86414850 0.00000000
v -0.20858788 0.80455253 0.00000000
v -0.20858788 0.80455253 0.00000000
v -0.20858788 0.80455253 0.00000000
v -0.20858788 0.80455253 0.00000000
v 0.20858788 0.38737678 0.00000000
v 0.20858788 0.38737678 0.00000000
v 0.20858788 0.38737678 0.00000000
v 0.20858788 0.38737678 0.00000000
v -0.19355989 0.86414850 0.00000000
v -0.19355989 0.86414850 0.00000000
v -0.19355989 0.86414850 0.00000000
v -0.19355989 0.86414850 0.00000000
v -0.20858788 0.38737678 0.00000000
v -0.20858788 0.38737678 0.00000000
v -0.20858788 0.38737678 0.00000000
v -0.20858788 0.38737678 0.00000000
v 0.18696389 0.86414850 -0.05009597
v 0.18696389 0.86414850 -0.05009597
v 0.18696389 0.86414850 -0.05009597
v 0.18696389 0.86414850 -0.05009597
v 0.20147988 0.84925051 -0.05398597
v 0.20147988 0.84925051 -0.05398597
v 0.20147988 0.84925051 -0.05398597
v 0.20147988 0.84925051 -0.05398597
v 0.20147988 0.80455253 -0.05398597
v 0.20147988 0.80455253 -0.05398597
v 0.20147988 0.80455253 -0.05398597
v 0.20147988 0.80455253 -0.05398597
v -0.20858788 0.84925051 0.00000000
v -0.20858788 0.84925051 0.00000000
v -0.20858788 0.84925051 0.00000000
v -0.20858788 0.84925051 0.00000000
v -0.20148188 0.38737678 -0.05398597
v -0.20148188 0.38737678 -0.05398597
v -0.20148188 0.38737678 -0.05398597
v -0.20148188 0.38737678 -0.05398597
v 0.20147988 0.38737678 -0.05398597
v 0.20147988 0.38737678 -0.05398597
v 0.20147988 0.38737678 -0.05398597
v 0.20147988 0.38737678 -0.05398597
v -0.20148188 0.80455253 -0.05398597
v -0.20148188 0.80455253 -0.05398597
v -0.20148188 0.80455253 -0.05398597
v -0.20148188 0.80455253 -0.05398597
v 0.16762790 0.86414850 -0.09677994
v 0.16762790 0.86414850 -0.09677994
v 0.16762790 0.86414850 -0.09677994
v 0.16762790 0.86414850 -0.09677994
v -0.18696589 0.86414850 -0.05009597
v -0.18696589 0.86414850 -0.05009597
v -0.18696589 0.86414850 -0.05009597
v -0.18696589 0.86414850 -0.05009597
v 0.18064190 0.84925051 -0.10429394
v 0.18064190 0.84925051 -0.10429394
v 0.18064190 0.84925051 -0.10429394
v 0.18064190 0.84925051 -0.10429394
v 0.18064190 0.80455253 -0.10429394
v 0.18064190 0.80455253 -0.10429394
v 0.18064190 0.80455253 -0.10429394
v 0.18064190 0.80455253 -0.10429394
v -0.20148188 0.84925051 -0.05398597
v -0.20148188 0.84925051 -0.05398597
v -0.20148188 0.84925051 -0.05398597
v -0.20148188 0.84925051 -0.05398597
v -0.18064190 0.38737678 -0.10429394
v -0.18064190 0.38737678 -0.10429394
v -0.18064190 0.38737678 -0.10429394
v -0.18064190 0.38737678 -0.10429394
v 0.18064190 0.38737678 -0.10429394
v 0.18064190 0.38737678 -0.10429394
v 0.18064190 0.38737678 -0.10429394
v 0.18064190 0.38737678 -0.10429394
v -0.18064190 0.80455253 -0.10429394
v -0.18064190 0.80455253 -0.10429394
v -0.18064190 0.80455253 -0.10429394
v -0.18064190 0.80455253 -0.10429394
v 0.13686592 0.86414850 -0.13686792
v 0.13686592 0.86414850 -0.13686792
v 0.13686592 0.86414850 -0.13686792
v 0.13686592 0.86414850 -0.13686792
v -0.16762790 0.86414850 -0.09677994
v -0.16762790 0.86414850 -0.09677994
v -0.16762790 0.86414850 -0.09677994
v -0.16762790 0.86414850 -0.09677994
v 0.14749391 0.84925051 -0.14749391
v 0.14749391 0.84925051 -0.14749391
v 0.14749391 0.84925051 -0.14749391
v 0.14749391 0.84925051 -0.14749391
v 0.14749391 0.80455253 -0.14749391
v 0.14749391 0.80455253 -0.14749391
v 0.14749391 0.80455253 -0.14749391
v 0.14749391 0.80455253 -0.14749391
v -0.18064190 0.84925051 -0.10429394
v -0.18064190 0.84925051 -0.10429394
v -0.18064190 0.84925051 -0.10429394
v -0.18064190 0.84925051 -0.10429394
v -0.14749391 0.38737678 -0.14749391
v -0.14749391 0.38737678 -0.14749391
v -0.14749391 0.38737678 -0.14749391
v -0.14749391 0.38737678 -0.14749391
v 0.14749391 0.38737678 -0.14749391
v 0.14749391 0.38737678 -0.14749391
v 0.14749391 0.38737678 -0.14749391
v 0.14749391 0.38737678 -0.14749391
v -0.14749391 0.80455253 -0.14749391
v -0.14749391 0.80455253 -0.14749391
v -0.14749391 0.80455253 -0.14749391
v -0.14749391 0.80455253 -0.14749391
v 0.09677994 0.86414850 -0.16762790
v 0.09677994 0.86414850 -0.16762790
v 0.09677994 0.86414850 -0.16762790
v 0.09677994 0.86414850 -0.16762790
v -0.13686792 0.86414850 -0.13686792
v -0.13686792 0.86414850 -0.13686792
v -0.13686792 0.86414850 -0.13686792
v -0.13686792 0.86414850 -0.13686792
v 0.10429394 0.84925051 -0.18064190
v 0.10429394 0.84925051 -0.18064190
v 0.10429394 0.84925051 -0.18064190
v 0.10429394 0.84925051 -0.18064190
v 0.10429394 0.38737678 -0.18064190
v 0.10429394 0.38737678 -0.18064190
v 0.10429394 0.38737678 -0.18064190
v 0.10429394 0.38737678 -0.18064190
v 0.10429394 0.80455253 -0.18064190
v 0.10429394 0.80455253 -0.18064190
v 0.10429394 0.80455253 -0.18064190
v 0.10429394 0.80455253 -0.18064190
v -0.14749391 0.84925051 -0.14749391
v -0.14749391 0.84925051 -0.14749391
v -0.14749391 0.84925051 -0.14749391
v -0.14749391 0.84925051 -0.14749391
v -0.10429394 0.80455253 -0.18064190
v -0.10429394 0.80455253 -0.18064190
v -0.10429394 0.80455253 -0.18064190
v -0.10429394 0.80455253 -0.18064190
v 0.05009597 0.86414850 -0.18696389
v 0.05009597 0.86414850 -0.18696389
v 0.05009597 0.86414850 -0.18696389
v 0.05009597 0.86414850 -0.18696389
v -0.09677994 0.86414850 -0.16762790
v -0.09677994 0.86414850 -0.16762790
v -0.09677994 0.86414850 -0.16762790
v -0.09677994 0.86414850 -0.16762790
v 0.05743997 0.80455253 -0.20004788
v 0.05743997 0.80455253 -0.20004788
v 0.05743997 0.80455253 -0.20004788
v 0.05743997 0.80455253 -0.20004788
v 0.05743997 0.80455253 -0.20004788
v 0.05743997 0.80455253 -0.20004788
v -0.10429394 0.84925051 -0.18064190
v -0.10429394 0.84925051 -0.18064190
v -0.10429394 0.84925051 -0.18064190
v -0.10429394 0.84925051 -0.18064190
v -0.10429394 0.38737678 -0.18064190
v -0.10429394 0.38737678 -0.18064190
v -0.10429394 0.38737678 -0.18064190
v -0.10429394 0.38737678 -0.18064190
v -0.00000000 0.80455253 -0.18842389
v -0.00000000 0.80455253 -0.18842389
v -0.00000000 0.80455253 -0.18842389
v -0.00000000 0.80455253 -0.18842389
v 0.05398597 0.84925051 -0.20148188
v 0.05398597 0.84925051 -0.20148188
v 0.05398597 0.84925051 -0.20148188
v 0.05398597 0.84925051 -0.20148188
v 0.05398597 0.80455253 -0.20148188
v 0.05398597 0.80455253 -0.20148188
v 0.05398597 0.80455253 -0.20148188
v 0.05398597 0.80455253 -0.20148188
v 0.03030798 0.80455253 -0.19146989
v 0.03030798 0.80455253 -0.19146989
v 0.03030798 0.80455253 -0.19146989
v 0.03030798 0.80455253 -0.19146989
v -0.05744197 0.80455253 -0.20004788
v -0.05744197 0.80455253 -0.20004788
v -0.05744197 0.80455253 -0.20004788
v -0.05744197 0.80455253 -0.20004788
v -0.05744197 0.80455253 -0.20004788
v -0.05744197 0.80455253 -0.20004788
v -0.05398597 0.84925051 -0.20148188
v -0.05398597 0.84925051 -0.20148188
v -0.05398597 0.84925051 -0.20148188
v -0.05398597 0.84925051 -0.20148188
v -0.05398597 0.38737678 -0.20148188
v -0.05398597 0.38737678 -0.20148188
v -0.05398597 0.38737678 -0.20148188
v -0.05398597 0.38737678 -0.20148188
v 0.05743997 0.66141862 -0.20004788
v 0.05743997 0.66141862 -0.20004788
v 0.05743997 0.66141862 -0.20004788
v 0.05743997 0.66141862 -0.20004788
v 0.05743997 0.66141862 -0.20004788
v 0.05743997 0.66141862 -0.20004788
v -0.03030998 0.80455253 -0.19146989
v -0.03030998 0.80455253 -0.19146989
v -0.03030998 0.80455253 -0.19146989
v -0.03030998 0.80455253 -0.19146989
v -0.00000000 0.86414850 -0.19355989
v -0.00000000 0.86414850 -0.19355989
v -0.00000000 0.86414850 -0.19355989
v -0.00000000 0.86414850 -0.19355989
v -0.05009797 0.86414850 -0.18696389
v -0.05009797 0.86414850 -0.18696389
v -0.05009797 0.86414850 -0.18696389
v -0.05009797 0.86414850 -0.18696389
v -0.05398597 0.80455253 -0.20148188
v -0.05398597 0.80455253 -0.20148188
v -0.05398597 0.80455253 -0.20148188
v -0.05398597 0.80455253 -0.20148188
v -0.05744197 0.66141862 -0.20004788
v -0.05744197 0.66141862 -0.20004788
v -0.05744197 0.66141862 -0.20004788
v -0.05744197 0.66141862 -0.20004788
v -0.05744197 0.66141862 -0.20004788
v -0.05744197 0.66141862 -0.20004788
v 0.05398597 0.38737678 -0.20148188
v 0.05398597 0.38737678 -0.20148188
v 0.05398597 0.38737678 -0.20148188
v 0.05398597 0.38737678 -0.20148188
v 0.03030798 0.66141862 -0.19146989
v 0.03030798 0.66141862 -0.19146989
v 0.03030798 0.66141862 -0.19146989
v 0.03030798 0.66141862 -0.19146989
v -0.00000000 0.66141862 -0.18842389
v -0.00000000 0.66141862 -0.18842389
v -0.00000000 0.66141862 -0.18842389
v -0.00000000 0.66141862 -0.18842389
v -0.00000000 0.84925051 -0.20858788
v -0.00000000 0.84925051 -0.20858788
v -0.00000000 0.84925051 -0.20858788
v -0.00000000 0.84925051 -0.20858788
v -0.00000000 0.80455253 -0.20858788
v -0.00000000 0.80455253 -0.20858788
v -0.00000000 0.80455253 -0.20858788
v -0.00000000 0.80455253 -0.20858788
v -0.00000000 0.38737678 -0.20858788
v -0.00000000 0.38737678 -0.20858788
v -0.00000000 0.38737678 -0.20858788
v -0.00000000 0.38737678 -0.20858788
v -0.05398597 0.66141862 -0.20148188
v -0.05398597 0.66141862 -0.20148188
v -0.05398597 0.66141862 -0.20148188
v -0.05398597 0.66141862 -0.20148188
v 0.05398597 0.66141862 -0.20148188
v 0.05398597 0.66141862 -0.20148188
v 0.05398597 0.66141862 -0.20148188
v 0.05398597 0.66141862 -0.20148188
v -0.03030998 0.66141862 -0.19146989
v -0.03030998 0.66141862 -0.19146989
v -0.03030998 0.66141862 -0.19146989
v -0.03030998 0.66141862 -0.19146989
v -0.00000000 0.66141862 -0.20858788
v -0.00000000 0.66141862 -0.20858788
v -0.00000000 0.66141862 -0.20858788
v -0.00000000 0.66141862 -0.20858788
v -0.08514395 -0.86414850 0.35757779
v -0.08514395 -0.86414850 0.35757779
v -0.08514395 -0.86414850 0.35757779
v -0.08514395 -0.86414850 0.35757779
v -0.08514395 -0.86414850 0.35757779
v -0.08514395 -0.86414850 0.35757779
v 0.10488994 -0.80455053 0.41717576
v 0.10488994 -0.80455053 0.41717576
v 0.10488994 -0.80455053 0.41717576
v 0.10488994 -0.80455053 0.41717576
v 0.10488994 -0.80455053 0.41717576
v 0.10488994 -0.80455053 0.41717576
v 0.10488994 -0.80455053 0.41717576
v 0.10488994 -0.80455053 0.41717576
v -0.10488994 -0.80455053 0.41717576
v -0.10488994 -0.80455053 0.41717576
v -0.10488994 -0.80455053 0.41717576
v -0.10488994 -0.80455053 0.41717576
v -0.10488994 -0.80455053 0.41717576
v -0.10488994 -0.80455053 0.41717576
v -0.10488994 -0.80455053 0.41717576
v -0.10488994 -0.80455053 0.41717576
v 0.08551395 -0.86414850 0.35757779
v 0.08551395 -0.86414850 0.35757779
v 0.08551395 -0.86414850 0.35757779
v 0.08551395 -0.86414850 0.35757779
v 0.08551395 -0.86414850 0.35757779
v 0.08551395 -0.86414850 0.35757779
v -0.10488994 0.32778081 0.41717576
v -0.10488994 0.32778081 0.41717576
v -0.10488994 0.32778081 0.41717576
v -0.10488994 0.32778081 0.41717576
v -0.10488994 0.32778081 0.41717576
v -0.10488994 0.32778081 0.41717576
v -0.10488994 0.32778081 0.41717576
v -0.10488994 0.32778081 0.41717576
v -0.25179585 -0.80455053 0.30781582
v -0.25179585 -0.80455053 0.30781582
v -0.25179585 -0.80455053 0.30781582
v -0.25179585 -0.80455053 0.30781582
v -0.25179585 -0.80455053 0.30781582
v -0.25179585 -0.80455053 0.30781582
v -0.25179585 -0.80455053 0.30781582
v -0.25179585 -0.80455053 0.30781582
v -0.19499589 -0.86414850 0.27580384
v -0.19499589 -0.86414850 0.27580384
v -0.19499589 -0.86414850 0.27580384
v -0.19499589 -0.86414850 0.27580384
v -0.19499589 -0.86414850 0.27580384
v -0.19499589 -0.86414850 0.27580384
v 0.25149785 -0.80455053 0.31057982
v 0.25149785 -0.80455053 0.31057982
v 0.25149785 -0.80455053 0.31057982
v 0.25149785 -0.80455053 0.31057982
v 0.25149785 -0.80455053 0.31057982
v 0.25149785 -0.80455053 0.31057982
v 0.25149785 -0.80455053 0.31057982
v 0.25149785 -0.80455053 0.31057982
v 0.10488994 0.32778081 0.41717576
v 0.10488994 0.32778081 0.41717576
v 0.10488994 0.32778081 0.41717576
v 0.10488994 0.32778081 0.41717576
v 0.10488994 0.32778081 0.41717576
v 0.10488994 0.32778081 0.41717576
v 0.10488994 0.32778081 0.41717576
v 0.10488994 0.32778081 0.41717576
v -0.25179585 0.32778081 0.30781582
v -0.25179585 0.32778081 0.30781582
v -0.25179585 0.32778081 0.30781582
v -0.25179585 0.32778081 0.30781582
v -0.25179585 0.32778081 0.30781582
v -0.25179585 0.32778081 0.30781582
v -0.25179585 0.32778081 0.30781582
v -0.25179585 0.32778081 0.30781582
v -0.25179585 0.32778081 0.30781582
v -0.25179585 0.32778081 0.30781582
v 0.19476389 -0.86414850 0.27814584
v 0.19476389 -0.86414850 0.27814584
v 0.19476389 -0.86414850 0.27814584
v 0.19476389 -0.86414850 0.27814584
v 0.19476389 -0.86414850 0.27814584
v 0.19476389 -0.86414850 0.27814584
v 0.25149785 0.32778081 0.31057982
v 0.25149785 0.32778081 0.31057982
v 0.25149785 0.32778081 0.31057982
v 0.25149785 0.32778081 0.31057982
v 0.25149785 0.32778081 0.31057982
v 0.25149785 0.32778081 0.31057982
v 0.25149785 0.32778081 0.31057982
v 0.25149785 0.32778081 0.31057982
v 0.25149785 0.32778081 0.31057982
v 0.25149785 0.32778081 0.31057982
v 0.07508796 0.38737678 0.20858788
v 0.07508796 0.38737678 0.20858788
v 0.07508796 0.38737678 0.20858788
v 0.07508796 0.38737678 0.20858788
v -0.07508796 0.38737678 0.20858788
v -0.07508796 0.38737678 0.20858788
v -0.07508796 0.38737678 0.20858788
v -0.07508796 0.38737678 0.20858788
v -0.28144584 -0.80455053 -0.00138200
v -0.28144584 -0.80455053 -0.00138200
v -0.28144584 -0.80455053 -0.00138200
v -0.28144584 -0.80455053 -0.00138200
v 0.22157187 -0.86414850 0.00135400
v 0.22157187 -0.86414850 0.00135400
v 0.22157187 -0.86414850 0.00135400
v 0.22157187 -0.86414850 0.00135400
v 0.28144584 -0.80455053 0.00138200
v 0.28144584 -0.80455053 0.00138200
v 0.28144584 -0.80455053 0.00138200
v 0.28144584 -0.80455053 0.00138200
v 0.28144584 0.32778081 0.00138200
v 0.28144584 0.32778081 0.00138200
v 0.28144584 0.32778081 0.00138200
v 0.28144584 0.32778081 0.00138200
v 0.28144584 0.32778081 0.00138200
v 0.28144584 0.32778081 0.00138200
v -0.18025590 0.38737678 0.15390791
v -0.18025590 0.38737678 0.15390791
v -0.18025590 0.38737678 0.15390791
v -0.18025590 0.38737678 0.15390791
v -0.18025590 0.38737678 0.15390791
v -0.18025590 0.38737678 0.15390791
v -0.22157387 -0.86414850 -0.00135400
v -0.22157387 -0.86414850 -0.00135400
v -0.22157387 -0.86414850 -0.00135400
v -0.22157387 -0.86414850 -0.00135400
v -0.28144584 0.32778081 -0.00138200
v -0.28144584 0.32778081 -0.00138200
v -0.28144584 0.32778081 -0.00138200
v -0.28144584 0.32778081 -0.00138200
v -0.28144584 0.32778081 -0.00138200
v -0.28144584 0.32778081 -0.00138200
v 0.18004190 0.38737678 0.15528991
v 0.18004190 0.38737678 0.15528991
v 0.18004190 0.38737678 0.15528991
v 0.18004190 0.38737678 0.15528991
v 0.18004190 0.38737678 0.15528991
v 0.18004190 0.38737678 0.15528991
v -0.19476589 -0.86414850 -0.27814584
v -0.19476589 -0.86414850 -0.27814584
v -0.19476589 -0.86414850 -0.27814584
v -0.19476589 -0.86414850 -0.27814584
v -0.19476589 -0.86414850 -0.27814584
v -0.19476589 -0.86414850 -0.27814584
v -0.25149985 0.32778081 -0.31057982
v -0.25149985 0.32778081 -0.31057982
v -0.25149985 0.32778081 -0.31057982
v -0.25149985 0.32778081 -0.31057982
v -0.25149985 0.32778081 -0.31057982
v -0.25149985 0.32778081 -0.31057982
v -0.25149985 0.32778081 -0.31057982
v -0.25149985 0.32778081 -0.31057982
v -0.25149985 0.32778081 -0.31057982
v -0.25149985 0.32778081 -0.31057982
v 0.19499589 -0.86414850 -0.27580384
v 0.19499589 -0.86414850 -0.27580384
v 0.19499589 -0.86414850 -0.27580384
v 0.19499589 -0.86414850 -0.27580384
v 0.19499589 -0.86414850 -0.27580384
v 0.19499589 -0.86414850 -0.27580384
v 0.25179585 -0.80455053 -0.30781582
v 0.25179585 -0.80455053 -0.30781582
v 0.25179585 -0.80455053 -0.30781582
v 0.25179585 -0.80455053 -0.30781582
v 0.25179585 -0.80455053 -0.30781582
v 0.25179585 -0.80455053 -0.30781582
v 0.25179585 -0.80455053 -0.30781582
v 0.25179585 -0.80455053 -0.30781582
v 0.20147988 0.38737678 0.00069000
v 0.20147988 0.38737678 0.00069000
v 0.20147988 0.38737678 0.00069000
v 0.20147988 0.38737678 0.00069000
v 0.25179585 0.32778081 -0.30781582
v 0.25179585 0.32778081 -0.30781582
v 0.25179585 0.32778081 -0.30781582
v 0.25179585 0.32778081 -0.30781582
v 0.25179585 0.32778081 -0.30781582
v 0.25179585 0.32778081 -0.30781582
v 0.25179585 0.32778081 -0.30781582
v 0.25179585 0.32778081 -0.30781582
v 0.25179585 0.32778081 -0.30781582
v 0.25179585 0.32778081 -0.30781582
v -0.20148188 0.38737678 -0.00069000
v -0.20148188 0.38737678 -0.00069000
v -0.20148188 0.38737678 -0.00069000
v -0.20148188 0.38737678 -0.00069000
v -0.25149985 -0.80455053 -0.31057982
v -0.25149985 -0.80455053 -0.31057982
v -0.25149985 -0.80455053 -0.31057982
v -0.25149985 -0.80455053 -0.31057982
v -0.25149985 -0.80455053 -0.31057982
v -0.25149985 -0.80455053 -0.31057982
v -0.25149985 -0.80455053 -0.31057982
v -0.25149985 -0.80455053 -0.31057982
v -0.18004190 0.38737678 -0.15528991
v -0.18004190 0.38737678 -0.15528991
v -0.18004190 0.38737678 -0.15528991
v -0.18004190 0.38737678 -0.15528991
v -0.18004190 0.38737678 -0.15528991
v -0.18004190 0.38737678 -0.15528991
v 0.18025390 0.38737678 -0.15390791
v 0.18025390 0.38737678 -0.15390791
v 0.18025390 0.38737678 -0.15390791
v 0.18025390 0.38737678 -0.15390791
v 0.18025390 0.38737678 -0.15390791
v 0.18025390 0.38737678 -0.15390791
v -0.08551395 -0.86414850 -0.35757779
v -0.08551395 -0.86414850 -0.35757779
v -0.08551395 -0.86414850 -0.35757779
v -0.08551395 -0.86414850 -0.35757779
v -0.08551395 -0.86414850 -0.35757779
v -0.08551395 -0.86414850 -0.35757779
v 0.08514195 -0.86414850 -0.35757779
v 0.08514195 -0.86414850 -0.35757779
v 0.08514195 -0.86414850 -0.35757779
v 0.08514195 -0.86414850 -0.35757779
v 0.08514195 -0.86414850 -0.35757779
v 0.08514195 -0.86414850 -0.35757779
v -0.10488994 -0.80455053 -0.41717576
v -0.10488994 -0.80455053 -0.41717576
v -0.10488994 -0.80455053 -0.41717576
v -0.10488994 -0.80455053 -0.41717576
v -0.10488994 -0.80455053 -0.41717576
v -0.10488994 -0.80455053 -0.41717576
v -0.10488994 -0.80455053 -0.41717576
v -0.10488994 -0.80455053 -0.41717576
v 0.10488994 0.32778081 -0.41717576
v 0.10488994 0.32778081 -0.41717576
v 0.10488994 0.32778081 -0.41717576
v 0.10488994 0.32778081 -0.41717576
v 0.10488994 0.32778081 -0.41717576
v 0.10488994 0.32778081 -0.41717576
v 0.10488994 0.32778081 -0.41717576
v 0.10488994 0.32778081 -0.41717576
v -0.07508796 0.38737678 -0.20858788
v -0.07508796 0.38737678 -0.20858788
v -0.07508796 0.38737678 -0.20858788
v -0.07508796 0.38737678 -0.20858788
v 0.10488994 -0.80455053 -0.41717576
v 0.10488994 -0.80455053 -0.41717576
v 0.10488994 -0.80455053 -0.41717576
v 0.10488994 -0.80455053 -0.41717576
v 0.10488994 -0.80455053 -0.41717576
v 0.10488994 -0.80455053 -0.41717576
v 0.10488994 -0.80455053 -0.41717576
v 0.10488994 -0.80455053 -0.41717576
v 0.07508796 0.38737678 -0.20858788
v 0.07508796 0.38737678 -0.20858788
v 0.07508796 0.38737678 -0.20858788
v 0.07508796 0.38737678 -0.20858788
v -0.10488994 0.32778081 -0.41717576
v -0.10488994 0.32778081 -0.41717576
v -0.10488994 0.32778081 -0.41717576
v -0.10488994 0.32778081 -0.41717576
v -0.10488994 0.32778081 -0.41717576
v -0.10488994 0.32778081 -0.41717576
v -0.10488994 0.32778081 -0.41717576
v -0.10488994 0.32778081 -0.41717576
vn 0.00000042 0.71018277 0.70401735
vn 0.00000000 -1.00000000 0.00000000
vn 0.00000000 1.00000000 0.00000000
vn -0.00000042 -0.71018277 -0.70401735
vn -0.25882110 0.00000000 -0.96592528
vn 0.25882110 0.00000000 0.96592528
vn -0.18221512 -0.71021524 -0.67999409
vn 0.18221512 0.71021524 0.67999409
vn 0.18221716 0.71021391 0.67999493
vn 0.00000000 1.00000000 0.00000000
vn -0.18221716 -0.71021391 -0.67999493
vn 0.00000000 -1.00000000 0.00000000
vn 0.00000000 -0.71017179 -0.70402843
vn 0.00000000 0.71017179 0.70402843
vn 0.00000000 0.00000000 1.00000000
vn 0.00000000 0.00000000 -1.00000000
vn 0.35201311 0.71016680 0.60971295
vn -0.35201311 -0.71016680 -0.60971295
vn 0.50000950 0.00000000 0.86601992
vn -0.50000950 0.00000000 -0.86601992
vn 0.18222472 -0.71020403 -0.68000323
vn -0.18222472 0.71020403 0.68000323
vn 0.00000000 -1.00000000 0.00000000
vn 0.00000000 1.00000000 0.00000000
vn 0.25882110 0.00000000 -0.96592528
vn -0.25882110 0.00000000 0.96592528
vn 0.18221212 -0.71020391 -0.68000672
vn -0.18221212 0.71020391 0.68000672
vn 0.25882110 0.00000000 0.96592528
vn 0.00000000 -1.00000000 0.00000000
vn 0.00000000 1.00000000 0.00000000
vn -0.25882110 0.00000000 -0.96592528
vn 0.00000000 -1.00000000 0.00000000
vn 0.00000000 1.00000000 0.00000000
vn 0.35201047 0.71016230 0.60971972
vn -0.35201047 -0.71016230 -0.60971972
vn 0.00000000 1.00000000 0.00000000
vn 0.50000950 0.00000000 0.86601992
vn 0.00000000 -1.00000000 0.00000000
vn -0.50000950 0.00000000 -0.86601992
vn 0.00000000 0.00000000 -1.00000000
vn 0.00000000 1.00000000 0.00000000
vn 0.00000000 -1.00000000 0.00000000
vn -0.00000000 0.00000000 1.00000000
vn 0.70710678 0.00000000 0.70710678
vn -0.70710678 0.00000000 -0.70710678
vn -0.49781794 -0.71018821 -0.49780520
vn 0.49781794 0.71018821 0.49780520
vn 0.70710678 0.00000000 0.70710678
vn 0.00000000 -1.00000000 0.00000000
vn -0.70710678 0.00000000 -0.70710678
vn 0.00000000 1.00000000 0.00000000
vn -0.35201547 0.71015874 0.60972098
vn 0.35201547 -0.71015874 -0.60972098
vn 0.00000000 1.00000000 0.00000000
vn 0.00000000 -1.00000000 0.00000000
vn -0.50000950 0.00000000 0.86601992
vn -0.35201747 0.71016447 0.60971315
vn 0.35201747 -0.71016447 -0.60971315
vn 0.50000950 0.00000000 -0.86601992
vn 0.25882110 0.00000000 -0.96592528
vn 0.00000000 1.00000000 0.00000000
vn -0.25882110 0.00000000 0.96592528
vn 0.00000000 -1.00000000 0.00000000
vn 0.25882110 0.00000000 0.96592528
vn 0.00000000 1.00000000 0.00000000
vn -0.25882110 0.00000000 -0.96592528
vn 0.00000000 -1.00000000 0.00000000
vn 0.50000950 0.00000000 0.86601992
vn -0.50000950 0.00000000 -0.86601992
vn 0.00000000 -1.00000000 0.00000000
vn 0.00000000 1.00000000 0.00000000
vn 0.49781340 0.71018727 0.49781107
vn 0.00000000 -1.00000000 0.00000000
vn -0.49781340 -0.71018727 -0.49781107
vn 0.00000000 1.00000000 0.00000000
vn 0.00000000 -1.00000000 0.00000000
vn -0.50000950 0.00000000 0.86601992
vn 0.50000950 0.00000000 -0.86601992
vn 0.00000000 1.00000000 0.00000000
vn -0.70710678 0.00000000 -0.70710678
vn 0.00000000 1.00000000 0.00000000
vn 0.00000000 -1.00000000 0.00000000
vn 0.70710678 0.00000000 0.70710678
vn 0.00000000 0.00000000 1.00000000
vn 0.00000000 1.00000000 0.00000000
vn -0.00000000 0.00000000 -1.00000000
vn 0.00000000 -1.00000000 0.00000000
vn -0.86602840 0.00000000 -0.49999480
vn 0.86602840 0.00000000 0.49999480
vn 0.60971169 0.71016357 0.35202182
vn -0.60971169 -0.71016357 -0.35202182
vn 0.00000000 -1.00000000 0.00000000
vn 0.70710678 0.00000000 -0.70710678
vn 0.00000000 1.00000000 0.00000000
vn -0.70710678 0.00000000 0.70710678
vn 0.00000000 -1.00000000 0.00000000
vn 0.00000000 1.00000000 0.00000000
vn -0.86602840 0.00000000 -0.49999480
vn 0.86602840 0.00000000 0.49999480
vn 0.00000000 -1.00000000 0.00000000
vn 0.00000000 1.00000000 0.00000000
vn -0.49783218 0.71015878 0.49783293
vn 0.49783218 -0.71015878 -0.49783293
vn -0.49783223 0.71015879 0.49783286
vn 0.49783223 -0.71015879 -0.49783286
vn 0.70710678 0.00000000 -0.70710678
vn -0.70710678 0.00000000 0.70710678
vn 0.25882110 0.00000000 -0.96592528
vn 0.00000000 -1.00000000 0.00000000
vn -0.25882110 0.00000000 0.96592528
vn 0.00000000 1.00000000 0.00000000
vn -0.70710678 0.00000000 0.70710678
vn 0.70710678 0.00000000 -0.70710678
vn 0.00000000 -1.00000000 0.00000000
vn 0.00000000 1.00000000 0.00000000
vn 0.60971339 0.71016146 0.35202312
vn 0.00000000 -1.00000000 0.00000000
vn -0.60971339 -0.71016146 -0.35202312
vn 0.00000000 1.00000000 0.00000000
vn -0.50000950 0.00000000 0.86601992
vn 0.00000000 -1.00000000 0.00000000
vn 0.00000000 1.00000000 0.00000000
vn 0.50000950 0.00000000 -0.86601992
vn 0.86602840 0.00000000 0.49999480
vn 0.00000000 -1.00000000 0.00000000
vn -0.86602840 0.00000000 -0.49999480
vn 0.00000000 1.00000000 0.00000000
vn 0.96592495 0.00000000 0.25882230
vn -0.68003769 -0.71017357 -0.18221483
vn 0.68003769 0.71017357 0.18221483
vn -0.96592495 0.00000000 -0.25882230
vn 0.00000000 -1.00000000 0.00000000
vn -0.86601992 0.00000000 0.50000950
vn 0.86601992 0.00000000 -0.50000950
vn 0.00000000 1.00000000 0.00000000
vn -0.96592495 0.00000000 -0.25882230
vn 0.00000000 -1.00000000 0.00000000
vn 0.96592495 0.00000000 0.25882230
vn 0.00000000 1.00000000 0.00000000
vn 0.00000000 -1.00000000 0.00000000
vn 0.60971315 -0.71016107 -0.35202433
vn 0.00000000 1.00000000 0.00000000
vn -0.60971315 0.71016107 0.35202433
vn -0.60971408 0.71015873 0.35202743
vn 0.60971408 -0.71015873 -0.35202743
vn -0.86601992 0.00000000 0.50000950
vn 0.86601992 0.00000000 -0.50000950
vn -0.86601992 0.00000000 0.50000950
vn 0.00000000 1.00000000 0.00000000
vn 0.86601992 0.00000000 -0.50000950
vn 0.00000000 -1.00000000 0.00000000
vn -0.68003673 -0.71017563 -0.18221038
vn 0.00000000 1.00000000 0.00000000
vn 0.68003673 0.71017563 0.18221038
vn 0.00000000 -1.00000000 0.00000000
vn 0.00000000 -1.00000000 0.00000000
vn 0.00000000 1.00000000 0.00000000
vn -0.96592495 0.00000000 -0.25882230
vn 0.96592495 0.00000000 0.25882230
vn 0.70402738 0.71017283 0.00000000
vn 1.00000000 0.00000000 0.00000000
vn -1.00000000 0.00000000 0.00000000
vn -0.70402738 -0.71017283 -0.00000000
vn 0.00000000 -1.00000000 0.00000000
vn 0.00000000 1.00000000 0.00000000
vn -0.96592528 0.00000000 0.25882110
vn 0.96592528 0.00000000 -0.25882110
vn 0.00000000 -1.00000000 0.00000000
vn 0.00000000 1.00000000 0.00000000
vn -0.96592528 0.00000000 0.25882110
vn 0.96592528 0.00000000 -0.25882110
vn 0.00000000 -1.00000000 0.00000000
vn -1.00000000 0.00000000 0.00000000
vn 1.00000000 0.00000000 0.00000000
vn 0.00000000 1.00000000 0.00000000
vn 0.00000000 -1.00000000 0.00000000
vn 0.68003624 -0.71017613 -0.18221024
vn 0.00000000 1.00000000 0.00000000
vn -0.68003624 0.71017613 0.18221024
vn 0.68003739 -0.71017389 -0.18221470
vn 0.96592528 0.00000000 -0.25882110
vn -0.68003739 0.71017389 0.18221470
vn -0.96592528 0.00000000 0.25882110
vn -0.70402843 -0.71017179 0.00000000
vn 0.70402843 0.71017179 -0.00000000
vn 0.00000000 1.00000000 0.00000000
vn 0.00000000 -1.00000000 0.00000000
vn 0.00000000 1.00000000 0.00000000
vn 0.00000000 -1.00000000 0.00000000
vn 1.00000000 0.00000000 0.00000000
vn -1.00000000 0.00000000 0.00000000
vn -1.00000000 0.00000000 0.00000000
vn 0.00000000 1.00000000 0.00000000
vn 1.00000000 0.00000000 -0.00000000
vn 0.00000000 -1.00000000 0.00000000
vn 0.70402835 -0.71017187 0.00000016
vn 0.00000000 1.00000000 0.00000000
vn -0.70402835 0.71017187 -0.00000016
vn 0.00000000 -1.00000000 0.00000000
vn 0.00000000 1.00000000 0.00000000
vn 1.00000000 0.00000000 0.00000000
vn 0.00000000 -1.00000000 0.00000000
vn -1.00000000 0.00000000 -0.00000000
vn 0.00000000 1.00000000 0.00000000
vn -0.68003673 -0.71017563 0.18221038
vn 0.00000000 -1.00000000 0.00000000
vn 0.68003673 0.71017563 -0.18221038
vn -0.96592495 0.00000000 0.25882230
vn -0.68003769 -0.71017357 0.18221483
vn 0.68003769 0.71017357 -0.18221483
vn 0.96592495 0.00000000 -0.25882230
vn 0.00000000 -1.00000000 0.00000000
vn 0.00000000 1.00000000 0.00000000
vn -0.96592495 0.00000000 0.25882230
vn 0.96592495 0.00000000 -0.25882230
vn -1.00000000 0.00000000 -0.00000000
vn 1.00000000 0.00000000 0.00000000
vn -0.70402835 0.71017187 -0.00000013
vn 0.70402835 -0.71017187 0.00000013
vn 0.96592528 0.00000000 0.25882110
vn -0.96592528 0.00000000 -0.25882110
vn 0.00000000 -1.00000000 0.00000000
vn 0.00000000 1.00000000 0.00000000
vn 0.00000000 -1.00000000 0.00000000
vn 0.00000000 1.00000000 0.00000000
vn 0.96592495 0.00000000 -0.25882230
vn -0.96592495 0.00000000 0.25882230
vn -0.96592528 0.00000000 -0.25882110
vn 0.96592528 0.00000000 0.25882110
vn 0.00000000 -1.00000000 0.00000000
vn 0.00000000 1.00000000 0.00000000
vn -0.60971339 -0.71016146 0.35202312
vn 0.00000000 -1.00000000 0.00000000
vn 0.60971339 0.71016146 -0.35202312
vn 0.00000000 1.00000000 0.00000000
vn 0.00000000 -1.00000000 0.00000000
vn 0.00000000 1.00000000 0.00000000
vn 0.68003637 -0.71017605 0.18221011
vn -0.68003637 0.71017605 -0.18221011
vn -0.60971169 -0.71016357 0.35202182
vn 0.60971169 0.71016357 -0.35202182
vn 0.86602840 0.00000000 -0.49999480
vn -0.86602840 0.00000000 0.49999480
vn 0.86602840 0.00000000 -0.49999480
vn 0.00000000 1.00000000 0.00000000
vn -0.86602840 0.00000000 0.49999480
vn 0.00000000 -1.00000000 0.00000000
vn -0.68003734 0.71017397 -0.18221455
vn 0.68003734 -0.71017397 0.18221455
vn 0.96592528 0.00000000 0.25882110
vn -0.96592528 0.00000000 -0.25882110
vn -0.86601992 0.00000000 -0.50000950
vn 0.86601992 0.00000000 0.50000950
vn 0.00000000 1.00000000 0.00000000
vn 0.00000000 -1.00000000 0.00000000
vn 0.86602840 0.00000000 -0.49999480
vn -0.86602840 0.00000000 0.49999480
vn 0.00000000 1.00000000 0.00000000
vn 0.00000000 -1.00000000 0.00000000
vn 0.86601992 0.00000000 0.50000950
vn 0.00000000 1.00000000 0.00000000
vn -0.86601992 0.00000000 -0.50000950
vn 0.00000000 -1.00000000 0.00000000
vn 0.00000000 -1.00000000 0.00000000
vn 0.49781340 0.71018727 -0.49781107
vn -0.49781340 -0.71018727 0.49781107
vn 0.00000000 1.00000000 0.00000000
vn 0.00000000 -1.00000000 0.00000000
vn 0.60971315 -0.71016107 0.35202433
vn -0.60971315 0.71016107 -0.35202433
vn 0.00000000 1.00000000 0.00000000
vn 0.49781794 0.71018821 -0.49780520
vn -0.49781794 -0.71018821 0.49780520
vn 0.70710678 0.00000000 -0.70710678
vn -0.70710678 0.00000000 0.70710678
vn 0.00000000 1.00000000 0.00000000
vn 0.70710678 0.00000000 -0.70710678
vn 0.00000000 -1.00000000 0.00000000
vn -0.70710678 0.00000000 0.70710678
vn -0.86601992 0.00000000 -0.50000950
vn -0.60971408 0.71015873 -0.35202743
vn 0.86601992 0.00000000 0.50000950
vn 0.60971408 -0.71015873 0.35202743
vn 0.00000000 1.00000000 0.00000000
vn -0.70710678 0.00000000 -0.70710678
vn 0.00000000 -1.00000000 0.00000000
vn 0.70710678 0.00000000 0.70710678
vn 0.70710678 0.00000000 -0.70710678
vn -0.70710678 0.00000000 0.70710678
vn 0.00000000 -1.00000000 0.00000000
vn 0.00000000 1.00000000 0.00000000
vn 0.70710678 0.00000000 0.70710678
vn -0.70710678 0.00000000 -0.70710678
vn 0.00000000 1.00000000 0.00000000
vn 0.00000000 -1.00000000 0.00000000
vn 0.35201047 0.71016230 -0.60971972
vn -0.35201047 -0.71016230 0.60971972
vn 0.00000000 -1.00000000 0.00000000
vn 0.00000000 1.00000000 0.00000000
vn -0.49783218 0.71015878 -0.49783293
vn 0.49783218 -0.71015878 0.49783293
vn 0.00000000 1.00000000 0.00000000
vn 0.00000000 -1.00000000 0.00000000
vn 0.35201311 0.71016680 -0.60971295
vn -0.35201311 -0.71016680 0.60971295
vn -0.50000354 0.00001081 0.86602336
vn 0.50000354 -0.00001081 -0.86602336
vn 0.00000000 -1.00000000 0.00000000
vn 0.00000000 1.00000000 0.00000000
vn -0.50000657 -0.00000479 0.86602161
vn 0.50000657 0.00000479 -0.86602161
vn 0.49998436 0.00000000 -0.86603443
vn -0.49998436 0.00000000 0.86603443
vn 0.00000000 -1.00000000 0.00000000
vn 0.00000000 1.00000000 0.00000000
vn -0.70710678 0.00000000 -0.70710678
vn 0.70710678 0.00000000 0.70710678
vn 0.49783223 -0.71015879 0.49783286
vn -0.49783223 0.71015879 -0.49783286
vn 0.00000000 1.00000000 0.00000000
vn -0.49999612 -0.00000577 -0.86602764
vn 0.49999612 0.00000577 0.86602764
vn 0.00000000 -1.00000000 0.00000000
vn 0.00000000 1.00000000 0.00000000
vn -0.18221716 -0.71021391 0.67999493
vn 0.18221716 0.71021391 -0.67999493
vn 0.00000000 -1.00000000 0.00000000
vn 0.00000000 1.00000000 0.00000000
vn 0.00000000 -1.00000000 0.00000000
vn -0.35201547 0.71015874 -0.60972098
vn 0.35201547 -0.71015874 0.60972098
vn 0.00000000 -1.00000000 0.00000000
vn -0.38305795 0.00049232 0.92372418
vn 0.38305795 -0.00049232 -0.92372418
vn 0.30145091 0.00000000 0.95348170
vn 0.00000000 1.00000000 0.00000000
vn -0.30145091 0.00000000 -0.95348170
vn -0.50000950 0.00000000 -0.86601992
vn -0.35201747 0.71016447 -0.60971315
vn 0.35201747 -0.71016447 0.60971315
vn 0.50000950 0.00000000 0.86601992
vn 0.00000000 1.00000000 0.00000000
vn -0.50000733 0.00000354 -0.86602117
vn 0.00000000 -1.00000000 0.00000000
vn 0.50000733 -0.00000354 0.86602117
vn 0.00000328 0.00000000 1.00000000
vn -0.00000328 0.00000000 -1.00000000
vn 0.00000000 1.00000000 0.00000000
vn 0.00000000 -1.00000000 0.00000000
vn 0.18221512 0.71021524 -0.67999409
vn -0.25882110 0.00000000 0.96592528
vn 0.25882110 0.00000000 -0.96592528
vn -0.18221512 -0.71021524 0.67999409
vn 0.00000000 -1.00000000 0.00000000
vn 0.00000000 1.00000000 0.00000000
vn 0.25898744 -0.00021163 -0.96588067
vn -0.25898744 0.00021163 0.96588067
vn 0.20179432 0.00000000 0.97942792
vn 0.00000000 1.00000000 0.00000000
vn -0.20179432 0.00000000 -0.97942792
vn 0.00000000 -1.00000000 0.00000000
vn -0.30145091 0.00000000 0.95348170
vn 0.30145091 0.00000000 -0.95348170
vn 0.00000000 1.00000000 0.00000000
vn -0.38285338 -0.00001837 -0.92380912
vn 0.38285338 0.00001837 0.92380912
vn 0.00000000 -1.00000000 0.00000000
vn -0.18221212 0.71020391 -0.68000672
vn 0.18221212 -0.71020391 0.68000672
vn -0.25882548 -0.00001344 -0.96592410
vn 0.25882548 0.00001344 0.96592410
vn 0.00000000 -1.00000000 0.00000000
vn 0.25882354 -0.00000397 0.96592462
vn 0.00000000 1.00000000 0.00000000
vn -0.25882354 0.00000397 -0.96592462
vn -0.30145091 0.00000000 -0.95348170
vn 0.00000000 -1.00000000 0.00000000
vn -0.38291741 -0.00000045 0.92378258
vn 0.38291741 0.00000045 -0.92378258
vn 0.30145091 0.00000000 0.95348170
vn 0.00000000 1.00000000 0.00000000
vn 0.00000000 1.00000000 0.00000000
vn 0.00000000 -1.00000000 0.00000000
vn 0.20179110 0.00000000 -0.97942858
vn -0.20179110 0.00000000 0.97942858
vn -0.00000042 -0.71018277 0.70401735
vn 0.00000042 0.71018277 -0.70401735
vn 0.00000000 1.00000000 0.00000000
vn 0.00000000 -1.00000000 0.00000000
vn 0.00000000 1.00000000 0.00000000
vn 0.18222472 -0.71020403 0.68000323
vn 0.00000000 -1.00000000 0.00000000
vn -0.18222472 0.71020403 -0.68000323
vn -0.25910229 0.00000000 -0.96584989
vn 0.25910229 0.00000000 0.96584989
vn 0.00000000 -1.00000000 0.00000000
vn 0.00000000 1.00000000 0.00000000
vn 0.00000000 1.00000000 0.00000000
vn 0.38286359 -0.00000033 0.92380489
vn 0.30145091 0.00000000 -0.95348170
vn 0.00000000 -1.00000000 0.00000000
vn -0.30145091 0.00000000 0.95348170
vn -0.38286359 0.00000033 -0.92380489
vn 0.00000000 -1.00000000 0.00000000
vn 0.25882440 0.00000537 -0.96592439
vn 0.00000000 1.00000000 0.00000000
vn -0.25882440 -0.00000537 0.96592439
vn 0.00000000 1.00000000 0.00000000
vn 0.20179432 0.00000000 0.97942792
vn 0.00000000 -1.00000000 0.00000000
vn -0.20179432 0.00000000 -0.97942792
vn -0.00000328 0.00000000 -1.00000000
vn 0.00000000 -1.00000000 0.00000000
vn 0.00000328 0.00000000 1.00000000
vn 0.00000000 1.00000000 0.00000000
vn 0.00000000 -0.71017179 0.70402843
vn 0.00000000 0.71017179 -0.70402843
vn 0.00000000 0.00000000 1.00000000
vn 0.00000000 0.00000000 -1.00000000
vn -0.00000000 0.00000000 -1.00000000
vn 0.00000000 -1.00000000 0.00000000
vn 0.00000000 0.00000000 1.00000000
vn 0.00000000 1.00000000 0.00000000
vn 0.00000000 1.00000000 0.00000000
vn 0.00000000 -1.00000000 0.00000000
vn 0.00000000 0.00000000 1.00000000
vn 0.00000000 0.00000000 -1.00000000
vn 0.00000000 1.00000000 0.00000000
vn 0.00000000 -1.00000000 0.00000000
vn 0.25910229 0.00000000 0.96584989
vn -0.25910229 0.00000000 -0.96584989
vn 0.00000000 1.00000000 0.00000000
vn -0.25920127 0.00000000 0.96582333
vn 0.00000000 -1.00000000 0.00000000
vn 0.25920127 0.00000000 -0.96582333
vn 0.00000000 -1.00000000 0.00000000
vn 0.00000000 1.00000000 0.00000000
vn 0.20179110 0.00000000 -0.97942858
vn -0.20179110 0.00000000 0.97942858
vn 0.00000000 0.00000000 1.00000000
vn -0.00000000 0.00000000 -1.00000000
vn 0.00000000 1.00000000 0.00000000
vn 0.00000000 -1.00000000 0.00000000
vn 0.00000000 1.00000000 0.00000000
vn 0.42223965 0.70709800 -0.56720904
vn 0.00000000 0.70710678 -0.70710678
vn 0.00000000 -0.70710678 0.70710678
vn -0.42223965 -0.70709800 0.56720904
vn 0.00000000 -1.00000000 0.00000000
vn -0.58807066 0.00000000 -0.80880956
vn 0.00000000 -0.70710678 0.70710678
vn -0.41582914 0.70710612 -0.57191525
vn 0.41582914 -0.70710612 0.57191525
vn 0.00000000 0.70710678 -0.70710678
vn 0.00000000 0.00000000 -1.00000000
vn 0.58807066 0.00000000 0.80880956
vn 0.00000000 0.00000000 1.00000000
vn 0.00000000 0.00000000 1.00000000
vn 0.00000000 0.70710678 -0.70710678
vn 0.00000000 -0.70710678 0.70710678
vn -0.42223961 -0.70710131 0.56720494
vn 0.00000000 0.00000000 -1.00000000
vn 0.42223961 0.70710131 -0.56720494
vn -0.59713237 0.00000000 0.80214272
vn 0.59713237 0.00000000 -0.80214272
vn 0.41582912 -0.70710354 0.57191846
vn 0.00000000 -0.70710678 0.70710678
vn -0.41582912 0.70710354 -0.57191846
vn 0.00000000 1.00000000 0.00000000
vn 0.00000000 0.70710678 -0.70710678
vn 0.00000000 -1.00000000 0.00000000
vn 0.07948606 -0.96142467 -0.26333356
vn 0.59713237 0.00000000 -0.80214272
vn -0.07948606 0.96142467 0.26333356
vn 0.00000000 0.00000000 1.00000000
vn -0.59713237 0.00000000 0.80214272
vn 0.00000000 0.00000000 -1.00000000
vn 0.00000000 -1.00000000 0.00000000
vn 0.00000000 1.00000000 0.00000000
vn -0.70388766 -0.70709700 0.06749807
vn 0.70388766 0.70709700 -0.06749807
vn -0.99543371 0.00000000 0.09545537
vn 0.59713237 0.00000000 -0.80214272
vn 0.99543371 0.00000000 -0.09545537
vn -0.59713237 0.00000000 0.80214272
vn 0.42223971 0.70709351 -0.56721460
vn -0.42223971 -0.70709351 0.56721460
vn -0.42223976 -0.70708881 0.56722042
vn 0.00000000 1.00000000 0.00000000
vn -0.70388803 -0.70709662 0.06749827
vn 0.42223976 0.70708881 -0.56722042
vn 0.00000000 -1.00000000 0.00000000
vn 0.70388803 0.70709662 -0.06749827
vn 0.58807066 0.00000000 0.80880956
vn -0.41582909 0.70710013 -0.57192269
vn -0.58807066 0.00000000 -0.80880956
vn 0.41582909 -0.70710013 0.57192269
vn 0.70382161 -0.70709828 0.06817007
vn -0.70382161 0.70709828 -0.06817007
vn -0.99534211 0.00000000 -0.09640588
vn 0.99534211 0.00000000 0.09640588
vn -0.58807066 0.00000000 -0.80880956
vn 0.00000000 0.00000000 -1.00000000
vn 0.00000000 0.00000000 1.00000000
vn 0.00000000 -1.00000000 0.00000000
vn 0.00000000 1.00000000 0.00000000
vn -0.07827050 -0.96147303 -0.26352105
vn 0.07827050 0.96147303 0.26352105
vn 0.58807066 0.00000000 0.80880956
vn 0.99543371 0.00000000 -0.09545537
vn -0.56740561 0.82163884 0.05441037
vn 0.56740561 -0.82163884 -0.05441037
vn -0.59713237 0.00000000 0.80214272
vn 0.59713237 0.00000000 -0.80214272
vn -0.99543371 0.00000000 0.09545537
vn 0.00000000 1.00000000 0.00000000
vn -0.17293136 0.94938271 0.26223503
vn 0.00000000 -1.00000000 0.00000000
vn 0.17293136 -0.94938271 -0.26223503
vn 0.00000000 1.00000000 0.00000000
vn 0.70382051 -0.70709944 0.06816948
vn 0.41582907 -0.70709646 0.57192725
vn -0.41582907 0.70709646 -0.57192725
vn 0.00000000 -1.00000000 0.00000000
vn -0.70382051 0.70709944 -0.06816948
vn -0.56651006 -0.82222599 -0.05487048
vn 0.56651006 0.82222599 0.05487048
vn 0.16924592 0.95000833 0.26237376
vn 0.99534211 0.00000000 0.09640588
vn 0.00000000 1.00000000 0.00000000
vn -0.16924592 -0.95000833 -0.26237376
vn 0.58807066 0.00000000 0.80880956
vn -0.99534211 0.00000000 -0.09640588
vn -0.58807066 0.00000000 -0.80880956
vn 0.00000000 -1.00000000 0.00000000
vn 0.08586715 0.95780865 0.27427981
vn -0.08586715 -0.95780865 -0.27427981
vn 0.00000000 -1.00000000 0.00000000
vn 0.00000000 1.00000000 0.00000000
vn 0.08814428 -0.95762625 -0.27419438
vn -0.08814428 0.95762625 0.27419438
vn 0.00000000 -1.00000000 0.00000000
vn 0.00000000 1.00000000 0.00000000
vn 0.99999989 0.00000000 0.00047425
vn 0.70548254 0.70872722 0.00033450
vn -0.70548254 -0.70872722 -0.00033450
vn -0.99999989 0.00000000 -0.00047425
vn -0.70547211 0.70873761 -0.00033583
vn 0.00000000 -1.00000000 0.00000000
vn 0.00000000 1.00000000 0.00000000
vn 0.70547211 -0.70873761 0.00033583
vn -0.99999989 0.00000000 -0.00047746
vn 0.99999989 0.00000000 0.00047746
vn -0.70547196 0.70873775 -0.00033534
vn 0.70547196 -0.70873775 0.00033534
vn 0.99999989 0.00000000 0.00047746
vn -0.99999989 0.00000000 -0.00047746
vn 0.58630976 0.81008671 0.00062295
vn 0.00000000 -1.00000000 0.00000000
vn -0.58630976 -0.81008671 -0.00062295
vn 0.00000000 1.00000000 0.00000000
vn -0.15296717 0.94342098 0.29420723
vn 0.00000000 -1.00000000 0.00000000
vn -0.57364710 0.81687971 0.06030386
vn 0.57364710 -0.81687971 -0.06030386
vn 0.00000000 1.00000000 0.00000000
vn 0.15296717 -0.94342098 -0.29420723
vn 0.00000000 -1.00000000 0.00000000
vn 0.70548308 0.70872668 0.00033495
vn -0.70548308 -0.70872668 -0.00033495
vn 0.00000000 1.00000000 0.00000000
vn -0.99999989 0.00000000 -0.00047425
vn 0.00000000 1.00000000 0.00000000
vn 0.00000000 -1.00000000 0.00000000
vn 0.58631662 -0.81008174 0.00062445
vn -0.58631662 0.81008174 -0.00062445
vn 0.99999989 0.00000000 0.00047425
vn 0.00000000 -1.00000000 0.00000000
vn 0.14915647 0.94418337 0.29371774
vn -0.14915647 -0.94418337 -0.29371774
vn -0.57277541 -0.81745086 -0.06084750
vn 0.00000000 1.00000000 0.00000000
vn 0.57277541 0.81745086 0.06084750
vn 0.41582490 0.70709507 0.57193199
vn -0.70382354 -0.70709676 -0.06816592
vn 0.70382354 0.70709676 0.06816592
vn -0.41582490 -0.70709507 -0.57193199
vn 0.00000000 1.00000000 0.00000000
vn 0.00000000 -1.00000000 0.00000000
vn -0.99534272 0.00000000 -0.09639950
vn 0.00000000 -1.00000000 0.00000000
vn 0.99534272 0.00000000 0.09639950
vn -0.58806541 0.00000000 -0.80881337
vn 0.58806541 0.00000000 0.80881337
vn 0.00000000 1.00000000 0.00000000
vn -0.16924423 0.95000869 -0.26237356
vn -0.56650577 0.82222922 -0.05486640
vn 0.56650577 -0.82222922 0.05486640
vn 0.16924423 -0.95000869 0.26237356
vn -0.42223563 0.70708744 0.56722520
vn 0.00000000 -1.00000000 0.00000000
vn -0.70388892 0.70709612 0.06749418
vn 0.00000000 1.00000000 0.00000000
vn 0.42223563 -0.70708744 -0.56722520
vn 0.70388892 -0.70709612 -0.06749418
vn 0.70388668 -0.70709829 -0.06749482
vn -0.59713237 0.00000000 0.80214272
vn -0.70388668 0.70709829 0.06749482
vn 0.59713237 0.00000000 -0.80214272
vn 0.42223554 -0.70709532 -0.56721545
vn -0.99543371 0.00000000 0.09545537
vn 0.99543371 0.00000000 -0.09545537
vn -0.42223554 0.70709532 0.56721545
vn 0.00000000 -1.00000000 0.00000000
vn -0.59756813 -0.80181814 -0.00003063
vn 0.59756813 0.80181814 0.00003063
vn 0.00000000 1.00000000 0.00000000
vn 0.00000000 -1.00000000 0.00000000
vn -0.56739674 -0.82164503 0.05440952
vn 0.56739674 0.82164503 -0.05440952
vn -0.99543371 0.00000000 0.09545537
vn 0.99543371 0.00000000 -0.09545537
vn -0.59713237 0.00000000 0.80214272
vn 0.00000000 1.00000000 0.00000000
vn -0.17293200 -0.94938288 0.26223398
vn 0.17293200 0.94938288 -0.26223398
vn 0.59713237 0.00000000 -0.80214272
vn 0.00000000 -1.00000000 0.00000000
vn -0.59757771 0.80181100 -0.00003469
vn 0.00000000 1.00000000 0.00000000
vn 0.59757771 -0.80181100 0.00003469
vn -0.99534272 0.00000000 -0.09639950
vn 0.70382306 0.70709726 0.06816566
vn -0.58806541 0.00000000 -0.80881337
vn 0.41582494 0.70709956 0.57192643
vn 0.99534272 0.00000000 0.09639950
vn -0.70382306 -0.70709726 -0.06816566
vn 0.58806541 0.00000000 0.80881337
vn -0.41582494 -0.70709956 -0.57192643
vn -0.14915576 0.94418391 -0.29371635
vn 0.00000000 -1.00000000 0.00000000
vn 0.00000000 1.00000000 0.00000000
vn -0.57277403 0.81745193 -0.06084617
vn 0.14915576 -0.94418391 0.29371635
vn 0.57277403 -0.81745193 0.06084617
vn -0.15296876 -0.94342151 0.29420470
vn 0.57363817 0.81688604 -0.06030300
vn -0.57363817 -0.81688604 0.06030300
vn 0.15296876 0.94342151 -0.29420470
vn 0.00000000 1.00000000 0.00000000
vn 0.00000000 -1.00000000 0.00000000
vn -0.41582497 -0.70710372 -0.57192126
vn 0.00000000 -1.00000000 0.00000000
vn 0.00000000 0.70710678 0.70710678
vn 0.00000000 -0.70710678 -0.70710678
vn 0.41582497 0.70710372 0.57192126
vn 0.00000000 1.00000000 0.00000000
vn 0.00000000 -0.70710678 -0.70710678
vn 0.00000000 -1.00000000 0.00000000
vn 0.42223545 -0.70710285 -0.56720612
vn -0.42223545 0.70710285 0.56720612
vn 0.00000000 1.00000000 0.00000000
vn 0.00000000 0.70710678 0.70710678
vn 0.00000000 -0.70710678 -0.70710678
vn 0.41582499 0.70710687 0.57191735
vn 0.00000000 0.70710678 0.70710678
vn 0.00000000 0.00000000 1.00000000
vn -0.58806541 0.00000000 -0.80881337
vn 0.58806541 0.00000000 0.80881337
vn -0.41582499 -0.70710687 -0.57191735
vn 0.00000000 0.00000000 -1.00000000
vn -0.59713237 0.00000000 0.80214272
vn 0.00000000 0.00000000 1.00000000
vn 0.59713237 0.00000000 -0.80214272
vn -0.07948606 -0.96142467 0.26333356
vn 0.07948606 0.96142467 -0.26333356
vn 0.00000000 0.00000000 -1.00000000
vn 0.00000000 1.00000000 0.00000000
vn 0.00000000 -1.00000000 0.00000000
vn -0.08586646 0.95780883 -0.27427943
vn 0.00000000 -1.00000000 0.00000000
vn 0.00000000 1.00000000 0.00000000
vn 0.08586646 -0.95780883 0.27427943
vn -0.42223538 0.70710839 0.56719926
vn 0.42223538 -0.70710839 -0.56719926
vn 0.00000000 0.00000000 -1.00000000
vn 0.00000000 0.70710678 0.70710678
vn 0.59713237 0.00000000 -0.80214272
vn -0.59713237 0.00000000 0.80214272
vn 0.00000000 -0.70710678 -0.70710678
vn 0.00000000 0.00000000 1.00000000
vn 0.08814486 0.95762638 -0.27419371
vn -0.08814486 -0.95762638 0.27419371
vn 0.00000000 -1.00000000 0.00000000
vn 0.00000000 1.00000000 0.00000000
vn 0.07826980 -0.96147306 0.26352116
vn -0.58806541 0.00000000 -0.80881337
vn 0.00000000 1.00000000 0.00000000
vn -0.07826980 0.96147306 -0.26352116
vn 0.00000000 -1.00000000 0.00000000
vn 0.58806541 0.00000000 0.80881337
vn 0.00000000 0.00000000 -1.00000000
vn 0.00000000 0.00000000 1.00000000
f 1//1 8//8 9//9
f 8//8 1//1 14//14
f 11//11 7//7 4//4
f 13//13 4//4 7//7
f 17//17 9//9 8//8
f 7//7 11//11 18//18
f 10//10 24//24 3//3
f 2//2 23//23 12//12
f 1//1 28//28 14//14
f 13//13 27//27 4//4
f 15//15 29//29 6//6
f 5//5 32//32 16//16
f 9//9 17//17 35//35
f 36//36 18//18 11//11
f 6//6 38//38 19//19
f 20//20 40//40 5//5
f 34//34 24//24 10//10
f 12//12 23//23 33//33
f 28//28 1//1 22//22
f 21//21 4//4 27//27
f 26//26 44//44 15//15
f 16//16 41//41 25//25
f 29//29 15//15 44//44
f 41//41 16//16 32//32
f 38//38 6//6 29//29
f 32//32 5//5 40//40
f 48//48 35//35 17//17
f 18//18 36//36 47//47
f 49//49 19//19 38//38
f 40//40 20//20 51//51
f 34//34 55//55 24//24
f 23//23 56//56 33//33
f 22//22 58//58 28//28
f 27//27 59//59 21//21
f 44//44 26//26 63//63
f 61//61 25//25 41//41
f 31//31 62//62 42//42
f 43//43 64//64 30//30
f 44//44 65//65 29//29
f 32//32 67//67 41//41
f 37//37 62//62 31//31
f 30//30 64//64 39//39
f 29//29 69//69 38//38
f 40//40 70//70 32//32
f 35//35 48//48 73//73
f 75//75 47//47 36//36
f 19//19 49//49 45//45
f 46//46 51//51 20//20
f 52//52 80//80 37//37
f 39//39 77//77 50//50
f 38//38 84//84 49//49
f 51//51 81//81 40//40
f 76//76 55//55 34//34
f 33//33 56//56 74//74
f 58//58 22//22 53//53
f 54//54 21//21 59//59
f 78//78 26//26 57//57
f 60//60 25//25 79//79
f 26//26 78//78 63//63
f 61//61 79//79 25//25
f 63//63 85//85 44//44
f 41//41 87//87 61//61
f 65//65 44//44 85//85
f 87//87 41//41 67//67
f 69//69 29//29 65//65
f 67//67 32//32 70//70
f 37//37 80//80 62//62
f 64//64 77//77 39//39
f 84//84 38//38 69//69
f 70//70 40//40 81//81
f 91//91 73//73 48//48
f 47//47 75//75 92//92
f 49//49 90//90 45//45
f 46//46 89//89 51//51
f 52//52 95//95 80//80
f 77//77 93//93 50//50
f 84//84 100//100 49//49
f 51//51 99//99 81//81
f 76//76 102//102 55//55
f 56//56 101//101 74//74
f 53//53 105//105 58//58
f 59//59 106//106 54//54
f 108//108 78//78 57//57
f 60//60 79//79 107//107
f 78//78 111//111 63//63
f 61//61 109//109 79//79
f 85//85 63//63 111//111
f 109//109 61//61 87//87
f 110//110 68//68 88//88
f 86//86 66//66 112//112
f 110//110 71//71 68//68
f 66//66 72//72 112//112
f 115//115 83//83 71//71
f 72//72 82//82 116//116
f 73//73 91//91 117//117
f 119//119 92//92 75//75
f 90//90 49//49 100//100
f 99//99 51//51 89//89
f 98//98 95//95 52//52
f 50//50 93//93 97//97
f 78//78 108//108 96//96
f 94//94 107//107 79//79
f 96//96 121//121 78//78
f 79//79 124//124 94//94
f 100//100 84//84 125//125
f 127//127 81//81 99//99
f 120//120 102//102 76//76
f 74//74 101//101 118//118
f 105//105 53//53 103//103
f 104//104 54//54 106//106
f 111//111 78//78 121//121
f 124//124 79//79 109//109
f 122//122 71//71 110//110
f 112//112 72//72 123//123
f 115//115 126//126 83//83
f 82//82 128//128 116//116
f 115//115 71//71 122//122
f 123//123 72//72 116//116
f 131//131 117//117 91//91
f 92//92 119//119 130//130
f 100//100 129//129 90//90
f 89//89 132//132 99//99
f 98//98 136//136 95//95
f 93//93 133//133 97//97
f 108//108 134//134 96//96
f 94//94 135//135 107//107
f 121//121 96//96 113//113
f 114//114 94//94 124//124
f 125//125 139//139 100//100
f 99//99 137//137 127//127
f 120//120 143//143 102//102
f 101//101 141//141 118//118
f 103//103 145//145 105//105
f 106//106 146//146 104//104
f 152//152 126//126 115//115
f 116//116 128//128 150//150
f 117//117 131//131 155//155
f 153//153 130//130 119//119
f 129//129 100//100 139//139
f 137//137 99//99 132//132
f 140//140 136//136 98//98
f 97//97 133//133 138//138
f 149//149 96//96 134//134
f 135//135 94//94 151//151
f 134//134 108//108 147//147
f 148//148 107//107 135//135
f 96//96 149//149 113//113
f 114//114 151//151 94//94
f 139//139 125//125 160//160
f 159//159 127//127 137//137
f 154//154 143//143 120//120
f 118//118 141//141 156//156
f 145//145 103//103 144//144
f 142//142 104//104 146//146
f 152//152 157//157 126//126
f 128//128 158//158 150//150
f 161//161 155//155 131//131
f 130//130 153//153 164//164
f 139//139 162//162 129//129
f 132//132 163//163 137//137
f 140//140 166//166 136//136
f 133//133 165//165 138//138
f 134//134 171//171 149//149
f 151//151 172//172 135//135
f 147//147 167//167 134//134
f 135//135 168//168 148//148
f 160//160 175//175 139//139
f 137//137 174//174 159//159
f 154//154 179//179 143//143
f 141//141 177//177 156//156
f 144//144 183//183 145//145
f 146//146 181//181 142//142
f 169//169 157//157 152//152
f 150//150 158//158 170//170
f 155//155 161//161 186//186
f 185//185 164//164 153//153
f 162//162 139//139 175//175
f 174//174 137//137 163//163
f 140//140 189//189 166//166
f 165//165 190//190 138//138
f 171//171 134//134 167//167
f 168//168 135//135 172//172
f 167//167 147//147 184//184
f 182//182 148//148 168//168
f 175//175 160//160 195//195
f 193//193 159//159 174//174
f 176//176 189//189 140//140
f 138//138 190//190 173//173
f 154//154 198//198 179//179
f 177//177 200//200 156//156
f 183//183 144//144 180//180
f 178//178 142//142 181//181
f 203//203 157//157 169//169
f 170//170 158//158 201//201
f 161//161 208//208 186//186
f 185//185 206//206 164//164
f 187//187 198//198 154//154
f 156//156 200//200 188//188
f 175//175 212//212 162//162
f 163//163 209//209 174//174
f 184//184 192//192 167//167
f 168//168 191//191 182//182
f 204//204 167//167 192//192
f 191//191 168//168 202//202
f 167//167 204//204 171//171
f 172//172 202//202 168//168
f 203//203 196//196 157//157
f 158//158 194//194 201//201
f 195//195 216//216 175//175
f 174//174 215//215 193//193
f 214//214 189//189 176//176
f 173//173 190//190 213//213
f 199//199 183//183 180//180
f 178//178 181//181 197//197
f 208//208 161//161 211//211
f 210//210 164//164 206//206
f 205//205 198//198 187//187
f 188//188 200//200 207//207
f 212//212 175//175 216//216
f 215//215 174//174 209//209
f 192//192 184//184 217//217
f 218//218 182//182 191//191
f 192//192 222//222 204//204
f 202//202 221//221 191//191
f 203//203 225//225 196//196
f 194//194 226//226 201//201
f 216//216 195//195 227//227
f 228//228 193//193 215//215
f 214//214 232//232 189//189
f 190//190 231//231 213//213
f 183//183 199//199 219//219
f 220//220 197//197 181//181
f 211//211 235//235 208//208
f 206//206 233//233 210//210
f 205//205 238//238 198//198
f 200//200 237//237 207//207
f 216//216 243//243 212//212
f 209//209 244//244 215//215
f 217//217 229//229 192//192
f 191//191 230//230 218//218
f 222//222 192//192 229//229
f 230//230 191//191 221//221
f 223//223 225//225 203//203
f 201//201 226//226 224//224
f 227//227 245//245 216//216
f 215//215 247//247 228//228
f 246//246 232//232 214//214
f 213//213 231//231 248//248
f 240//240 219//219 199//199
f 197//197 220//220 239//239
f 235//235 211//211 242//242
f 241//241 210//210 233//233
f 236//236 238//238 205//205
f 207//207 237//237 234//234
f 243//243 216//216 245//245
f 247//247 215//215 244//244
f 229//229 217//217 252//252
f 251//251 218//218 230//230
f 229//229 253//253 222//222
f 221//221 254//254 230//230
f 223//223 260//260 225//225
f 226//226 259//259 224//224
f 245//245 227//227 257//257
f 258//258 228//228 247//247
f 246//246 262//262 232//232
f 231//231 264//264 248//248
f 219//219 240//240 249//249
f 250//250 239//239 220//220
f 242//242 266//266 235//235
f 233//233 267//267 241//241
f 236//236 272//272 238//238
f 237//237 269//269 234//234
f 245//245 275//275 243//243
f 244//244 276//276 247//247
f 252//252 263//263 229//229
f 230//230 261//261 251//251
f 253//253 229//229 263//263
f 261//261 230//230 254//254
f 256//256 260//260 223//223
f 224//224 259//259 255//255
f 257//257 278//278 245//245
f 247//247 280//280 258//258
f 277//277 262//262 246//246
f 248//248 264//264 279//279
f 271//271 249//249 240//240
f 239//239 250//250 270//270
f 266//266 242//242 273//273
f 274//274 241//241 267//267
f 268//268 272//272 236//236
f 234//234 269//269 265//265
f 275//275 245//245 278//278
f 280//280 247//247 276//276
f 263//263 252//252 281//281
f 283//283 251//251 261//261
f 263//263 286//286 253//253
f 254//254 288//288 261//261
f 256//256 291//291 260//260
f 259//259 292//292 255//255
f 278//278 257//257 289//289
f 290//290 258//258 280//280
f 277//277 295//295 262//262
f 264//264 296//296 279//279
f 249//249 271//271 282//282
f 284//284 270//270 250//250
f 273//273 297//297 266//266
f 267//267 298//298 274//274
f 268//268 303//303 272//272
f 269//269 304//304 265//265
f 278//278 308//308 275//275
f 276//276 307//307 280//280
f 281//281 294//294 263//263
f 261//261 293//293 283//283
f 286//286 263//263 294//294
f 293//293 261//261 288//288
f 287//287 291//291 256//256
f 255//255 292//292 285//285
f 312//312 278//278 289//289
f 290//290 280//280 311//311
f 316//316 295//295 277//277
f 279//279 296//296 315//315
f 301//301 282//282 271//271
f 270//270 284//284 302//302
f 297//297 273//273 305//305
f 306//306 274//274 298//298
f 300//300 303//303 268//268
f 265//265 304//304 299//299
f 308//308 278//278 313//313
f 314//314 280//280 307//307
f 294//294 281//281 317//317
f 318//318 283//283 293//293
f 322//322 286//286 294//294
f 293//293 288//288 323//323
f 287//287 309//309 291//291
f 292//292 310//310 285//285
f 278//278 312//312 313//313
f 314//314 311//311 280//280
f 316//316 321//321 295//295
f 296//296 324//324 315//315
f 282//282 301//301 320//320
f 319//319 302//302 284//284
f 305//305 327//327 297//297
f 298//298 326//326 306//306
f 300//300 329//329 303//303
f 304//304 330//330 299//299
f 335//335 308//308 313//313
f 314//314 307//307 334//334
f 339//339 294//294 317//317
f 318//318 293//293 342//342
f 286//286 322//322 344//344
f 346//346 323//323 288//288
f 294//294 339//339 322//322
f 323//323 342//342 293//293
f 345//345 309//309 287//287
f 285//285 310//310 343//343
f 312//312 335//335 313//313
f 314//314 334//334 311//311
f 316//316 349//349 321//321
f 324//324 350//350 315//315
f 331//331 320//320 301//301
f 302//302 319//319 332//332
f 327//327 305//305 351//351
f 354//354 306//306 326//326
f 325//325 329//329 300//300
f 299//299 330//330 328//328
f 357//357 308//308 335//335
f 334//334 307//307 358//358
f 360//360 316//316 337//337
f 333//333 315//315 362//362
f 320//320 331//331 340//340
f 341//341 332//332 319//319
f 366//366 344//344 322//322
f 323//323 346//346 367//367
f 371//371 322//322 339//339
f 342//342 323//323 372//372
f 373//373 309//309 345//345
f 343//343 310//310 375//375
f 312//312 380//380 335//335
f 334//334 379//379 311//311
f 316//316 360//360 349//349
f 350//350 362//362 315//315
f 383//383 321//321 349//349
f 350//350 324//324 384//384
f 308//308 357//357 353//353
f 352//352 358//358 307//307
f 351//351 388//388 327//327
f 326//326 387//387 354//354
f 325//325 391//391 329//329
f 330//330 393//393 328//328
f 397//397 355//355 333//333
f 337//337 356//356 398//398
f 384//384 333//333 362//362
f 360//360 337//337 383//383
f 377//377 361//361 338//338
f 336//336 359//359 381//381
f 394//394 340//340 331//331
f 332//332 341//341 392//392
f 344//344 366//366 404//404
f 400//400 367//367 346//346
f 322//322 371//371 366//366
f 367//367 372//372 323//323
f 321//321 383//383 365//365
f 368//368 384//384 324//324
f 340//340 394//394 369//369
f 370//370 392//392 341//341
f 373//373 405//405 309//309
f 310//310 407//407 375//375
f 344//344 404//404 376//376
f 374//374 400//400 346//346
f 406//406 380//380 312//312
f 311//311 379//379 408//408
f 384//384 362//362 350//350
f 349//349 360//360 383//383
f 412//412 348//348 361//361
f 359//359 347//347 410//410
f 413//413 385//385 348//348
f 347//347 386//386 415//415
f 357//357 420//420 353//353
f 352//352 419//419 358//358
f 388//388 351//351 418//418
f 417//417 354//354 387//387
f 391//391 325//325 389//389
f 390//390 328//328 393//393
f 355//355 397//397 422//422
f 424//424 398//398 356//356
f 397//397 333//333 368//368
f 365//365 337//337 398//398
f 368//368 333//333 384//384
f 383//383 337//337 365//365
f 361//361 377//377 412//412
f 410//410 381//381 359//359
f 385//385 401//401 364//364
f 363//363 403//403 386//386
f 366//366 371//371 395//395
f 396//396 372//372 367//367
f 388//388 369//369 394//394
f 392//392 370//370 387//387
f 405//405 373//373 426//426
f 425//425 375//375 407//407
f 376//376 404//404 432//432
f 431//431 400//400 374//374
f 380//380 406//406 436//436
f 434//434 408//408 379//379
f 348//348 412//412 413//413
f 415//415 410//410 347//347
f 385//385 413//413 439//439
f 440//440 415//415 386//386
f 420//420 357//357 421//421
f 423//423 358//358 419//419
f 369//369 388//388 418//418
f 417//417 387//387 370//370
f 371//371 421//421 395//395
f 396//396 423//423 372//372
f 382//382 438//438 409//409
f 411//411 437//437 378//378
f 401//401 385//385 439//439
f 440//440 386//386 403//403
f 432//432 428//428 376//376
f 374//374 427//427 431//431
f 428//428 436//436 406//406
f 408//408 434//434 427//427
f 382//382 429//429 399//399
f 402//402 430//430 378//378
f 433//433 429//429 382//382
f 378//378 430//430 435//435
f 409//409 438//438 416//416
f 414//414 437//437 411//411
f 421//421 371//371 420//420
f 419//419 372//372 423//423
f 382//382 399//399 438//438
f 437//437 402//402 378//378
f 428//428 432//432 442//442
f 441//441 431//431 427//427
f 436//436 428//428 442//442
f 441//441 427//427 434//434
f 429//429 433//433 443//443
f 444//444 435//435 430//430
f 448//448 452//452 461//461
f 452//452 448//448 468//468
f 460//460 455//455 447//447
f 471//471 447//447 455//455
f 458//458 476//476 459//459
f 463//463 478//478 456//456
f 488//488 449//449 462//462
f 464//464 446//446 487//487
f 493//493 472//472 450//450
f 445//445 470//470 490//490
f 467//467 498//498 454//454
f 453//453 496//496 469//469
f 476//476 458//458 505//505
f 504//504 456//456 478//478
f 514//514 465//465 477//477
f 474//474 466//466 515//515
f 449//449 488//488 489//489
f 492//492 487//487 446//446
f 465//465 514//514 486//486
f 484//484 515//515 466//466
f 472//472 493//493 525//525
f 521//521 490//490 470//470
f 498//498 467//467 523//523
f 524//524 469//469 496//496
f 495//495 510//510 457//457
f 451//451 503//503 497//497
f 531//531 480//480 507//507
f 506//506 479//479 536//536
f 537//537 475//475 509//509
f 508//508 473//473 538//538
f 480//480 531//531 517//517
f 519//519 536//536 479//479
f 542//542 518//518 475//475
f 473//473 520//520 541//541
f 547//547 491//491 481//481
f 482//482 494//494 546//546
f 516//516 548//548 483//483
f 485//485 545//545 511//511
f 525//525 493//493 550//550
f 551//551 490//490 521//521
f 522//522 556//556 499//499
f 500//500 555//555 526//526
f 510//510 495//495 533//533
f 535//535 497//497 503//503
f 537//537 509//509 529//529
f 532//532 508//508 538//538
f 475//475 537//537 542//542
f 541//541 538//538 473//473
f 517//517 531//531 562//562
f 560//560 536//536 519//519
f 563//563 518//518 542//542
f 541//541 520//520 568//568
f 491//491 547//547 571//571
f 570//570 546//546 494//494
f 548//548 516//516 573//573
f 578//578 511//511 545//545
f 550//550 493//493 569//569
f 572//572 490//490 551//551
f 556//556 522//522 552//552
f 549//549 526//526 555//555
f 557//557 502//502 554//554
f 553//553 501//501 558//558
f 502//502 557//557 530//530
f 534//534 558//558 501//501
f 580//580 537//537 529//529
f 532//532 538//538 581//581
f 583//583 544//544 540//540
f 539//539 543//543 579//579
f 559//559 584//584 528//528
f 527//527 582//582 561//561
f 517//517 562//562 574//574
f 575//575 560//560 519//519
f 577//577 512//512 565//565
f 566//566 513//513 576//576
f 544//544 583//583 567//567
f 564//564 579//579 543//543
f 547//547 586//586 571//571
f 570//570 587//587 546//546
f 591//591 548//548 573//573
f 578//578 545//545 593//593
f 550//550 569//569 602//602
f 604//604 572//572 551//551
f 552//552 607//607 556//556
f 555//555 609//609 549//549
f 613//613 557//557 554//554
f 553//553 558//558 612//612
f 617//617 584//584 559//559
f 561//561 582//582 616//616
f 574//574 562//562 625//625
f 619//619 560//560 575//575
f 577//577 565//565 630//630
f 632//632 566//566 576//576
f 567//567 583//583 618//618
f 615//615 579//579 564//564
f 586//586 547//547 638//638
f 634//634 546//546 587//587
f 602//602 569//569 590//590
f 589//589 572//572 604//604
f 548//548 591//591 633//633
f 637//637 593//593 545//545
f 574//574 625//625 596//596
f 592//592 619//619 575//575
f 598//598 577//577 644//644
f 646//646 576//576 599//599
f 607//607 552//552 606//606
f 603//603 549//549 609//609
f 557//557 613//613 623//623
f 622//622 612//612 558//558
f 648//648 617//617 559//559
f 561//561 616//616 649//649
f 621//621 648//648 559//559
f 561//561 649//649 620//620
f 567//567 618//618 631//631
f 629//629 615//615 564//564
f 644//644 577//577 630//630
f 632//632 576//576 646//646
f 640//640 653//653 588//588
f 585//585 657//657 636//636
f 602//602 590//590 660//660
f 663//663 589//589 604//604
f 594//594 669//669 635//635
f 639//639 670//670 595//595
f 596//596 625//625 679//679
f 680//680 619//619 592//592
f 597//597 641//641 681//681
f 684//684 645//645 600//600
f 661//661 611//611 605//605
f 601//601 614//614 662//662
f 689//689 628//628 610//610
f 608//608 624//624 690//690
f 631//631 618//618 651//651
f 652//652 615//615 629//629
f 627//627 693//693 650//650
f 647//647 694//694 626//626
f 631//631 651//651 643//643
f 642//642 652//652 629//629
f 653//653 640//640 671//671
f 666//666 636//636 657//657
f 660//660 590//590 654//654
f 658//658 589//589 663//663
f 669//669 594//594 698//698
f 702//702 595//595 670//670
f 628//628 689//689 675//675
f 673//673 690//690 624//624
f 677//677 693//693 627//627
f 626//626 694//694 676//676
f 596//596 679//679 699//699
f 701//701 680//680 592//592
f 643//643 696//696 683//683
f 682//682 695//695 642//642
f 700//700 597//597 681//681
f 684//684 600//600 697//697
f 611//611 661//661 686//686
f 685//685 662//662 614//614
f 643//643 651//651 696//696
f 695//695 652//652 642//642
f 665//665 659//659 656//656
f 655//655 664//664 667//667
f 678//678 672//672 703//703
f 704//704 668//668 674//674
f 672//672 678//678 687//687
f 692//692 674//674 668//668
f 677//677 681//681 693//693
f 694//694 684//684 676//676
f 681//681 677//677 700//700
f 697//697 676//676 684//684
f 659//659 665//665 691//691
f 688//688 667//667 664//664

