# https://github.com/mikedh/trimesh
mtllib material.mtl

o black_rubber
usemtl material_0
v -0.03989200 -0.00005800 0.01344100
v -0.03888400 0.00888800 0.01344100
v -0.03591100 0.01738400 0.01344100
v -0.03112200 0.02500600 0.01344100
v -0.02475600 0.03137200 0.01344100
v -0.01713400 0.03616100 0.01344100
v -0.00863700 0.03913400 0.01344100
v 0.00030800 0.04014200 0.01344100
v 0.00030800 0.04014200 0.00644100
v 0.00030800 -0.04025800 0.00644100
v -0.00863700 -0.03925000 0.00644100
v -0.01713400 -0.03627700 0.00644100
v -0.02475600 -0.03148700 0.00644100
v -0.03112200 -0.02512200 0.00644100
v -0.03591100 -0.01750000 0.00644100
v -0.03888400 -0.00900300 0.00644100
v -0.03989200 -0.00005800 0.00644100
v -0.03888400 0.00888800 0.00644100
v -0.03591100 0.01738400 0.00644100
v -0.03112200 0.02500600 0.00644100
v -0.02475600 0.03137200 0.00644100
v -0.01713400 0.03616100 0.00644100
v -0.00863700 0.03913400 0.00644100
v 0.00030800 -0.04025800 0.01344100
v -0.00863700 -0.03925000 0.01344100
v -0.01713400 -0.03627700 0.01344100
v -0.02475600 -0.03148700 0.01344100
v -0.03112200 -0.02512200 0.01344100
v -0.03591100 -0.01750000 0.01344100
v -0.03888400 -0.00900300 0.01344100
v -0.04039200 0.09094200 -0.00003000
v -0.03937200 0.09094200 -0.00908700
v -0.03636100 0.09094200 -0.01768900
v -0.03151300 0.09094200 -0.02540600
v -0.02506800 0.09094200 -0.03185100
v -0.01735100 0.09094200 -0.03670000
v -0.00874900 0.09094200 -0.03971000
v 0.00030800 0.09094200 -0.04073000
v 0.00936500 0.09094200 -0.03971000
v 0.01796700 0.09094200 -0.03670000
v 0.02568400 0.09094200 -0.03185100
v 0.03212800 0.09094200 -0.02540600
v 0.03697700 0.09094200 -0.01768900
v 0.03998800 0.09094200 -0.00908700
v 0.04100800 0.09094200 -0.00003000
v -0.04039200 0.09794200 -0.00003000
v -0.03937200 0.09794200 -0.00908700
v -0.03636100 0.09794200 -0.01768900
v -0.03151300 0.09794200 -0.02540600
v -0.02506800 0.09794200 -0.03185100
v -0.01735100 0.09794200 -0.03670000
v -0.00874900 0.09794200 -0.03971000
v 0.00030800 0.09794200 -0.04073000
v 0.00936500 0.09794200 -0.03971000
v 0.01796700 0.09794200 -0.03670000
v 0.02568400 0.09794200 -0.03185100
v 0.03212800 0.09794200 -0.02540600
v 0.03697700 0.09794200 -0.01768900
v 0.03998800 0.09794200 -0.00908700
v 0.04100800 0.09794200 -0.00003000
v 0.00925300 0.03913400 0.01344100
v 0.01775000 0.03616100 0.01344100
v 0.02537200 0.03137200 0.01344100
v 0.03173800 0.02500600 0.01344100
v 0.03652700 0.01738400 0.01344100
v 0.03950000 0.00888800 0.01344100
v 0.04050800 -0.00005800 0.01344100
v 0.03950000 -0.00900300 0.01344100
v 0.03652700 -0.01750000 0.01344100
v 0.03173800 -0.02512200 0.01344100
v 0.02537200 -0.03148700 0.01344100
v 0.01775000 -0.03627700 0.01344100
v 0.00925300 -0.03925000 0.01344100
v 0.00925300 0.03913400 0.00644100
v 0.01775000 0.03616100 0.00644100
v 0.02537200 0.03137200 0.00644100
v 0.03173800 0.02500600 0.00644100
v 0.03652700 0.01738400 0.00644100
v 0.03950000 0.00888800 0.00644100
v 0.04050800 -0.00005800 0.00644100
v 0.03950000 -0.00900300 0.00644100
v 0.03652700 -0.01750000 0.00644100
v 0.03173800 -0.02512200 0.00644100
v 0.02537200 -0.03148700 0.00644100
v 0.01775000 -0.03627700 0.00644100
v 0.00925300 -0.03925000 0.00644100
v 0.03998800 0.09094200 0.00902600
v 0.03697700 0.09094200 0.01762900
v 0.03212800 0.09094200 0.02534600
v 0.02568400 0.09094200 0.03179000
v 0.01796700 0.09094200 0.03663900
v 0.00936500 0.09094200 0.03964900
v 0.00030800 0.09094200 0.04067000
v -0.00874900 0.09094200 0.03964900
v -0.01735100 0.09094200 0.03663900
v -0.02506800 0.09094200 0.03179000
v -0.03151300 0.09094200 0.02534600
v -0.03636100 0.09094200 0.01762900
v -0.03937200 0.09094200 0.00902600
v 0.03998800 0.09794200 0.00902600
v 0.03697700 0.09794200 0.01762900
v 0.03212800 0.09794200 0.02534600
v 0.02568400 0.09794200 0.03179000
v 0.01796700 0.09794200 0.03663900
v 0.00936500 0.09794200 0.03964900
v 0.00030800 0.09794200 0.04067000
v -0.00874900 0.09794200 0.03964900
v -0.01735100 0.09794200 0.03663900
v -0.02506800 0.09794200 0.03179000
v -0.03151300 0.09794200 0.02534600
v -0.03636100 0.09794200 0.01762900
v -0.03937200 0.09794200 0.00902600
f 11 10 24
f 11 24 25
f 12 25 26
f 12 11 25
f 13 26 27
f 13 12 26
f 14 27 28
f 14 13 27
f 15 28 29
f 15 14 28
f 16 29 30
f 16 15 29
f 17 30 1
f 17 16 30
f 18 1 2
f 18 17 1
f 19 2 3
f 19 18 2
f 20 3 4
f 20 4 5
f 20 19 3
f 21 20 5
f 22 5 6
f 22 21 5
f 23 6 7
f 23 7 8
f 23 22 6
f 9 23 8
f 59 45 44
f 59 60 45
f 58 44 43
f 58 59 44
f 57 42 41
f 57 43 42
f 57 58 43
f 56 41 40
f 56 57 41
f 55 56 40
f 54 39 38
f 54 40 39
f 54 55 40
f 53 54 38
f 52 37 36
f 52 38 37
f 52 53 38
f 51 52 36
f 50 36 35
f 50 51 36
f 49 35 34
f 49 50 35
f 48 33 32
f 48 34 33
f 48 49 34
f 47 32 31
f 47 48 32
f 46 47 31
f 74 9 8
f 74 8 61
f 75 61 62
f 75 74 61
f 76 62 63
f 76 75 62
f 77 63 64
f 77 76 63
f 78 64 65
f 78 77 64
f 79 65 66
f 79 78 65
f 80 66 67
f 80 79 66
f 81 67 68
f 81 80 67
f 82 68 69
f 82 81 68
f 83 69 70
f 83 70 71
f 83 82 69
f 84 83 71
f 85 71 72
f 85 84 71
f 86 72 73
f 86 73 24
f 86 85 72
f 10 86 24
f 112 46 31
f 112 31 99
f 111 99 98
f 111 112 99
f 110 97 96
f 110 98 97
f 110 111 98
f 109 96 95
f 109 110 96
f 108 109 95
f 107 94 93
f 107 95 94
f 107 108 95
f 106 107 93
f 105 92 91
f 105 93 92
f 105 106 93
f 104 105 91
f 103 91 90
f 103 104 91
f 102 90 89
f 102 103 90
f 101 88 87
f 101 89 88
f 101 102 89
f 100 87 45
f 100 101 87
f 60 100 45

o white_cover
usemtl material_1
v 0.03130800 0.09194200 -0.00003000
v 0.03130800 0.10194200 -0.00003000
v -0.03069200 0.10194200 -0.00003000
v -0.02979100 0.10194200 0.00738900
v -0.02714100 0.10194200 0.01437600
v -0.02289600 0.10194200 0.02052700
v -0.01730200 0.10194200 0.02548200
v -0.01068500 0.10194200 0.02895500
v -0.00342900 0.10194200 0.03074400
v 0.00404500 0.10194200 0.03074400
v 0.01130100 0.10194200 0.02895500
v 0.01791800 0.10194200 0.02548200
v 0.02351200 0.10194200 0.02052700
v 0.02775700 0.10194200 0.01437600
v 0.03040700 0.10194200 0.00738900
v -0.03069200 0.09194200 -0.00003000
v -0.02979100 0.09194200 0.00738900
v -0.02714100 0.09194200 0.01437600
v -0.02289600 0.09194200 0.02052700
v -0.01730200 0.09194200 0.02548200
v -0.01068500 0.09194200 0.02895500
v -0.00342900 0.09194200 0.03074400
v 0.00404500 0.09194200 0.03074400
v 0.01130100 0.09194200 0.02895500
v 0.01791800 0.09194200 0.02548200
v 0.02351200 0.09194200 0.02052700
v 0.02775700 0.09194200 0.01437600
v 0.03040700 0.09194200 0.00738900
v 0.00030800 0.03094200 0.00614100
v 0.00030800 0.03094200 0.01643100
v 0.00030800 -0.03105800 0.01643100
v 0.00772700 -0.03015700 0.01643100
v 0.01471400 -0.02750700 0.01643100
v 0.02086500 -0.02326200 0.01643100
v 0.02582000 -0.01766800 0.01643100
v 0.02929300 -0.01105100 0.01643100
v 0.03108200 -0.00379400 0.01643100
v 0.03108200 0.00367900 0.01643100
v 0.02929300 0.01093500 0.01643100
v 0.02582000 0.01755200 0.01643100
v 0.02086500 0.02314600 0.01643100
v 0.01471400 0.02739100 0.01643100
v 0.00772700 0.03004100 0.01643100
v 0.00030800 -0.03105800 0.00614100
v 0.00772700 -0.03015700 0.00614100
v 0.01471400 -0.02750700 0.00614100
v 0.02086500 -0.02326200 0.00614100
v 0.02582000 -0.01766800 0.00614100
v 0.02929300 -0.01105100 0.00614100
v 0.03108200 -0.00379400 0.00614100
v 0.03108200 0.00367900 0.00614100
v 0.02929300 0.01093500 0.00614100
v 0.02582000 0.01755200 0.00614100
v 0.02086500 0.02314600 0.00614100
v 0.01471400 0.02739100 0.00614100
v 0.00772700 0.03004100 0.00614100
v 0.00030800 -0.04055800 -0.05603000
v 0.00507000 -0.04027700 -0.05603000
v 0.00976500 -0.03943800 -0.05603000
v 0.01433000 -0.03805300 -0.05603000
v 0.01869900 -0.03614100 -0.05603000
v 0.02589800 -0.03144900 -0.05603000
v 0.03140000 -0.02601000 -0.05603000
v 0.03576800 -0.01962400 -0.05603000
v 0.03884100 -0.01252500 -0.05603000
v 0.04031300 -0.00636800 -0.05603000
v 0.04080800 -0.00005800 -0.05603000
v 0.04080800 -0.00005800 -0.02479500
v 0.04080800 -0.00005800 0.00644100
v 0.03979300 -0.00907000 0.00644100
v 0.03679700 -0.01763000 0.00644100
v 0.03197200 -0.02530900 0.00644100
v 0.02555900 -0.03172200 0.00644100
v 0.01788000 -0.03654700 0.00644100
v 0.00932000 -0.03954200 0.00644100
v 0.00030800 -0.04055800 0.00644100
v -0.04069200 0.09094200 -0.00003000
v -0.03966400 0.09094200 -0.00915300
v -0.03663200 0.09094200 -0.01781900
v -0.03174700 0.09094200 -0.02559300
v -0.02525500 0.09094200 -0.03208500
v -0.01748100 0.09094200 -0.03697000
v -0.00881500 0.09094200 -0.04000200
v 0.00030800 0.09094200 -0.04103000
v 0.00943100 0.09094200 -0.04000200
v 0.01809700 0.09094200 -0.03697000
v 0.02587100 0.09094200 -0.03208500
v 0.03236300 0.09094200 -0.02559300
v 0.03724800 0.09094200 -0.01781900
v 0.04028000 0.09094200 -0.00915300
v 0.04130800 0.09094200 -0.00003000
v 0.04130800 0.08494200 -0.00003000
v 0.01613400 0.08494200 -0.03785200
v 0.02449400 0.08494200 -0.03313700
v 0.03152800 0.08494200 -0.02660600
v 0.03685000 0.08494200 -0.01862300
v 0.04017100 0.08494200 -0.00961900
v 0.04102300 0.08494200 -0.00485800
v 0.00030800 0.08494200 -0.04103000
v 0.00749100 0.08494200 -0.04039600
v 0.01187800 0.08494200 -0.03936400
v -0.01551800 0.08494200 -0.03785200
v -0.00864700 0.08494200 -0.04004000
v -0.00419600 0.08494200 -0.04078300
v -0.04069200 0.08494200 -0.00003000
v -0.03957700 0.08494200 -0.00952600
v -0.03629300 0.08494200 -0.01850500
v -0.03160000 0.08494200 -0.02577600
v -0.02615400 0.08494200 -0.03134800
v -0.02108400 0.08494200 -0.03500600
v 0.04080800 -0.00005800 0.01643100
v 0.03980800 0.00888500 0.01643100
v 0.03685900 0.01738600 0.01643100
v 0.03210500 0.02502600 0.01643100
v 0.02578200 0.03142700 0.01643100
v 0.01820100 0.03627500 0.01643100
v 0.00973700 0.03932900 0.01643100
v 0.00080800 0.04043900 0.01643100
v -0.00814600 0.03955000 0.01643100
v -0.01668300 0.03670600 0.01643100
v -0.02438100 0.03204700 0.01643100
v -0.03086000 0.02580300 0.01643100
v -0.03580100 0.01828300 0.01643100
v -0.03896000 0.00985700 0.01643100
v -0.04018000 0.00094200 0.01643100
v 0.04080800 -0.00005800 0.01344100
v -0.04018000 0.00094200 0.01344100
v -0.03896000 0.00985700 0.01344100
v -0.03580100 0.01828300 0.01344100
v -0.03086000 0.02580300 0.01344100
v -0.02438100 0.03204700 0.01344100
v -0.01668300 0.03670600 0.01344100
v -0.00814600 0.03955000 0.01344100
v 0.00080800 0.04043900 0.01344100
v 0.00973700 0.03932900 0.01344100
v 0.01820100 0.03627500 0.01344100
v 0.02578200 0.03142700 0.01344100
v 0.03210500 0.02502600 0.01344100
v 0.03685900 0.01738600 0.01344100
v 0.03980800 0.00888500 0.01344100
v 0.04130800 0.09794200 -0.00003000
v 0.04029600 0.09794200 0.00902400
v 0.03730900 0.09794200 0.01763000
v 0.03249600 0.09794200 0.02536500
v 0.02609400 0.09794200 0.03184600
v 0.01841800 0.09794200 0.03675300
v 0.00984900 0.09794200 0.03984400
v 0.00080800 0.09794200 0.04096700
v -0.00825700 0.09794200 0.04006500
v -0.01690000 0.09794200 0.03718400
v -0.02469300 0.09794200 0.03246500
v -0.03125100 0.09794200 0.02614300
v -0.03625200 0.09794200 0.01852700
v -0.03944700 0.09794200 0.00999600
v -0.04068000 0.09794200 0.00097000
v 0.04130800 0.10194200 -0.00003000
v -0.04068000 0.10194200 0.00097000
v -0.03944700 0.10194200 0.00999600
v -0.03625200 0.10194200 0.01852700
v -0.03125100 0.10194200 0.02614300
v -0.02469300 0.10194200 0.03246500
v -0.01690000 0.10194200 0.03718400
v -0.00825700 0.10194200 0.04006500
v 0.00080800 0.10194200 0.04096700
v 0.00984900 0.10194200 0.03984400
v 0.01841800 0.10194200 0.03675300
v 0.02609400 0.10194200 0.03184600
v 0.03249600 0.10194200 0.02536500
v 0.03730900 0.10194200 0.01763000
v 0.04029600 0.10194200 0.00902400
v -0.04068000 0.09794200 -0.00103000
v -0.03944700 0.09794200 -0.01005600
v -0.03625200 0.09794200 -0.01858800
v -0.03125100 0.09794200 -0.02620300
v -0.02469300 0.09794200 -0.03252600
v -0.01690000 0.09794200 -0.03724400
v -0.00825700 0.09794200 -0.04012500
v 0.00080800 0.09794200 -0.04102700
v 0.00984900 0.09794200 -0.03990500
v 0.01841800 0.09794200 -0.03681300
v 0.02609400 0.09794200 -0.03190600
v 0.03249600 0.09794200 -0.02542500
v 0.03730900 0.09794200 -0.01769100
v 0.04029600 0.09794200 -0.00908400
v -0.04068000 0.10194200 -0.00103000
v 0.04029600 0.10194200 -0.00908400
v 0.03730900 0.10194200 -0.01769100
v 0.03249600 0.10194200 -0.02542500
v 0.02609400 0.10194200 -0.03190600
v 0.01841800 0.10194200 -0.03681300
v 0.00984900 0.10194200 -0.03990500
v 0.00080800 0.10194200 -0.04102700
v -0.00825700 0.10194200 -0.04012500
v -0.01690000 0.10194200 -0.03724400
v -0.02469300 0.10194200 -0.03252600
v -0.03125100 0.10194200 -0.02620300
v -0.03625200 0.10194200 -0.01858800
v -0.03944700 0.10194200 -0.01005600
v -0.00870400 -0.03954200 0.00644100
v -0.01726400 -0.03654700 0.00644100
v -0.02494300 -0.03172200 0.00644100
v -0.03135600 -0.02530900 0.00644100
v -0.03618100 -0.01763000 0.00644100
v -0.03917700 -0.00907000 0.00644100
v -0.04019200 -0.00005800 0.00644100
v -0.04019200 -0.00005800 -0.02479500
v -0.04019200 -0.00005800 -0.05603000
v -0.03991100 -0.00482000 -0.05603000
v -0.03907200 -0.00951600 -0.05603000
v -0.03768700 -0.01408000 -0.05603000
v -0.03577500 -0.01845000 -0.05603000
v -0.03108200 -0.02564900 -0.05603000
v -0.02564400 -0.03115100 -0.05603000
v -0.01925800 -0.03551800 -0.05603000
v -0.01215800 -0.03859100 -0.05603000
v -0.00600200 -0.04006300 -0.05603000
v -0.03996100 0.00429000 0.00644200
v -0.03925500 0.00862900 0.00644100
v -0.03808600 0.01284000 0.00644100
v -0.03645900 0.01693900 0.00644100
v -0.03442900 0.02080900 0.00644100
v -0.03200600 0.02446900 0.00644100
v -0.02922400 0.02787100 0.00644100
v -0.02611900 0.03096200 0.00644100
v -0.02270900 0.03369400 0.00644100
v -0.01899300 0.03600800 0.00644200
v -0.01169800 0.03888200 0.00644000
v -0.00573300 0.04003600 0.00644100
v 0.00030800 0.04044200 0.00644100
v 0.00030800 0.04044200 0.00434900
v 0.00030800 0.04044200 0.00397000
v 0.00030800 0.04044800 0.00363300
v 0.00030800 0.04077800 0.00140100
v 0.00030700 0.04156100 -0.00062700
v 0.00030800 0.04271400 -0.00237600
v 0.00030800 0.04417400 -0.00382200
v 0.00030800 0.04591500 -0.00494700
v 0.00030800 0.04794700 -0.00571400
v 0.00030800 0.05018000 -0.00602700
v 0.00030800 0.05232600 -0.00585600
v 0.00030800 0.05435200 -0.00529200
v 0.00030800 0.05626100 -0.00439900
v 0.00030800 0.05858700 -0.00280700
v 0.00030800 0.06110100 -0.00037200
v 0.00030800 0.06336200 0.00260400
v -0.00391100 0.06334300 0.00254700
v -0.00804800 0.06322000 0.00217300
v -0.01208400 0.06290500 0.00121700
v -0.01612700 0.06228300 -0.00067000
v -0.01942700 0.06142700 -0.00327000
v -0.02228800 0.06027100 -0.00677900
v -0.02464600 0.05878700 -0.01128400
v -0.02617900 0.05721900 -0.01604800
v -0.02715000 0.05513500 -0.02237000
v -0.02717600 0.05332000 -0.02787700
v -0.02630000 0.05128100 -0.03406800
v -0.02623800 0.04784700 -0.03533400
v -0.02653100 0.04450300 -0.03680200
v -0.02798800 0.03802200 -0.04018600
v -0.03114700 0.02963900 -0.04515100
v -0.03607500 0.01832400 -0.05141300
v -0.03890800 0.00985700 -0.05464200
v -0.03985500 0.00498200 -0.05567200
v -0.00338600 0.04040800 0.00333000
v -0.00552600 0.04470700 -0.00443600
v -0.00704400 0.05937700 -0.00236400
v -0.01835600 0.03833800 -0.00243300
v -0.02966800 0.02798100 -0.00530100
v -0.02433500 0.05320600 -0.01732700
v -0.03955800 0.00699100 -0.00425500
v -0.03934300 0.00801900 -0.00792800
v -0.03860200 0.01082800 -0.01789800
v -0.02788100 0.03820200 -0.03229500
v -0.03727000 0.01496200 -0.03125100
v -0.00269200 0.04206900 -0.00154900
v -0.00414900 0.04179300 -0.00117000
v -0.00652100 0.04062900 0.00128600
v -0.00804200 0.04082400 0.00026300
v -0.00557200 0.05014400 -0.00615800
v -0.00819200 0.04993000 -0.00641900
v -0.01154900 0.05925400 -0.00303500
v -0.01304100 0.06033400 -0.00226400
v -0.01364500 0.04542900 -0.00693200
v -0.01352600 0.05888300 -0.00382800
v -0.01158400 0.05488400 -0.00601300
v -0.01874900 0.04102900 -0.00765600
v -0.01965700 0.04432000 -0.01151100
v -0.02450900 0.03353400 -0.00312700
v -0.02412700 0.03559900 -0.00930000
v -0.02594800 0.03299600 -0.00804100
v -0.02840000 0.03180200 -0.01822200
v -0.02132300 0.05288200 -0.01303500
v -0.02161100 0.04890200 -0.01496100
v -0.01957600 0.05248200 -0.01135300
v -0.02322000 0.04277700 -0.01703100
v -0.03490100 0.01997200 -0.00494300
v -0.03509800 0.01962400 -0.01057400
v -0.03425000 0.02142100 -0.01759000
v -0.02581100 0.04867700 -0.02473600
v -0.03594100 0.01795400 -0.01749200
v -0.02637900 0.04635500 -0.02866600
v -0.02600200 0.04052600 -0.02402200
v -0.03344500 0.02338600 -0.02434100
v -0.03054300 0.03036300 -0.03141800
v -0.03942900 0.00741700 -0.02746200
v -0.00396100 0.05496100 -0.00511500
v -0.00594900 0.05509400 -0.00514900
v -0.01358300 0.03995300 -0.00065800
v -0.01225500 0.05000100 -0.00736000
v -0.01571700 0.04157300 -0.00512000
v -0.01399600 0.05130900 -0.00791600
v -0.01732500 0.05351700 -0.00907600
v -0.01519800 0.04951800 -0.00867700
v -0.01803100 0.05768600 -0.00675000
v -0.01817400 0.04885200 -0.01086500
v -0.01928800 0.04832900 -0.01199700
v -0.02057200 0.05653400 -0.00958600
v -0.02337100 0.03896700 -0.01376300
v -0.02394500 0.04735600 -0.01961800
v -0.02470800 0.04170500 -0.02034800
v -0.03757400 0.01410400 -0.00595000
v -0.02629200 0.03651500 -0.01977300
v -0.03762300 0.01392800 -0.00884000
v -0.02693100 0.03595900 -0.02165200
v -0.01335800 0.04230500 -0.00436700
v 0.00030800 -0.04055800 0.00644100
v -0.00870400 -0.03954200 0.00644100
v -0.01726400 -0.03654700 0.00644100
v -0.02494300 -0.03172200 0.00644100
v -0.03135600 -0.02530900 0.00644100
v -0.03618100 -0.01763000 0.00644100
v -0.03917700 -0.00907000 0.00644100
v -0.04019200 -0.00005800 0.00644100
v 0.04080800 -0.00005800 0.00644100
v 0.03979300 -0.00907000 0.00644100
v 0.03679700 -0.01763000 0.00644100
v 0.03197200 -0.02530900 0.00644100
v 0.02555900 -0.03172200 0.00644100
v 0.01788000 -0.03654700 0.00644100
v 0.00932000 -0.03954200 0.00644100
v 0.04058100 0.00426200 0.00644100
v 0.03989600 0.00851200 0.00644100
v 0.03875800 0.01267600 0.00644100
v 0.03718000 0.01670800 0.00644100
v 0.03520900 0.02053000 0.00644100
v 0.03284000 0.02417100 0.00644100
v 0.03013300 0.02754500 0.00644100
v 0.02707900 0.03065100 0.00644100
v 0.02377700 0.03336700 0.00644100
v 0.02014300 0.03571400 0.00644100
v 0.01303500 0.03868100 0.00644100
v 0.00674200 0.03998400 0.00644100
v 0.00030800 0.04044200 0.00644100
v -0.03996100 0.00429000 0.00644200
v -0.03925500 0.00862900 0.00644100
v -0.03808600 0.01284000 0.00644100
v -0.03645900 0.01693900 0.00644100
v -0.03442900 0.02080900 0.00644100
v -0.03200600 0.02446900 0.00644100
v -0.02922400 0.02787100 0.00644100
v -0.02611900 0.03096200 0.00644100
v -0.02270900 0.03369400 0.00644100
v -0.01899300 0.03600800 0.00644200
v -0.01169800 0.03888200 0.00644000
v -0.00573300 0.04003600 0.00644100
v 0.00030800 -0.04025800 0.00644100
v -0.00863700 -0.03925000 0.00644100
v -0.01713400 -0.03627700 0.00644100
v -0.02475600 -0.03148700 0.00644100
v -0.03112200 -0.02512200 0.00644100
v -0.03591100 -0.01750000 0.00644100
v -0.03888400 -0.00900300 0.00644100
v -0.03989200 -0.00005800 0.00644100
v -0.03888400 0.00888800 0.00644100
v -0.03591100 0.01738400 0.00644100
v -0.03112200 0.02500600 0.00644100
v -0.02475600 0.03137200 0.00644100
v -0.01713400 0.03616100 0.00644100
v -0.00863700 0.03913400 0.00644100
v 0.00030800 0.04014200 0.00644100
v 0.00925300 0.03913400 0.00644100
v 0.01775000 0.03616100 0.00644100
v 0.02537200 0.03137200 0.00644100
v 0.03173800 0.02500600 0.00644100
v 0.03652700 0.01738400 0.00644100
v 0.03950000 0.00888800 0.00644100
v 0.04050800 -0.00005800 0.00644100
v 0.03950000 -0.00900300 0.00644100
v 0.03652700 -0.01750000 0.00644100
v 0.03173800 -0.02512200 0.00644100
v 0.02537200 -0.03148700 0.00644100
v 0.01775000 -0.03627700 0.00644100
v 0.00925300 -0.03925000 0.00644100
v 0.04058100 0.00426200 0.00644100
v 0.03989600 0.00851200 0.00644100
v 0.03875800 0.01267600 0.00644100
v 0.03718000 0.01670800 0.00644100
v 0.03520900 0.02053000 0.00644100
v 0.03284000 0.02417100 0.00644100
v 0.03013300 0.02754500 0.00644100
v 0.02707900 0.03065100 0.00644100
v 0.02377700 0.03336700 0.00644100
v 0.02014300 0.03571400 0.00644100
v 0.01303500 0.03868100 0.00644100
v 0.00674200 0.03998400 0.00644100
v 0.04030500 0.00610100 -0.05549400
v 0.03892200 0.01203800 -0.05397400
v 0.03618700 0.01955200 -0.05081700
v 0.03150500 0.03024200 -0.04478800
v 0.02951400 0.03527800 -0.04177300
v 0.02793300 0.04044800 -0.03884900
v 0.02699900 0.04574500 -0.03623100
v 0.02691600 0.05128100 -0.03406800
v 0.02785000 0.05372300 -0.02665600
v 0.02748000 0.05602500 -0.01966700
v 0.02575300 0.05836600 -0.01256300
v 0.02297300 0.06023600 -0.00688400
v 0.01966200 0.06154700 -0.00290600
v 0.01645500 0.06234100 -0.00049500
v 0.01232200 0.06294500 0.00134000
v 0.00656100 0.06330200 0.00242000
v 0.00614200 0.04470700 -0.00443600
v 0.00766000 0.05937700 -0.00236400
v 0.01897200 0.03833800 -0.00243300
v 0.03028400 0.02798100 -0.00530100
v 0.02495100 0.05320600 -0.01732700
v 0.03921800 0.01082800 -0.01789800
v 0.02849700 0.03820200 -0.03229500
v 0.03788600 0.01496200 -0.03125100
v 0.00407400 0.04126700 -0.00007500
v 0.00587800 0.04112400 0.00010200
v 0.00818800 0.04028100 0.00222000
v 0.00902400 0.04076500 0.00029500
v 0.00618800 0.05014400 -0.00615800
v 0.00880800 0.04993000 -0.00641900
v 0.01198800 0.05928200 -0.00297600
v 0.01343800 0.06037200 -0.00217200
v 0.01399300 0.05891500 -0.00375900
v 0.01220000 0.05488400 -0.00601300
v 0.01936500 0.04102900 -0.00765600
v 0.02027300 0.04432000 -0.01151100
v 0.01426100 0.04542900 -0.00693200
v 0.02512500 0.03353400 -0.00312700
v 0.02474300 0.03559900 -0.00930000
v 0.02901600 0.03180200 -0.01822200
v 0.02196000 0.05286700 -0.01306900
v 0.02222700 0.04890200 -0.01496100
v 0.02022800 0.05246300 -0.01139700
v 0.03556700 0.01987900 -0.00495000
v 0.02532300 0.04170500 -0.02034800
v 0.03571400 0.01962400 -0.01057400
v 0.03486600 0.02142100 -0.01759000
v 0.03655700 0.01795400 -0.01749200
v 0.02665200 0.04819900 -0.02600400
v 0.03406100 0.02338600 -0.02434100
v 0.02720600 0.04565800 -0.03067400
v 0.03101600 0.03066900 -0.03124500
v 0.04004500 0.00741700 -0.02746200
v 0.00457700 0.05496100 -0.00511500
v 0.00656500 0.05509400 -0.00514900
v 0.01157900 0.04280600 -0.00384600
v 0.01435900 0.03990100 -0.00066800
v 0.01287100 0.05000100 -0.00736000
v 0.01633200 0.04157300 -0.00512000
v 0.01462300 0.05130700 -0.00792100
v 0.01583000 0.04951500 -0.00868600
v 0.01796900 0.05350700 -0.00909900
v 0.01847700 0.05775000 -0.00659600
v 0.01880300 0.04884600 -0.01087800
v 0.01992300 0.04832000 -0.01201700
v 0.02124100 0.05650600 -0.00965700
v 0.02456000 0.04735600 -0.01961800
v 0.02690800 0.03651500 -0.01977300
v 0.00994900 0.04600400 -0.00572200
v 0.01372800 -0.00005800 -0.06797200
v 0.02593600 -0.00005800 -0.06692600
v 0.03315400 -0.00005800 -0.06510800
v 0.03657700 -0.00005800 -0.06341700
v 0.03853500 -0.00005800 -0.06181900
v 0.03970300 -0.00005800 -0.06029000
v 0.04031600 -0.00005800 -0.05899100
v 0.04068500 -0.00005800 -0.05757000
v 0.00030800 -0.04031100 -0.05825900
v 0.00030800 -0.03968300 -0.06001000
v 0.00030800 -0.03882300 -0.06137700
v 0.00030900 -0.03773000 -0.06255000
v 0.00030800 -0.03636700 -0.06360100
v 0.00030800 -0.03431600 -0.06473000
v 0.00030800 -0.03070500 -0.06602600
v 0.00030800 -0.02405700 -0.06729000
v 0.00030800 -0.01535900 -0.06791700
v 0.00030800 -0.00005800 -0.06803000
v 0.00246800 -0.02912300 -0.06641400
v 0.00119600 -0.03790400 -0.06238600
v 0.00818400 -0.02484400 -0.06707800
v 0.00806100 -0.03477400 -0.06419800
v 0.00827200 -0.00808000 -0.06801900
v 0.01412000 -0.03083700 -0.06520500
v 0.01377200 -0.00259800 -0.06796700
v 0.01187200 -0.03865600 -0.05822900
v 0.01701500 -0.01689200 -0.06742500
v 0.01860200 -0.03539200 -0.05990800
v 0.02236800 -0.01126300 -0.06722600
v 0.02314400 -0.02307800 -0.06574400
v 0.02733200 -0.00524400 -0.06663900
v 0.02840700 -0.01736000 -0.06545700
v 0.02799900 -0.02800500 -0.06082000
v 0.03311700 -0.01108700 -0.06461500
v 0.03312100 -0.02214500 -0.06039100
v 0.03733700 -0.01537900 -0.05905500
v 0.03843300 -0.00056300 -0.06192400
v 0.00458400 -0.03762700 -0.06250300
v 0.00522700 -0.03899200 -0.06082700
v 0.00753600 -0.03849600 -0.06108500
v 0.00910700 -0.03867500 -0.06025900
v 0.01054700 -0.03729600 -0.06179500
v 0.01406400 -0.03413700 -0.06357300
v 0.01381200 -0.03556300 -0.06253300
v 0.01338100 -0.03681000 -0.06131500
v 0.01687700 -0.03363000 -0.06307200
v 0.02084900 -0.03202000 -0.06258600
v 0.02166000 -0.03002200 -0.06361300
v 0.02229900 -0.02785200 -0.06446800
v 0.02605700 -0.02602800 -0.06376800
v 0.02873300 -0.02137100 -0.06437300
v 0.02873900 -0.02321900 -0.06367400
v 0.02862500 -0.02494700 -0.06285600
v 0.03126300 -0.02025100 -0.06342200
v 0.03201700 -0.01733300 -0.06395600
v 0.03361600 -0.01711300 -0.06300000
v 0.03505200 -0.01673100 -0.06188000
v 0.03577400 -0.01378000 -0.06238200
v 0.03784300 -0.00985600 -0.06145000
v 0.03779500 -0.01181700 -0.06077200
v 0.03817600 -0.00689400 -0.06174400
v 0.03990200 -0.00274800 -0.05983300
v 0.03994900 -0.00404100 -0.05955300
v 0.04035600 -0.00356100 -0.05850800
v 0.02215600 -0.03332700 -0.05988100
v 0.02384400 -0.03220500 -0.05977900
v 0.02529300 -0.03086900 -0.06018900
v -0.03994100 -0.00005800 -0.05819500
v -0.03928500 -0.00005800 -0.05993500
v -0.03837700 -0.00005800 -0.06130300
v -0.03715300 -0.00005800 -0.06253700
v -0.03546000 -0.00005800 -0.06372800
v -0.03323100 -0.00005800 -0.06483300
v -0.02889500 -0.00005800 -0.06621300
v -0.02344800 -0.00005800 -0.06720100
v -0.01311200 -0.00005800 -0.06797200
v -0.00185200 -0.02912300 -0.06641400
v -0.00058000 -0.03790400 -0.06238600
v -0.00290200 -0.04027600 -0.05792100
v -0.00744500 -0.03477400 -0.06419800
v -0.00765600 -0.00808000 -0.06801900
v -0.01059900 -0.03797800 -0.06056500
v -0.01315600 -0.00259800 -0.06796700
v -0.01125600 -0.03865600 -0.05822900
v -0.01639900 -0.01689200 -0.06742500
v -0.02175200 -0.01126300 -0.06722600
v -0.02779200 -0.01736000 -0.06545700
v -0.02252800 -0.02307800 -0.06574400
v -0.02632100 -0.02692200 -0.06275100
v -0.02738300 -0.02800500 -0.06082000
v -0.03149900 -0.02111700 -0.06237700
v -0.03250500 -0.02214500 -0.06039100
v -0.04002300 -0.00281800 -0.05734200
v -0.01109000 -0.02947400 -0.06593400
v -0.01261600 -0.02652700 -0.06650600
v -0.01426400 -0.03268300 -0.06424200
v -0.01543100 -0.02937100 -0.06541600
v -0.01748100 -0.03144600 -0.06407300
v -0.01528800 -0.03710700 -0.05865700
v -0.02056900 -0.03007900 -0.06377300
v -0.01907900 -0.03306800 -0.06227600
v -0.01948700 -0.03423300 -0.06054200
v -0.02345900 -0.03189000 -0.06006000
v -0.02375300 -0.03219500 -0.05885800
v -0.02481800 -0.03064600 -0.06036500
v -0.02444600 -0.03191000 -0.05797800
v -0.03203900 -0.00912200 -0.06500500
v -0.03383300 -0.01704300 -0.06233300
v -0.03490200 -0.01490800 -0.06221400
v -0.03408700 -0.02023300 -0.05965300
v -0.03542200 -0.01029200 -0.06305300
v -0.03516000 -0.01816600 -0.05977100
v -0.03605000 -0.01608100 -0.05996800
v -0.03547400 -0.01837000 -0.05863300
v -0.03673300 -0.01555100 -0.05879300
v -0.03803400 -0.00401600 -0.06157000
v -0.03834300 -0.00586300 -0.06095600
v -0.03891400 -0.00558900 -0.06008500
v -0.03902000 -0.00187000 -0.06037100
v -0.03938100 -0.00476200 -0.05926800
v -0.01375300 -0.03629200 -0.06152400
v -0.01524000 -0.03535900 -0.06191400
v -0.03698000 -0.01208600 -0.06094700
v -0.03749400 -0.01271800 -0.05962900
v -0.03788700 -0.01054400 -0.06018100
v -0.03827500 -0.00893700 -0.06019400
v -0.02623800 0.04784700 -0.03533400
v -0.03890800 0.00985700 -0.05464200
v -0.02354800 0.04876100 -0.04171600
v -0.02131000 0.04760200 -0.04523800
v -0.01806200 0.04649600 -0.04859300
v -0.01451500 0.04574900 -0.05086200
v -0.01048700 0.04526700 -0.05232500
v -0.01133300 0.03081400 -0.06037600
v -0.01173600 0.01891700 -0.06511800
v -0.01222100 0.00973500 -0.06724200
v -0.03507900 0.00326800 -0.06371800
v -0.02782600 0.00937000 -0.06519800
v -0.03701700 0.00329400 -0.06236900
v -0.03592000 0.00490600 -0.06289400
v -0.02216900 0.01553400 -0.06464600
v -0.03903000 0.00163300 -0.06027600
v -0.03811200 0.00330400 -0.06127800
v -0.03928200 0.00246900 -0.05967100
v -0.03766000 0.00493500 -0.06139300
v -0.03962800 0.00247200 -0.05884400
v -0.02730500 0.01379600 -0.06382600
v -0.03845500 0.00494600 -0.06039800
v -0.03900000 0.00495500 -0.05946700
v -0.03511000 0.00921900 -0.06206800
v -0.03947600 0.00495800 -0.05826600
v -0.03714500 0.00942200 -0.06011300
v -0.02651700 0.01847000 -0.06188400
v -0.02993200 0.02194300 -0.05754100
v -0.02560800 0.02373900 -0.05913500
v -0.02453100 0.02984100 -0.05546600
v -0.02108300 0.02613600 -0.06003900
v -0.01537200 0.03838700 -0.05525900
v -0.01512800 0.04082400 -0.05382500
v -0.01767100 0.03865900 -0.05406600
v -0.02704900 0.03220900 -0.05076400
v -0.02384100 0.03369300 -0.05304500
v -0.01788900 0.04121600 -0.05225600
v -0.02302500 0.03819700 -0.05026900
v -0.02542000 0.04270900 -0.04265900
v -0.01665100 0.02250700 -0.06321500
v -0.03695200 0.01229500 -0.05841900
v -0.03794100 0.01253700 -0.05570500
v -0.03459300 0.01656200 -0.05790300
v -0.03676200 0.01371500 -0.05746100
v -0.03728100 0.01384400 -0.05611900
v -0.01923700 0.03017100 -0.05855900
v -0.01832900 0.03216800 -0.05779500
v -0.03389600 0.02014400 -0.05521200
v -0.01813000 0.03432700 -0.05658200
v -0.03339800 0.02322300 -0.05193900
v -0.03175000 0.02558300 -0.05179800
v -0.03011300 0.02780300 -0.05151700
v -0.02967600 0.03084500 -0.04823700
v -0.02821800 0.03489800 -0.04553400
v -0.03131000 0.01516400 -0.06140300
v -0.03589300 0.01739800 -0.05487500
v -0.01326700 0.07369400 -0.03980400
v -0.01157400 0.06197300 -0.04364900
v -0.01081600 0.05358600 -0.04753000
v 0.00030800 0.06336200 0.00260400
v -0.02717600 0.05332000 -0.02787700
v 0.00030800 0.06722700 0.01026000
v 0.00030800 0.07060900 0.02135700
v 0.00030800 0.07411800 0.03328400
v 0.00030800 0.07580000 0.03640900
v 0.00030800 0.07736700 0.03826100
v 0.00030800 0.07847500 0.03916400
v 0.00030800 0.07971300 0.03989000
v 0.00030800 0.08108800 0.04043300
v 0.00030800 0.08275300 0.04081200
v 0.00030800 0.08459500 0.04096600
v 0.00030800 0.08494200 0.04097000
v -0.00920600 0.08494200 0.03985100
v -0.01820100 0.08494200 0.03655400
v -0.02546200 0.08494200 0.03185900
v -0.03102400 0.08494200 0.02641400
v -0.03545800 0.08494200 0.02001500
v -0.03860200 0.08494200 0.01289400
v -0.04016600 0.08494200 0.00651600
v -0.02042600 0.05707100 -0.04119200
v -0.02720100 0.08082200 -0.03055100
v -0.03077600 0.06304600 -0.01816100
v -0.02915400 0.08122000 0.02754400
v -0.01582700 0.05516700 -0.04491400
v -0.02275500 0.06709600 -0.03618300
v -0.02427900 0.05381100 -0.03825800
v -0.02700700 0.05696200 -0.03217300
v -0.01967800 0.07508100 -0.03664600
v -0.02568700 0.07646400 -0.03223200
v -0.02748600 0.05984400 -0.03132100
v -0.02030800 0.07742200 -0.03595200
v -0.02756600 0.06532500 -0.03129800
v -0.02218900 0.07708500 -0.03481200
v -0.02924000 0.06458900 -0.02832500
v -0.03035500 0.06396200 -0.02507900
v -0.03539300 0.07098700 -0.01124600
v -0.03117600 0.06913600 -0.02552400
v -0.03113900 0.07439700 -0.02633800
v -0.03312100 0.07345200 -0.02289600
v -0.02833600 0.06082100 -0.01418200
v -0.03012200 0.08098700 -0.02757800
v -0.03147400 0.08106500 -0.02597100
v -0.03452800 0.07256200 -0.01917800
v -0.03921200 0.07813800 -0.00512700
v -0.03221200 0.08303700 -0.02500800
v -0.03491600 0.07752500 -0.02040800
v -0.03551100 0.08006900 -0.01970600
v -0.02755100 0.06371600 -0.00666100
v -0.03190800 0.06747500 -0.00610700
v -0.02923800 0.06597500 -0.00430900
v -0.02408600 0.06401100 -0.00223200
v -0.02281500 0.06807900 0.00710300
v -0.03872900 0.08148000 -0.01196300
v -0.04031100 0.08155800 -0.00244500
v -0.03160600 0.06928600 0.00000100
v -0.03907400 0.08265300 -0.01113800
v -0.03063000 0.07081700 0.00601100
v -0.03387700 0.07235300 0.00409900
v -0.02651700 0.07308500 0.01726300
v -0.03765700 0.07618400 0.00370600
v -0.01731200 0.06576500 0.00481800
v -0.04033000 0.08156000 0.00089600
v -0.04007500 0.08155300 0.00423600
v -0.03328700 0.07451000 0.01154600
v -0.03580600 0.07531100 0.00782300
v -0.04019900 0.08267100 0.00504200
v -0.03717400 0.07830900 0.01104700
v -0.03801400 0.08040900 0.01191800
v -0.00731900 0.06642800 0.00818500
v -0.01755300 0.07100200 0.01787600
v -0.01285700 0.06997200 0.01662900
v -0.03495500 0.08140300 0.01976000
v -0.00446100 0.06774900 0.01162300
v -0.00689800 0.06774000 0.01140200
v -0.03522000 0.08253900 0.01992800
v -0.00285600 0.06757700 0.01122200
v -0.01390100 0.07194600 0.02265200
v -0.03280800 0.08133700 0.02311300
v -0.03166000 0.08130100 0.02464800
v -0.02888100 0.07811600 0.02504500
v -0.01986100 0.07519500 0.02816300
v -0.01481700 0.07390800 0.02816700
v -0.00963800 0.07270100 0.02695000
v -0.02593500 0.08111000 0.03057500
v -0.01545300 0.07611100 0.03256700
v -0.02405800 0.08289300 0.03272400
v -0.02420700 0.08104800 0.03195300
v -0.02455500 0.08356200 0.03247300
v -0.01671700 0.07923900 0.03551500
v -0.01039000 0.07599000 0.03457100
v -0.01560200 0.07704400 0.03387000
v -0.00944100 0.07988600 0.03865300
v -0.00940400 0.08139700 0.03929400
v -0.00460000 0.07969800 0.03952400
v -0.00296800 0.07887700 0.03924200
v -0.00458900 0.08077400 0.03999900
v -0.00296600 0.07997300 0.03984700
v -0.00457800 0.08147400 0.04022800
v -0.00295900 0.08087100 0.04021100
v -0.00456300 0.08220700 0.04041200
v -0.03539400 0.07173500 -0.00350100
v -0.01255600 0.06623700 0.00705400
v -0.03462400 0.07779500 0.01613900
v -0.03162800 0.07637100 0.01862000
v -0.03296600 0.07792600 0.01928200
v -0.02462800 0.07792700 0.02899800
v -0.02229100 0.07781100 0.03072300
v -0.02052500 0.07826100 0.03246700
v 0.00030800 0.06722700 0.01026000
v 0.00030800 0.07411800 0.03328400
v 0.00030800 0.07580000 0.03640900
v 0.00030800 0.07736700 0.03826100
v 0.00030800 0.07847500 0.03916400
v 0.00030800 0.07971300 0.03989000
v 0.01966200 0.06154700 -0.00290600
v 0.02430500 0.04885100 -0.04144400
v 0.02106600 0.04725700 -0.04628400
v 0.01764700 0.04623900 -0.04937300
v 0.01451900 0.04565400 -0.05114900
v 0.01110300 0.04526600 -0.05232500
v 0.01169900 0.05708800 -0.04579400
v 0.01310600 0.06889900 -0.04115500
v 0.01449200 0.07705200 -0.03904000
v 0.04018500 0.08494200 0.00950000
v 0.03687800 0.08494200 0.01850700
v 0.03156700 0.08494200 0.02650000
v 0.02454500 0.08494200 0.03303900
v 0.01619500 0.08494200 0.03776700
v 0.00841100 0.08494200 0.04016100
v 0.01751400 0.05794300 -0.04311200
v 0.01995900 0.05846000 -0.04142400
v 0.01971800 0.07740100 -0.03663500
v 0.02883100 0.06283700 -0.03012300
v 0.02333600 0.08133200 -0.03406500
v 0.02220700 0.07758900 -0.03514400
v 0.02575000 0.07788200 -0.03255000
v 0.02371900 0.08255100 -0.03373900
v 0.03218400 0.06925800 -0.02475100
v 0.02991100 0.06859800 -0.02873700
v 0.02771300 0.08037400 -0.03067000
v 0.03850300 0.07571600 -0.00920100
v 0.03619500 0.07132700 -0.00788400
v 0.03592400 0.07090300 -0.01202800
v 0.03558800 0.07065000 -0.01430900
v 0.03598400 0.07175700 -0.00324800
v 0.03248300 0.06751400 -0.00586600
v 0.03018300 0.06872900 0.00201900
v 0.03525600 0.07213100 0.00121800
v 0.03886600 0.07603000 -0.00149800
v 0.03397700 0.07246500 0.00565400
v 0.03236600 0.07271700 0.00948000
v 0.03725700 0.07628000 0.00797500
v 0.03011300 0.07293300 0.01341200
v 0.02648100 0.06960800 0.00849800
v 0.02796800 0.07305400 0.01629600
v 0.02196300 0.07013500 0.01325800
v 0.01081800 0.06633000 0.00764700
v 0.03354200 0.07637500 0.01655700
v 0.02489300 0.07313500 0.01952300
v 0.00701800 0.06644700 0.00829600
v 0.00992700 0.06770300 0.01099800
v 0.02267800 0.07314500 0.02137500
v 0.00727700 0.06774200 0.01143100
v 0.02814600 0.07629700 0.02367700
v 0.01080700 0.07002900 0.01759700
v 0.00385200 0.06774800 0.01167300
v 0.00265700 0.06757600 0.01122800
v 0.00745200 0.07026000 0.01917800
v 0.01617100 0.07362900 0.02700400
v 0.00585000 0.07756200 0.03789000
v 0.00861200 0.07982700 0.03897700
v 0.01336400 0.07877800 0.03688600
v 0.01443300 0.08060100 0.03758800
v 0.00861100 0.07854900 0.03816300
v 0.00586600 0.07896700 0.03900300
v 0.00859400 0.08088100 0.03945100
v 0.00855400 0.08212900 0.03983300
v 0.00447100 0.08075300 0.04008000
v 0.00309000 0.07995800 0.03988200
v 0.00446100 0.08145500 0.04030900
v 0.01959400 0.06858500 -0.03837600
v 0.02527500 0.06850600 -0.03425100
v 0.02476100 0.06057400 -0.03644700
v 0.03118700 0.06256200 -0.02027900
v 0.03130300 0.06280300 -0.01923300
v 0.03000700 0.06121900 -0.01658800
v 0.03578900 0.07275100 -0.01730200
v 0.03458500 0.07013100 -0.01858100
v 0.03273600 0.08283000 -0.02512900
v 0.03702300 0.07771200 -0.01713500
v 0.03716100 0.08014900 -0.01756300
v 0.03778300 0.07703000 -0.01455300
v 0.02461900 0.06542600 0.00053400
v 0.04019500 0.07892100 -0.00336600
v 0.04055800 0.08041500 -0.00440400
v 0.02079500 0.06639400 0.00488200
v 0.04070300 0.08043900 -0.00049100
v 0.03956600 0.07899800 0.00572900
v 0.04035500 0.08044500 0.00440600
v 0.04090100 0.08193000 0.00296900
v 0.03942900 0.08042800 0.00919700
v 0.01629900 0.06837500 0.01120600
v 0.01598600 0.06900700 0.01298200
v 0.03669000 0.07897400 0.01498600
v 0.03792000 0.08039000 0.01388500
v 0.03893400 0.08187000 0.01252900
v 0.01666700 0.07017700 0.01607000
v 0.03592700 0.08033300 0.01822000
v 0.01675300 0.07156700 0.02035400
v 0.03180900 0.07883900 0.02310900
v 0.03335200 0.08025000 0.02241100
v 0.03478900 0.08175100 0.02129600
v 0.02244700 0.07491900 0.02610200
v 0.03050700 0.08015000 0.02600800
v 0.02702700 0.08001600 0.02946900
v 0.01982500 0.07606700 0.03030000
v 0.02877600 0.08157000 0.02874600
v 0.02152400 0.07750300 0.03132900
v 0.02210000 0.07824400 0.03180000
v 0.02315900 0.08020600 0.03270500
v 0.01504000 0.07586300 0.03266200
v 0.00421400 0.07216200 0.02687900
v 0.01932500 0.07841700 0.03374700
v 0.00856700 0.07387100 0.03102500
v 0.01142300 0.07534800 0.03330600
v 0.01210900 0.07636600 0.03473700
v 0.00774400 0.07491000 0.03368200
v 0.01980700 0.08275600 0.03581600
v 0.03054700 0.06261400 -0.02538700
v 0.02988800 0.07580500 -0.02872800
v 0.03158900 0.07482800 -0.02659100
v 0.03219100 0.07912000 -0.02585400
v 0.03239100 0.08037200 -0.02559200
v 0.03940000 0.08032100 -0.01117200
v 0.01274100 0.01119200 -0.06699800
v 0.01225000 0.02167100 -0.06421100
v 0.01184600 0.03351400 -0.05902800
v 0.02072100 0.00634100 -0.06717900
v 0.02007700 0.01242100 -0.06610900
v 0.02993500 0.00657500 -0.06545200
v 0.02887700 0.01279400 -0.06390200
v 0.03966900 0.00684900 -0.05832200
v 0.03802700 0.01333900 -0.05641700
v 0.01829700 0.03493700 -0.05641800
v 0.02455600 0.03580400 -0.05121700
v 0.02844300 0.03764600 -0.04222800
v 0.03600800 0.00453700 -0.06331800
v 0.03855400 0.00344000 -0.06144900
v 0.03564200 0.00674600 -0.06300400
v 0.03298300 0.01092900 -0.06296500
v 0.03499100 0.00996300 -0.06224600
v 0.03686600 0.00896000 -0.06127500
v 0.03425000 0.01308000 -0.06117600
v 0.01551600 0.02829300 -0.06099500
v 0.02245200 0.02348100 -0.06117500
v 0.03586700 0.01517300 -0.05833100
v 0.03452600 0.01606100 -0.05899500
v 0.01960800 0.02857700 -0.05957400
v 0.02673600 0.02444500 -0.05832700
v 0.01917500 0.03070300 -0.05855200
v 0.03445600 0.02066100 -0.05468800
v 0.03283400 0.02123200 -0.05613700
v 0.02970400 0.02614400 -0.05451800
v 0.02878300 0.03288900 -0.04832400
v 0.02717900 0.03654800 -0.04685000
v 0.03996500 0.00475700 -0.05874900
v 0.03131700 0.01701700 -0.06062600
v 0.03659800 0.01730400 -0.05477300
v 0.02251300 0.03211800 -0.05580700
v 0.03149100 0.02803600 -0.04994600
v 0.02616700 0.03242300 -0.05235800
v 0.01110300 0.04526600 -0.05232500
v -0.01048700 0.04526700 -0.05232500
v -0.01133300 0.03081400 -0.06037600
v -0.01326700 0.07369400 -0.03980400
v 0.00030800 0.06609600 -0.04405400
v 0.00030800 0.05221600 -0.04967500
v 0.00030800 0.04545700 -0.05330700
v 0.00030800 0.03949900 -0.05666700
v 0.00030800 0.03165400 -0.06066200
v -0.01048700 0.03154800 -0.06011500
v 0.00030800 0.01555200 -0.06631600
v -0.00119300 0.07854600 -0.04136800
v -0.00194400 0.07539400 -0.04177200
v 0.00030800 0.07538200 -0.04183700
v 0.00740000 0.07633800 -0.04106100
v 0.04028000 0.09094200 0.00909300
v 0.03724800 0.09094200 0.01775900
v 0.03236300 0.09094200 0.02553300
v 0.02587100 0.09094200 0.03202500
v 0.01809700 0.09094200 0.03691000
v 0.00943100 0.09094200 0.03994200
v 0.00030800 0.09094200 0.04097000
v -0.00881500 0.09094200 0.03994200
v -0.01748100 0.09094200 0.03691000
v -0.02525500 0.09094200 0.03202500
v -0.03174700 0.09094200 0.02553300
v -0.03663200 0.09094200 0.01775900
v -0.03966400 0.09094200 0.00909300
v -0.03989200 -0.00105800 0.01344100
v -0.03989200 -0.00005800 0.01344100
v -0.03989200 0.00094200 0.01344100
v -0.04018000 0.00094200 0.01344100
v -0.03896000 0.00985700 0.01344100
v -0.03580100 0.01828300 0.01344100
v -0.03086000 0.02580300 0.01344100
v -0.02438100 0.03204700 0.01344100
v -0.01668300 0.03670600 0.01344100
v -0.00814600 0.03955000 0.01344100
v 0.00080800 0.04043900 0.01344100
v 0.00973700 0.03932900 0.01344100
v 0.01820100 0.03627500 0.01344100
v 0.02578200 0.03142700 0.01344100
v 0.03210500 0.02502600 0.01344100
v 0.03685900 0.01738600 0.01344100
v 0.03980800 0.00888500 0.01344100
v 0.04080800 -0.00005800 0.01344100
v 0.03980800 -0.00900000 0.01344100
v 0.03685900 -0.01750100 0.01344100
v 0.03210500 -0.02514100 0.01344100
v 0.02578200 -0.03154300 0.01344100
v 0.01820100 -0.03639100 0.01344100
v 0.00973700 -0.03944500 0.01344100
v 0.00080800 -0.04055500 0.01344100
v -0.00814600 -0.03966600 0.01344100
v -0.01668300 -0.03682100 0.01344100
v -0.02438100 -0.03216200 0.01344100
v -0.03086000 -0.02591900 0.01344100
v -0.03580100 -0.01839800 0.01344100
v -0.03896000 -0.00997300 0.01344100
v -0.04018000 -0.00105800 0.01344100
v 0.00030800 -0.04025800 0.01344100
v -0.00863700 -0.03925000 0.01344100
v -0.01713400 -0.03627700 0.01344100
v -0.02475600 -0.03148700 0.01344100
v -0.03112200 -0.02512200 0.01344100
v -0.03591100 -0.01750000 0.01344100
v -0.03888400 -0.00900300 0.01344100
v 0.00030800 0.04014200 0.01344100
v 0.00925300 0.03913400 0.01344100
v 0.01775000 0.03616100 0.01344100
v 0.02537200 0.03137200 0.01344100
v 0.03173800 0.02500600 0.01344100
v 0.03652700 0.01738400 0.01344100
v 0.03950000 0.00888800 0.01344100
v 0.04050800 -0.00005800 0.01344100
v 0.03950000 -0.00900300 0.01344100
v 0.03652700 -0.01750000 0.01344100
v 0.03173800 -0.02512200 0.01344100
v 0.02537200 -0.03148700 0.01344100
v 0.01775000 -0.03627700 0.01344100
v 0.00925300 -0.03925000 0.01344100
v -0.03888400 0.00888800 0.01344100
v -0.03591100 0.01738400 0.01344100
v -0.03112200 0.02500600 0.01344100
v -0.02475600 0.03137200 0.01344100
v -0.01713400 0.03616100 0.01344100
v -0.00863700 0.03913400 0.01344100
v -0.04069200 0.09094200 -0.00003000
v -0.03966400 0.09094200 -0.00915300
v -0.03663200 0.09094200 -0.01781900
v -0.03174700 0.09094200 -0.02559300
v -0.02525500 0.09094200 -0.03208500
v -0.01748100 0.09094200 -0.03697000
v -0.00881500 0.09094200 -0.04000200
v 0.00030800 0.09094200 -0.04103000
v 0.00943100 0.09094200 -0.04000200
v 0.01809700 0.09094200 -0.03697000
v 0.02587100 0.09094200 -0.03208500
v 0.03236300 0.09094200 -0.02559300
v 0.03724800 0.09094200 -0.01781900
v 0.04028000 0.09094200 -0.00915300
v 0.04130800 0.09094200 -0.00003000
v 0.04028000 0.09094200 0.00909300
v 0.03724800 0.09094200 0.01775900
v 0.03236300 0.09094200 0.02553300
v 0.02587100 0.09094200 0.03202500
v 0.01809700 0.09094200 0.03691000
v 0.00943100 0.09094200 0.03994200
v 0.00030800 0.09094200 0.04097000
v -0.00881500 0.09094200 0.03994200
v -0.01748100 0.09094200 0.03691000
v -0.02525500 0.09094200 0.03202500
v -0.03174700 0.09094200 0.02553300
v -0.03663200 0.09094200 0.01775900
v -0.03966400 0.09094200 0.00909300
v 0.04100800 0.09094200 -0.00003000
v 0.03998800 0.09094200 0.00902600
v 0.03697700 0.09094200 0.01762900
v 0.03212800 0.09094200 0.02534600
v 0.02568400 0.09094200 0.03179000
v 0.01796700 0.09094200 0.03663900
v 0.00936500 0.09094200 0.03964900
v 0.00030800 0.09094200 0.04067000
v -0.00874900 0.09094200 0.03964900
v -0.01735100 0.09094200 0.03663900
v -0.02506800 0.09094200 0.03179000
v -0.03151300 0.09094200 0.02534600
v -0.03636100 0.09094200 0.01762900
v -0.03937200 0.09094200 0.00902600
v -0.04039200 0.09094200 -0.00003000
v -0.03937200 0.09094200 -0.00908700
v -0.03636100 0.09094200 -0.01768900
v -0.03151300 0.09094200 -0.02540600
v -0.02506800 0.09094200 -0.03185100
v -0.01735100 0.09094200 -0.03670000
v -0.00874900 0.09094200 -0.03971000
v 0.00030800 0.09094200 -0.04073000
v 0.00936500 0.09094200 -0.03971000
v 0.01796700 0.09094200 -0.03670000
v 0.02568400 0.09094200 -0.03185100
v 0.03212800 0.09094200 -0.02540600
v 0.03697700 0.09094200 -0.01768900
v 0.03998800 0.09094200 -0.00908700
v -0.04018000 -0.00105800 0.01643100
v -0.03896000 -0.00997300 0.01643100
v -0.03580100 -0.01839800 0.01643100
v -0.03086000 -0.02591900 0.01643100
v -0.02438100 -0.03216200 0.01643100
v -0.01668300 -0.03682100 0.01643100
v -0.00814600 -0.03966600 0.01643100
v 0.00080800 -0.04055500 0.01643100
v 0.00973700 -0.03944500 0.01643100
v 0.01820100 -0.03639100 0.01643100
v 0.02578200 -0.03154300 0.01643100
v 0.03210500 -0.02514100 0.01643100
v 0.03685900 -0.01750100 0.01643100
v 0.03980800 -0.00900000 0.01643100
v -0.04018000 -0.00105800 0.01344100
v 0.03980800 -0.00900000 0.01344100
v 0.03685900 -0.01750100 0.01344100
v 0.03210500 -0.02514100 0.01344100
v 0.02578200 -0.03154300 0.01344100
v 0.01820100 -0.03639100 0.01344100
v 0.00973700 -0.03944500 0.01344100
v 0.00080800 -0.04055500 0.01344100
v -0.00814600 -0.03966600 0.01344100
v -0.01668300 -0.03682100 0.01344100
v -0.02438100 -0.03216200 0.01344100
v -0.03086000 -0.02591900 0.01344100
v -0.03580100 -0.01839800 0.01344100
v -0.03896000 -0.00997300 0.01344100
v -0.04039200 0.09794200 0.00097000
v -0.04039200 0.09794200 -0.00003000
v -0.04039200 0.09794200 -0.00103000
v -0.04068000 0.09794200 -0.00103000
v -0.03944700 0.09794200 -0.01005600
v -0.03625200 0.09794200 -0.01858800
v -0.03125100 0.09794200 -0.02620300
v -0.02469300 0.09794200 -0.03252600
v -0.01690000 0.09794200 -0.03724400
v -0.00825700 0.09794200 -0.04012500
v 0.00080800 0.09794200 -0.04102700
v 0.00984900 0.09794200 -0.03990500
v 0.01841800 0.09794200 -0.03681300
v 0.02609400 0.09794200 -0.03190600
v 0.03249600 0.09794200 -0.02542500
v 0.03730900 0.09794200 -0.01769100
v 0.04029600 0.09794200 -0.00908400
v 0.04130800 0.09794200 -0.00003000
v 0.04029600 0.09794200 0.00902400
v 0.03730900 0.09794200 0.01763000
v 0.03249600 0.09794200 0.02536500
v 0.02609400 0.09794200 0.03184600
v 0.01841800 0.09794200 0.03675300
v 0.00984900 0.09794200 0.03984400
v 0.00080800 0.09794200 0.04096700
v -0.00825700 0.09794200 0.04006500
v -0.01690000 0.09794200 0.03718400
v -0.02469300 0.09794200 0.03246500
v -0.03125100 0.09794200 0.02614300
v -0.03625200 0.09794200 0.01852700
v -0.03944700 0.09794200 0.00999600
v -0.04068000 0.09794200 0.00097000
v 0.04100800 0.09794200 -0.00003000
v 0.03998800 0.09794200 0.00902600
v 0.03697700 0.09794200 0.01762900
v 0.03212800 0.09794200 0.02534600
v 0.02568400 0.09794200 0.03179000
v 0.01796700 0.09794200 0.03663900
v 0.00936500 0.09794200 0.03964900
v 0.00030800 0.09794200 0.04067000
v -0.00874900 0.09794200 0.03964900
v -0.01735100 0.09794200 0.03663900
v -0.02506800 0.09794200 0.03179000
v -0.03151300 0.09794200 0.02534600
v -0.03636100 0.09794200 0.01762900
v -0.03937200 0.09794200 0.00902600
v -0.03937200 0.09794200 -0.00908700
v -0.03636100 0.09794200 -0.01768900
v -0.03151300 0.09794200 -0.02540600
v -0.02506800 0.09794200 -0.03185100
v -0.01735100 0.09794200 -0.03670000
v -0.00874900 0.09794200 -0.03971000
v 0.00030800 0.09794200 -0.04073000
v 0.00936500 0.09794200 -0.03971000
v 0.01796700 0.09794200 -0.03670000
v 0.02568400 0.09794200 -0.03185100
v 0.03212800 0.09794200 -0.02540600
v 0.03697700 0.09794200 -0.01768900
v 0.03998800 0.09794200 -0.00908700
v -0.04068000 0.09794200 0.00097000
v -0.04039200 0.09794200 0.00097000
v -0.04039200 0.10194200 0.00097000
v -0.04068000 0.10194200 0.00097000
v -0.04039200 0.09794200 0.00097000
v -0.04039200 0.09794200 -0.00003000
v -0.04039200 0.09794200 -0.00103000
v -0.04039200 0.10194200 -0.00103000
v -0.04039200 0.10194200 0.00097000
v -0.04039200 0.10194200 -0.00103000
v -0.04068000 0.10194200 -0.00103000
v -0.04039200 0.09794200 -0.00103000
v -0.04068000 0.09794200 -0.00103000
v -0.04018000 -0.00105800 0.01344100
v -0.03989200 -0.00105800 0.01344100
v -0.03989200 -0.00105800 0.01643100
v -0.04018000 -0.00105800 0.01643100
v -0.03989200 -0.00105800 0.01344100
v -0.03989200 -0.00005800 0.01344100
v -0.03989200 0.00094200 0.01344100
v -0.03989200 0.00094200 0.01643100
v -0.03989200 -0.00105800 0.01643100
v -0.04018000 0.00094200 0.01643100
v -0.03989200 0.00094200 0.01643100
v -0.03989200 0.00094200 0.01344100
v -0.04018000 0.00094200 0.01344100
v -0.03989200 0.00094200 0.01643100
v -0.03989200 -0.00105800 0.01643100
v -0.04018000 -0.00105800 0.01643100
v -0.03896000 -0.00997300 0.01643100
v -0.03580100 -0.01839800 0.01643100
v -0.03086000 -0.02591900 0.01643100
v -0.02438100 -0.03216200 0.01643100
v -0.01668300 -0.03682100 0.01643100
v -0.00814600 -0.03966600 0.01643100
v 0.00080800 -0.04055500 0.01643100
v 0.00973700 -0.03944500 0.01643100
v 0.01820100 -0.03639100 0.01643100
v 0.02578200 -0.03154300 0.01643100
v 0.03210500 -0.02514100 0.01643100
v 0.03685900 -0.01750100 0.01643100
v 0.03980800 -0.00900000 0.01643100
v 0.04080800 -0.00005800 0.01643100
v 0.03980800 0.00888500 0.01643100
v 0.03685900 0.01738600 0.01643100
v 0.03210500 0.02502600 0.01643100
v 0.02578200 0.03142700 0.01643100
v 0.01820100 0.03627500 0.01643100
v 0.00973700 0.03932900 0.01643100
v 0.00080800 0.04043900 0.01643100
v -0.00814600 0.03955000 0.01643100
v -0.01668300 0.03670600 0.01643100
v -0.02438100 0.03204700 0.01643100
v -0.03086000 0.02580300 0.01643100
v -0.03580100 0.01828300 0.01643100
v -0.03896000 0.00985700 0.01643100
v -0.04018000 0.00094200 0.01643100
v 0.00030800 0.03094200 0.01643100
v -0.00711100 0.03004100 0.01643100
v -0.01409800 0.02739100 0.01643100
v -0.02024900 0.02314600 0.01643100
v -0.02520500 0.01755200 0.01643100
v -0.02867800 0.01093500 0.01643100
v -0.03046600 0.00367900 0.01643100
v -0.03046600 -0.00379400 0.01643100
v -0.02867800 -0.01105100 0.01643100
v -0.02520500 -0.01766800 0.01643100
v -0.02024900 -0.02326200 0.01643100
v -0.01409800 -0.02750700 0.01643100
v -0.00711100 -0.03015700 0.01643100
v 0.00030800 -0.03105800 0.01643100
v 0.00772700 -0.03015700 0.01643100
v 0.01471400 -0.02750700 0.01643100
v 0.02086500 -0.02326200 0.01643100
v 0.02582000 -0.01766800 0.01643100
v 0.02929300 -0.01105100 0.01643100
v 0.03108200 -0.00379400 0.01643100
v 0.03108200 0.00367900 0.01643100
v 0.02929300 0.01093500 0.01643100
v 0.02582000 0.01755200 0.01643100
v 0.02086500 0.02314600 0.01643100
v 0.01471400 0.02739100 0.01643100
v 0.00772700 0.03004100 0.01643100
v 0.00030800 0.03094200 0.00614100
v -0.00711100 0.03004100 0.00614100
v -0.01409800 0.02739100 0.00614100
v -0.02024900 0.02314600 0.00614100
v -0.02520500 0.01755200 0.00614100
v -0.02867800 0.01093500 0.00614100
v -0.03046600 0.00367900 0.00614100
v -0.03046600 -0.00379400 0.00614100
v -0.02867800 -0.01105100 0.00614100
v -0.02520500 -0.01766800 0.00614100
v -0.02024900 -0.02326200 0.00614100
v -0.01409800 -0.02750700 0.00614100
v -0.00711100 -0.03015700 0.00614100
v 0.00030800 -0.03105800 0.00614100
v 0.00772700 -0.03015700 0.00614100
v 0.01471400 -0.02750700 0.00614100
v 0.02086500 -0.02326200 0.00614100
v 0.02582000 -0.01766800 0.00614100
v 0.02929300 -0.01105100 0.00614100
v 0.03108200 -0.00379400 0.00614100
v 0.03108200 0.00367900 0.00614100
v 0.02929300 0.01093500 0.00614100
v 0.02582000 0.01755200 0.00614100
v 0.02086500 0.02314600 0.00614100
v 0.01471400 0.02739100 0.00614100
v 0.00772700 0.03004100 0.00614100
v -0.00711100 0.03004100 0.01643100
v -0.01409800 0.02739100 0.01643100
v -0.02024900 0.02314600 0.01643100
v -0.02520500 0.01755200 0.01643100
v -0.02867800 0.01093500 0.01643100
v -0.03046600 0.00367900 0.01643100
v -0.03046600 -0.00379400 0.01643100
v -0.02867800 -0.01105100 0.01643100
v -0.02520500 -0.01766800 0.01643100
v -0.02024900 -0.02326200 0.01643100
v -0.01409800 -0.02750700 0.01643100
v -0.00711100 -0.03015700 0.01643100
v -0.00711100 0.03004100 0.00614100
v -0.01409800 0.02739100 0.00614100
v -0.02024900 0.02314600 0.00614100
v -0.02520500 0.01755200 0.00614100
v -0.02867800 0.01093500 0.00614100
v -0.03046600 0.00367900 0.00614100
v -0.03046600 -0.00379400 0.00614100
v -0.02867800 -0.01105100 0.00614100
v -0.02520500 -0.01766800 0.00614100
v -0.02024900 -0.02326200 0.00614100
v -0.01409800 -0.02750700 0.00614100
v -0.00711100 -0.03015700 0.00614100
v -0.04068000 0.10194200 0.00097000
v -0.04039200 0.10194200 0.00097000
v -0.03944700 0.10194200 0.00999600
v -0.03625200 0.10194200 0.01852700
v -0.03125100 0.10194200 0.02614300
v -0.02469300 0.10194200 0.03246500
v -0.01690000 0.10194200 0.03718400
v -0.00825700 0.10194200 0.04006500
v 0.00080800 0.10194200 0.04096700
v 0.00984900 0.10194200 0.03984400
v 0.01841800 0.10194200 0.03675300
v 0.02609400 0.10194200 0.03184600
v 0.03249600 0.10194200 0.02536500
v 0.03730900 0.10194200 0.01763000
v 0.04029600 0.10194200 0.00902400
v 0.04130800 0.10194200 -0.00003000
v 0.04029600 0.10194200 -0.00908400
v 0.03730900 0.10194200 -0.01769100
v 0.03249600 0.10194200 -0.02542500
v 0.02609400 0.10194200 -0.03190600
v 0.01841800 0.10194200 -0.03681300
v 0.00984900 0.10194200 -0.03990500
v 0.00080800 0.10194200 -0.04102700
v -0.00825700 0.10194200 -0.04012500
v -0.01690000 0.10194200 -0.03724400
v -0.02469300 0.10194200 -0.03252600
v -0.03125100 0.10194200 -0.02620300
v -0.03625200 0.10194200 -0.01858800
v -0.03944700 0.10194200 -0.01005600
v -0.04068000 0.10194200 -0.00103000
v -0.04039200 0.10194200 -0.00103000
v 0.03130800 0.10194200 -0.00003000
v 0.03040700 0.10194200 -0.00744900
v 0.02775700 0.10194200 -0.01443700
v 0.02351200 0.10194200 -0.02058700
v 0.01791800 0.10194200 -0.02554300
v 0.01130100 0.10194200 -0.02901600
v 0.00404500 0.10194200 -0.03080400
v -0.00342900 0.10194200 -0.03080400
v -0.01068500 0.10194200 -0.02901600
v -0.01730200 0.10194200 -0.02554300
v -0.02289600 0.10194200 -0.02058700
v -0.02714100 0.10194200 -0.01443700
v -0.02979100 0.10194200 -0.00744900
v -0.03069200 0.10194200 -0.00003000
v -0.02979100 0.10194200 0.00738900
v -0.02714100 0.10194200 0.01437600
v -0.02289600 0.10194200 0.02052700
v -0.01730200 0.10194200 0.02548200
v -0.01068500 0.10194200 0.02895500
v -0.00342900 0.10194200 0.03074400
v 0.00404500 0.10194200 0.03074400
v 0.01130100 0.10194200 0.02895500
v 0.01791800 0.10194200 0.02548200
v 0.02351200 0.10194200 0.02052700
v 0.02775700 0.10194200 0.01437600
v 0.03040700 0.10194200 0.00738900
v 0.03130800 0.09194200 -0.00003000
v 0.03040700 0.09194200 -0.00744900
v 0.02775700 0.09194200 -0.01443700
v 0.02351200 0.09194200 -0.02058700
v 0.01791800 0.09194200 -0.02554300
v 0.01130100 0.09194200 -0.02901600
v 0.00404500 0.09194200 -0.03080400
v -0.00342900 0.09194200 -0.03080400
v -0.01068500 0.09194200 -0.02901600
v -0.01730200 0.09194200 -0.02554300
v -0.02289600 0.09194200 -0.02058700
v -0.02714100 0.09194200 -0.01443700
v -0.02979100 0.09194200 -0.00744900
v -0.03069200 0.09194200 -0.00003000
v -0.02979100 0.09194200 0.00738900
v -0.02714100 0.09194200 0.01437600
v -0.02289600 0.09194200 0.02052700
v -0.01730200 0.09194200 0.02548200
v -0.01068500 0.09194200 0.02895500
v -0.00342900 0.09194200 0.03074400
v 0.00404500 0.09194200 0.03074400
v 0.01130100 0.09194200 0.02895500
v 0.01791800 0.09194200 0.02548200
v 0.02351200 0.09194200 0.02052700
v 0.02775700 0.09194200 0.01437600
v 0.03040700 0.09194200 0.00738900
v 0.03040700 0.10194200 -0.00744900
v 0.02775700 0.10194200 -0.01443700
v 0.02351200 0.10194200 -0.02058700
v 0.01791800 0.10194200 -0.02554300
v 0.01130100 0.10194200 -0.02901600
v 0.00404500 0.10194200 -0.03080400
v -0.00342900 0.10194200 -0.03080400
v -0.01068500 0.10194200 -0.02901600
v -0.01730200 0.10194200 -0.02554300
v -0.02289600 0.10194200 -0.02058700
v -0.02714100 0.10194200 -0.01443700
v -0.02979100 0.10194200 -0.00744900
v 0.03040700 0.09194200 -0.00744900
v 0.02775700 0.09194200 -0.01443700
v 0.02351200 0.09194200 -0.02058700
v 0.01791800 0.09194200 -0.02554300
v 0.01130100 0.09194200 -0.02901600
v 0.00404500 0.09194200 -0.03080400
v -0.00342900 0.09194200 -0.03080400
v -0.01068500 0.09194200 -0.02901600
v -0.01730200 0.09194200 -0.02554300
v -0.02289600 0.09194200 -0.02058700
v -0.02714100 0.09194200 -0.01443700
v -0.02979100 0.09194200 -0.00744900
f 115 129 128
f 116 129 115
f 117 130 129
f 117 129 116
f 118 131 130
f 118 132 131
f 118 130 117
f 119 132 118
f 120 133 132
f 120 132 119
f 121 134 133
f 121 135 134
f 121 133 120
f 122 135 121
f 123 136 135
f 123 135 122
f 124 137 136
f 124 136 123
f 125 138 137
f 125 137 124
f 126 139 138
f 126 138 125
f 127 140 139
f 127 139 126
f 114 113 140
f 114 140 127
f 144 156 143
f 144 157 156
f 145 158 157
f 145 159 158
f 145 157 144
f 146 159 145
f 147 160 159
f 147 161 160
f 147 159 146
f 148 161 147
f 149 162 161
f 149 161 148
f 150 163 162
f 150 162 149
f 151 164 163
f 151 163 150
f 152 165 164
f 152 166 165
f 152 164 151
f 153 166 152
f 154 167 166
f 154 166 153
f 155 168 167
f 155 167 154
f 142 141 168
f 142 168 155
f 182 180 181
f 178 179 180
f 178 180 182
f 177 182 183
f 177 178 182
f 176 183 184
f 176 177 183
f 175 184 185
f 175 176 184
f 174 175 185
f 173 185 186
f 173 174 185
f 172 186 187
f 172 173 186
f 171 172 187
f 170 187 188
f 170 171 187
f 169 170 188
f 217 189 190
f 218 190 191
f 218 217 190
f 219 191 192
f 219 218 191
f 220 219 192
f 221 192 193
f 221 220 192
f 222 193 194
f 222 221 193
f 214 194 195
f 214 222 194
f 215 214 195
f 216 195 196
f 216 215 195
f 211 216 196
f 212 196 197
f 212 211 196
f 213 197 198
f 213 212 197
f 205 213 198
f 206 198 199
f 206 205 198
f 207 199 200
f 207 206 199
f 208 200 201
f 208 207 200
f 209 201 202
f 209 208 201
f 210 202 203
f 210 209 202
f 204 210 203
f 239 237 236
f 240 236 235
f 240 239 236
f 241 235 234
f 241 240 235
f 242 234 233
f 242 241 234
f 243 233 232
f 243 242 233
f 244 232 231
f 244 243 232
f 245 231 230
f 245 244 231
f 246 230 229
f 246 245 230
f 247 229 228
f 247 246 229
f 248 247 228
f 249 227 226
f 249 228 227
f 249 248 228
f 250 226 225
f 250 249 226
f 251 250 225
f 252 224 223
f 252 225 224
f 252 251 225
f 238 252 223
f 270 267 266
f 270 269 267
f 271 266 265
f 271 270 266
f 272 264 263
f 272 265 264
f 272 271 265
f 273 272 263
f 274 263 262
f 274 273 263
f 275 262 261
f 275 274 262
f 276 260 259
f 276 261 260
f 276 275 261
f 277 276 259
f 278 259 258
f 278 277 259
f 279 258 257
f 279 278 258
f 280 257 256
f 280 279 257
f 281 255 254
f 281 256 255
f 281 280 256
f 282 281 254
f 268 254 253
f 268 282 254
f 298 268 253
f 298 296 295
f 298 253 296
f 299 298 295
f 300 294 293
f 300 295 294
f 300 299 295
f 301 300 293
f 302 293 292
f 302 301 293
f 303 291 290
f 303 292 291
f 303 302 292
f 304 290 289
f 304 303 290
f 305 289 288
f 305 304 289
f 306 305 288
f 307 287 286
f 307 288 287
f 307 306 288
f 308 307 286
f 309 285 284
f 309 286 285
f 309 308 286
f 310 309 284
f 297 284 283
f 297 310 284
f 328 169 188
f 328 188 311
f 327 311 312
f 327 328 311
f 326 312 313
f 326 327 312
f 325 313 314
f 325 326 313
f 324 325 314
f 323 314 315
f 323 324 314
f 322 315 316
f 322 323 315
f 321 322 316
f 318 316 317
f 320 321 316
f 320 316 318
f 319 320 318
f 340 341 342
f 358 355 356
f 358 356 357
f 368 369 367
f 376 342 343
f 376 343 344
f 376 344 345
f 376 345 346
f 376 340 342
f 377 348 349
f 377 349 350
f 378 354 355
f 378 358 359
f 378 359 360
f 378 355 358
f 379 337 338
f 380 334 335
f 381 364 365
f 381 365 366
f 382 318 317
f 382 317 329
f 382 329 330
f 382 330 331
f 383 318 382
f 384 318 383
f 385 370 371
f 386 372 373
f 386 373 374
f 387 376 346
f 387 346 347
f 387 347 348
f 387 348 377
f 388 387 377
f 388 376 387
f 389 376 388
f 389 339 340
f 389 340 376
f 390 339 389
f 390 389 388
f 390 388 377
f 391 350 351
f 391 377 350
f 392 377 391
f 393 378 360
f 394 360 361
f 394 393 360
f 395 377 392
f 396 361 362
f 396 394 361
f 396 397 393
f 396 393 394
f 398 395 399
f 400 335 336
f 400 336 337
f 400 337 379
f 400 380 335
f 401 379 398
f 401 400 379
f 402 403 380
f 402 380 400
f 402 401 403
f 402 400 401
f 404 364 381
f 405 404 381
f 405 406 404
f 407 399 405
f 408 332 333
f 408 333 334
f 408 334 380
f 409 408 380
f 410 409 380
f 410 380 403
f 411 381 366
f 411 366 367
f 412 409 410
f 412 386 384
f 413 414 411
f 413 385 414
f 413 367 369
f 413 411 367
f 413 369 370
f 413 370 385
f 415 372 386
f 415 410 403
f 415 412 410
f 415 386 412
f 416 415 403
f 416 372 415
f 416 371 372
f 416 385 371
f 417 319 318
f 417 386 374
f 417 384 386
f 417 318 384
f 417 374 375
f 417 375 319
f 418 351 352
f 418 352 353
f 418 353 354
f 418 354 378
f 418 391 351
f 419 391 418
f 419 378 393
f 419 392 391
f 419 397 392
f 419 393 397
f 419 418 378
f 420 338 339
f 420 339 390
f 420 379 338
f 421 395 392
f 421 392 397
f 422 379 420
f 422 395 398
f 422 398 379
f 423 421 397
f 423 397 424
f 425 421 423
f 425 423 424
f 425 395 421
f 425 399 395
f 426 362 363
f 426 396 362
f 426 397 396
f 426 424 397
f 427 399 425
f 427 425 424
f 427 424 406
f 428 399 427
f 428 427 406
f 428 405 399
f 428 406 405
f 429 363 364
f 429 424 426
f 429 426 363
f 429 406 424
f 429 364 404
f 429 404 406
f 430 398 399
f 430 403 401
f 430 401 398
f 430 399 407
f 431 411 414
f 431 405 381
f 431 414 432
f 431 407 405
f 431 381 411
f 431 432 407
f 433 331 332
f 433 382 331
f 433 332 408
f 433 408 409
f 433 383 382
f 434 430 407
f 434 403 430
f 434 407 432
f 435 409 412
f 435 412 384
f 435 384 383
f 435 383 433
f 435 433 409
f 436 414 385
f 436 416 403
f 436 432 414
f 436 434 432
f 436 385 416
f 436 403 434
f 437 390 377
f 437 422 420
f 437 395 422
f 437 420 390
f 437 377 395
f 503 450 449
f 502 503 449
f 448 502 449
f 504 451 450
f 504 450 503
f 501 502 448
f 447 501 448
f 505 452 451
f 505 451 504
f 500 501 447
f 446 500 447
f 478 438 452
f 478 452 505
f 499 500 446
f 453 499 446
f 479 439 438
f 479 438 478
f 498 499 453
f 498 453 454
f 455 498 454
f 480 440 439
f 480 439 479
f 497 455 456
f 497 498 455
f 457 497 456
f 481 441 440
f 481 440 480
f 496 497 457
f 496 457 458
f 459 496 458
f 482 441 481
f 495 459 460
f 495 496 459
f 442 441 482
f 461 495 460
f 483 442 482
f 494 461 462
f 494 495 461
f 443 442 483
f 463 494 462
f 484 443 483
f 493 494 463
f 444 443 484
f 464 493 463
f 492 493 464
f 465 492 464
f 445 484 485
f 445 444 484
f 466 445 485
f 477 492 465
f 486 466 485
f 491 492 477
f 467 466 486
f 476 491 477
f 468 467 486
f 487 468 486
f 490 491 476
f 469 468 487
f 475 490 476
f 470 469 487
f 488 470 487
f 474 489 490
f 474 490 475
f 471 470 488
f 473 489 474
f 472 471 488
f 472 489 473
f 472 488 489
f 517 343 342
f 517 342 341
f 517 345 344
f 517 344 343
f 533 356 355
f 533 357 356
f 180 506 181
f 534 349 348
f 534 350 349
f 535 532 533
f 535 355 354
f 535 533 355
f 536 515 514
f 537 512 511
f 538 527 528
f 539 507 506
f 539 508 507
f 539 506 180
f 540 522 523
f 541 519 520
f 541 520 521
f 542 346 345
f 542 347 346
f 542 348 347
f 542 345 517
f 542 534 348
f 543 534 542
f 543 542 517
f 544 517 516
f 544 543 517
f 545 534 543
f 545 543 544
f 545 544 516
f 546 350 534
f 546 351 350
f 547 546 534
f 548 532 535
f 549 531 532
f 549 532 548
f 550 530 531
f 550 549 548
f 550 548 551
f 550 531 549
f 552 553 554
f 555 513 512
f 555 514 513
f 555 552 536
f 555 536 514
f 555 512 537
f 556 537 557
f 556 553 552
f 556 552 555
f 556 555 537
f 558 538 528
f 559 558 560
f 559 538 558
f 561 509 508
f 561 510 509
f 561 511 510
f 561 508 539
f 561 537 511
f 562 559 553
f 563 537 561
f 563 561 539
f 564 557 537
f 564 537 563
f 565 539 541
f 565 563 539
f 565 564 563
f 566 526 527
f 566 562 540
f 566 527 538
f 567 541 521
f 567 557 564
f 567 565 541
f 567 564 565
f 568 526 566
f 568 523 524
f 568 524 525
f 568 525 526
f 568 540 523
f 568 566 540
f 569 521 522
f 569 522 540
f 569 567 521
f 569 557 567
f 570 180 179
f 570 179 518
f 570 518 519
f 570 539 180
f 570 519 541
f 570 541 539
f 571 535 354
f 571 351 546
f 571 352 351
f 571 353 352
f 571 354 353
f 572 535 571
f 572 548 535
f 572 546 547
f 572 571 546
f 572 547 551
f 572 551 548
f 573 534 545
f 574 573 545
f 574 516 515
f 574 545 516
f 574 515 536
f 575 551 547
f 576 573 574
f 576 574 536
f 576 552 554
f 576 536 552
f 576 554 573
f 577 551 575
f 578 575 554
f 578 577 575
f 578 579 577
f 578 554 553
f 580 551 577
f 580 577 579
f 580 529 530
f 580 530 550
f 580 550 551
f 581 579 578
f 581 578 553
f 581 560 579
f 582 581 553
f 582 560 581
f 582 553 559
f 582 559 560
f 583 528 529
f 583 558 528
f 583 579 560
f 583 560 558
f 583 529 580
f 583 580 579
f 584 538 559
f 584 559 562
f 584 562 566
f 584 566 538
f 585 557 569
f 585 569 540
f 585 540 562
f 585 553 556
f 585 562 553
f 585 556 557
f 586 575 547
f 586 554 575
f 586 573 554
f 586 547 534
f 586 534 573
f 605 600 601
f 605 601 602
f 606 597 598
f 606 598 599
f 607 602 603
f 607 605 602
f 608 600 605
f 609 603 604
f 610 605 607
f 610 608 605
f 611 587 588
f 611 604 587
f 611 609 604
f 612 172 171
f 613 607 603
f 613 603 609
f 614 173 172
f 615 613 609
f 615 609 611
f 616 610 607
f 616 607 613
f 617 588 589
f 617 611 588
f 617 615 611
f 618 613 615
f 618 616 613
f 618 615 617
f 619 175 174
f 620 617 589
f 620 618 617
f 621 176 175
f 621 175 619
f 622 177 176
f 622 176 621
f 623 590 591
f 623 591 592
f 624 599 600
f 624 600 608
f 624 597 606
f 624 606 599
f 625 170 169
f 625 169 595
f 625 595 596
f 625 596 597
f 625 597 624
f 626 625 624
f 626 624 608
f 627 171 170
f 627 170 625
f 627 625 626
f 627 612 171
f 628 626 608
f 628 627 626
f 629 608 610
f 630 628 608
f 630 608 629
f 631 612 627
f 631 627 628
f 631 628 630
f 631 630 614
f 631 172 612
f 631 614 172
f 632 629 610
f 632 630 629
f 632 614 630
f 633 614 632
f 634 633 632
f 634 632 610
f 635 634 610
f 635 610 616
f 636 634 635
f 636 635 616
f 637 616 618
f 638 636 616
f 638 616 637
f 639 621 619
f 639 638 621
f 639 636 638
f 639 619 636
f 640 637 618
f 640 621 638
f 640 638 637
f 641 618 620
f 641 640 618
f 642 621 640
f 642 640 641
f 642 641 620
f 643 622 621
f 643 621 642
f 644 642 620
f 644 622 643
f 644 643 642
f 645 644 620
f 646 177 622
f 646 178 177
f 646 622 644
f 646 645 178
f 646 644 645
f 647 589 590
f 647 590 623
f 647 645 620
f 647 620 589
f 648 592 593
f 648 593 594
f 648 623 592
f 648 647 623
f 649 178 645
f 649 645 647
f 649 647 648
f 650 594 179
f 650 179 178
f 650 648 594
f 650 178 649
f 650 649 648
f 651 174 173
f 651 173 614
f 651 614 633
f 652 174 651
f 652 651 633
f 653 633 634
f 653 634 636
f 653 619 174
f 653 652 633
f 653 174 652
f 653 636 619
f 663 601 600
f 663 602 601
f 664 597 596
f 664 598 597
f 664 599 598
f 665 595 169
f 665 596 595
f 665 169 328
f 665 664 596
f 666 600 599
f 666 663 600
f 666 599 664
f 667 604 603
f 668 666 664
f 668 664 665
f 668 665 328
f 669 661 662
f 669 662 604
f 669 604 667
f 670 328 327
f 670 668 328
f 671 667 603
f 672 661 669
f 672 669 667
f 672 667 671
f 673 674 675
f 673 672 671
f 673 671 674
f 676 325 324
f 677 673 675
f 678 677 675
f 678 676 324
f 678 675 676
f 679 320 319
f 679 319 654
f 680 663 666
f 680 602 663
f 681 603 602
f 681 671 603
f 681 602 680
f 681 674 671
f 682 680 666
f 683 674 681
f 683 681 680
f 683 680 682
f 684 683 682
f 685 327 326
f 685 670 327
f 686 674 683
f 686 683 684
f 686 675 674
f 686 684 687
f 688 685 326
f 689 686 687
f 689 687 688
f 690 688 326
f 690 689 688
f 691 686 689
f 691 675 686
f 691 689 690
f 691 325 676
f 691 676 675
f 692 326 325
f 692 690 326
f 692 691 690
f 692 325 691
f 693 658 659
f 693 659 660
f 693 660 661
f 693 661 672
f 693 672 673
f 694 673 677
f 695 693 673
f 695 673 694
f 696 678 324
f 696 324 323
f 696 677 678
f 696 694 677
f 697 693 695
f 698 694 696
f 699 695 694
f 699 694 698
f 700 696 323
f 700 698 696
f 701 323 322
f 701 700 323
f 701 699 698
f 701 698 700
f 702 656 657
f 702 657 658
f 702 693 697
f 702 658 693
f 703 702 697
f 704 702 703
f 705 654 655
f 705 655 656
f 705 656 702
f 705 702 704
f 706 654 705
f 706 679 654
f 706 705 704
f 706 320 679
f 707 682 666
f 707 670 685
f 707 668 670
f 707 666 668
f 708 707 685
f 708 685 688
f 708 688 687
f 708 684 682
f 708 682 707
f 708 687 684
f 709 697 695
f 709 695 699
f 710 322 321
f 710 701 322
f 710 699 701
f 710 709 699
f 711 710 321
f 711 697 709
f 711 709 710
f 712 321 320
f 712 703 697
f 712 697 711
f 712 704 703
f 712 320 706
f 712 706 704
f 712 711 321
f 722 662 661
f 368 715 713
f 723 658 657
f 723 659 658
f 723 660 659
f 724 661 660
f 724 722 661
f 724 660 723
f 725 657 656
f 725 723 657
f 726 723 725
f 726 724 723
f 727 721 722
f 727 722 724
f 728 655 654
f 728 656 655
f 729 656 728
f 729 725 656
f 730 729 728
f 731 725 729
f 731 726 725
f 732 654 319
f 732 319 375
f 732 730 728
f 732 728 654
f 733 727 724
f 734 731 729
f 734 729 730
f 735 730 732
f 735 734 730
f 736 726 731
f 736 724 726
f 737 375 714
f 737 732 375
f 737 735 732
f 738 736 731
f 738 731 734
f 738 734 735
f 738 737 714
f 738 735 737
f 739 727 733
f 740 741 739
f 742 743 741
f 744 719 720
f 745 744 746
f 745 719 744
f 745 718 719
f 747 748 742
f 749 745 746
f 749 718 745
f 749 716 717
f 749 717 718
f 750 749 746
f 750 748 747
f 750 716 749
f 751 370 713
f 751 371 370
f 751 715 716
f 751 716 750
f 751 713 715
f 752 741 743
f 752 739 741
f 752 720 721
f 752 721 727
f 752 727 739
f 753 736 738
f 754 714 373
f 754 753 738
f 754 738 714
f 755 753 756
f 757 753 754
f 757 756 753
f 757 754 373
f 758 752 743
f 758 742 748
f 758 720 752
f 758 743 742
f 759 758 748
f 759 720 758
f 760 740 755
f 761 746 744
f 761 759 748
f 761 748 750
f 761 720 759
f 761 744 720
f 761 750 746
f 762 373 372
f 762 740 760
f 762 760 373
f 763 762 372
f 763 740 762
f 764 742 741
f 764 741 740
f 764 740 763
f 764 763 372
f 764 747 742
f 765 372 371
f 765 764 372
f 765 747 764
f 766 750 747
f 766 751 750
f 766 371 751
f 766 765 371
f 766 747 765
f 767 736 753
f 767 755 740
f 767 753 755
f 767 740 739
f 767 733 724
f 767 724 736
f 767 739 733
f 768 757 373
f 768 755 756
f 768 756 757
f 768 373 760
f 768 760 755
f 771 719 718
f 792 717 716
f 793 220 221
f 794 773 366
f 217 791 217
f 217 217 218
f 795 787 788
f 796 770 771
f 796 718 717
f 796 717 792
f 796 771 718
f 796 797 770
f 796 792 797
f 798 716 715
f 798 792 716
f 799 715 368
f 799 798 715
f 799 368 773
f 799 773 794
f 800 769 770
f 800 797 801
f 800 770 797
f 802 798 799
f 803 214 769
f 803 793 221
f 803 221 222
f 803 222 214
f 803 769 800
f 804 798 802
f 804 792 798
f 804 797 792
f 805 793 803
f 805 800 801
f 805 801 793
f 805 803 800
f 806 804 802
f 807 802 799
f 807 806 802
f 807 794 808
f 807 799 794
f 809 804 806
f 809 806 807
f 810 801 797
f 810 804 809
f 810 797 804
f 811 810 809
f 812 366 365
f 812 794 366
f 813 220 793
f 813 793 801
f 814 801 810
f 814 813 801
f 815 807 808
f 815 809 807
f 815 811 809
f 815 808 816
f 817 219 220
f 817 220 813
f 817 814 219
f 817 813 814
f 818 810 811
f 818 811 815
f 819 810 818
f 819 219 814
f 819 814 810
f 820 365 364
f 820 812 365
f 821 808 794
f 821 794 812
f 822 812 820
f 822 821 812
f 823 363 362
f 823 364 363
f 823 820 364
f 823 822 820
f 823 362 824
f 825 816 826
f 825 815 816
f 825 818 815
f 825 819 818
f 827 821 822
f 828 218 219
f 828 825 826
f 828 217 218
f 828 826 217
f 828 219 819
f 828 819 825
f 829 827 822
f 829 830 827
f 829 824 831
f 829 823 824
f 829 822 823
f 832 816 808
f 833 361 360
f 833 362 361
f 833 824 362
f 834 826 816
f 834 217 826
f 835 834 816
f 835 816 832
f 836 829 831
f 836 837 830
f 836 830 829
f 838 791 217
f 838 834 835
f 838 790 791
f 838 217 834
f 839 832 837
f 840 832 839
f 840 838 835
f 840 790 838
f 840 835 832
f 841 359 358
f 842 824 833
f 842 831 824
f 843 842 833
f 844 840 839
f 845 841 358
f 845 846 841
f 845 775 846
f 847 840 844
f 847 790 840
f 847 788 789
f 847 789 790
f 848 358 772
f 848 772 774
f 848 774 775
f 848 845 358
f 848 775 845
f 849 842 843
f 850 847 844
f 850 788 847
f 851 852 795
f 851 788 850
f 851 795 788
f 853 831 842
f 854 842 849
f 854 853 842
f 855 775 776
f 855 843 846
f 855 846 775
f 855 849 843
f 855 854 849
f 856 795 852
f 857 853 854
f 858 856 859
f 858 859 786
f 860 786 787
f 860 787 795
f 860 795 856
f 860 858 786
f 860 856 858
f 861 786 859
f 862 776 777
f 862 855 776
f 862 854 855
f 862 863 857
f 862 857 854
f 864 863 862
f 864 861 863
f 865 786 861
f 865 861 864
f 865 785 786
f 866 864 862
f 867 866 862
f 867 777 778
f 867 778 779
f 867 779 780
f 867 862 777
f 868 865 864
f 868 864 866
f 869 867 780
f 869 868 866
f 869 866 867
f 870 865 868
f 871 870 868
f 871 868 869
f 871 780 781
f 871 781 782
f 871 869 780
f 872 785 865
f 872 865 870
f 872 871 782
f 872 782 783
f 872 783 784
f 872 784 785
f 872 870 871
f 873 821 827
f 873 832 808
f 873 837 832
f 873 827 830
f 873 830 837
f 873 808 821
f 874 833 360
f 874 360 359
f 874 846 843
f 874 843 833
f 874 841 846
f 874 359 841
f 875 837 836
f 875 839 837
f 875 844 839
f 876 831 852
f 876 875 836
f 876 836 831
f 877 876 852
f 877 844 875
f 877 875 876
f 877 852 851
f 877 850 844
f 877 851 850
f 878 852 831
f 878 856 852
f 878 831 853
f 878 859 856
f 879 878 853
f 879 859 878
f 880 853 857
f 880 879 853
f 880 859 879
f 880 857 863
f 880 863 861
f 880 861 859
f 893 891 892
f 784 783 901
f 902 890 891
f 902 891 893
f 903 890 902
f 903 889 890
f 904 894 895
f 904 895 205
f 905 525 888
f 906 907 904
f 906 908 907
f 906 904 205
f 909 205 206
f 909 206 207
f 909 906 205
f 910 905 911
f 912 909 207
f 912 908 906
f 912 906 909
f 913 914 915
f 913 915 916
f 917 918 914
f 919 528 918
f 920 918 917
f 921 917 914
f 921 914 913
f 922 919 918
f 922 918 920
f 923 919 922
f 924 920 917
f 924 922 920
f 924 917 921
f 925 919 923
f 925 926 919
f 927 926 925
f 927 928 926
f 929 533 532
f 930 923 922
f 930 922 924
f 930 925 923
f 931 928 927
f 932 929 933
f 932 772 533
f 932 533 929
f 934 928 931
f 935 932 933
f 936 927 925
f 936 925 930
f 936 931 927
f 937 935 933
f 938 932 935
f 939 881 772
f 939 775 881
f 939 772 932
f 939 938 775
f 939 932 938
f 940 775 938
f 940 935 937
f 940 938 935
f 941 940 937
f 942 884 883
f 942 885 884
f 943 944 945
f 943 946 944
f 947 885 942
f 947 942 946
f 947 946 943
f 948 943 945
f 949 945 900
f 949 948 945
f 949 900 901
f 950 947 943
f 950 943 948
f 951 886 885
f 951 781 886
f 951 885 947
f 951 947 950
f 952 782 781
f 952 783 782
f 952 901 783
f 952 948 949
f 952 949 901
f 952 950 948
f 952 781 951
f 952 951 950
f 953 908 954
f 953 902 893
f 953 893 894
f 953 903 902
f 953 954 903
f 953 904 907
f 953 907 908
f 953 894 904
f 955 954 911
f 955 888 889
f 955 911 905
f 955 905 888
f 955 903 954
f 955 889 903
f 956 526 525
f 956 916 915
f 957 914 918
f 957 915 914
f 957 956 915
f 957 526 956
f 958 527 526
f 958 528 527
f 958 918 528
f 958 957 918
f 958 526 957
f 959 913 916
f 959 916 960
f 959 960 910
f 961 207 208
f 961 912 207
f 962 959 910
f 963 208 209
f 964 913 959
f 964 959 962
f 965 529 528
f 965 887 529
f 965 919 926
f 965 528 919
f 966 921 913
f 967 210 204
f 967 913 964
f 967 966 913
f 968 531 887
f 968 926 928
f 968 965 926
f 968 887 965
f 969 966 967
f 970 924 921
f 971 921 966
f 971 966 969
f 971 970 921
f 972 971 969
f 972 204 896
f 972 967 204
f 972 969 967
f 972 896 971
f 973 924 970
f 973 971 896
f 973 970 971
f 974 933 929
f 974 532 531
f 974 531 968
f 974 929 532
f 974 968 928
f 975 933 974
f 975 937 933
f 975 974 928
f 976 930 924
f 977 976 924
f 977 924 973
f 978 977 973
f 978 897 977
f 978 896 897
f 978 973 896
f 979 937 975
f 979 975 928
f 980 976 977
f 980 930 976
f 980 977 897
f 981 934 941
f 981 979 928
f 981 928 934
f 981 937 979
f 981 941 937
f 982 936 930
f 983 982 930
f 983 930 980
f 984 980 897
f 984 983 980
f 984 898 983
f 984 897 898
f 985 941 934
f 985 934 931
f 985 931 936
f 986 936 982
f 986 983 898
f 986 982 983
f 987 936 986
f 988 941 985
f 989 986 898
f 989 987 986
f 989 898 899
f 989 899 987
f 990 985 936
f 990 988 985
f 991 936 987
f 991 990 936
f 992 991 987
f 992 987 899
f 993 941 988
f 994 882 775
f 994 775 940
f 995 945 944
f 995 993 988
f 995 988 990
f 995 990 991
f 995 991 992
f 995 944 993
f 996 940 941
f 996 882 994
f 996 994 940
f 997 941 993
f 997 996 941
f 998 997 993
f 998 946 942
f 998 993 944
f 998 944 946
f 999 883 882
f 999 882 996
f 999 942 883
f 999 996 997
f 999 997 998
f 999 998 942
f 1000 900 945
f 1000 899 900
f 1000 945 995
f 1000 992 899
f 1000 995 992
f 1001 525 905
f 1001 916 956
f 1001 905 910
f 1001 956 525
f 1001 960 916
f 1001 910 960
f 1002 954 908
f 1002 908 912
f 1003 911 954
f 1003 962 910
f 1003 954 1002
f 1003 963 962
f 1003 910 911
f 1004 1002 912
f 1004 1003 1002
f 1004 963 1003
f 1005 208 963
f 1005 961 208
f 1005 912 961
f 1005 963 1004
f 1005 1004 912
f 1006 209 210
f 1006 963 209
f 1006 962 963
f 1006 964 962
f 1006 967 964
f 1006 210 967
f 891 1009 892
f 525 524 888
f 1010 588 587
f 1010 587 1007
f 1011 1007 1008
f 1011 1010 1007
f 1012 589 588
f 1012 588 1010
f 1013 1010 1011
f 1013 1012 1010
f 1014 519 518
f 1015 519 1014
f 1016 890 889
f 1016 891 890
f 1016 1009 891
f 1017 889 888
f 1017 1016 889
f 1018 523 522
f 1018 524 523
f 1019 590 589
f 1019 589 1012
f 1020 591 590
f 1020 592 591
f 1020 593 592
f 1020 590 1019
f 1021 1019 1012
f 1021 1014 1020
f 1021 1020 1019
f 1022 1021 1012
f 1022 1012 1013
f 1023 1021 1022
f 1024 1015 1014
f 1024 1014 1021
f 1024 1021 1023
f 1025 1022 1013
f 1025 1015 1024
f 1025 1023 1022
f 1025 1024 1023
f 1026 1008 1009
f 1027 1011 1008
f 1027 1013 1011
f 1027 1008 1026
f 1028 1025 1029
f 1028 1015 1025
f 1030 1027 1026
f 1031 1027 1030
f 1032 1030 1026
f 1032 1009 1016
f 1032 1026 1009
f 1033 1029 1034
f 1033 521 520
f 1035 1034 1031
f 1036 522 521
f 1036 1018 522
f 1037 1018 1036
f 1037 1017 888
f 1037 524 1018
f 1037 888 524
f 1038 594 593
f 1038 179 594
f 1038 518 179
f 1038 593 1020
f 1038 1014 518
f 1038 1020 1014
f 1039 1031 1034
f 1039 1027 1031
f 1039 1029 1025
f 1039 1034 1029
f 1039 1013 1027
f 1039 1025 1013
f 1040 1028 1029
f 1040 1015 1028
f 1040 1033 520
f 1040 520 519
f 1040 519 1015
f 1040 1029 1033
f 1041 1030 1032
f 1041 1032 1016
f 1041 1031 1030
f 1041 1016 1017
f 1042 1033 1034
f 1042 521 1033
f 1042 1035 1036
f 1042 1036 521
f 1042 1034 1035
f 1043 1035 1031
f 1043 1036 1035
f 1043 1031 1041
f 1043 1041 1017
f 1043 1037 1036
f 1043 1017 1037
f 895 213 205
f 1047 214 215
f 604 1007 587
f 662 722 604
f 1048 894 893
f 1048 770 1047
f 1049 893 1044
f 1049 771 770
f 1049 1045 771
f 1049 1048 893
f 1049 770 1048
f 1050 1045 1049
f 1050 1049 1044
f 1051 1044 1009
f 1051 1050 1044
f 1051 1045 1050
f 1052 1009 1008
f 1052 721 1046
f 1052 1051 1009
f 1053 1046 1045
f 1053 1045 1051
f 1053 1052 1046
f 1053 1051 1052
f 1054 1008 1007
f 1054 722 721
f 1054 1052 1008
f 1054 721 1052
f 1054 1007 604
f 1054 604 722
f 1055 215 216
f 1055 216 211
f 1056 215 1055
f 1056 1047 215
f 1056 1057 1048
f 1056 1048 1047
f 1056 1055 1057
f 1058 895 894
f 1058 211 212
f 1058 212 213
f 1058 213 895
f 1058 1048 1057
f 1058 894 1048
f 1058 1055 211
f 1058 1057 1055
f 204 203 1059
f 896 1059 1060
f 896 204 1059
f 897 1060 1061
f 897 896 1060
f 898 1061 1062
f 898 897 1061
f 899 1062 1063
f 899 898 1062
f 900 1063 1064
f 900 899 1063
f 901 1064 1065
f 901 900 1064
f 784 1065 1066
f 784 901 1065
f 785 1066 1067
f 785 784 1066
f 786 1067 1068
f 786 785 1067
f 787 786 1068
f 788 1068 1069
f 788 787 1068
f 789 1069 1070
f 789 788 1069
f 790 1070 1071
f 790 789 1070
f 791 1071 189
f 791 790 1071
f 217 791 189
f 1121 1092 1093
f 1121 1093 1122
f 1094 1122 1093
f 1123 1122 1094
f 1120 1091 1092
f 1120 1092 1121
f 1095 1123 1094
f 1124 1123 1095
f 1119 1090 1091
f 1119 1091 1120
f 1096 1124 1095
f 1104 1124 1096
f 1118 1089 1090
f 1118 1090 1119
f 1097 1104 1096
f 1088 1089 1118
f 1105 1104 1097
f 1117 1088 1118
f 1098 1105 1097
f 1087 1088 1117
f 1106 1105 1098
f 1116 1087 1117
f 1099 1106 1098
f 1086 1087 1116
f 1107 1106 1099
f 1115 1086 1116
f 1100 1107 1099
f 1085 1086 1115
f 1108 1107 1100
f 1114 1085 1115
f 1101 1108 1100
f 1084 1085 1114
f 1109 1108 1101
f 1113 1084 1114
f 1102 1109 1101
f 1083 1084 1113
f 1110 1109 1102
f 1112 1083 1113
f 1103 1110 1102
f 1103 1072 1110
f 1082 1083 1112
f 1111 1082 1112
f 1073 1110 1072
f 1081 1082 1111
f 1125 1073 1074
f 1125 1074 1075
f 1130 1081 1111
f 1076 1125 1075
f 1126 1125 1076
f 1080 1130 1129
f 1080 1081 1130
f 1077 1126 1076
f 1127 1126 1077
f 1079 1129 1128
f 1079 1080 1129
f 1078 1079 1128
f 1078 1128 1127
f 1078 1127 1077
f 1177 1135 1134
f 1176 1177 1134
f 1178 1136 1135
f 1178 1135 1177
f 1175 1134 1133
f 1175 1176 1134
f 1132 1175 1133
f 1179 1137 1136
f 1179 1136 1178
f 1174 1175 1132
f 1131 1174 1132
f 1180 1138 1137
f 1180 1137 1179
f 1173 1174 1131
f 1181 1139 1138
f 1181 1138 1180
f 1172 1131 1158
f 1172 1173 1131
f 1182 1140 1139
f 1182 1139 1181
f 1171 1158 1157
f 1171 1172 1158
f 1183 1141 1140
f 1183 1140 1182
f 1170 1171 1157
f 1170 1157 1156
f 1142 1183 1184
f 1142 1141 1183
f 1155 1170 1156
f 1155 1169 1170
f 1168 1169 1155
f 1143 1142 1184
f 1143 1184 1185
f 1154 1168 1155
f 1153 1168 1154
f 1153 1167 1168
f 1144 1143 1185
f 1144 1185 1186
f 1159 1144 1186
f 1145 1144 1159
f 1152 1166 1167
f 1152 1167 1153
f 1160 1145 1159
f 1146 1145 1160
f 1151 1166 1152
f 1151 1165 1166
f 1164 1165 1151
f 1147 1160 1161
f 1147 1146 1160
f 1150 1164 1151
f 1148 1161 1162
f 1148 1162 1163
f 1148 1147 1161
f 1149 1163 1164
f 1149 1164 1150
f 1149 1148 1163
f 238 223 1200
f 1202 1200 1199
f 1202 238 1200
f 1203 1199 1198
f 1203 1202 1199
f 1204 1198 1197
f 1204 1203 1198
f 1205 1197 1196
f 1205 1204 1197
f 1206 1196 1195
f 1206 1205 1196
f 1207 1195 1194
f 1207 1206 1195
f 1208 1207 1194
f 1209 1194 1193
f 1209 1208 1194
f 1210 1193 1192
f 1210 1209 1193
f 1211 1191 1190
f 1211 1192 1191
f 1211 1210 1192
f 1212 1211 1190
f 1213 1190 1189
f 1213 1212 1190
f 1214 1188 1187
f 1214 1189 1188
f 1214 1213 1189
f 1201 1214 1187
f 1250 1235 1236
f 1250 1236 1251
f 1237 1251 1236
f 1252 1251 1237
f 1249 1234 1235
f 1249 1235 1250
f 1238 1252 1237
f 1253 1252 1238
f 1248 1233 1234
f 1248 1234 1249
f 1239 1253 1238
f 1254 1253 1239
f 1247 1232 1233
f 1247 1233 1248
f 1240 1254 1239
f 1231 1232 1247
f 1255 1254 1240
f 1273 1231 1247
f 1241 1255 1240
f 1230 1231 1273
f 1256 1255 1241
f 1272 1230 1273
f 1242 1256 1241
f 1229 1230 1272
f 1257 1256 1242
f 1271 1229 1272
f 1243 1257 1242
f 1228 1229 1271
f 1258 1257 1243
f 1270 1228 1271
f 1244 1258 1243
f 1227 1228 1270
f 1259 1258 1244
f 1269 1227 1270
f 1245 1259 1244
f 1226 1227 1269
f 1260 1259 1245
f 1268 1226 1269
f 1246 1260 1245
f 1246 1215 1260
f 1225 1226 1268
f 1267 1225 1268
f 1216 1260 1215
f 1224 1225 1267
f 1261 1216 1217
f 1261 1217 1218
f 1266 1224 1267
f 1219 1261 1218
f 1262 1261 1219
f 1223 1266 1265
f 1223 1224 1266
f 1220 1262 1219
f 1263 1262 1220
f 1222 1265 1264
f 1222 1223 1265
f 1221 1264 1263
f 1221 1263 1220
f 1221 1222 1264
f 1276 1275 1274
f 1277 1276 1274
f 1279 1282 1281
f 1279 1278 1282
f 1280 1279 1281
f 1284 1285 1283
f 1284 1286 1285
f 1287 1289 1288
f 1287 1290 1289
f 1292 1294 1293
f 1292 1295 1294
f 1291 1295 1292
f 1297 1299 1298
f 1297 1296 1299
f 1347 1312 1313
f 1348 1313 1314
f 1348 1347 1313
f 1346 1311 1312
f 1346 1312 1347
f 1349 1314 1315
f 1349 1348 1314
f 1345 1309 1310
f 1345 1310 1311
f 1345 1311 1346
f 1350 1315 1316
f 1350 1349 1315
f 1344 1308 1309
f 1344 1309 1345
f 1351 1316 1317
f 1351 1350 1316
f 1343 1308 1344
f 1307 1308 1343
f 1352 1317 1318
f 1352 1351 1317
f 1342 1307 1343
f 1353 1352 1318
f 1306 1307 1342
f 1319 1353 1318
f 1341 1306 1342
f 1354 1353 1319
f 1305 1306 1341
f 1320 1354 1319
f 1340 1305 1341
f 1355 1354 1320
f 1304 1305 1340
f 1339 1304 1340
f 1321 1355 1320
f 1356 1355 1321
f 1303 1304 1339
f 1303 1339 1338
f 1322 1356 1321
f 1301 1303 1338
f 1301 1338 1337
f 1302 1303 1301
f 1323 1356 1322
f 1323 1331 1356
f 1300 1301 1337
f 1324 1331 1323
f 1324 1332 1331
f 1329 1330 1300
f 1329 1337 1336
f 1329 1300 1337
f 1325 1333 1332
f 1325 1332 1324
f 1328 1336 1335
f 1328 1329 1336
f 1326 1334 1333
f 1326 1333 1325
f 1327 1335 1334
f 1327 1328 1335
f 1327 1334 1326
f 1371 1372 1373
f 1369 1370 1371
f 1368 1369 1371
f 1380 1377 1378
f 1380 1378 1379
f 1366 1367 1368
f 1366 1373 1374
f 1366 1374 1375
f 1366 1375 1376
f 1366 1376 1377
f 1366 1371 1373
f 1366 1368 1371
f 1365 1366 1377
f 1382 1380 1381
f 1363 1364 1365
f 1359 1357 1358
f 1361 1362 1363
f 1360 1382 1357
f 1360 1377 1380
f 1360 1380 1382
f 1360 1365 1377
f 1360 1357 1359
f 1360 1363 1365
f 1360 1361 1363
f 1383 141 142
f 1383 1395 141
f 1384 1396 1395
f 1384 1395 1383
f 1385 1397 1396
f 1385 1396 1384
f 1386 1398 1397
f 1386 1397 1385
f 1387 1399 1398
f 1387 1398 1386
f 1388 1400 1399
f 1388 1399 1387
f 1389 1401 1400
f 1389 1400 1388
f 1390 1402 1401
f 1390 1403 1402
f 1390 1401 1389
f 1391 1403 1390
f 1392 1404 1403
f 1392 1405 1404
f 1392 1403 1391
f 1393 1405 1392
f 1394 1406 1405
f 1394 1405 1393
f 143 156 1406
f 143 1406 1394
f 1448 1432 1433
f 1447 1431 1432
f 1447 1432 1448
f 1449 1433 1434
f 1449 1448 1433
f 1437 1435 1436
f 1446 1430 1431
f 1446 1431 1447
f 1450 1434 1435
f 1450 1435 1437
f 1450 1449 1434
f 1445 1429 1430
f 1445 1430 1446
f 1451 1437 1408
f 1451 1450 1437
f 1409 1408 1407
f 1444 1428 1429
f 1444 1429 1445
f 1452 1451 1408
f 1452 1408 1409
f 1410 1452 1409
f 1443 1427 1428
f 1443 1428 1444
f 1453 1452 1410
f 1442 1427 1443
f 1426 1427 1442
f 1411 1453 1410
f 1454 1453 1411
f 1441 1426 1442
f 1425 1426 1441
f 1412 1454 1411
f 1455 1454 1412
f 1440 1425 1441
f 1424 1425 1440
f 1413 1455 1412
f 1413 1456 1455
f 1439 1424 1440
f 1423 1424 1439
f 1438 1423 1439
f 1414 1456 1413
f 1414 1457 1456
f 1422 1423 1438
f 1415 1457 1414
f 1415 1458 1457
f 1421 1422 1438
f 1421 1438 1463
f 1416 1458 1415
f 1416 1459 1458
f 1420 1463 1462
f 1420 1421 1463
f 1417 1460 1459
f 1417 1459 1416
f 1419 1462 1461
f 1419 1420 1462
f 1418 1461 1460
f 1418 1460 1417
f 1418 1419 1461
f 1475 1473 1474
f 1469 1470 1471
f 1479 1475 1476
f 1479 1476 1477
f 1479 1477 1478
f 1468 1469 1471
f 1481 1472 1473
f 1481 1479 1480
f 1481 1473 1475
f 1481 1475 1479
f 1484 1471 1472
f 1484 1481 1482
f 1484 1482 1483
f 1484 1472 1481
f 1485 1471 1484
f 1485 1468 1471
f 1488 1464 1465
f 1488 1465 1466
f 1488 1466 1467
f 1488 1489 1464
f 1487 1467 1468
f 1487 1485 1486
f 1487 1468 1485
f 1487 1488 1467
f 114 1502 113
f 1490 1502 114
f 1491 1503 1502
f 1491 1502 1490
f 1492 1504 1503
f 1492 1505 1504
f 1492 1503 1491
f 1493 1506 1505
f 1493 1505 1492
f 1494 1506 1493
f 1495 1507 1506
f 1495 1506 1494
f 1496 1508 1507
f 1496 1507 1495
f 1497 1509 1508
f 1497 1508 1496
f 1498 1510 1509
f 1498 1509 1497
f 1499 1511 1510
f 1499 1510 1498
f 1500 1512 1511
f 1500 1511 1499
f 1501 1513 1512
f 1501 1512 1500
f 115 128 1513
f 115 1513 1501

