# https://github.com/mikedh/trimesh
mtllib material.mtl

o black_rubber
usemtl material_0
v -0.02829200 -0.00002800 0.00948000
v -0.02758500 0.00624700 0.00948000
v -0.02549900 0.01220800 0.00948000
v -0.02214000 0.01755500 0.00948000
v -0.01767400 0.02202000 0.00948000
v -0.01232800 0.02538000 0.00948000
v -0.00636700 0.02746500 0.00948000
v -0.00009200 0.02817200 0.00948000
v -0.00009200 0.02817200 0.00348000
v -0.00009200 -0.02822800 0.00348000
v -0.00684100 -0.02740800 0.00348000
v -0.01319700 -0.02499800 0.00348000
v -0.01879200 -0.02113600 0.00348000
v -0.02330000 -0.01604700 0.00348000
v -0.02646000 -0.01002800 0.00348000
v -0.02808600 -0.00342700 0.00348000
v -0.02808600 0.00337100 0.00348000
v -0.02646000 0.00997200 0.00348000
v -0.02330000 0.01599200 0.00348000
v -0.01879200 0.02108000 0.00348000
v -0.01319700 0.02494200 0.00348000
v -0.00684100 0.02735300 0.00348000
v -0.00009200 -0.02822800 0.00948000
v -0.00636700 -0.02752100 0.00948000
v -0.01232800 -0.02543500 0.00948000
v -0.01767400 -0.02207500 0.00948000
v -0.02214000 -0.01761000 0.00948000
v -0.02549900 -0.01226300 0.00948000
v -0.02758500 -0.00630300 0.00948000
v -0.02879200 0.07957300 0.00004400
v -0.02795800 0.07957300 -0.00682500
v -0.02550500 0.07957300 -0.01329400
v -0.02157400 0.07957300 -0.01898800
v -0.01639600 0.07957300 -0.02357600
v -0.01026900 0.07957300 -0.02679100
v -0.00355100 0.07957300 -0.02844700
v 0.00336700 0.07957300 -0.02844700
v 0.01008500 0.07957300 -0.02679100
v 0.01621100 0.07957300 -0.02357600
v 0.02139000 0.07957300 -0.01898800
v 0.02532100 0.07957300 -0.01329400
v 0.02777400 0.07957300 -0.00682500
v 0.02860800 0.07957300 0.00004400
v 0.02860800 0.07297200 0.00004400
v -0.02879200 0.07297200 0.00004400
v -0.02795800 0.07297200 -0.00682500
v -0.02550500 0.07297200 -0.01329400
v -0.02157400 0.07297200 -0.01898800
v -0.01639600 0.07297200 -0.02357600
v -0.01026900 0.07297200 -0.02679100
v -0.00355100 0.07297200 -0.02844700
v 0.00336700 0.07297200 -0.02844700
v 0.01008500 0.07297200 -0.02679100
v 0.01621100 0.07297200 -0.02357600
v 0.02139000 0.07297200 -0.01898800
v 0.02532100 0.07297200 -0.01329400
v 0.02777400 0.07297200 -0.00682500
v 0.00665700 0.02735300 0.00948000
v 0.01301300 0.02494200 0.00948000
v 0.01860800 0.02108000 0.00948000
v 0.02311600 0.01599200 0.00948000
v 0.02627500 0.00997200 0.00948000
v 0.02790200 0.00337100 0.00948000
v 0.02790200 -0.00342700 0.00948000
v 0.02627500 -0.01002800 0.00948000
v 0.02311600 -0.01604700 0.00948000
v 0.01860800 -0.02113600 0.00948000
v 0.01301300 -0.02499800 0.00948000
v 0.00665700 -0.02740800 0.00948000
v 0.00665700 0.02735300 0.00348000
v 0.01301300 0.02494200 0.00348000
v 0.01860800 0.02108000 0.00348000
v 0.02311600 0.01599200 0.00348000
v 0.02627500 0.00997200 0.00348000
v 0.02790200 0.00337100 0.00348000
v 0.02790200 -0.00342700 0.00348000
v 0.02627500 -0.01002800 0.00348000
v 0.02311600 -0.01604700 0.00348000
v 0.01860800 -0.02113600 0.00348000
v 0.01301300 -0.02499800 0.00348000
v 0.00665700 -0.02740800 0.00348000
v 0.02777400 0.07957300 0.00691200
v 0.02532100 0.07957300 0.01338100
v 0.02139000 0.07957300 0.01907500
v 0.01621100 0.07957300 0.02366300
v 0.01008500 0.07957300 0.02687900
v 0.00336700 0.07957300 0.02853400
v -0.00355100 0.07957300 0.02853400
v -0.01026900 0.07957300 0.02687900
v -0.01639600 0.07957300 0.02366300
v -0.02157400 0.07957300 0.01907500
v -0.02550500 0.07957300 0.01338100
v -0.02795800 0.07957300 0.00691200
v 0.02777400 0.07297200 0.00691200
v 0.02532100 0.07297200 0.01338100
v 0.02139000 0.07297200 0.01907500
v 0.01621100 0.07297200 0.02366300
v 0.01008500 0.07297200 0.02687900
v 0.00336700 0.07297200 0.02853400
v -0.00355100 0.07297200 0.02853400
v -0.01026900 0.07297200 0.02687900
v -0.01639600 0.07297200 0.02366300
v -0.02157400 0.07297200 0.01907500
v -0.02550500 0.07297200 0.01338100
v -0.02795800 0.07297200 0.00691200
f 10 23 24
f 11 24 25
f 11 10 24
f 12 25 26
f 12 11 25
f 13 26 27
f 13 12 26
f 14 27 28
f 14 13 27
f 15 28 29
f 15 14 28
f 16 29 1
f 16 15 29
f 17 1 2
f 17 16 1
f 18 2 3
f 18 17 2
f 19 3 4
f 19 18 3
f 20 4 5
f 20 19 4
f 21 5 6
f 21 20 5
f 22 6 7
f 22 21 6
f 9 7 8
f 9 22 7
f 46 30 31
f 46 45 30
f 47 31 32
f 47 46 31
f 48 32 33
f 48 33 34
f 48 47 32
f 49 48 34
f 50 34 35
f 50 35 36
f 50 49 34
f 51 36 37
f 51 50 36
f 52 37 38
f 52 51 37
f 53 52 38
f 54 38 39
f 54 53 38
f 55 39 40
f 55 40 41
f 55 54 39
f 56 55 41
f 57 41 42
f 57 56 41
f 44 42 43
f 44 57 42
f 70 9 8
f 70 8 58
f 71 58 59
f 71 70 58
f 72 59 60
f 72 71 59
f 73 60 61
f 73 72 60
f 74 61 62
f 74 73 61
f 75 62 63
f 75 74 62
f 76 63 64
f 76 75 63
f 77 64 65
f 77 76 64
f 78 65 66
f 78 66 67
f 78 77 65
f 79 78 67
f 80 67 68
f 80 79 67
f 81 68 69
f 81 80 68
f 10 69 23
f 10 81 69
f 94 44 43
f 94 43 82
f 95 82 83
f 95 94 82
f 96 83 84
f 96 84 85
f 96 95 83
f 97 96 85
f 98 85 86
f 98 86 87
f 98 97 85
f 99 87 88
f 99 98 87
f 100 99 88
f 101 88 89
f 101 100 88
f 102 89 90
f 102 101 89
f 103 90 91
f 103 91 92
f 103 102 90
f 104 103 92
f 105 92 93
f 105 104 92
f 45 93 30
f 45 105 93

o white_cover
usemtl material_1
v -0.00009200 0.02247200 0.00218000
v -0.00009200 0.02247200 0.01218000
v -0.00009200 -0.02252800 0.01218000
v 0.00529300 -0.02187400 0.01218000
v 0.01036400 -0.01995100 0.01218000
v 0.01482800 -0.01686900 0.01218000
v 0.01842500 -0.01280900 0.01218000
v 0.02094600 -0.00800600 0.01218000
v 0.02224400 -0.00274000 0.01218000
v 0.02224400 0.00268400 0.01218000
v 0.02094600 0.00795100 0.01218000
v 0.01842500 0.01275400 0.01218000
v 0.01482800 0.01681400 0.01218000
v 0.01036400 0.01989500 0.01218000
v 0.00529300 0.02181800 0.01218000
v -0.00009200 -0.02252800 0.00218000
v 0.00529300 -0.02187400 0.00218000
v 0.01036400 -0.01995100 0.00218000
v 0.01482800 -0.01686900 0.00218000
v 0.01842500 -0.01280900 0.00218000
v 0.02094600 -0.00800600 0.00218000
v 0.02224400 -0.00274000 0.00218000
v 0.02224400 0.00268400 0.00218000
v 0.02094600 0.00795100 0.00218000
v 0.01842500 0.01275400 0.00218000
v 0.01482800 0.01681400 0.00218000
v 0.01036400 0.01989500 0.00218000
v 0.00529300 0.02181800 0.00218000
v 0.02240800 0.07147200 0.00004400
v 0.02240800 0.08147200 0.00004400
v -0.02259200 0.08147200 0.00004400
v -0.02193800 0.08147200 0.00542800
v -0.02001500 0.08147200 0.01050000
v -0.01693400 0.08147200 0.01496400
v -0.01287400 0.08147200 0.01856100
v -0.00807100 0.08147200 0.02108100
v -0.00280400 0.08147200 0.02238000
v 0.00262000 0.08147200 0.02238000
v 0.00788700 0.08147200 0.02108100
v 0.01268900 0.08147200 0.01856100
v 0.01674900 0.08147200 0.01496400
v 0.01983100 0.08147200 0.01050000
v 0.02175400 0.08147200 0.00542800
v -0.02259200 0.07147200 0.00004400
v -0.02193800 0.07147200 0.00542800
v -0.02001500 0.07147200 0.01050000
v -0.01693400 0.07147200 0.01496400
v -0.01287400 0.07147200 0.01856100
v -0.00807100 0.07147200 0.02108100
v -0.00280400 0.07147200 0.02238000
v 0.00262000 0.07147200 0.02238000
v 0.00788700 0.07147200 0.02108100
v 0.01268900 0.07147200 0.01856100
v 0.01674900 0.07147200 0.01496400
v 0.01983100 0.07147200 0.01050000
v 0.02175400 0.07147200 0.00542800
v -0.02909200 0.06997200 0.00004400
v -0.02825900 0.06997200 -0.00685800
v -0.02580700 0.06997200 -0.01336300
v -0.02232200 0.06997200 -0.01858000
v -0.01828900 0.06997200 -0.02253600
v -0.01356700 0.06997200 -0.02563600
v -0.00833300 0.06997200 -0.02776100
v -0.00425600 0.06997200 -0.02865600
v -0.00009200 0.06997200 -0.02895600
v -0.02909200 0.07297200 0.00004400
v -0.02836500 0.07297200 -0.00641000
v -0.02622000 0.07297200 -0.01253900
v -0.02276500 0.07297200 -0.01803800
v -0.01817300 0.07297200 -0.02263000
v -0.01267500 0.07297200 -0.02608500
v -0.00654500 0.07297200 -0.02822900
v -0.00009200 0.07297200 -0.02895600
v 0.00636100 0.07297200 -0.02822900
v 0.01249100 0.07297200 -0.02608500
v 0.01798900 0.07297200 -0.02263000
v 0.02258100 0.07297200 -0.01803800
v 0.02603600 0.07297200 -0.01253900
v 0.02818100 0.07297200 -0.00641000
v 0.02890800 0.07297200 0.00004400
v 0.02890800 0.06997200 0.00004400
v 0.00680800 0.06997200 -0.02812400
v 0.01331100 0.06997200 -0.02567300
v 0.01852900 0.06997200 -0.02218900
v 0.02248500 0.06997200 -0.01815700
v 0.02558500 0.06997200 -0.01343500
v 0.02771100 0.06997200 -0.00820100
v 0.02860700 0.06997200 -0.00412200
v -0.02857500 0.00097200 0.01218000
v -0.02767400 0.00714700 0.01218000
v -0.02545200 0.01297800 0.01218000
v -0.02201300 0.01818500 0.01218000
v -0.01752400 0.02251900 0.01218000
v -0.01220000 0.02577200 0.01218000
v -0.00629500 0.02778900 0.01218000
v -0.00009200 0.02847200 0.01218000
v -0.00009200 0.02847200 0.00948000
v -0.02857500 0.00097200 0.00948000
v -0.02767400 0.00714700 0.00948000
v -0.02545200 0.01297800 0.00948000
v -0.02201300 0.01818500 0.00948000
v -0.01752400 0.02251900 0.00948000
v -0.01220000 0.02577200 0.00948000
v -0.00629500 0.02778900 0.00948000
v 0.00672800 0.02764400 0.01218000
v 0.01315300 0.02520800 0.01218000
v 0.01880700 0.02130500 0.01218000
v 0.02336300 0.01616200 0.01218000
v 0.02655600 0.01007800 0.01218000
v 0.02820000 0.00340800 0.01218000
v 0.02820000 -0.00346300 0.01218000
v 0.02655600 -0.01013400 0.01218000
v 0.02336300 -0.01621800 0.01218000
v 0.01880700 -0.02136000 0.01218000
v 0.01315300 -0.02526300 0.01218000
v 0.00672800 -0.02770000 0.01218000
v -0.00009200 -0.02852800 0.01218000
v -0.00009200 -0.02852800 0.00948000
v 0.00672800 0.02764400 0.00948000
v 0.01315300 0.02520800 0.00948000
v 0.01880700 0.02130500 0.00948000
v 0.02336300 0.01616200 0.00948000
v 0.02655600 0.01007800 0.00948000
v 0.02820000 0.00340800 0.00948000
v 0.02820000 -0.00346300 0.00948000
v 0.02655600 -0.01013400 0.00948000
v 0.02336300 -0.01621800 0.00948000
v 0.01880700 -0.02136000 0.00948000
v 0.01315300 -0.02526300 0.00948000
v 0.00672800 -0.02770000 0.00948000
v -0.00009200 0.07957300 0.02904400
v -0.00640600 0.07957300 0.02834800
v -0.01241700 0.07957300 0.02629400
v -0.01783600 0.07957300 0.02298100
v -0.02240400 0.07957300 0.01856800
v -0.02590200 0.07957300 0.01326600
v -0.02816200 0.07957300 0.00733000
v -0.02907500 0.07957300 0.00104400
v -0.00009200 0.08147200 0.02904400
v -0.00640600 0.08147200 0.02834800
v -0.01241700 0.08147200 0.02629400
v -0.01783600 0.08147200 0.02298100
v -0.02240400 0.08147200 0.01856800
v -0.02590200 0.08147200 0.01326600
v -0.02816200 0.08147200 0.00733000
v -0.02907500 0.08147200 0.00104400
v -0.00009200 0.07957300 -0.02895600
v 0.00636100 0.07957300 -0.02822900
v 0.01249100 0.07957300 -0.02608500
v 0.01798900 0.07957300 -0.02263000
v 0.02258100 0.07957300 -0.01803800
v 0.02603600 0.07957300 -0.01253900
v 0.02818100 0.07957300 -0.00641000
v 0.02890800 0.07957300 0.00004400
v 0.02818100 0.07957300 0.00649700
v 0.02603600 0.07957300 0.01262600
v 0.02258100 0.07957300 0.01812500
v 0.01798900 0.07957300 0.02271700
v 0.01249100 0.07957300 0.02617200
v 0.00636100 0.07957300 0.02831600
v -0.00009200 0.08147200 -0.02895600
v 0.00636100 0.08147200 -0.02822900
v 0.01249100 0.08147200 -0.02608500
v 0.01798900 0.08147200 -0.02263000
v 0.02258100 0.08147200 -0.01803800
v 0.02603600 0.08147200 -0.01253900
v 0.02818100 0.08147200 -0.00641000
v 0.02890800 0.08147200 0.00004400
v 0.02818100 0.08147200 0.00649700
v 0.02603600 0.08147200 0.01262600
v 0.02258100 0.08147200 0.01812500
v 0.01798900 0.08147200 0.02271700
v 0.01249100 0.08147200 0.02617200
v 0.00636100 0.08147200 0.02831600
v 0.02840800 -0.00002800 0.00348000
v 0.02758000 -0.00684800 0.00348000
v 0.02514300 -0.01327200 0.00348000
v 0.02124000 -0.01892700 0.00348000
v 0.01609800 -0.02348300 0.00348000
v 0.01001400 -0.02667600 0.00348000
v 0.00334300 -0.02832000 0.00348000
v -0.00352700 -0.02832000 0.00348000
v -0.01019800 -0.02667600 0.00348000
v -0.01628200 -0.02348300 0.00348000
v -0.02142500 -0.01892700 0.00348000
v -0.02532800 -0.01327200 0.00348000
v -0.02776400 -0.00684800 0.00348000
v -0.02859200 -0.00002800 0.00348000
v -0.02859200 -0.00002800 -0.01793800
v -0.02859200 -0.00002800 -0.03935600
v -0.02838300 -0.00347400 -0.03935600
v -0.02775900 -0.00686900 -0.03935600
v -0.02672800 -0.01016400 -0.03935600
v -0.02530700 -0.01331100 -0.03935600
v -0.02182500 -0.01846400 -0.03935600
v -0.01780100 -0.02235800 -0.03935600
v -0.01309300 -0.02539000 -0.03935600
v -0.00788300 -0.02744200 -0.03935600
v -0.00402500 -0.02825500 -0.03935600
v -0.00009200 -0.02852800 -0.03935600
v 0.00335400 -0.02831900 -0.03935600
v 0.00675000 -0.02769400 -0.03935600
v 0.01004500 -0.02666400 -0.03935600
v 0.01319200 -0.02524300 -0.03935600
v 0.01834500 -0.02176000 -0.03935600
v 0.02223900 -0.01773600 -0.03935600
v 0.02527000 -0.01302800 -0.03935600
v 0.02732300 -0.00781800 -0.03935600
v 0.02813500 -0.00396000 -0.03935600
v 0.02840800 -0.00002800 -0.03935600
v 0.02840800 -0.00002800 -0.01793800
v -0.02838300 0.00350500 0.00348000
v -0.02776300 0.00698100 0.00348000
v -0.02674800 0.01033600 0.00348000
v -0.02535000 0.01355600 0.00347900
v -0.02376300 0.01631200 0.00348000
v -0.02186500 0.01888900 0.00347900
v -0.01775700 0.02284900 0.00347900
v -0.01286300 0.02578000 0.00348000
v -0.00741800 0.02760400 0.00347900
v -0.00373700 0.02825500 0.00347900
v -0.00009200 0.02847200 0.00348000
v -0.00009200 0.02847800 0.00038100
v -0.00009200 0.02866300 -0.00085900
v -0.00009200 0.02918100 -0.00218600
v -0.00009200 0.03003500 -0.00339600
v -0.00009300 0.03109900 -0.00431900
v -0.00009200 0.03233000 -0.00496100
v -0.00009200 0.03367300 -0.00530300
v -0.00009200 0.03512600 -0.00535600
v -0.00009200 0.03940900 -0.00514500
v -0.00009200 0.04267600 -0.00439900
v -0.00009200 0.04479300 -0.00343800
v -0.00009200 0.04677800 -0.00205100
v -0.00455600 0.04674400 -0.00215600
v -0.00786700 0.04660600 -0.00258700
v -0.01170500 0.04621000 -0.00382900
v -0.01448700 0.04567100 -0.00551200
v -0.01726700 0.04479500 -0.00825600
v -0.01929300 0.04378700 -0.01140500
v -0.02083600 0.04258800 -0.01515700
v -0.02188600 0.04112700 -0.01973300
v -0.02221300 0.03917100 -0.02584900
v -0.02312100 0.03128500 -0.02897300
v -0.02416100 0.02612300 -0.03135900
v -0.02534500 0.02106400 -0.03371500
v -0.02753700 0.01100500 -0.03762000
v -0.02830100 0.00560700 -0.03888600
v -0.00126500 0.02845200 0.00229100
v -0.00129200 0.02845600 0.00072200
v -0.00164300 0.02919100 -0.00221900
v -0.00807000 0.02802600 -0.00062500
v -0.01840200 0.02293500 -0.00033000
v -0.01306500 0.04465100 -0.00533900
v -0.01600900 0.04047700 -0.00899000
v -0.02694300 0.01004900 -0.00184300
v -0.02226600 0.03452000 -0.02167600
v -0.02604500 0.01776000 -0.02706000
v -0.00258900 0.03083400 -0.00416800
v -0.00397000 0.02977200 -0.00321500
v -0.00386000 0.03018500 -0.00366500
v -0.00375000 0.04343000 -0.00415200
v -0.00597400 0.03791400 -0.00565700
v -0.00603800 0.04335700 -0.00431800
v -0.00657900 0.04101100 -0.00520200
v -0.00700800 0.04268800 -0.00470000
v -0.00768600 0.03437400 -0.00589800
v -0.01367600 0.02595900 0.00005500
v -0.00877600 0.03863800 -0.00607800
v -0.00891300 0.03922900 -0.00601300
v -0.01105200 0.03400200 -0.00677900
v -0.02291500 0.01799000 -0.00055700
v -0.02469200 0.01519800 -0.00118300
v -0.02668700 0.01119800 -0.00652500
v -0.02685600 0.01041400 -0.00337100
v -0.02341500 0.01755200 -0.00257100
v -0.01989800 0.03698700 -0.01466600
v -0.02448400 0.01752200 -0.01108900
v -0.02340000 0.02067500 -0.01318500
v -0.02245100 0.02389700 -0.01491000
v -0.01924700 0.02644500 -0.00987200
v -0.02788900 0.00683100 -0.00761300
v -0.02075700 0.03623300 -0.01657700
v -0.02112800 0.03080200 -0.01668200
v -0.02782400 0.00723500 -0.00910700
v -0.02822200 0.00501100 -0.00981900
v -0.02819800 0.00521000 -0.01052800
v -0.02814600 0.00563100 -0.01200500
v -0.02293800 0.03048600 -0.02316800
v -0.02330700 0.02863800 -0.02370300
v -0.02776000 0.00892700 -0.02244600
v -0.00294000 0.02867000 -0.00095900
v -0.00360900 0.02848300 -0.00028200
v -0.00626300 0.03037600 -0.00406100
v -0.00743000 0.03042300 -0.00428700
v -0.00912600 0.03041600 -0.00468600
v -0.00856800 0.03160800 -0.00527700
v -0.01139200 0.03057900 -0.00563400
v -0.01545700 0.03030400 -0.00810300
v -0.01424500 0.02771700 -0.00471600
v -0.01272600 0.03975300 -0.00716400
v -0.01280100 0.04002900 -0.00712600
v -0.01860100 0.02444900 -0.00556500
v -0.01532100 0.03527600 -0.00926800
v -0.01866400 0.03086000 -0.01201900
v -0.02651200 0.01336000 -0.01657500
v -0.02464800 0.02094800 -0.02079300
v 0.02840800 -0.00002800 0.00348000
v 0.02823800 0.00316700 0.00348000
v 0.02772700 0.00632900 0.00348000
v 0.02688400 0.00941900 0.00348000
v 0.02571300 0.01241500 0.00348000
v 0.02424400 0.01524100 0.00348000
v 0.02245000 0.01792000 0.00348000
v 0.02037900 0.02034200 0.00348000
v 0.01802000 0.02249900 0.00348000
v 0.01318100 0.02554500 0.00348000
v 0.00834400 0.02732600 0.00348000
v 0.00411400 0.02818200 0.00348000
v -0.00009200 0.02847200 0.00348000
v -0.02859200 -0.00002800 0.00348000
v -0.02838300 0.00350500 0.00348000
v -0.02776300 0.00698100 0.00348000
v -0.02674800 0.01033600 0.00348000
v -0.02535000 0.01355600 0.00347900
v -0.02376300 0.01631200 0.00348000
v -0.02186500 0.01888900 0.00347900
v -0.01775700 0.02284900 0.00347900
v -0.01286300 0.02578000 0.00348000
v -0.00741800 0.02760400 0.00347900
v -0.00373700 0.02825500 0.00347900
v 0.02758000 -0.00684800 0.00348000
v 0.02514300 -0.01327200 0.00348000
v 0.02124000 -0.01892700 0.00348000
v 0.01609800 -0.02348300 0.00348000
v 0.01001400 -0.02667600 0.00348000
v 0.00334300 -0.02832000 0.00348000
v -0.00352700 -0.02832000 0.00348000
v -0.01019800 -0.02667600 0.00348000
v -0.01628200 -0.02348300 0.00348000
v -0.02142500 -0.01892700 0.00348000
v -0.02532800 -0.01327200 0.00348000
v -0.02776400 -0.00684800 0.00348000
v -0.00009200 -0.02822800 0.00348000
v -0.00684100 -0.02740800 0.00348000
v -0.01319700 -0.02499800 0.00348000
v -0.01879200 -0.02113600 0.00348000
v -0.02330000 -0.01604700 0.00348000
v -0.02646000 -0.01002800 0.00348000
v -0.02808600 -0.00342700 0.00348000
v -0.02808600 0.00337100 0.00348000
v -0.02646000 0.00997200 0.00348000
v -0.02330000 0.01599200 0.00348000
v -0.01879200 0.02108000 0.00348000
v -0.01319700 0.02494200 0.00348000
v -0.00684100 0.02735300 0.00348000
v -0.00009200 0.02817200 0.00348000
v 0.00665700 0.02735300 0.00348000
v 0.01301300 0.02494200 0.00348000
v 0.01860800 0.02108000 0.00348000
v 0.02311600 0.01599200 0.00348000
v 0.02627500 0.00997200 0.00348000
v 0.02790200 0.00337100 0.00348000
v 0.02790200 -0.00342700 0.00348000
v 0.02627500 -0.01002800 0.00348000
v 0.02311600 -0.01604700 0.00348000
v 0.01860800 -0.02113600 0.00348000
v 0.01301300 -0.02499800 0.00348000
v 0.00665700 -0.02740800 0.00348000
v 0.02800200 0.00665600 -0.03869700
v 0.02693900 0.01319300 -0.03691400
v 0.02583200 0.01823100 -0.03495900
v 0.02464500 0.02322900 -0.03271900
v 0.02297300 0.03107700 -0.02906600
v 0.02202800 0.03917100 -0.02584900
v 0.02159100 0.04134700 -0.01904100
v 0.01989800 0.04324600 -0.01309900
v 0.01736100 0.04468000 -0.00861400
v 0.01465900 0.04558100 -0.00579300
v 0.01186800 0.04615600 -0.00399600
v 0.00851100 0.04654600 -0.00277500
v 0.00432800 0.04674500 -0.00215200
v 0.02823800 0.00316700 0.00348000
v 0.02772700 0.00632900 0.00348000
v 0.02688400 0.00941900 0.00348000
v 0.02571300 0.01241500 0.00348000
v 0.02424400 0.01524100 0.00348000
v 0.02245000 0.01792000 0.00348000
v 0.02037900 0.02034200 0.00348000
v 0.01802000 0.02249900 0.00348000
v 0.01318100 0.02554500 0.00348000
v 0.00834400 0.02732600 0.00348000
v 0.00411400 0.02818200 0.00348000
v 0.00108100 0.02845200 0.00229100
v 0.00110800 0.02845600 0.00072200
v 0.00145900 0.02919100 -0.00221900
v 0.00774500 0.02754000 0.00249000
v 0.00788600 0.02802600 -0.00062500
v 0.01832500 0.02231500 0.00291100
v 0.01180100 0.04589100 -0.00414200
v 0.01821700 0.02293500 -0.00033000
v 0.01288000 0.04465100 -0.00533900
v 0.01582500 0.04047700 -0.00899000
v 0.02675900 0.01004900 -0.00184200
v 0.02667200 0.01041400 -0.00337100
v 0.02208200 0.03452000 -0.02167600
v 0.02586000 0.01776000 -0.02706000
v 0.00240500 0.03083400 -0.00416800
v 0.00378600 0.02977200 -0.00321500
v 0.00367600 0.03018500 -0.00366500
v 0.00403800 0.04342700 -0.00417200
v 0.00579000 0.03791400 -0.00565700
v 0.00605200 0.04321900 -0.00439600
v 0.00639500 0.04101100 -0.00520200
v 0.00682400 0.04268800 -0.00470000
v 0.00750100 0.03437400 -0.00589800
v 0.01349200 0.02595900 0.00005500
v 0.00859200 0.03863800 -0.00607800
v 0.00872900 0.03922900 -0.00601300
v 0.01086700 0.03400200 -0.00677900
v 0.02296300 0.01765900 -0.00058200
v 0.02323000 0.01755200 -0.00257100
v 0.02650300 0.01119800 -0.00652500
v 0.02430000 0.01752200 -0.01108900
v 0.02321600 0.02067500 -0.01318500
v 0.02226700 0.02389700 -0.01491000
v 0.01906200 0.02644500 -0.00987200
v 0.02013300 0.03663100 -0.01554600
v 0.02094400 0.03080200 -0.01668200
v 0.02770400 0.00683100 -0.00761300
v 0.02764000 0.00723500 -0.00910700
v 0.02803800 0.00501100 -0.00981900
v 0.02801400 0.00521000 -0.01052800
v 0.02796200 0.00563100 -0.01200500
v 0.02349200 0.02715900 -0.02444100
v 0.02428600 0.02397400 -0.02558200
v 0.02757600 0.00892700 -0.02244600
v 0.00370800 0.02846600 -0.00027700
v 0.00607900 0.03037600 -0.00406100
v 0.00724600 0.03042300 -0.00428700
v 0.00838400 0.03160800 -0.00527700
v 0.00894200 0.03041600 -0.00468600
v 0.01033100 0.02869100 -0.00339400
v 0.01158800 0.02913000 -0.00461100
v 0.01284400 0.02956800 -0.00577300
v 0.01527300 0.03030400 -0.00810300
v 0.01406100 0.02771700 -0.00471600
v 0.01254200 0.03975300 -0.00716400
v 0.01261700 0.04002900 -0.00712600
v 0.01841700 0.02444900 -0.00556500
v 0.01513700 0.03527600 -0.00926800
v 0.01848000 0.03086000 -0.01201900
v 0.02632800 0.01336000 -0.01657500
v 0.02446400 0.02094800 -0.02079300
v 0.01800000 0.03613500 -0.01209300
v -0.00009200 -0.00002800 -0.05395600
v 0.00437400 -0.00002800 -0.05373900
v 0.00873000 -0.00002800 -0.05316800
v 0.01298500 -0.00002800 -0.05228100
v 0.01714700 -0.00002800 -0.05103600
v 0.02002300 -0.00002800 -0.04986800
v 0.02276500 -0.00002800 -0.04838400
v 0.02499800 -0.00002800 -0.04670000
v 0.02649300 -0.00002800 -0.04508000
v 0.02765100 -0.00002800 -0.04311600
v 0.02821900 -0.00002800 -0.04130500
v -0.00009200 -0.02833400 -0.04090800
v -0.00009200 -0.02775200 -0.04245300
v -0.00009200 -0.02689100 -0.04384600
v -0.00009200 -0.02534400 -0.04560100
v -0.00009200 -0.02250200 -0.04788600
v -0.00009200 -0.01875100 -0.05005800
v -0.00009200 -0.01321900 -0.05225300
v -0.00009300 -0.00664000 -0.05365700
v 0.02304800 -0.00093100 -0.04819400
v 0.00657000 -0.00658800 -0.05325800
v 0.01924100 -0.00798800 -0.04970500
v 0.00191100 -0.01073300 -0.05290900
v 0.02470600 -0.01327600 -0.04236600
v 0.00947800 -0.01815100 -0.04969700
v 0.01986600 -0.01955800 -0.04297100
v 0.01509700 -0.02359200 -0.04251200
v 0.01325200 -0.00518800 -0.05206800
v 0.02773700 -0.00165000 -0.04282800
v 0.02775700 -0.00243600 -0.04266000
v 0.01326800 -0.00765000 -0.05184400
v 0.02540800 -0.00540400 -0.04587200
v 0.02748100 -0.00449600 -0.04279100
v 0.02780600 -0.00442400 -0.04175300
v 0.02303300 -0.00810000 -0.04745700
v 0.02466400 -0.00789000 -0.04606700
v 0.01370600 -0.00991700 -0.05139300
v 0.02619100 -0.00724300 -0.04431400
v 0.02678100 -0.00764700 -0.04287500
v 0.00632200 -0.01215900 -0.05229000
v 0.02268200 -0.01134000 -0.04674400
v 0.00841800 -0.01276300 -0.05187100
v 0.01044200 -0.01329500 -0.05138000
v 0.01426700 -0.01413600 -0.05017600
v 0.01847200 -0.01457400 -0.04829800
v 0.02034600 -0.01456500 -0.04713000
v 0.02203300 -0.01436900 -0.04577600
v 0.01771400 -0.01749400 -0.04722100
v 0.01357500 -0.01925400 -0.04808900
v 0.01542000 -0.01960300 -0.04708200
v 0.01710000 -0.01978500 -0.04590900
v 0.01294000 -0.02152400 -0.04675700
v 0.00503800 -0.02209200 -0.04799400
v 0.00892900 -0.02313100 -0.04670500
v 0.00827500 -0.02524000 -0.04482800
v 0.01125900 -0.02597900 -0.04126900
v 0.00806700 -0.02635900 -0.04330500
v 0.00267700 -0.02713100 -0.04342300
v 0.00400900 -0.02720000 -0.04315900
v 0.00380200 -0.02776600 -0.04207400
v 0.00198000 -0.02795300 -0.04195000
v 0.00374500 -0.02804200 -0.04126100
v 0.02328600 -0.01542000 -0.04279300
v 0.02252000 -0.01643700 -0.04295000
v 0.02167500 -0.01751600 -0.04299600
v -0.02836500 -0.00002800 -0.04148500
v -0.02768300 -0.00002800 -0.04344700
v -0.02662600 -0.00002800 -0.04514700
v -0.02517500 -0.00002800 -0.04670700
v -0.02302600 -0.00002800 -0.04833500
v -0.01935800 -0.00002800 -0.05024600
v -0.01348700 -0.00002800 -0.05220100
v -0.00688300 -0.00002800 -0.05347600
v -0.02323200 -0.00093100 -0.04819400
v -0.00675400 -0.00658800 -0.05325800
v -0.01942500 -0.00798800 -0.04970500
v -0.02802500 -0.00554700 -0.04018300
v -0.00209500 -0.01073300 -0.05290900
v -0.02489000 -0.01327600 -0.04236600
v -0.00966200 -0.01815100 -0.04969700
v -0.02005000 -0.01955800 -0.04297100
v -0.00375300 -0.02162800 -0.04838200
v -0.01528100 -0.02359200 -0.04251200
v -0.00919300 -0.02689000 -0.04101800
v -0.01354100 -0.00518700 -0.05204100
v -0.02655900 -0.00276700 -0.04510600
v -0.02773300 -0.00215600 -0.04321400
v -0.02647900 -0.00408900 -0.04503800
v -0.02772100 -0.00318200 -0.04306000
v -0.02445300 -0.00571400 -0.04692000
v -0.01345200 -0.00765000 -0.05184400
v -0.02484800 -0.00789000 -0.04606700
v -0.01389000 -0.00991700 -0.05139300
v -0.00650600 -0.01215900 -0.05229000
v -0.02286600 -0.01134000 -0.04674400
v -0.02506400 -0.00988700 -0.04503500
v -0.00860200 -0.01276300 -0.05187100
v -0.02031600 -0.01252700 -0.04814300
v -0.01445100 -0.01413600 -0.05017600
v -0.01062600 -0.01329500 -0.05138000
v -0.02053000 -0.01456500 -0.04713000
v -0.02056900 -0.01642800 -0.04594300
v -0.01789800 -0.01749400 -0.04722100
v -0.01375900 -0.01925400 -0.04808900
v -0.01560500 -0.01960300 -0.04708200
v -0.01728400 -0.01978500 -0.04590900
v -0.01312400 -0.02152400 -0.04675700
v -0.00822400 -0.02291100 -0.04705400
v -0.01027200 -0.02336500 -0.04620200
v -0.01214900 -0.02364800 -0.04517900
v -0.00719700 -0.02498300 -0.04542400
v -0.00490700 -0.02518100 -0.04556100
v -0.00517000 -0.02664500 -0.04383700
v -0.00352200 -0.02677100 -0.04388400
v -0.00503600 -0.02728400 -0.04282600
v -0.00484200 -0.02775000 -0.04181200
v -0.00242200 -0.02793600 -0.04196400
v -0.02753100 -0.00509700 -0.04289000
v -0.02681700 -0.00680200 -0.04371300
v -0.02684600 -0.00801900 -0.04291100
v -0.02725600 -0.00774100 -0.04183100
v -0.02675900 -0.00872600 -0.04254300
v -0.02683100 -0.00928800 -0.04156300
v -0.02620100 -0.01033100 -0.04250100
v -0.01296500 -0.02486300 -0.04261200
v -0.01176900 -0.02560000 -0.04214200
v -0.00845800 -0.02620000 -0.04348400
v -0.02124100 0.03703100 -0.03254400
v -0.01897500 0.03519500 -0.03829000
v -0.01633500 0.03403300 -0.04192200
v -0.01374300 0.03333000 -0.04412500
v -0.01093300 0.03285500 -0.04560800
v -0.00784500 0.03256400 -0.04652100
v -0.00401800 0.03241700 -0.04698100
v -0.00009200 0.03239400 -0.04705200
v -0.00009000 0.02243500 -0.05091400
v -0.00008800 0.01227500 -0.05313100
v -0.00008900 0.00622200 -0.05375500
v -0.02793800 0.00183600 -0.04272900
v -0.02802300 0.00276400 -0.04231900
v -0.02808800 0.00551200 -0.04096900
v -0.02782200 0.00546800 -0.04197500
v -0.02725300 0.00362400 -0.04383200
v -0.02742600 0.00543200 -0.04297800
v -0.02634500 0.00358800 -0.04517300
v -0.02676800 0.00538700 -0.04416900
v -0.02475000 0.00353100 -0.04682700
v -0.02547200 0.00531200 -0.04581300
v -0.02639800 0.01046100 -0.04258300
v -0.02502200 0.01020000 -0.04468800
v -0.01108100 0.00425200 -0.05268000
v -0.00683100 0.00419000 -0.05341300
v -0.00991400 0.00632100 -0.05281800
v -0.02261900 0.03097300 -0.03286900
v -0.02250000 0.02841100 -0.03590800
v -0.00683700 0.00626200 -0.05331800
v -0.02210600 0.03082800 -0.03479200
v -0.02178100 0.02790400 -0.03804600
v -0.02174600 0.03331200 -0.03372200
v -0.02156400 0.03454300 -0.03330300
v -0.02087200 0.03036400 -0.03808000
v -0.00736300 0.02756100 -0.04885200
v -0.00908600 0.02265000 -0.05026100
v -0.00912200 0.02766400 -0.04850400
v -0.00610900 0.02251800 -0.05072600
v -0.00862800 0.02929400 -0.04792300
v -0.01081600 0.02948000 -0.04728700
v -0.00571000 0.02749600 -0.04905200
v -0.00645200 0.02917900 -0.04829400
v -0.00404700 0.02745500 -0.04915800
v -0.02629800 0.01567400 -0.03839800
v -0.02618500 0.01381000 -0.04068000
v -0.02599900 0.01548500 -0.03963600
v -0.02165700 0.01045700 -0.04757500
v -0.02385200 0.01556500 -0.04336700
v -0.02277500 0.02141900 -0.04109100
v -0.01505700 0.01087700 -0.05092700
v -0.01780400 0.01069900 -0.04976700
v -0.01716100 0.01574100 -0.04889700
v -0.01363800 0.01097500 -0.05141900
v -0.01927700 0.02169800 -0.04518800
v -0.01712200 0.02186600 -0.04694100
v -0.00923900 0.01132400 -0.05251500
v -0.01999900 0.02475000 -0.04289600
v -0.02025100 0.02162100 -0.04423200
v -0.02038300 0.02658000 -0.04134400
v -0.01948100 0.02595800 -0.04287900
v -0.00892000 0.01377400 -0.05225000
v -0.00898500 0.01676300 -0.05172400
v -0.01850500 0.02868700 -0.04259100
v -0.01336100 0.02218900 -0.04904000
v -0.01338500 0.02474500 -0.04817100
v -0.01200900 0.02401900 -0.04900200
v -0.01387200 0.03161800 -0.04494800
v -0.02057600 0.00526000 -0.04933800
v -0.02494500 0.01955700 -0.03835800
v -0.02326200 0.01817900 -0.04255100
v -0.02458200 0.02282200 -0.03552200
v -0.02457400 0.02124000 -0.03757100
v -0.02429300 0.02019100 -0.03931300
v -0.02404800 0.02366400 -0.03638900
v -0.02057100 0.01690900 -0.04608500
v -0.01320500 0.01469000 -0.05095900
v -0.01677100 0.02528800 -0.04585400
v -0.01624300 0.02662900 -0.04569200
v -0.00009200 0.04960300 0.00100600
v -0.00009200 0.05206100 0.00496900
v -0.00009200 0.05496100 0.01118400
v -0.00009200 0.05999800 0.02199200
v -0.00009200 0.06294500 0.02595000
v -0.00009200 0.06469000 0.02742100
v -0.00009200 0.06589600 0.02812600
v -0.00009200 0.06784200 0.02881200
v -0.00009200 0.06997200 0.02904400
v -0.00699800 0.06997200 0.02820900
v -0.01350700 0.06997200 0.02575400
v -0.01872300 0.06997200 0.02226700
v -0.02267800 0.06997200 0.01823400
v -0.02577500 0.06997200 0.01351000
v -0.02789900 0.06997200 0.00827600
v -0.02879200 0.06997200 0.00420300
v -0.00009200 0.06646800 -0.02939900
v -0.00009200 0.06008400 -0.03174000
v -0.00009200 0.05112400 -0.03657800
v -0.00009200 0.03983200 -0.04316500
v -0.01448700 0.04567100 -0.00551200
v -0.02083600 0.04258800 -0.01515700
v -0.00397500 0.06549200 -0.02939800
v -0.00656100 0.06555700 -0.02892100
v -0.00908800 0.06562900 -0.02821500
v -0.00586800 0.06126400 -0.03066100
v -0.00869600 0.06186400 -0.02970900
v -0.00588200 0.04212800 -0.04151000
v -0.01819000 0.05490200 -0.02805000
v -0.01827200 0.06078200 -0.02508300
v -0.01649700 0.05466000 -0.02960900
v -0.02180300 0.06114800 -0.02122700
v -0.00868600 0.03908500 -0.04277700
v -0.00919600 0.04230700 -0.04073900
v -0.00753000 0.04220100 -0.04119100
v -0.01977500 0.05516500 -0.02626100
v -0.01076200 0.03927000 -0.04207100
v -0.02132500 0.05546500 -0.02408700
v -0.02496700 0.06152200 -0.01579000
v -0.01817100 0.04851900 -0.03161800
v -0.02286100 0.05581900 -0.02130500
v -0.02404000 0.05615400 -0.01841000
v -0.02098000 0.04941000 -0.02723000
v -0.02305700 0.05054200 -0.02134900
v -0.02495400 0.05649300 -0.01510800
v -0.02545700 0.05678200 -0.01187500
v -0.02530000 0.05730100 -0.00471100
v -0.02717000 0.06189100 -0.00069500
v -0.02737000 0.06187800 -0.00345800
v -0.02614200 0.06187300 0.00422200
v -0.02381700 0.05165400 -0.01503200
v -0.02409000 0.05758700 0.00038300
v -0.02326900 0.05768700 0.00251300
v -0.02411600 0.06180000 0.00917500
v -0.02327500 0.05263700 -0.00882700
v -0.01155800 0.06645900 0.02591800
v -0.02207900 0.05778000 0.00490200
v -0.00718500 0.06753500 0.02784000
v -0.02090800 0.05783500 0.00677100
v -0.02119500 0.06166900 0.01359000
v -0.02198300 0.05330400 -0.00423600
v -0.00724200 0.06639100 0.02741700
v -0.01038500 0.06477600 0.02542100
v -0.00365300 0.06791200 0.02860600
v -0.01929400 0.05787300 0.00884000
v -0.00367400 0.06725600 0.02843300
v -0.00728300 0.06461700 0.02637600
v -0.00369800 0.06626300 0.02806100
v -0.00249100 0.06679800 0.02840600
v -0.00250600 0.06572900 0.02793600
v -0.01023600 0.06154800 0.02209100
v -0.00491900 0.06404100 0.02648400
v -0.00693100 0.06099800 0.02253000
v -0.00944600 0.04993000 0.00041000
v -0.00443000 0.05168700 0.00400500
v -0.00632600 0.04970000 0.00073600
v -0.00826200 0.05145600 0.00291600
v -0.00651300 0.05145500 0.00328700
v -0.00416500 0.04969200 0.00096800
v -0.00240000 0.04966000 0.00103600
v -0.01381500 0.06128100 -0.02787700
v -0.01831500 0.06589100 -0.02316400
v -0.00879300 0.05593200 -0.03266000
v -0.00887000 0.05271400 -0.03449400
v -0.00896400 0.04935500 -0.03649300
v -0.02808600 0.06767900 -0.00726200
v -0.01476600 0.04853800 -0.03444200
v -0.01400800 0.04532200 -0.03689200
v -0.01293700 0.04331700 -0.03871100
v -0.01463700 0.04389700 -0.03738300
v -0.02865100 0.06629400 -0.00116200
v -0.02789600 0.06634100 -0.00763300
v -0.02799700 0.06490500 -0.00614100
v -0.02847500 0.06754000 0.00448700
v -0.02858200 0.06625900 0.00094300
v -0.02682900 0.06176700 -0.00984400
v -0.02845200 0.06623200 0.00234400
v -0.02622100 0.06007800 -0.01153400
v -0.02812900 0.06618600 0.00443500
v -0.02719800 0.06743100 0.00934200
v -0.02753600 0.06612400 0.00692000
v -0.02759500 0.06476900 0.00452100
v -0.02661000 0.06604500 0.00964600
v -0.02478200 0.06728700 0.01444900
v -0.02548200 0.06596300 0.01213800
v -0.01964800 0.04247400 -0.03304200
v -0.02590900 0.06462700 0.00968000
v -0.02404200 0.06586800 0.01463500
v -0.02084300 0.04321800 -0.03028900
v -0.02141600 0.06712200 0.01898700
v -0.02245500 0.06577200 0.01684900
v -0.02321400 0.06444500 0.01451300
v -0.02173000 0.04401600 -0.02732400
v -0.02055000 0.06566200 0.01901500
v -0.01541000 0.06827600 0.02448000
v -0.01784900 0.06591600 0.02172300
v -0.02231700 0.04487800 -0.02409500
v -0.02255300 0.04570300 -0.02094900
v -0.01709500 0.06396400 0.02074100
v -0.01499900 0.06422700 0.02252500
v -0.01650600 0.06320300 0.02039600
v -0.02248700 0.04647800 -0.01793700
v -0.01628400 0.06166000 0.01856800
v -0.01451200 0.06264800 0.02117600
v -0.02213000 0.04724100 -0.01490900
v -0.02101100 0.05581700 0.00240900
v -0.01685100 0.06037900 0.01605700
v -0.01760800 0.05787700 0.01056600
v -0.02172700 0.04977300 -0.00993500
v -0.02165000 0.04781100 -0.01261100
v -0.02164100 0.04571200 -0.01514800
v -0.01440500 0.05974600 0.01682300
v -0.01226000 0.05695800 0.01248200
v -0.02099900 0.04834900 -0.01040700
v -0.02025300 0.04880900 -0.00848600
v -0.02036400 0.04687500 -0.01089500
v -0.01925400 0.04752100 -0.00848500
v -0.01938300 0.04922800 -0.00670600
v -0.01658200 0.05178900 -0.00036200
v -0.00652900 0.05754700 0.01620000
v -0.01574900 0.04991300 -0.00241600
v -0.00336600 0.05781000 0.01749400
v -0.00627200 0.05596400 0.01266800
v -0.01393400 0.06574500 -0.02612500
v -0.02241200 0.06818800 -0.01860500
v -0.01743600 0.04305300 -0.03559600
v -0.01955200 0.05254400 -0.00195800
v -0.01271000 0.05174700 0.00186500
v -0.01317000 0.05094300 0.00043700
v -0.02587700 0.06868100 -0.01326600
v -0.02589100 0.06796400 -0.01328000
v -0.02402300 0.06507300 -0.01696400
v -0.02566500 0.06603300 -0.01388500
v 0.02109400 0.03707700 -0.03239900
v 0.01885800 0.03523300 -0.03816900
v 0.01623500 0.03406200 -0.04183400
v 0.01347900 0.03331200 -0.04417900
v 0.01065000 0.03284300 -0.04564800
v 0.00755400 0.03255700 -0.04654200
v 0.00379800 0.03241600 -0.04698300
v 0.02807500 0.06997200 0.00694600
v 0.02562200 0.06997200 0.01345100
v 0.02213700 0.06997200 0.01866800
v 0.01810500 0.06997200 0.02262400
v 0.01338200 0.06997200 0.02572300
v 0.00814800 0.06997200 0.02784800
v 0.00407100 0.06997200 0.02874300
v 0.00314900 0.06547700 -0.02948000
v 0.00634000 0.06555600 -0.02893000
v 0.00914500 0.06563700 -0.02813500
v 0.00584200 0.06126900 -0.03062800
v 0.00874100 0.06187400 -0.02963600
v 0.00564200 0.04212600 -0.04151900
v 0.01820900 0.05493400 -0.02784100
v 0.01653200 0.05469000 -0.02942500
v 0.01836000 0.06080900 -0.02483700
v 0.02173400 0.06116100 -0.02107300
v 0.00553300 0.03621200 -0.04489200
v 0.00843500 0.03908000 -0.04279600
v 0.00729700 0.04219800 -0.04120300
v 0.00906900 0.04231100 -0.04072100
v 0.01977700 0.05519900 -0.02602400
v 0.01058400 0.03927100 -0.04206800
v 0.02116100 0.05546900 -0.02405500
v 0.02461600 0.06150100 -0.01616200
v 0.01813200 0.04855600 -0.03143900
v 0.02269300 0.05582400 -0.02127000
v 0.02367100 0.05609600 -0.01893300
v 0.02574600 0.06164500 -0.01327500
v 0.02426300 0.05629100 -0.01712200
v 0.02082700 0.04942300 -0.02716600
v 0.02501300 0.05661200 -0.01382800
v 0.02305700 0.05070000 -0.02048800
v 0.02527300 0.05678200 -0.01187500
v 0.02363500 0.05169300 -0.01479500
v 0.02451400 0.05747900 -0.00167500
v 0.02713300 0.06188600 -0.00227700
v 0.02584900 0.06187000 0.00457500
v 0.02350200 0.05764100 0.00149800
v 0.02317900 0.06176900 0.01051000
v 0.02225400 0.05775600 0.00424400
v 0.01121800 0.06645300 0.02598400
v 0.00748000 0.06754900 0.02771700
v 0.02073000 0.05783500 0.00676100
v 0.01976100 0.06160600 0.01500900
v 0.00709100 0.06639300 0.02740900
v 0.00992900 0.06476100 0.02552100
v 0.00417000 0.06792700 0.02851300
v 0.01925700 0.05787100 0.00867100
v 0.00419400 0.06727500 0.02834000
v 0.00422300 0.06628700 0.02796900
v 0.00713200 0.06461900 0.02636800
v 0.00278100 0.06681200 0.02836600
v 0.01744400 0.05787700 0.01054800
v 0.00279900 0.06574500 0.02789800
v 0.00978500 0.06153200 0.02218600
v 0.00475800 0.06404200 0.02648100
v 0.00656200 0.06098800 0.02256900
v 0.00953900 0.04991600 0.00031700
v 0.00719500 0.04999500 0.00095100
v 0.00831500 0.05145300 0.00285300
v 0.00654000 0.05145600 0.00325000
v 0.00304500 0.05165000 0.00407200
v 0.00443500 0.04969700 0.00093400
v 0.00457100 0.05142400 0.00351200
v 0.00219300 0.04966000 0.00103600
v 0.01389900 0.06801900 -0.02552400
v 0.01420300 0.06325300 -0.02673000
v 0.01847700 0.06590800 -0.02287300
v 0.01389200 0.06129900 -0.02772800
v 0.00877300 0.05594100 -0.03260700
v 0.00882000 0.05272200 -0.03445000
v 0.00888700 0.04936200 -0.03645800
v 0.01472900 0.04856100 -0.03433200
v 0.02799900 0.06634000 -0.00624900
v 0.01393700 0.04534000 -0.03681400
v 0.01283300 0.04332800 -0.03866400
v 0.02860200 0.06758500 0.00209800
v 0.01454100 0.04391400 -0.03731500
v 0.02797800 0.06490300 -0.00481300
v 0.02846300 0.06628500 -0.00056300
v 0.02819000 0.06622000 0.00294800
v 0.02696000 0.06181500 -0.00790200
v 0.02713400 0.06744000 0.00899800
v 0.02748900 0.06613700 0.00642600
v 0.02759200 0.06478800 0.00366000
v 0.02636900 0.06604000 0.00978900
v 0.02423600 0.06726800 0.01503800
v 0.01951100 0.04249900 -0.03295000
v 0.02494700 0.06593900 0.01280200
v 0.02546900 0.06460900 0.01025000
v 0.02325900 0.06583100 0.01552400
v 0.02069500 0.04324500 -0.03018800
v 0.02533700 0.05716700 -0.00675800
v 0.02297200 0.05272500 -0.00824200
v 0.02052500 0.06708900 0.01973800
v 0.02146600 0.06572500 0.01782000
v 0.02222700 0.06439400 0.01560900
v 0.02165900 0.04414800 -0.02683400
v 0.01946400 0.06561000 0.01990000
v 0.01491000 0.06826800 0.02467400
v 0.02218400 0.04499300 -0.02365800
v 0.01694800 0.06587800 0.02226900
v 0.02237200 0.04573300 -0.02083300
v 0.01605200 0.06391100 0.02135600
v 0.02233900 0.05557000 -0.00062700
v 0.01412200 0.06418600 0.02293200
v 0.01540400 0.06314600 0.02101900
v 0.02226800 0.04659500 -0.01747200
v 0.01360200 0.06260300 0.02158500
v 0.01519700 0.06160600 0.01917900
v 0.02183400 0.04739700 -0.01428200
v 0.01610600 0.06035100 0.01647800
v 0.02108800 0.04814400 -0.01125200
v 0.01411700 0.05974100 0.01688500
v 0.01209200 0.05695900 0.01247400
v 0.02118700 0.04602700 -0.01400600
v 0.01876300 0.05402100 0.00139100
v 0.01786600 0.05203900 -0.00120800
v 0.01850400 0.05189400 -0.00207600
v 0.00960000 0.05892700 0.01787500
v 0.01646800 0.05229200 0.00039400
v 0.01280200 0.05469500 0.00717900
v 0.01665000 0.05004700 -0.00305500
v 0.00629200 0.05754400 0.01621000
v 0.01426900 0.05156300 0.00069100
v 0.00309100 0.05780600 0.01749900
v 0.00609700 0.05596500 0.01266700
v 0.02235200 0.06819100 -0.01845400
v 0.01290500 0.05526100 -0.03137100
v 0.01285800 0.05365800 -0.03232300
v 0.01731900 0.04307400 -0.03551400
v 0.02110400 0.05229600 -0.00485300
v 0.01925000 0.04920600 -0.00680000
v 0.01605600 0.05444400 0.00461100
v 0.01436200 0.04879200 -0.00295500
v 0.02378000 0.06506900 -0.01705800
v 0.02635700 0.06577200 -0.01190600
v 0.02718600 0.00994500 -0.04051100
v 0.01918000 0.00909800 -0.04930500
v 0.01527400 0.00883500 -0.05107300
v 0.00540500 0.00849200 -0.05330800
v 0.02763300 0.00502600 -0.04217900
v 0.02660600 0.00495600 -0.04425700
v 0.02694200 0.00661300 -0.04312900
v 0.02512800 0.00963500 -0.04458400
v 0.02417200 0.00483200 -0.04695000
v 0.02665600 0.01136500 -0.04100400
v 0.02656900 0.01361700 -0.03908700
v 0.02620500 0.01382500 -0.04013100
v 0.02255200 0.00631200 -0.04788000
v 0.02586700 0.01690500 -0.03777300
v 0.02570800 0.01626600 -0.03914900
v 0.02448700 0.01376800 -0.04333800
v 0.02413600 0.01580000 -0.04259700
v 0.02159200 0.03323100 -0.03369600
v 0.02261700 0.02997700 -0.03328200
v 0.02216100 0.02945900 -0.03535800
v 0.01625000 0.02150700 -0.04755600
v 0.01793900 0.02178400 -0.04618400
v 0.01718800 0.01748200 -0.04826100
v 0.00704800 0.01328800 -0.05258700
v 0.01851100 0.02614100 -0.04368200
v 0.01953200 0.02210600 -0.04456100
v 0.01545400 0.02548900 -0.04660400
v 0.01469600 0.02129800 -0.04856600
v 0.01006100 0.02149000 -0.05032800
v 0.00271200 0.01554600 -0.05255200
v 0.00790100 0.01566400 -0.05208500
v 0.00837700 0.02929000 -0.04793800
v 0.00547300 0.02749400 -0.04905700
v 0.00713000 0.02755900 -0.04885900
v 0.00619600 0.02917600 -0.04830300
v 0.00380900 0.02745400 -0.04916000
v 0.02218600 0.01138600 -0.04674300
v 0.02296900 0.01284100 -0.04549800
v 0.02208400 0.01238800 -0.04646300
v 0.02397800 0.02279000 -0.03704100
v 0.02219100 0.02241100 -0.04102700
v 0.02045000 0.01413400 -0.04710700
v 0.02010900 0.01986500 -0.04503600
v 0.02077400 0.02771000 -0.03973100
v 0.01277900 0.01648300 -0.05068800
v 0.01344200 0.01808300 -0.05006300
v 0.02055500 0.02950700 -0.03891200
v 0.01152800 0.02643800 -0.04824200
v 0.01210300 0.02734400 -0.04766300
v 0.02818100 0.07297200 0.00649700
v 0.02603600 0.07297200 0.01262600
v 0.02258100 0.07297200 0.01812500
v 0.01798900 0.07297200 0.02271700
v 0.01249100 0.07297200 0.02617200
v 0.00636100 0.07297200 0.02831600
v -0.00009200 0.07297200 0.02904400
v -0.00654500 0.07297200 0.02831600
v -0.01267500 0.07297200 0.02617200
v -0.01817300 0.07297200 0.02271700
v -0.02276500 0.07297200 0.01812500
v -0.02622000 0.07297200 0.01262600
v -0.02836500 0.07297200 0.00649700
v -0.02829200 -0.00102800 0.00948000
v -0.02829200 -0.00002800 0.00948000
v -0.02829200 0.00097200 0.00948000
v -0.02857500 0.00097200 0.00948000
v -0.02767400 0.00714700 0.00948000
v -0.02545200 0.01297800 0.00948000
v -0.02201300 0.01818500 0.00948000
v -0.01752400 0.02251900 0.00948000
v -0.01220000 0.02577200 0.00948000
v -0.00629500 0.02778900 0.00948000
v -0.00009200 0.02847200 0.00948000
v 0.00672800 0.02764400 0.00948000
v 0.01315300 0.02520800 0.00948000
v 0.01880700 0.02130500 0.00948000
v 0.02336300 0.01616200 0.00948000
v 0.02655600 0.01007800 0.00948000
v 0.02820000 0.00340800 0.00948000
v 0.02820000 -0.00346300 0.00948000
v 0.02655600 -0.01013400 0.00948000
v 0.02336300 -0.01621800 0.00948000
v 0.01880700 -0.02136000 0.00948000
v 0.01315300 -0.02526300 0.00948000
v 0.00672800 -0.02770000 0.00948000
v -0.00009200 -0.02852800 0.00948000
v -0.00629500 -0.02784500 0.00948000
v -0.01220000 -0.02582800 0.00948000
v -0.01752400 -0.02257500 0.00948000
v -0.02201300 -0.01824100 0.00948000
v -0.02545200 -0.01303300 0.00948000
v -0.02767400 -0.00720200 0.00948000
v -0.02857500 -0.00102800 0.00948000
v -0.00009200 -0.02822800 0.00948000
v -0.00636700 -0.02752100 0.00948000
v -0.01232800 -0.02543500 0.00948000
v -0.01767400 -0.02207500 0.00948000
v -0.02214000 -0.01761000 0.00948000
v -0.02549900 -0.01226300 0.00948000
v -0.02758500 -0.00630300 0.00948000
v -0.00009200 0.02817200 0.00948000
v 0.00665700 0.02735300 0.00948000
v 0.01301300 0.02494200 0.00948000
v 0.01860800 0.02108000 0.00948000
v 0.02311600 0.01599200 0.00948000
v 0.02627500 0.00997200 0.00948000
v 0.02790200 0.00337100 0.00948000
v 0.02790200 -0.00342700 0.00948000
v 0.02627500 -0.01002800 0.00948000
v 0.02311600 -0.01604700 0.00948000
v 0.01860800 -0.02113600 0.00948000
v 0.01301300 -0.02499800 0.00948000
v 0.00665700 -0.02740800 0.00948000
v -0.02758500 0.00624700 0.00948000
v -0.02549900 0.01220800 0.00948000
v -0.02214000 0.01755500 0.00948000
v -0.01767400 0.02202000 0.00948000
v -0.01232800 0.02538000 0.00948000
v -0.00636700 0.02746500 0.00948000
v 0.02890800 0.07297200 0.00004400
v 0.02818100 0.07297200 0.00649700
v 0.02603600 0.07297200 0.01262600
v 0.02258100 0.07297200 0.01812500
v 0.01798900 0.07297200 0.02271700
v 0.01249100 0.07297200 0.02617200
v 0.00636100 0.07297200 0.02831600
v -0.00009200 0.07297200 0.02904400
v -0.00654500 0.07297200 0.02831600
v -0.01267500 0.07297200 0.02617200
v -0.01817300 0.07297200 0.02271700
v -0.02276500 0.07297200 0.01812500
v -0.02622000 0.07297200 0.01262600
v -0.02836500 0.07297200 0.00649700
v -0.02909200 0.07297200 0.00004400
v -0.02836500 0.07297200 -0.00641000
v -0.02622000 0.07297200 -0.01253900
v -0.02276500 0.07297200 -0.01803800
v -0.01817300 0.07297200 -0.02263000
v -0.01267500 0.07297200 -0.02608500
v -0.00654500 0.07297200 -0.02822900
v -0.00009200 0.07297200 -0.02895600
v 0.00636100 0.07297200 -0.02822900
v 0.01249100 0.07297200 -0.02608500
v 0.01798900 0.07297200 -0.02263000
v 0.02258100 0.07297200 -0.01803800
v 0.02603600 0.07297200 -0.01253900
v 0.02818100 0.07297200 -0.00641000
v -0.02879200 0.07297200 0.00004400
v -0.02795800 0.07297200 -0.00682500
v -0.02550500 0.07297200 -0.01329400
v -0.02157400 0.07297200 -0.01898800
v -0.01639600 0.07297200 -0.02357600
v -0.01026900 0.07297200 -0.02679100
v -0.00355100 0.07297200 -0.02844700
v 0.00336700 0.07297200 -0.02844700
v 0.01008500 0.07297200 -0.02679100
v 0.01621100 0.07297200 -0.02357600
v 0.02139000 0.07297200 -0.01898800
v 0.02532100 0.07297200 -0.01329400
v 0.02777400 0.07297200 -0.00682500
v 0.02860800 0.07297200 0.00004400
v 0.02777400 0.07297200 0.00691200
v 0.02532100 0.07297200 0.01338100
v 0.02139000 0.07297200 0.01907500
v 0.01621100 0.07297200 0.02366300
v 0.01008500 0.07297200 0.02687900
v 0.00336700 0.07297200 0.02853400
v -0.00355100 0.07297200 0.02853400
v -0.01026900 0.07297200 0.02687900
v -0.01639600 0.07297200 0.02366300
v -0.02157400 0.07297200 0.01907500
v -0.02550500 0.07297200 0.01338100
v -0.02795800 0.07297200 0.00691200
v -0.00629500 -0.02784500 0.01218000
v -0.01220000 -0.02582800 0.01218000
v -0.01752400 -0.02257500 0.01218000
v -0.02201300 -0.01824100 0.01218000
v -0.02545200 -0.01303300 0.01218000
v -0.02767400 -0.00720200 0.01218000
v -0.02857500 -0.00102800 0.01218000
v -0.02857500 -0.00102800 0.00948000
v -0.00629500 -0.02784500 0.00948000
v -0.01220000 -0.02582800 0.00948000
v -0.01752400 -0.02257500 0.00948000
v -0.02201300 -0.01824100 0.00948000
v -0.02545200 -0.01303300 0.00948000
v -0.02767400 -0.00720200 0.00948000
v -0.02857500 -0.00102800 0.01218000
v -0.02829200 -0.00102800 0.01218000
v -0.00009200 -0.02852800 0.01218000
v -0.00629500 -0.02784500 0.01218000
v -0.01220000 -0.02582800 0.01218000
v -0.01752400 -0.02257500 0.01218000
v -0.02201300 -0.01824100 0.01218000
v -0.02545200 -0.01303300 0.01218000
v -0.02767400 -0.00720200 0.01218000
v -0.00009200 0.02847200 0.01218000
v 0.00672800 0.02764400 0.01218000
v 0.01315300 0.02520800 0.01218000
v 0.01880700 0.02130500 0.01218000
v 0.02336300 0.01616200 0.01218000
v 0.02655600 0.01007800 0.01218000
v 0.02820000 0.00340800 0.01218000
v 0.02820000 -0.00346300 0.01218000
v 0.02655600 -0.01013400 0.01218000
v 0.02336300 -0.01621800 0.01218000
v 0.01880700 -0.02136000 0.01218000
v 0.01315300 -0.02526300 0.01218000
v 0.00672800 -0.02770000 0.01218000
v -0.02857500 0.00097200 0.01218000
v -0.02767400 0.00714700 0.01218000
v -0.02545200 0.01297800 0.01218000
v -0.02201300 0.01818500 0.01218000
v -0.01752400 0.02251900 0.01218000
v -0.01220000 0.02577200 0.01218000
v -0.00629500 0.02778900 0.01218000
v -0.02829200 0.00097200 0.01218000
v -0.00009200 0.02247200 0.01218000
v -0.00547700 0.02181800 0.01218000
v -0.01054800 0.01989500 0.01218000
v -0.01501200 0.01681400 0.01218000
v -0.01860900 0.01275400 0.01218000
v -0.02113000 0.00795100 0.01218000
v -0.02242800 0.00268400 0.01218000
v -0.02242800 -0.00274000 0.01218000
v -0.02113000 -0.00800600 0.01218000
v -0.01860900 -0.01280900 0.01218000
v -0.01501200 -0.01686900 0.01218000
v -0.01054800 -0.01995100 0.01218000
v -0.00547700 -0.02187400 0.01218000
v -0.00009200 -0.02252800 0.01218000
v 0.00529300 -0.02187400 0.01218000
v 0.01036400 -0.01995100 0.01218000
v 0.01482800 -0.01686900 0.01218000
v 0.01842500 -0.01280900 0.01218000
v 0.02094600 -0.00800600 0.01218000
v 0.02224400 -0.00274000 0.01218000
v 0.02224400 0.00268400 0.01218000
v 0.02094600 0.00795100 0.01218000
v 0.01842500 0.01275400 0.01218000
v 0.01482800 0.01681400 0.01218000
v 0.01036400 0.01989500 0.01218000
v 0.00529300 0.02181800 0.01218000
v -0.02879200 0.07957300 0.00104400
v -0.02879200 0.07957300 0.00004400
v -0.02879200 0.07957300 -0.00095600
v -0.02907500 0.07957300 -0.00095600
v -0.02816200 0.07957300 -0.00724200
v -0.02590200 0.07957300 -0.01317900
v -0.02240400 0.07957300 -0.01848100
v -0.01783600 0.07957300 -0.02289400
v -0.01241700 0.07957300 -0.02620700
v -0.00640600 0.07957300 -0.02826100
v -0.00009200 0.07957300 -0.02895600
v 0.00636100 0.07957300 -0.02822900
v 0.01249100 0.07957300 -0.02608500
v 0.01798900 0.07957300 -0.02263000
v 0.02258100 0.07957300 -0.01803800
v 0.02603600 0.07957300 -0.01253900
v 0.02818100 0.07957300 -0.00641000
v 0.02890800 0.07957300 0.00004400
v 0.02818100 0.07957300 0.00649700
v 0.02603600 0.07957300 0.01262600
v 0.02258100 0.07957300 0.01812500
v 0.01798900 0.07957300 0.02271700
v 0.01249100 0.07957300 0.02617200
v 0.00636100 0.07957300 0.02831600
v -0.00009200 0.07957300 0.02904400
v -0.00640600 0.07957300 0.02834800
v -0.01241700 0.07957300 0.02629400
v -0.01783600 0.07957300 0.02298100
v -0.02240400 0.07957300 0.01856800
v -0.02590200 0.07957300 0.01326600
v -0.02816200 0.07957300 0.00733000
v -0.02907500 0.07957300 0.00104400
v 0.02860800 0.07957300 0.00004400
v 0.02777400 0.07957300 0.00691200
v 0.02532100 0.07957300 0.01338100
v 0.02139000 0.07957300 0.01907500
v 0.01621100 0.07957300 0.02366300
v 0.01008500 0.07957300 0.02687900
v 0.00336700 0.07957300 0.02853400
v -0.00355100 0.07957300 0.02853400
v -0.01026900 0.07957300 0.02687900
v -0.01639600 0.07957300 0.02366300
v -0.02157400 0.07957300 0.01907500
v -0.02550500 0.07957300 0.01338100
v -0.02795800 0.07957300 0.00691200
v -0.02795800 0.07957300 -0.00682500
v -0.02550500 0.07957300 -0.01329400
v -0.02157400 0.07957300 -0.01898800
v -0.01639600 0.07957300 -0.02357600
v -0.01026900 0.07957300 -0.02679100
v -0.00355100 0.07957300 -0.02844700
v 0.00336700 0.07957300 -0.02844700
v 0.01008500 0.07957300 -0.02679100
v 0.01621100 0.07957300 -0.02357600
v 0.02139000 0.07957300 -0.01898800
v 0.02532100 0.07957300 -0.01329400
v 0.02777400 0.07957300 -0.00682500
v -0.02907500 0.07957300 -0.00095600
v -0.02816200 0.07957300 -0.00724200
v -0.02590200 0.07957300 -0.01317900
v -0.02240400 0.07957300 -0.01848100
v -0.01783600 0.07957300 -0.02289400
v -0.01241700 0.07957300 -0.02620700
v -0.00640600 0.07957300 -0.02826100
v -0.02907500 0.08147200 -0.00095600
v -0.02816200 0.08147200 -0.00724200
v -0.02590200 0.08147200 -0.01317900
v -0.02240400 0.08147200 -0.01848100
v -0.01783600 0.08147200 -0.02289400
v -0.01241700 0.08147200 -0.02620700
v -0.00640600 0.08147200 -0.02826100
v -0.02907500 0.08147200 0.00104400
v -0.02879200 0.08147200 0.00104400
v -0.00009200 0.08147200 0.02904400
v -0.00640600 0.08147200 0.02834800
v -0.01241700 0.08147200 0.02629400
v -0.01783600 0.08147200 0.02298100
v -0.02240400 0.08147200 0.01856800
v -0.02590200 0.08147200 0.01326600
v -0.02816200 0.08147200 0.00733000
v -0.00009200 0.08147200 -0.02895600
v 0.00636100 0.08147200 -0.02822900
v 0.01249100 0.08147200 -0.02608500
v 0.01798900 0.08147200 -0.02263000
v 0.02258100 0.08147200 -0.01803800
v 0.02603600 0.08147200 -0.01253900
v 0.02818100 0.08147200 -0.00641000
v 0.02890800 0.08147200 0.00004400
v 0.02818100 0.08147200 0.00649700
v 0.02603600 0.08147200 0.01262600
v 0.02258100 0.08147200 0.01812500
v 0.01798900 0.08147200 0.02271700
v 0.01249100 0.08147200 0.02617200
v 0.00636100 0.08147200 0.02831600
v -0.02907500 0.08147200 -0.00095600
v -0.02816200 0.08147200 -0.00724200
v -0.02590200 0.08147200 -0.01317900
v -0.02240400 0.08147200 -0.01848100
v -0.01783600 0.08147200 -0.02289400
v -0.01241700 0.08147200 -0.02620700
v -0.00640600 0.08147200 -0.02826100
v -0.02879200 0.08147200 -0.00095600
v 0.02240800 0.08147200 0.00004400
v 0.02175400 0.08147200 -0.00534100
v 0.01983100 0.08147200 -0.01041300
v 0.01674900 0.08147200 -0.01487700
v 0.01268900 0.08147200 -0.01847400
v 0.00788700 0.08147200 -0.02099400
v 0.00262000 0.08147200 -0.02229200
v -0.00280400 0.08147200 -0.02229200
v -0.00807100 0.08147200 -0.02099400
v -0.01287400 0.08147200 -0.01847400
v -0.01693400 0.08147200 -0.01487700
v -0.02001500 0.08147200 -0.01041300
v -0.02193800 0.08147200 -0.00534100
v -0.02259200 0.08147200 0.00004400
v -0.02193800 0.08147200 0.00542800
v -0.02001500 0.08147200 0.01050000
v -0.01693400 0.08147200 0.01496400
v -0.01287400 0.08147200 0.01856100
v -0.00807100 0.08147200 0.02108100
v -0.00280400 0.08147200 0.02238000
v 0.00262000 0.08147200 0.02238000
v 0.00788700 0.08147200 0.02108100
v 0.01268900 0.08147200 0.01856100
v 0.01674900 0.08147200 0.01496400
v 0.01983100 0.08147200 0.01050000
v 0.02175400 0.08147200 0.00542800
v 0.02175400 0.08147200 -0.00534100
v 0.01983100 0.08147200 -0.01041300
v 0.01674900 0.08147200 -0.01487700
v 0.01268900 0.08147200 -0.01847400
v 0.00788700 0.08147200 -0.02099400
v 0.00262000 0.08147200 -0.02229200
v -0.00280400 0.08147200 -0.02229200
v -0.00807100 0.08147200 -0.02099400
v -0.01287400 0.08147200 -0.01847400
v -0.01693400 0.08147200 -0.01487700
v -0.02001500 0.08147200 -0.01041300
v -0.02193800 0.08147200 -0.00534100
v 0.02175400 0.07147200 -0.00534100
v 0.01983100 0.07147200 -0.01041300
v 0.01674900 0.07147200 -0.01487700
v 0.01268900 0.07147200 -0.01847400
v 0.00788700 0.07147200 -0.02099400
v 0.00262000 0.07147200 -0.02229200
v -0.00280400 0.07147200 -0.02229200
v -0.00807100 0.07147200 -0.02099400
v -0.01287400 0.07147200 -0.01847400
v -0.01693400 0.07147200 -0.01487700
v -0.02001500 0.07147200 -0.01041300
v -0.02193800 0.07147200 -0.00534100
v 0.02240800 0.07147200 0.00004400
v 0.02175400 0.07147200 -0.00534100
v 0.01983100 0.07147200 -0.01041300
v 0.01674900 0.07147200 -0.01487700
v 0.01268900 0.07147200 -0.01847400
v 0.00788700 0.07147200 -0.02099400
v 0.00262000 0.07147200 -0.02229200
v -0.00280400 0.07147200 -0.02229200
v -0.00807100 0.07147200 -0.02099400
v -0.01287400 0.07147200 -0.01847400
v -0.01693400 0.07147200 -0.01487700
v -0.02001500 0.07147200 -0.01041300
v -0.02193800 0.07147200 -0.00534100
v -0.02259200 0.07147200 0.00004400
v -0.02193800 0.07147200 0.00542800
v -0.02001500 0.07147200 0.01050000
v -0.01693400 0.07147200 0.01496400
v -0.01287400 0.07147200 0.01856100
v -0.00807100 0.07147200 0.02108100
v -0.00280400 0.07147200 0.02238000
v 0.00262000 0.07147200 0.02238000
v 0.00788700 0.07147200 0.02108100
v 0.01268900 0.07147200 0.01856100
v 0.01674900 0.07147200 0.01496400
v 0.01983100 0.07147200 0.01050000
v 0.02175400 0.07147200 0.00542800
v -0.00547700 0.02181800 0.01218000
v -0.01054800 0.01989500 0.01218000
v -0.01501200 0.01681400 0.01218000
v -0.01860900 0.01275400 0.01218000
v -0.02113000 0.00795100 0.01218000
v -0.02242800 0.00268400 0.01218000
v -0.02242800 -0.00274000 0.01218000
v -0.02113000 -0.00800600 0.01218000
v -0.01860900 -0.01280900 0.01218000
v -0.01501200 -0.01686900 0.01218000
v -0.01054800 -0.01995100 0.01218000
v -0.00547700 -0.02187400 0.01218000
v -0.00547700 0.02181800 0.00218000
v -0.01054800 0.01989500 0.00218000
v -0.01501200 0.01681400 0.00218000
v -0.01860900 0.01275400 0.00218000
v -0.02113000 0.00795100 0.00218000
v -0.02242800 0.00268400 0.00218000
v -0.02242800 -0.00274000 0.00218000
v -0.02113000 -0.00800600 0.00218000
v -0.01860900 -0.01280900 0.00218000
v -0.01501200 -0.01686900 0.00218000
v -0.01054800 -0.01995100 0.00218000
v -0.00547700 -0.02187400 0.00218000
v -0.00009200 0.02247200 0.00218000
v -0.00547700 0.02181800 0.00218000
v -0.01054800 0.01989500 0.00218000
v -0.01501200 0.01681400 0.00218000
v -0.01860900 0.01275400 0.00218000
v -0.02113000 0.00795100 0.00218000
v -0.02242800 0.00268400 0.00218000
v -0.02242800 -0.00274000 0.00218000
v -0.02113000 -0.00800600 0.00218000
v -0.01860900 -0.01280900 0.00218000
v -0.01501200 -0.01686900 0.00218000
v -0.01054800 -0.01995100 0.00218000
v -0.00547700 -0.02187400 0.00218000
v -0.00009200 -0.02252800 0.00218000
v 0.00529300 -0.02187400 0.00218000
v 0.01036400 -0.01995100 0.00218000
v 0.01482800 -0.01686900 0.00218000
v 0.01842500 -0.01280900 0.00218000
v 0.02094600 -0.00800600 0.00218000
v 0.02224400 -0.00274000 0.00218000
v 0.02224400 0.00268400 0.00218000
v 0.02094600 0.00795100 0.00218000
v 0.01842500 0.01275400 0.00218000
v 0.01482800 0.01681400 0.00218000
v 0.01036400 0.01989500 0.00218000
v 0.00529300 0.02181800 0.00218000
v -0.02907500 0.07957300 0.00104400
v -0.02879200 0.07957300 0.00104400
v -0.02879200 0.08147200 0.00104400
v -0.02907500 0.08147200 0.00104400
v -0.02879200 0.07957300 0.00104400
v -0.02879200 0.07957300 0.00004400
v -0.02879200 0.07957300 -0.00095600
v -0.02879200 0.08147200 -0.00095600
v -0.02879200 0.08147200 0.00104400
v -0.02879200 0.08147200 -0.00095600
v -0.02907500 0.08147200 -0.00095600
v -0.02879200 0.07957300 -0.00095600
v -0.02907500 0.07957300 -0.00095600
v -0.02857500 -0.00102800 0.00948000
v -0.02829200 -0.00102800 0.00948000
v -0.02829200 -0.00102800 0.01218000
v -0.02857500 -0.00102800 0.01218000
v -0.02829200 -0.00102800 0.00948000
v -0.02829200 -0.00002800 0.00948000
v -0.02829200 0.00097200 0.00948000
v -0.02829200 0.00097200 0.01218000
v -0.02829200 -0.00102800 0.01218000
v -0.02829200 0.00097200 0.01218000
v -0.02857500 0.00097200 0.01218000
v -0.02829200 0.00097200 0.00948000
v -0.02857500 0.00097200 0.00948000
f 109 121 108
f 109 122 121
f 110 123 122
f 110 122 109
f 111 124 123
f 111 123 110
f 112 125 124
f 112 126 125
f 112 124 111
f 113 126 112
f 114 127 126
f 114 126 113
f 115 128 127
f 115 127 114
f 116 129 128
f 116 130 129
f 116 128 115
f 117 130 116
f 118 131 130
f 118 130 117
f 119 132 131
f 119 131 118
f 120 133 132
f 120 106 133
f 120 132 119
f 107 106 120
f 137 149 136
f 137 150 149
f 138 151 150
f 138 152 151
f 138 150 137
f 139 152 138
f 140 153 152
f 140 152 139
f 141 154 153
f 141 155 154
f 141 153 140
f 142 155 141
f 143 156 155
f 143 155 142
f 144 157 156
f 144 158 157
f 144 156 143
f 145 158 144
f 146 159 158
f 146 158 145
f 147 160 159
f 147 159 146
f 148 161 160
f 148 134 161
f 148 160 147
f 135 134 148
f 185 186 193
f 184 193 192
f 184 185 193
f 183 192 191
f 183 184 192
f 182 190 189
f 182 191 190
f 182 183 191
f 181 189 188
f 181 182 189
f 180 188 187
f 180 181 188
f 179 187 170
f 179 180 187
f 178 170 169
f 178 179 170
f 177 169 168
f 177 178 169
f 176 168 167
f 176 177 168
f 175 166 165
f 175 167 166
f 175 176 167
f 174 165 164
f 174 175 165
f 173 164 163
f 173 174 164
f 172 163 162
f 172 173 163
f 171 172 162
f 204 194 195
f 204 195 196
f 204 203 194
f 205 204 196
f 206 196 197
f 206 205 196
f 207 197 198
f 207 206 197
f 208 198 199
f 208 199 200
f 208 207 198
f 209 208 200
f 202 200 201
f 202 209 200
f 224 202 201
f 224 201 210
f 225 210 211
f 225 224 210
f 226 211 212
f 226 225 211
f 227 212 213
f 227 226 212
f 228 213 214
f 228 227 213
f 229 214 215
f 229 215 216
f 229 228 214
f 230 229 216
f 231 216 217
f 231 230 216
f 232 217 218
f 232 231 217
f 233 218 219
f 233 232 218
f 234 219 220
f 234 233 219
f 235 220 221
f 235 221 222
f 235 234 220
f 223 235 222
f 250 242 241
f 250 243 242
f 250 251 243
f 249 241 240
f 249 250 241
f 248 240 239
f 248 249 240
f 247 239 238
f 247 248 239
f 246 238 237
f 246 247 238
f 245 237 236
f 245 246 237
f 244 245 236
f 279 244 236
f 279 236 265
f 278 265 264
f 278 279 265
f 277 264 263
f 277 278 264
f 276 263 262
f 276 277 263
f 275 262 261
f 275 276 262
f 274 261 260
f 274 275 261
f 273 260 259
f 273 274 260
f 272 258 257
f 272 259 258
f 272 273 259
f 271 272 257
f 270 256 255
f 270 257 256
f 270 271 257
f 269 270 255
f 268 255 254
f 268 269 255
f 267 254 253
f 267 268 254
f 266 253 252
f 266 267 253
f 294 295 296
f 297 294 296
f 292 293 294
f 292 297 298
f 292 294 297
f 291 298 299
f 291 299 300
f 291 292 298
f 290 300 301
f 290 291 300
f 289 301 302
f 289 290 301
f 288 302 303
f 288 289 302
f 287 303 304
f 287 304 305
f 287 288 303
f 286 305 306
f 286 306 307
f 286 287 305
f 285 307 308
f 285 308 309
f 285 286 307
f 284 309 310
f 284 285 309
f 283 310 311
f 283 284 310
f 282 311 312
f 282 312 313
f 282 283 311
f 281 313 314
f 281 282 313
f 316 281 314
f 316 314 315
f 280 281 316
f 340 338 339
f 354 326 327
f 354 327 328
f 355 328 329
f 355 354 328
f 355 326 354
f 356 329 330
f 356 330 331
f 357 324 325
f 358 322 323
f 359 342 343
f 360 343 344
f 360 344 345
f 360 359 343
f 361 318 319
f 361 319 320
f 362 346 347
f 362 347 348
f 362 348 349
f 363 351 352
f 364 331 332
f 364 332 333
f 364 333 334
f 364 356 331
f 365 356 364
f 366 365 364
f 367 336 337
f 367 337 338
f 367 340 341
f 367 338 340
f 368 334 335
f 368 335 336
f 369 367 341
f 369 341 342
f 370 336 367
f 370 367 369
f 370 368 336
f 371 369 342
f 371 370 369
f 371 342 359
f 372 334 368
f 372 364 334
f 373 323 324
f 373 324 357
f 373 358 323
f 374 372 368
f 375 368 370
f 375 374 368
f 375 370 371
f 375 371 359
f 376 372 374
f 377 321 322
f 377 322 358
f 378 320 321
f 378 379 380
f 378 321 377
f 378 377 381
f 378 361 320
f 378 380 361
f 382 345 346
f 382 360 345
f 383 379 378
f 383 378 381
f 384 383 381
f 385 384 386
f 387 317 318
f 387 380 379
f 387 361 380
f 387 318 361
f 388 346 362
f 388 389 382
f 388 382 346
f 390 387 379
f 391 293 317
f 391 294 293
f 391 317 387
f 391 387 390
f 392 294 391
f 392 391 390
f 393 392 390
f 393 294 392
f 394 362 349
f 394 388 362
f 394 389 388
f 395 389 394
f 395 394 349
f 395 349 350
f 395 350 351
f 395 351 363
f 395 385 389
f 396 352 353
f 396 353 295
f 396 295 294
f 396 363 352
f 396 294 393
f 397 356 365
f 397 355 329
f 397 329 356
f 398 397 365
f 398 355 397
f 398 325 326
f 398 357 325
f 398 326 355
f 398 365 357
f 399 365 366
f 399 364 372
f 399 366 364
f 399 357 365
f 400 357 399
f 401 357 400
f 401 373 357
f 402 399 372
f 402 401 400
f 402 400 399
f 402 372 376
f 403 401 402
f 403 402 376
f 403 376 404
f 405 373 401
f 405 401 403
f 405 403 404
f 406 374 375
f 406 376 374
f 407 360 406
f 407 375 359
f 407 406 375
f 407 359 360
f 408 373 405
f 408 405 404
f 408 404 386
f 408 358 373
f 408 377 358
f 408 381 377
f 408 386 384
f 408 384 381
f 409 376 406
f 409 406 360
f 409 404 376
f 409 360 382
f 410 404 409
f 410 386 404
f 410 409 382
f 410 382 389
f 410 389 385
f 410 385 386
f 411 396 393
f 411 363 396
f 411 379 383
f 411 383 384
f 411 390 379
f 411 393 390
f 412 395 363
f 412 385 395
f 412 363 411
f 412 411 384
f 412 384 385
f 440 439 472
f 471 472 439
f 438 471 439
f 473 440 472
f 441 440 473
f 470 471 438
f 437 470 438
f 474 441 473
f 442 441 474
f 469 470 437
f 413 469 437
f 449 442 474
f 443 442 449
f 468 413 414
f 468 469 413
f 415 468 414
f 450 443 449
f 444 443 450
f 467 468 415
f 467 415 416
f 417 467 416
f 451 444 450
f 445 444 451
f 466 417 418
f 466 467 417
f 419 466 418
f 452 445 451
f 465 419 420
f 465 466 419
f 446 445 452
f 421 465 420
f 453 446 452
f 464 465 421
f 422 464 421
f 454 447 453
f 423 464 422
f 463 464 423
f 424 463 423
f 455 448 454
f 462 463 424
f 425 462 424
f 456 426 455
f 427 426 456
f 436 462 425
f 461 462 436
f 428 427 456
f 435 461 436
f 457 428 456
f 429 428 457
f 460 461 435
f 434 460 435
f 430 429 457
f 458 430 457
f 431 430 458
f 433 459 460
f 433 460 434
f 432 458 459
f 432 431 458
f 432 459 433
f 447 446 453
f 448 447 454
f 426 448 455
f 487 338 337
f 487 339 338
f 499 328 327
f 499 327 498
f 500 499 498
f 500 329 328
f 500 328 499
f 501 330 329
f 501 331 330
f 501 329 500
f 502 498 497
f 503 497 496
f 503 502 497
f 504 495 494
f 505 485 486
f 506 504 494
f 506 495 504
f 507 484 485
f 507 485 505
f 508 482 483
f 508 483 484
f 508 484 507
f 509 490 489
f 509 491 490
f 510 492 491
f 510 491 509
f 511 479 480
f 511 480 481
f 512 476 477
f 512 477 478
f 513 332 331
f 513 333 332
f 513 334 333
f 513 331 501
f 514 513 501
f 515 513 514
f 516 486 487
f 516 337 336
f 516 487 337
f 517 335 334
f 517 336 335
f 518 486 516
f 519 336 517
f 519 518 516
f 519 516 336
f 520 486 518
f 520 518 519
f 520 505 486
f 520 507 505
f 521 334 513
f 521 517 334
f 522 503 496
f 522 496 495
f 522 495 506
f 523 517 521
f 524 519 517
f 524 520 519
f 524 507 520
f 524 517 523
f 525 523 521
f 526 493 492
f 526 494 493
f 526 506 494
f 527 526 492
f 527 492 510
f 527 506 526
f 527 510 528
f 529 527 528
f 530 527 529
f 531 532 530
f 533 511 481
f 533 481 482
f 533 534 511
f 535 509 489
f 535 489 488
f 535 528 510
f 535 510 509
f 536 528 535
f 537 488 280
f 537 280 316
f 537 535 488
f 537 536 535
f 538 537 316
f 538 536 537
f 539 538 316
f 539 536 538
f 540 478 479
f 540 479 511
f 540 534 531
f 540 511 534
f 541 512 478
f 541 478 540
f 542 315 475
f 542 475 476
f 542 316 315
f 542 476 512
f 542 539 316
f 543 503 514
f 543 514 501
f 543 502 503
f 543 501 500
f 543 498 502
f 543 500 498
f 544 514 503
f 544 515 514
f 544 513 515
f 544 521 513
f 545 544 503
f 546 521 544
f 546 545 547
f 546 525 521
f 546 544 545
f 548 545 503
f 548 547 545
f 548 503 522
f 549 547 548
f 550 547 549
f 550 546 547
f 550 525 546
f 550 551 525
f 552 550 549
f 552 548 522
f 552 549 548
f 552 551 550
f 552 532 551
f 553 524 523
f 553 523 525
f 554 524 553
f 554 553 508
f 554 507 524
f 554 508 507
f 555 552 522
f 555 532 552
f 555 522 506
f 555 506 527
f 555 530 532
f 555 527 530
f 556 553 525
f 556 508 553
f 556 525 551
f 557 556 551
f 557 551 532
f 557 531 534
f 557 532 531
f 558 536 539
f 558 542 512
f 558 539 542
f 558 529 528
f 558 530 529
f 558 528 536
f 559 540 531
f 559 512 541
f 559 541 540
f 559 530 558
f 559 558 512
f 559 531 530
f 560 482 508
f 560 508 556
f 560 556 557
f 560 557 534
f 560 533 482
f 560 534 533
f 580 566 567
f 580 567 568
f 581 561 562
f 581 562 563
f 581 579 561
f 582 565 566
f 582 566 580
f 583 578 579
f 583 579 581
f 584 313 312
f 585 577 578
f 586 311 310
f 587 310 309
f 587 586 310
f 588 563 564
f 588 564 565
f 588 581 563
f 588 565 582
f 589 569 570
f 589 570 571
f 590 571 315
f 590 589 571
f 591 588 582
f 591 581 588
f 592 568 569
f 592 580 568
f 592 589 590
f 592 569 589
f 593 592 590
f 594 593 590
f 594 315 314
f 594 590 315
f 595 580 592
f 595 582 580
f 596 595 592
f 597 581 591
f 597 591 582
f 598 592 593
f 598 584 596
f 598 596 592
f 599 594 314
f 599 584 598
f 599 314 313
f 599 313 584
f 599 593 594
f 599 598 593
f 600 585 578
f 600 578 583
f 600 583 581
f 601 582 595
f 601 596 584
f 601 595 596
f 602 581 597
f 602 600 581
f 602 585 600
f 603 585 602
f 603 602 597
f 603 597 604
f 603 604 585
f 605 597 582
f 605 604 597
f 605 582 601
f 606 605 601
f 607 601 584
f 607 606 601
f 608 604 605
f 608 605 606
f 609 604 608
f 609 585 604
f 610 609 608
f 611 608 586
f 611 610 608
f 611 586 587
f 612 585 609
f 612 609 610
f 612 610 611
f 612 611 587
f 613 575 576
f 613 576 577
f 613 577 585
f 614 613 585
f 614 585 612
f 615 612 587
f 615 614 612
f 615 613 614
f 616 308 307
f 616 309 308
f 616 307 617
f 616 587 309
f 616 615 587
f 616 617 615
f 618 573 574
f 618 574 575
f 618 575 613
f 618 613 615
f 619 615 617
f 619 618 615
f 620 619 617
f 621 305 572
f 621 572 573
f 621 573 618
f 621 618 619
f 621 619 620
f 622 306 305
f 622 307 306
f 622 617 307
f 622 620 617
f 622 621 620
f 622 305 621
f 623 312 311
f 623 584 312
f 623 607 584
f 624 623 311
f 624 607 623
f 625 608 606
f 625 606 607
f 625 586 608
f 625 311 586
f 625 607 624
f 625 624 311
f 634 629 630
f 634 630 631
f 635 633 561
f 635 561 579
f 636 634 631
f 637 297 296
f 638 579 578
f 638 635 579
f 639 299 298
f 639 300 299
f 640 578 577
f 641 301 300
f 641 300 639
f 642 577 576
f 642 640 577
f 643 302 301
f 643 301 641
f 644 303 302
f 645 631 632
f 645 632 633
f 645 636 631
f 645 633 635
f 646 627 628
f 646 628 629
f 647 626 627
f 647 627 646
f 648 647 646
f 649 647 648
f 649 295 626
f 649 296 295
f 649 626 647
f 650 646 629
f 650 629 634
f 650 648 646
f 650 634 636
f 651 636 645
f 651 645 635
f 652 648 650
f 653 636 651
f 653 651 635
f 654 578 640
f 654 635 638
f 654 638 578
f 655 650 636
f 655 652 650
f 655 639 656
f 655 656 652
f 657 653 635
f 657 654 640
f 657 635 654
f 658 653 659
f 658 655 636
f 658 636 653
f 660 659 653
f 660 657 640
f 660 640 659
f 660 653 657
f 661 655 658
f 662 655 661
f 662 641 639
f 662 639 655
f 663 661 658
f 663 658 659
f 663 662 661
f 664 659 640
f 664 663 659
f 665 663 664
f 666 662 663
f 666 663 665
f 666 643 641
f 666 641 662
f 667 665 664
f 667 666 665
f 667 643 666
f 667 664 640
f 668 667 640
f 668 640 642
f 669 667 668
f 670 643 667
f 670 667 669
f 671 669 668
f 672 576 575
f 672 671 668
f 672 642 576
f 672 668 642
f 673 671 672
f 674 574 573
f 674 575 574
f 674 672 575
f 674 673 672
f 675 673 674
f 676 304 303
f 676 303 644
f 677 572 305
f 677 573 572
f 677 305 304
f 677 674 573
f 677 304 676
f 677 675 674
f 677 676 675
f 678 296 649
f 678 637 296
f 678 649 648
f 679 652 656
f 679 648 652
f 679 678 648
f 680 679 656
f 681 297 637
f 681 637 678
f 681 678 679
f 681 679 680
f 682 680 656
f 682 681 680
f 683 298 297
f 683 297 681
f 683 681 682
f 684 683 682
f 684 656 639
f 684 298 683
f 684 639 298
f 684 682 656
f 685 643 670
f 685 302 643
f 686 302 685
f 686 685 670
f 686 644 302
f 687 686 670
f 687 644 686
f 687 670 669
f 687 669 671
f 687 673 675
f 687 676 644
f 687 675 676
f 687 671 673
f 699 627 626
f 699 628 627
f 700 626 295
f 700 295 353
f 700 699 626
f 701 353 352
f 701 700 353
f 702 700 701
f 703 700 702
f 703 628 699
f 703 699 700
f 704 703 702
f 705 629 628
f 705 628 703
f 706 703 704
f 706 705 703
f 707 630 629
f 707 629 705
f 708 707 705
f 708 705 706
f 709 702 701
f 709 704 702
f 709 701 352
f 709 706 704
f 710 708 706
f 710 706 709
f 711 633 632
f 712 561 633
f 712 698 561
f 712 633 711
f 712 711 713
f 714 349 348
f 714 350 349
f 715 350 714
f 716 697 698
f 716 698 712
f 716 712 713
f 717 715 714
f 717 718 715
f 719 717 714
f 719 714 348
f 720 348 688
f 720 688 689
f 720 719 348
f 721 717 719
f 721 718 717
f 721 720 689
f 721 719 720
f 722 723 724
f 722 725 723
f 726 692 693
f 726 722 724
f 726 724 727
f 726 727 692
f 728 725 722
f 729 693 694
f 729 726 693
f 729 722 726
f 729 728 722
f 730 694 695
f 730 695 696
f 730 696 725
f 730 729 694
f 730 725 728
f 730 728 729
f 731 352 351
f 732 352 731
f 732 709 352
f 732 710 709
f 733 732 731
f 734 708 710
f 735 710 732
f 735 732 733
f 735 734 710
f 736 715 718
f 737 738 739
f 737 711 738
f 737 713 711
f 740 713 737
f 741 742 739
f 743 716 713
f 743 697 716
f 743 713 740
f 744 736 718
f 744 745 736
f 744 742 741
f 744 741 745
f 746 718 721
f 746 744 718
f 747 742 744
f 747 744 746
f 748 697 743
f 749 696 697
f 749 697 748
f 749 725 696
f 749 723 725
f 750 721 689
f 750 689 690
f 750 746 721
f 750 747 746
f 751 723 749
f 752 727 724
f 753 723 751
f 753 751 752
f 753 752 724
f 753 724 723
f 754 690 691
f 754 691 692
f 754 692 727
f 754 750 690
f 755 631 630
f 755 632 631
f 755 630 707
f 755 707 708
f 755 711 632
f 755 708 734
f 755 738 711
f 755 734 738
f 756 733 731
f 756 731 351
f 756 735 733
f 756 757 735
f 758 351 350
f 758 756 351
f 759 756 758
f 760 757 756
f 760 756 759
f 760 736 757
f 761 759 758
f 761 760 759
f 761 736 760
f 761 715 736
f 761 350 715
f 761 758 350
f 762 739 738
f 762 734 735
f 762 735 757
f 762 757 736
f 762 736 745
f 762 741 739
f 762 745 741
f 762 738 734
f 763 748 743
f 763 749 748
f 763 751 749
f 763 742 751
f 763 739 742
f 763 737 739
f 763 740 737
f 763 743 740
f 764 747 750
f 764 752 751
f 764 751 742
f 764 742 747
f 765 727 752
f 765 752 764
f 765 764 750
f 765 754 727
f 765 750 754
f 782 169 170
f 694 785 695
f 788 782 783
f 788 169 782
f 789 168 169
f 789 169 788
f 790 167 168
f 790 168 789
f 791 788 783
f 791 789 788
f 792 790 789
f 792 789 791
f 793 784 785
f 793 785 694
f 794 795 796
f 794 797 795
f 798 799 800
f 798 800 793
f 798 693 692
f 798 694 693
f 798 793 694
f 801 797 794
f 802 799 798
f 802 692 691
f 802 798 692
f 803 797 801
f 803 804 797
f 805 801 794
f 805 803 801
f 806 804 803
f 807 804 806
f 808 803 805
f 808 807 806
f 808 806 803
f 809 807 808
f 809 810 807
f 809 811 810
f 812 813 814
f 812 814 811
f 812 815 813
f 816 811 809
f 816 812 811
f 817 815 812
f 818 819 815
f 818 815 817
f 820 817 812
f 820 812 816
f 821 775 776
f 822 819 818
f 823 775 821
f 824 825 819
f 824 819 822
f 826 817 820
f 826 818 817
f 827 823 821
f 827 821 828
f 829 773 774
f 829 774 775
f 829 775 823
f 830 825 824
f 831 823 827
f 831 829 823
f 832 827 828
f 833 831 827
f 833 827 832
f 834 772 773
f 834 773 829
f 834 829 831
f 834 831 833
f 835 771 772
f 835 834 833
f 835 772 834
f 836 832 828
f 837 770 771
f 837 771 835
f 837 833 832
f 837 835 833
f 838 769 770
f 838 770 837
f 838 832 836
f 838 837 832
f 839 342 341
f 840 767 768
f 841 839 341
f 841 842 839
f 841 341 340
f 841 843 842
f 844 840 843
f 844 841 340
f 844 843 841
f 845 339 766
f 845 766 767
f 845 340 339
f 845 840 844
f 845 767 840
f 845 844 340
f 846 796 795
f 846 795 847
f 848 791 783
f 848 792 791
f 848 783 784
f 848 846 792
f 848 796 846
f 849 848 784
f 849 796 848
f 850 800 799
f 850 793 800
f 850 784 793
f 850 849 784
f 851 162 163
f 852 805 794
f 852 794 796
f 852 796 849
f 852 849 850
f 853 852 850
f 854 850 799
f 854 853 850
f 854 799 802
f 855 691 690
f 855 853 854
f 855 802 691
f 855 805 852
f 855 852 853
f 855 854 802
f 856 857 858
f 856 781 162
f 856 851 857
f 856 162 851
f 856 858 814
f 859 780 781
f 859 781 856
f 860 856 814
f 860 859 856
f 861 858 857
f 861 857 804
f 861 814 858
f 862 860 814
f 862 859 860
f 862 814 813
f 863 814 861
f 863 804 807
f 863 807 810
f 863 810 811
f 863 811 814
f 863 861 804
f 864 859 862
f 865 780 859
f 865 779 780
f 866 859 864
f 866 865 859
f 867 864 862
f 867 862 813
f 867 866 864
f 867 813 815
f 868 865 866
f 868 866 867
f 869 778 779
f 869 779 865
f 870 865 868
f 870 869 865
f 871 808 805
f 872 815 819
f 872 867 815
f 872 868 867
f 872 870 868
f 873 869 870
f 874 809 808
f 874 689 688
f 874 871 689
f 874 808 871
f 875 777 778
f 875 778 869
f 876 869 873
f 876 875 869
f 877 873 870
f 877 872 819
f 877 870 872
f 877 876 873
f 877 819 825
f 878 809 874
f 878 874 688
f 879 875 876
f 879 877 825
f 879 876 877
f 880 776 777
f 880 821 776
f 881 880 777
f 881 875 879
f 881 777 875
f 882 688 348
f 882 878 688
f 882 809 878
f 882 816 809
f 883 882 348
f 883 816 882
f 884 879 825
f 884 881 879
f 885 828 821
f 885 821 880
f 885 880 881
f 885 881 884
f 886 884 825
f 886 885 884
f 887 348 347
f 887 883 348
f 887 816 883
f 887 820 816
f 888 886 825
f 889 828 885
f 889 885 886
f 889 836 828
f 889 886 888
f 890 820 887
f 891 824 822
f 891 818 826
f 891 830 824
f 891 822 818
f 892 825 830
f 892 830 893
f 892 888 825
f 894 826 820
f 894 820 890
f 895 894 890
f 896 890 887
f 896 895 890
f 896 347 787
f 896 887 347
f 897 888 892
f 897 892 893
f 897 893 898
f 897 836 889
f 897 889 888
f 899 894 895
f 900 826 894
f 900 894 899
f 901 900 899
f 901 899 895
f 901 895 896
f 901 896 787
f 901 787 345
f 902 900 901
f 902 903 900
f 902 901 345
f 902 345 344
f 904 893 830
f 904 898 893
f 904 830 891
f 905 836 897
f 905 838 836
f 905 897 898
f 906 904 903
f 906 903 902
f 906 902 344
f 906 344 786
f 907 768 769
f 907 769 838
f 907 838 905
f 908 768 907
f 908 898 842
f 908 905 898
f 908 907 905
f 908 840 768
f 908 842 843
f 908 843 840
f 909 790 792
f 909 166 167
f 909 167 790
f 909 792 846
f 909 847 166
f 909 846 847
f 910 164 165
f 910 165 166
f 910 166 847
f 911 805 855
f 911 690 689
f 911 689 871
f 911 855 690
f 911 871 805
f 912 903 904
f 912 826 900
f 912 900 903
f 912 904 891
f 912 891 826
f 913 898 904
f 913 842 898
f 913 839 842
f 914 913 904
f 914 904 906
f 914 786 342
f 914 906 786
f 914 342 839
f 914 839 913
f 915 163 164
f 915 164 910
f 916 163 915
f 916 915 910
f 916 851 163
f 917 797 804
f 917 910 847
f 917 795 797
f 917 847 795
f 917 916 910
f 918 917 804
f 918 851 916
f 918 916 917
f 918 804 857
f 918 857 851
f 925 695 785
f 773 932 774
f 933 782 170
f 933 783 782
f 933 170 187
f 934 933 187
f 935 187 188
f 935 934 187
f 936 933 934
f 936 783 933
f 937 934 935
f 937 936 934
f 938 785 784
f 939 940 941
f 939 941 942
f 943 924 925
f 943 785 938
f 943 925 785
f 944 923 924
f 944 945 946
f 944 938 945
f 944 924 943
f 944 943 938
f 947 939 942
f 948 922 923
f 948 944 946
f 948 923 944
f 949 947 942
f 949 942 950
f 951 939 947
f 951 947 949
f 952 949 950
f 953 950 954
f 953 952 950
f 955 953 954
f 956 951 949
f 956 949 952
f 956 952 953
f 957 955 954
f 958 953 955
f 958 956 953
f 958 955 957
f 958 957 959
f 960 958 959
f 961 962 963
f 964 961 963
f 964 963 965
f 966 964 965
f 967 930 931
f 968 967 931
f 968 931 932
f 969 965 970
f 969 966 965
f 971 967 968
f 972 967 971
f 973 932 773
f 973 968 932
f 974 969 970
f 975 971 968
f 975 968 973
f 976 971 975
f 977 972 971
f 977 971 976
f 978 976 975
f 978 973 773
f 978 975 973
f 978 773 772
f 979 974 970
f 980 976 978
f 980 978 772
f 980 772 771
f 981 972 977
f 982 976 980
f 982 977 976
f 982 980 771
f 982 771 770
f 983 981 977
f 983 977 982
f 983 982 770
f 983 770 769
f 984 486 485
f 985 487 486
f 985 486 984
f 985 986 987
f 985 984 986
f 988 767 766
f 988 768 767
f 989 487 985
f 989 985 987
f 989 987 990
f 991 339 487
f 991 766 339
f 991 487 989
f 991 988 766
f 991 990 988
f 991 989 990
f 992 188 189
f 992 935 188
f 993 937 935
f 993 935 992
f 994 992 189
f 994 941 993
f 994 993 992
f 995 937 993
f 995 993 941
f 996 936 937
f 996 784 783
f 996 937 995
f 996 783 936
f 997 784 996
f 998 946 945
f 998 945 938
f 998 938 784
f 998 784 997
f 999 939 951
f 999 940 939
f 1000 192 193
f 1000 193 186
f 1001 998 999
f 1002 946 998
f 1002 998 1001
f 1002 948 946
f 1003 186 926
f 1004 1002 1001
f 1004 948 1002
f 1004 921 922
f 1004 999 951
f 1004 922 948
f 1004 1001 999
f 1005 954 1000
f 1006 186 1003
f 1006 962 1005
f 1006 1005 1000
f 1006 1000 186
f 1007 1006 1003
f 1008 1005 962
f 1008 954 1005
f 1008 957 954
f 1008 962 959
f 1008 959 957
f 1009 1003 926
f 1009 926 927
f 1009 1007 1003
f 1010 1007 1009
f 1011 962 1006
f 1011 1006 1007
f 1011 1007 1010
f 1011 963 962
f 1012 1010 1009
f 1012 1011 1010
f 1013 1012 1009
f 1013 1009 927
f 1013 927 928
f 1014 951 956
f 1015 1012 1013
f 1016 1012 1015
f 1016 963 1011
f 1016 1011 1012
f 1016 965 963
f 1017 1015 1013
f 1018 919 920
f 1018 1014 956
f 1018 956 958
f 1018 920 1014
f 1019 959 962
f 1019 960 959
f 1019 962 961
f 1019 1020 960
f 1019 961 1020
f 1021 928 929
f 1021 1013 928
f 1021 1017 1013
f 1022 1017 1021
f 1023 970 965
f 1023 1016 1015
f 1023 1015 1017
f 1023 965 1016
f 1023 1017 1022
f 1024 480 919
f 1024 1018 958
f 1024 919 1018
f 1025 970 1023
f 1025 1022 1021
f 1025 1023 1022
f 1026 929 930
f 1026 930 967
f 1027 480 1024
f 1027 1024 958
f 1027 958 960
f 1028 1021 929
f 1028 1025 1021
f 1028 1026 967
f 1028 929 1026
f 1029 480 1027
f 1029 1027 960
f 1030 970 1025
f 1030 1025 1028
f 1031 966 969
f 1031 961 964
f 1031 1020 961
f 1031 964 966
f 1032 967 972
f 1032 1028 967
f 1032 1030 1028
f 1033 970 1030
f 1033 1030 1032
f 1034 481 480
f 1034 480 1029
f 1034 1029 960
f 1034 960 1020
f 1035 972 981
f 1035 1032 972
f 1035 1033 1032
f 1036 970 1033
f 1036 1035 981
f 1036 1033 1035
f 1037 1034 1020
f 1038 979 970
f 1038 970 1036
f 1039 1037 1020
f 1040 1038 1036
f 1040 1041 979
f 1040 979 1038
f 1040 1036 981
f 1042 1034 1037
f 1042 482 481
f 1042 1039 482
f 1042 1037 1039
f 1042 481 1034
f 1043 969 974
f 1043 1031 969
f 1044 1045 1043
f 1046 1040 981
f 1046 981 983
f 1046 1041 1040
f 1047 1044 1043
f 1048 979 1041
f 1049 1045 1044
f 1049 1044 1047
f 1050 1041 1046
f 1050 1046 983
f 1051 1048 986
f 1051 1049 1047
f 1051 986 984
f 1052 1050 983
f 1052 769 768
f 1052 983 769
f 1053 1048 1041
f 1053 1041 1050
f 1053 986 1048
f 1053 1050 1052
f 1053 1052 768
f 1053 987 986
f 1053 990 987
f 1053 768 988
f 1053 988 990
f 1054 189 190
f 1054 190 191
f 1054 994 189
f 1055 941 940
f 1055 995 941
f 1055 996 995
f 1055 997 996
f 1056 997 1055
f 1056 999 998
f 1056 1055 940
f 1056 998 997
f 1056 940 999
f 1057 1004 951
f 1057 920 921
f 1057 921 1004
f 1057 1014 920
f 1057 951 1014
f 1058 1039 1020
f 1058 1043 1045
f 1058 1031 1043
f 1058 1020 1031
f 1059 482 1039
f 1059 483 482
f 1059 1039 1058
f 1059 1049 483
f 1059 1045 1049
f 1059 1058 1045
f 1060 974 979
f 1060 979 1048
f 1060 1047 1043
f 1060 1048 1051
f 1060 1051 1047
f 1060 1043 974
f 1061 484 483
f 1061 485 484
f 1061 483 1049
f 1061 1049 1051
f 1061 984 485
f 1061 1051 984
f 1062 994 1054
f 1062 941 994
f 1062 950 942
f 1062 1054 191
f 1062 942 941
f 1063 192 1000
f 1063 191 192
f 1063 954 950
f 1063 950 1062
f 1063 1062 191
f 1063 1000 954
f 698 562 561
f 1064 476 475
f 1065 566 565
f 1066 564 563
f 1066 565 564
f 1066 1065 565
f 1067 563 562
f 1067 698 697
f 1067 1066 563
f 1067 562 698
f 1068 571 570
f 1068 315 571
f 1068 475 315
f 1069 569 568
f 1069 570 569
f 1069 1068 570
f 1070 1068 1069
f 1070 475 1068
f 1070 1064 475
f 1070 1069 1071
f 1070 1071 1064
f 1072 568 567
f 1072 1071 1069
f 1072 1069 568
f 1073 1064 1071
f 1074 476 1064
f 1074 1064 1073
f 1075 1074 1073
f 1076 567 566
f 1076 566 1065
f 1076 1071 1072
f 1076 1072 567
f 1077 477 476
f 1077 478 477
f 1077 476 1074
f 1078 1074 1075
f 1078 1077 1074
f 1079 1078 1075
f 1079 1073 1071
f 1079 1075 1073
f 1080 1078 1079
f 1081 479 1082
f 1081 919 480
f 1081 920 919
f 1081 1082 1083
f 1081 480 479
f 1084 1085 1086
f 1087 1067 697
f 1087 1066 1067
f 1088 921 920
f 1088 1089 1085
f 1090 921 1088
f 1090 1088 1085
f 1090 1084 1091
f 1090 1085 1084
f 1092 1090 1091
f 1093 697 696
f 1093 1092 1094
f 1093 1094 1087
f 1093 696 1092
f 1093 1087 697
f 1095 924 923
f 1096 1092 696
f 1096 1097 1092
f 1098 925 924
f 1098 1095 1097
f 1098 1097 1096
f 1098 924 1095
f 1099 696 695
f 1099 695 925
f 1099 1096 696
f 1099 925 1098
f 1099 1098 1096
f 1100 1076 1065
f 1100 1071 1076
f 1101 1071 1100
f 1101 1079 1071
f 1101 1080 1079
f 1102 1100 1065
f 1102 1101 1100
f 1103 1080 1104
f 1103 1078 1080
f 1103 1082 479
f 1103 1083 1082
f 1103 479 478
f 1103 478 1077
f 1103 1077 1078
f 1103 1104 1083
f 1105 1066 1086
f 1105 1065 1066
f 1105 1080 1101
f 1105 1101 1102
f 1105 1102 1065
f 1106 1104 1080
f 1106 1105 1086
f 1106 1089 1104
f 1106 1085 1089
f 1106 1086 1085
f 1106 1080 1105
f 1107 1104 1089
f 1107 1089 1088
f 1107 1083 1104
f 1108 1086 1066
f 1108 1066 1087
f 1108 1087 1094
f 1109 1086 1108
f 1109 1084 1086
f 1109 1094 1092
f 1109 1091 1084
f 1109 1092 1091
f 1109 1108 1094
f 1110 1088 920
f 1110 1107 1088
f 1110 1081 1083
f 1110 920 1081
f 1110 1083 1107
f 1111 1090 1092
f 1111 1092 1097
f 1111 1097 1095
f 1112 922 921
f 1112 923 922
f 1112 921 1090
f 1112 1090 1111
f 1112 1095 923
f 1112 1111 1095
f 171 162 781
f 1125 781 780
f 1125 171 781
f 1124 780 779
f 1124 1125 780
f 1123 778 777
f 1123 779 778
f 1123 1124 779
f 1122 777 776
f 1122 1123 777
f 1121 776 775
f 1121 1122 776
f 1120 775 774
f 1120 1121 775
f 1119 774 932
f 1119 1120 774
f 1118 932 931
f 1118 1119 932
f 1117 931 930
f 1117 1118 931
f 1116 929 928
f 1116 930 929
f 1116 1117 930
f 1115 928 927
f 1115 1116 928
f 1114 927 926
f 1114 1115 927
f 1113 926 186
f 1113 1114 926
f 185 1113 186
f 1145 1146 1174
f 1173 1145 1174
f 1175 1146 1147
f 1175 1174 1146
f 1144 1145 1173
f 1172 1144 1173
f 1176 1147 1148
f 1176 1175 1147
f 1143 1144 1172
f 1171 1143 1172
f 1157 1148 1149
f 1157 1176 1148
f 1170 1142 1143
f 1170 1143 1171
f 1150 1157 1149
f 1158 1157 1150
f 1169 1141 1142
f 1169 1142 1170
f 1151 1158 1150
f 1159 1158 1151
f 1168 1141 1169
f 1168 1140 1141
f 1152 1159 1151
f 1160 1159 1152
f 1167 1140 1168
f 1139 1140 1167
f 1153 1160 1152
f 1161 1160 1153
f 1166 1139 1167
f 1138 1139 1166
f 1154 1161 1153
f 1162 1161 1154
f 1155 1162 1154
f 1165 1138 1166
f 1137 1138 1165
f 1163 1162 1155
f 1156 1126 1163
f 1156 1163 1155
f 1127 1163 1126
f 1136 1137 1165
f 1136 1165 1164
f 1177 1127 1128
f 1177 1128 1129
f 1135 1136 1164
f 1135 1164 1182
f 1130 1177 1129
f 1178 1177 1130
f 1134 1182 1181
f 1134 1135 1182
f 1131 1178 1130
f 1179 1178 1131
f 1133 1181 1180
f 1133 1134 1181
f 1132 1180 1179
f 1132 1179 1131
f 1132 1133 1180
f 1214 1201 1200
f 1215 1201 1214
f 1213 1214 1200
f 1202 1201 1215
f 1199 1213 1200
f 1216 1202 1215
f 1212 1213 1199
f 1203 1202 1216
f 1198 1212 1199
f 1217 1203 1216
f 1204 1203 1217
f 1211 1198 1197
f 1211 1212 1198
f 1218 1204 1217
f 1196 1211 1197
f 1205 1204 1218
f 1236 1211 1196
f 1219 1205 1218
f 1206 1205 1219
f 1195 1236 1196
f 1235 1236 1195
f 1220 1206 1219
f 1207 1206 1220
f 1194 1235 1195
f 1234 1235 1194
f 1221 1207 1220
f 1208 1207 1221
f 1193 1234 1194
f 1233 1234 1193
f 1222 1208 1221
f 1209 1208 1222
f 1192 1233 1193
f 1232 1233 1192
f 1223 1209 1222
f 1210 1209 1223
f 1191 1232 1192
f 1231 1232 1191
f 1224 1210 1223
f 1183 1210 1224
f 1190 1231 1191
f 1230 1231 1190
f 1184 1183 1224
f 1189 1230 1190
f 1225 1184 1224
f 1229 1230 1189
f 1185 1184 1225
f 1188 1229 1189
f 1226 1185 1225
f 1228 1229 1188
f 1186 1185 1226
f 1186 1226 1227
f 1187 1228 1188
f 1187 1227 1228
f 1187 1186 1227
f 1245 223 222
f 1245 222 1237
f 1246 1237 1238
f 1246 1245 1237
f 1247 1238 1239
f 1247 1246 1238
f 1248 1239 1240
f 1248 1247 1239
f 1249 1240 1241
f 1249 1241 1242
f 1249 1248 1240
f 1250 1242 1243
f 1250 1249 1242
f 1244 1250 1243
f 1297 1271 1270
f 1298 1270 1269
f 1298 1297 1270
f 1296 1272 1271
f 1296 1271 1297
f 1299 1269 1268
f 1299 1298 1269
f 1295 1253 1272
f 1295 1272 1296
f 1300 1268 1267
f 1300 1299 1268
f 1294 1253 1295
f 1254 1253 1294
f 1301 1267 1266
f 1301 1300 1267
f 1293 1254 1294
f 1255 1254 1293
f 1302 1266 1265
f 1302 1301 1266
f 1292 1255 1293
f 1303 1265 1264
f 1303 1302 1265
f 1256 1255 1292
f 1291 1256 1292
f 1304 1303 1264
f 1263 1304 1264
f 1257 1256 1291
f 1290 1257 1291
f 1262 1304 1263
f 1262 1305 1304
f 1258 1257 1290
f 1289 1258 1290
f 1306 1305 1262
f 1259 1289 1288
f 1259 1258 1289
f 1261 1306 1262
f 1252 1259 1288
f 1252 1288 1287
f 1251 1259 1252
f 1260 1306 1261
f 1260 1281 1306
f 1280 1252 1287
f 1279 1281 1260
f 1279 1282 1281
f 1274 1273 1280
f 1274 1287 1286
f 1274 1280 1287
f 1278 1282 1279
f 1278 1283 1282
f 1275 1286 1285
f 1275 1274 1286
f 1277 1284 1283
f 1277 1283 1278
f 1276 1275 1285
f 1276 1285 1284
f 1276 1284 1277
f 1342 1327 1328
f 1343 1342 1328
f 1341 1327 1342
f 1326 1327 1341
f 1329 1343 1328
f 1344 1343 1329
f 1340 1326 1341
f 1325 1326 1340
f 1330 1344 1329
f 1345 1344 1330
f 1331 1345 1330
f 1339 1324 1325
f 1339 1325 1340
f 1346 1345 1331
f 1332 1346 1331
f 1323 1324 1339
f 1363 1323 1339
f 1347 1346 1332
f 1333 1347 1332
f 1322 1323 1363
f 1362 1322 1363
f 1348 1347 1333
f 1334 1348 1333
f 1321 1322 1362
f 1361 1321 1362
f 1349 1348 1334
f 1335 1349 1334
f 1320 1321 1361
f 1360 1320 1361
f 1350 1349 1335
f 1336 1350 1335
f 1319 1320 1360
f 1359 1319 1360
f 1337 1350 1336
f 1351 1350 1337
f 1358 1318 1359
f 1338 1351 1337
f 1338 1307 1351
f 1308 1351 1307
f 1357 1317 1358
f 1352 1308 1309
f 1352 1309 1310
f 1311 1352 1310
f 1356 1316 1357
f 1315 1316 1356
f 1353 1352 1311
f 1312 1353 1311
f 1355 1315 1356
f 1314 1355 1354
f 1314 1315 1355
f 1313 1354 1353
f 1313 1353 1312
f 1313 1314 1354
f 1316 1317 1357
f 1317 1318 1358
f 1318 1319 1359
f 1377 266 252
f 1377 252 1370
f 1376 1370 1369
f 1376 1377 1370
f 1375 1369 1368
f 1375 1376 1369
f 1374 1368 1367
f 1374 1375 1368
f 1373 1367 1366
f 1373 1374 1367
f 1372 1366 1365
f 1372 1373 1366
f 1371 1365 1364
f 1371 1372 1365
f 1419 1405 1404
f 1418 1406 1405
f 1418 1405 1419
f 1420 1403 1402
f 1420 1404 1403
f 1420 1419 1404
f 1408 1402 1401
f 1417 1407 1406
f 1417 1406 1418
f 1421 1420 1402
f 1421 1402 1408
f 1416 1387 1407
f 1416 1407 1417
f 1422 1408 1379
f 1422 1421 1408
f 1386 1379 1378
f 1415 1388 1387
f 1415 1387 1416
f 1423 1379 1386
f 1423 1422 1379
f 1414 1389 1388
f 1414 1388 1415
f 1424 1423 1386
f 1424 1386 1385
f 1413 1389 1414
f 1390 1389 1413
f 1384 1424 1385
f 1425 1424 1384
f 1412 1390 1413
f 1391 1390 1412
f 1383 1425 1384
f 1426 1425 1383
f 1411 1391 1412
f 1392 1391 1411
f 1382 1426 1383
f 1382 1427 1426
f 1410 1392 1411
f 1393 1392 1410
f 1381 1427 1382
f 1381 1428 1427
f 1409 1393 1410
f 1380 1428 1381
f 1380 1429 1428
f 1394 1393 1409
f 1400 1430 1429
f 1400 1429 1380
f 1395 1394 1409
f 1395 1409 1434
f 1399 1430 1400
f 1399 1431 1430
f 1396 1434 1433
f 1396 1395 1434
f 1398 1432 1431
f 1398 1431 1399
f 1397 1396 1433
f 1397 1433 1432
f 1397 1432 1398
f 1435 134 135
f 1435 1447 134
f 1436 1448 1447
f 1436 1449 1448
f 1436 1447 1435
f 1437 1449 1436
f 1438 1450 1449
f 1438 1449 1437
f 1439 1451 1450
f 1439 1452 1451
f 1439 1450 1438
f 1440 1452 1439
f 1441 1453 1452
f 1441 1452 1440
f 1442 1454 1453
f 1442 1453 1441
f 1443 1455 1454
f 1443 1454 1442
f 1444 1456 1455
f 1444 1455 1443
f 1445 1457 1456
f 1445 1456 1444
f 1446 1458 1457
f 1446 1457 1445
f 136 149 1458
f 136 1458 1446
f 1470 1468 1469
f 1472 1470 1471
f 1472 1468 1470
f 1464 1465 1466
f 1464 1466 1467
f 1474 1472 1473
f 1474 1468 1472
f 1462 1463 1464
f 1476 1474 1475
f 1476 1468 1474
f 1477 1467 1468
f 1477 1468 1476
f 1459 1460 1461
f 1459 1461 1462
f 1479 1477 1478
f 1480 1467 1477
f 1480 1477 1479
f 1483 1484 1459
f 1483 1459 1462
f 1481 1464 1467
f 1481 1483 1462
f 1481 1462 1464
f 1481 1467 1480
f 1482 1483 1481
f 1485 106 107
f 1485 1497 106
f 1486 1498 1497
f 1486 1497 1485
f 1487 1499 1498
f 1487 1498 1486
f 1488 1500 1499
f 1488 1499 1487
f 1489 1501 1500
f 1489 1500 1488
f 1490 1502 1501
f 1490 1501 1489
f 1491 1503 1502
f 1491 1502 1490
f 1492 1504 1503
f 1492 1505 1504
f 1492 1503 1491
f 1493 1505 1492
f 1494 1506 1505
f 1494 1505 1493
f 1495 1507 1506
f 1495 1506 1494
f 1496 1508 1507
f 1496 1507 1495
f 108 121 1508
f 108 1508 1496
f 1524 1525 1526
f 1522 1523 1524
f 1529 1526 1527
f 1529 1527 1528
f 1521 1522 1524
f 1520 1521 1524
f 1532 1530 1531
f 1517 1518 1519
f 1517 1519 1520
f 1517 1524 1526
f 1517 1526 1529
f 1517 1520 1524
f 1534 1529 1530
f 1534 1532 1533
f 1534 1530 1532
f 1514 1515 1516
f 1514 1516 1517
f 1514 1534 1509
f 1514 1517 1529
f 1514 1529 1534
f 1511 1509 1510
f 1512 1513 1514
f 1512 1514 1509
f 1512 1509 1511
f 1537 1536 1535
f 1537 1535 1538
f 1540 1543 1542
f 1540 1539 1543
f 1541 1540 1542
f 1544 1547 1546
f 1545 1547 1544
f 1548 1550 1549
f 1548 1551 1550
f 1553 1555 1554
f 1553 1556 1555
f 1552 1556 1553
f 1557 1560 1559
f 1557 1558 1560

