# https://github.com/mikedh/trimesh
mtllib material.mtl

o black_rubber
usemtl material_0
v -0.03439200 0.10096100 -0.00003000
v -0.03338400 0.10096100 -0.00833400
v -0.03041700 0.10096100 -0.01615600
v -0.02566500 0.10096100 -0.02304100
v -0.01940400 0.10096100 -0.02858800
v -0.01199700 0.10096100 -0.03247500
v -0.00387500 0.10096100 -0.03447700
v 0.00449100 0.10096100 -0.03447700
v 0.01261300 0.10096100 -0.03247500
v 0.02002000 0.10096100 -0.02858800
v 0.02628100 0.10096100 -0.02304100
v 0.03103300 0.10096100 -0.01615600
v 0.03400000 0.10096100 -0.00833400
v 0.03500800 0.10096100 -0.00003000
v 0.03500800 0.09396100 -0.00003000
v -0.03439200 0.09396100 -0.00003000
v -0.03338400 0.09396100 -0.00833400
v -0.03041700 0.09396100 -0.01615600
v -0.02566500 0.09396100 -0.02304100
v -0.01940400 0.09396100 -0.02858800
v -0.01199700 0.09396100 -0.03247500
v -0.00387500 0.09396100 -0.03447700
v 0.00449100 0.09396100 -0.03447700
v 0.01261300 0.09396100 -0.03247500
v 0.02002000 0.09396100 -0.02858800
v 0.02628100 0.09396100 -0.02304100
v 0.03103300 0.09396100 -0.01615600
v 0.03400000 0.09396100 -0.00833400
v -0.03339200 0.00000000 0.01140600
v -0.03254700 0.00749900 0.01140600
v -0.03005500 0.01462200 0.01140600
v -0.02604000 0.02101200 0.01140600
v -0.02070400 0.02634800 0.01140600
v -0.01431400 0.03036300 0.01140600
v -0.00719100 0.03285500 0.01140600
v 0.00030800 0.03370000 0.01140600
v 0.00030800 0.03370000 0.00440600
v 0.00030800 -0.03370000 0.00440600
v -0.00775700 -0.03272100 0.00440600
v -0.01535300 -0.02984000 0.00440600
v -0.02203900 -0.02522500 0.00440600
v -0.02742700 -0.01914400 0.00440600
v -0.03120200 -0.01195000 0.00440600
v -0.03314600 -0.00406200 0.00440600
v -0.03314600 0.00406200 0.00440600
v -0.03120200 0.01195000 0.00440600
v -0.02742700 0.01914400 0.00440600
v -0.02203900 0.02522500 0.00440600
v -0.01535300 0.02984000 0.00440600
v -0.00775700 0.03272100 0.00440600
v 0.00030800 -0.03370000 0.01140600
v -0.00719100 -0.03285500 0.01140600
v -0.01431400 -0.03036300 0.01140600
v -0.02070400 -0.02634800 0.01140600
v -0.02604000 -0.02101200 0.01140600
v -0.03005500 -0.01462200 0.01140600
v -0.03254700 -0.00749900 0.01140600
v 0.03400000 0.10096100 0.00827400
v 0.03103300 0.10096100 0.01609600
v 0.02628100 0.10096100 0.02298000
v 0.02002000 0.10096100 0.02852700
v 0.01261300 0.10096100 0.03241500
v 0.00449100 0.10096100 0.03441700
v -0.00387500 0.10096100 0.03441700
v -0.01199700 0.10096100 0.03241500
v -0.01940400 0.10096100 0.02852700
v -0.02566500 0.10096100 0.02298000
v -0.03041700 0.10096100 0.01609600
v -0.03338400 0.10096100 0.00827400
v 0.03400000 0.09396100 0.00827400
v 0.03103300 0.09396100 0.01609600
v 0.02628100 0.09396100 0.02298000
v 0.02002000 0.09396100 0.02852700
v 0.01261300 0.09396100 0.03241500
v 0.00449100 0.09396100 0.03441700
v -0.00387500 0.09396100 0.03441700
v -0.01199700 0.09396100 0.03241500
v -0.01940400 0.09396100 0.02852700
v -0.02566500 0.09396100 0.02298000
v -0.03041700 0.09396100 0.01609600
v -0.03338400 0.09396100 0.00827400
v 0.00837300 0.03272100 0.01140600
v 0.01596900 0.02984000 0.01140600
v 0.02265500 0.02522500 0.01140600
v 0.02804200 0.01914400 0.01140600
v 0.03181800 0.01195000 0.01140600
v 0.03376200 0.00406200 0.01140600
v 0.03376200 -0.00406200 0.01140600
v 0.03181800 -0.01195000 0.01140600
v 0.02804200 -0.01914400 0.01140600
v 0.02265500 -0.02522500 0.01140600
v 0.01596900 -0.02984000 0.01140600
v 0.00837300 -0.03272100 0.01140600
v 0.00837300 0.03272100 0.00440600
v 0.01596900 0.02984000 0.00440600
v 0.02265500 0.02522500 0.00440600
v 0.02804200 0.01914400 0.00440600
v 0.03181800 0.01195000 0.00440600
v 0.03376200 0.00406200 0.00440600
v 0.03376200 -0.00406200 0.00440600
v 0.03181800 -0.01195000 0.00440600
v 0.02804200 -0.01914400 0.00440600
v 0.02265500 -0.02522500 0.00440600
v 0.01596900 -0.02984000 0.00440600
v 0.00837300 -0.03272100 0.00440600
f 17 1 2
f 17 16 1
f 18 2 3
f 18 17 2
f 19 3 4
f 19 4 5
f 19 18 3
f 20 19 5
f 21 5 6
f 21 20 5
f 22 6 7
f 22 7 8
f 22 21 6
f 23 8 9
f 23 22 8
f 24 23 9
f 25 9 10
f 25 24 9
f 26 10 11
f 26 25 10
f 27 11 12
f 27 26 11
f 28 12 13
f 28 27 12
f 15 13 14
f 15 28 13
f 38 51 52
f 39 52 53
f 39 38 52
f 40 53 54
f 40 39 53
f 41 54 55
f 41 40 54
f 42 55 56
f 42 41 55
f 43 56 57
f 43 42 56
f 44 57 29
f 44 43 57
f 45 29 30
f 45 44 29
f 46 30 31
f 46 45 30
f 47 31 32
f 47 46 31
f 48 32 33
f 48 47 32
f 49 33 34
f 49 48 33
f 50 34 35
f 50 49 34
f 37 35 36
f 37 50 35
f 70 15 14
f 70 14 58
f 70 58 59
f 71 70 59
f 72 59 60
f 72 60 61
f 72 71 59
f 73 61 62
f 73 72 61
f 74 73 62
f 75 62 63
f 75 74 62
f 76 63 64
f 76 75 63
f 77 64 65
f 77 65 66
f 77 76 64
f 78 66 67
f 78 77 66
f 79 78 67
f 80 67 68
f 80 79 67
f 81 68 69
f 81 69 1
f 81 80 68
f 16 81 1
f 94 37 36
f 94 36 82
f 95 82 83
f 95 94 82
f 96 83 84
f 96 84 85
f 96 95 83
f 97 96 85
f 98 85 86
f 98 97 85
f 99 86 87
f 99 98 86
f 100 87 88
f 100 88 89
f 100 99 87
f 101 100 89
f 102 89 90
f 102 90 91
f 102 101 89
f 103 102 91
f 104 91 92
f 104 103 91
f 105 92 93
f 105 104 92
f 38 93 51
f 38 105 93

o white_cover
usemtl material_1
v 0.03130800 0.09350000 -0.00003000
v 0.03130800 0.10350000 -0.00003000
v -0.03069200 0.10350000 -0.00003000
v -0.02979100 0.10350000 0.00738900
v -0.02714100 0.10350000 0.01437600
v -0.02289600 0.10350000 0.02052700
v -0.01730200 0.10350000 0.02548200
v -0.01068500 0.10350000 0.02895500
v -0.00342900 0.10350000 0.03074400
v 0.00404500 0.10350000 0.03074400
v 0.01130100 0.10350000 0.02895500
v 0.01791800 0.10350000 0.02548200
v 0.02351200 0.10350000 0.02052700
v 0.02775700 0.10350000 0.01437600
v 0.03040700 0.10350000 0.00738900
v -0.03069200 0.09350000 -0.00003000
v -0.02979100 0.09350000 0.00738900
v -0.02714100 0.09350000 0.01437600
v -0.02289600 0.09350000 0.02052700
v -0.01730200 0.09350000 0.02548200
v -0.01068500 0.09350000 0.02895500
v -0.00342900 0.09350000 0.03074400
v 0.00404500 0.09350000 0.03074400
v 0.01130100 0.09350000 0.02895500
v 0.01791800 0.09350000 0.02548200
v 0.02351200 0.09350000 0.02052700
v 0.02775700 0.09350000 0.01437600
v 0.03040700 0.09350000 0.00738900
v 0.00030800 0.03000000 0.00290600
v 0.00030800 0.03000000 0.01290600
v 0.00030800 -0.03000000 0.01290600
v 0.00748700 -0.02912800 0.01290600
v 0.01425000 -0.02656400 0.01290600
v 0.02020200 -0.02245500 0.01290600
v 0.02499700 -0.01704200 0.01290600
v 0.02835800 -0.01063800 0.01290600
v 0.03008900 -0.00361600 0.01290600
v 0.03008900 0.00361600 0.01290600
v 0.02835800 0.01063800 0.01290600
v 0.02499700 0.01704200 0.01290600
v 0.02020200 0.02245500 0.01290600
v 0.01425000 0.02656400 0.01290600
v 0.00748700 0.02912800 0.01290600
v 0.00030800 -0.03000000 0.00290600
v 0.00748700 -0.02912800 0.00290600
v 0.01425000 -0.02656400 0.00290600
v 0.02020200 -0.02245500 0.00290600
v 0.02499700 -0.01704200 0.00290600
v 0.02835800 -0.01063800 0.00290600
v 0.03008900 -0.00361600 0.00290600
v 0.03008900 0.00361600 0.00290600
v 0.02835800 0.01063800 0.00290600
v 0.02499700 0.01704200 0.00290600
v 0.02020200 0.02245500 0.00290600
v 0.01425000 0.02656400 0.00290600
v 0.00748700 0.02912800 0.00290600
v -0.03367700 0.00100000 0.01290600
v -0.03263800 0.00839900 0.01290600
v -0.03000800 0.01539200 0.01290600
v -0.02591400 0.02164200 0.01290600
v -0.02055400 0.02684700 0.01290600
v -0.01418600 0.03075600 0.01290600
v -0.00711800 0.03317900 0.01290600
v 0.00030800 0.03400000 0.01290600
v 0.00030800 0.03400000 0.01140600
v -0.03367700 0.00100000 0.01140600
v -0.03263800 0.00839900 0.01140600
v -0.03000800 0.01539200 0.01140600
v -0.02591400 0.02164200 0.01140600
v -0.02055400 0.02684700 0.01140600
v -0.01418600 0.03075600 0.01140600
v -0.00711800 0.03317900 0.01140600
v 0.00844500 0.03301200 0.01290600
v 0.01610900 0.03010600 0.01290600
v 0.02285400 0.02544900 0.01290600
v 0.02828900 0.01931400 0.01290600
v 0.03209800 0.01205700 0.01290600
v 0.03406000 0.00409800 0.01290600
v 0.03406000 -0.00409800 0.01290600
v 0.03209800 -0.01205700 0.01290600
v 0.02828900 -0.01931400 0.01290600
v 0.02285400 -0.02544900 0.01290600
v 0.01610900 -0.03010600 0.01290600
v 0.00844500 -0.03301200 0.01290600
v 0.00030800 -0.03400000 0.01290600
v 0.00030800 -0.03400000 0.01140600
v 0.00844500 0.03301200 0.01140600
v 0.01610900 0.03010600 0.01140600
v 0.02285400 0.02544900 0.01140600
v 0.02828900 0.01931400 0.01140600
v 0.03209800 0.01205700 0.01140600
v 0.03406000 0.00409800 0.01140600
v 0.03406000 -0.00409800 0.01140600
v 0.03209800 -0.01205700 0.01140600
v 0.02828900 -0.01931400 0.01140600
v 0.02285400 -0.02544900 0.01140600
v 0.01610900 -0.03010600 0.01140600
v 0.00844500 -0.03301200 0.01140600
v 0.00030800 0.10096100 0.03497000
v -0.00734100 0.10096100 0.03412400
v -0.01462000 0.10096100 0.03162700
v -0.02117700 0.10096100 0.02759900
v -0.02669600 0.10096100 0.02223600
v -0.03090900 0.10096100 0.01579600
v -0.03361400 0.10096100 0.00859100
v -0.03467800 0.10096100 0.00097000
v 0.00030800 0.10350000 0.03497000
v -0.03467800 0.10350000 0.00097000
v -0.03361400 0.10350000 0.00859100
v -0.03090900 0.10350000 0.01579600
v -0.02669600 0.10350000 0.02223600
v -0.02117700 0.10350000 0.02759900
v -0.01462000 0.10350000 0.03162700
v -0.00734100 0.10350000 0.03412400
v 0.00030800 0.10096100 -0.03503000
v 0.00868400 0.10096100 -0.03401300
v 0.01657300 0.10096100 -0.03102100
v 0.02351700 0.10096100 -0.02622800
v 0.02911200 0.10096100 -0.01991200
v 0.03303300 0.10096100 -0.01244100
v 0.03505300 0.10096100 -0.00424900
v 0.03505300 0.10096100 0.00418900
v 0.03303300 0.10096100 0.01238100
v 0.02911200 0.10096100 0.01985200
v 0.02351700 0.10096100 0.02616800
v 0.01657300 0.10096100 0.03096100
v 0.00868400 0.10096100 0.03395300
v 0.00030800 0.10350000 -0.03503000
v 0.00868400 0.10350000 0.03395300
v 0.01657300 0.10350000 0.03096100
v 0.02351700 0.10350000 0.02616800
v 0.02911200 0.10350000 0.01985200
v 0.03303300 0.10350000 0.01238100
v 0.03505300 0.10350000 0.00418900
v 0.03505300 0.10350000 -0.00424900
v 0.03303300 0.10350000 -0.01244100
v 0.02911200 0.10350000 -0.01991200
v 0.02351700 0.10350000 -0.02622800
v 0.01657300 0.10350000 -0.03102100
v 0.00868400 0.10350000 -0.03401300
v -0.03467800 0.10096100 -0.00103000
v -0.03361400 0.10096100 -0.00865200
v -0.03090900 0.10096100 -0.01585700
v -0.02669600 0.10096100 -0.02229600
v -0.02117700 0.10096100 -0.02765900
v -0.01462000 0.10096100 -0.03168700
v -0.00734100 0.10096100 -0.03418400
v -0.03467800 0.10350000 -0.00103000
v -0.00734100 0.10350000 -0.03418400
v -0.01462000 0.10350000 -0.03168700
v -0.02117700 0.10350000 -0.02765900
v -0.02669600 0.10350000 -0.02229600
v -0.03090900 0.10350000 -0.01585700
v -0.03361400 0.10350000 -0.00865200
v 0.00030800 0.09396100 0.03497000
v -0.00815400 0.09396100 0.03393100
v -0.01611400 0.09396100 0.03087800
v -0.02247300 0.09396100 0.02654100
v -0.02680300 0.09396000 0.02210600
v -0.03033600 0.09396000 0.01688000
v -0.03309400 0.09396000 0.01042600
v -0.03457400 0.09396000 0.00284200
v -0.03462100 0.09396100 -0.00226600
v -0.03390500 0.09396100 -0.00741300
v -0.03163200 0.09396100 -0.01434200
v -0.02733200 0.09396100 -0.02150200
v -0.02269300 0.09396000 -0.02641100
v -0.01860100 0.09396000 -0.02948300
v -0.01378500 0.09396000 -0.03206800
v -0.00828700 0.09396000 -0.03395800
v -0.00410600 0.09396000 -0.03475100
v 0.00030800 0.09396100 -0.03503000
v 0.00030800 0.08277300 -0.03607100
v 0.00030800 0.07190400 -0.03903200
v 0.00030800 0.05849000 -0.04489200
v 0.00030800 0.04527800 -0.05197500
v -0.00899900 0.04545400 -0.05143000
v -0.01328800 0.04582000 -0.05029000
v -0.01711100 0.04643800 -0.04836800
v -0.02052900 0.04735500 -0.04551800
v -0.02308800 0.04841200 -0.04223000
v -0.02478600 0.04942700 -0.03907300
v -0.02609400 0.05055100 -0.03557900
v -0.02749900 0.05316500 -0.02744900
v -0.02699500 0.05585200 -0.01909300
v -0.02485900 0.05813500 -0.01199400
v -0.02202400 0.05969400 -0.00714400
v -0.01870800 0.06080100 -0.00370100
v -0.01518500 0.06153000 -0.00143700
v -0.01164900 0.06196700 -0.00007600
v -0.00583600 0.06228400 0.00091100
v 0.00030800 0.06233600 0.00107100
v 0.00030800 0.06798900 0.00977300
v 0.00030800 0.07525600 0.02207700
v 0.00030800 0.08009400 0.02836900
v 0.00030800 0.08457900 0.03218800
v 0.00030800 0.08833300 0.03403700
v 0.00030800 0.09105800 0.03473200
v -0.00876600 0.05225400 -0.04759300
v -0.01291400 0.05497000 -0.04511800
v -0.01086000 0.05925300 -0.04335000
v -0.00607400 0.08308800 -0.03545500
v -0.02195600 0.06408200 -0.03512900
v -0.00644100 0.08851800 -0.03462800
v -0.00843100 0.08322000 -0.03493300
v -0.02501600 0.06513100 -0.03122100
v -0.02200500 0.07178400 -0.03175500
v -0.01989300 0.07133500 -0.03356000
v -0.02629400 0.06566900 -0.02905600
v -0.02358000 0.07215600 -0.03015300
v -0.01312300 0.08701200 -0.03280400
v -0.01059900 0.08335500 -0.03430200
v -0.02585300 0.07275200 -0.02733600
v -0.02203000 0.07932700 -0.02917800
v -0.02868200 0.06698000 -0.02327300
v -0.02693700 0.07306800 -0.02571000
v -0.02793400 0.07338300 -0.02399000
v -0.02622600 0.08003800 -0.02477800
v -0.02938000 0.07389400 -0.02093800
v -0.03171100 0.07513900 -0.01179100
v -0.03315800 0.08169600 -0.00818300
v -0.03191300 0.07563400 -0.00716500
v -0.02712900 0.07095800 0.00057700
v -0.03075400 0.07633100 0.00092300
v -0.03160600 0.07599200 -0.00330200
v -0.02938800 0.07002800 -0.00617100
v -0.03330900 0.08209100 -0.00066200
v -0.02401500 0.07153900 0.00571000
v -0.02966300 0.07655800 0.00425800
v -0.02824000 0.07673500 0.00741000
v -0.02666700 0.07685300 0.01009800
v -0.03168500 0.08233900 0.00718100
v -0.00613900 0.06532100 0.00505200
v -0.02484700 0.07692800 0.01258000
v -0.01122700 0.06917300 0.01007500
v -0.02881800 0.08241400 0.01352800
v -0.00882600 0.06914700 0.01069100
v -0.00659900 0.06909700 0.01107200
v -0.02504500 0.08236200 0.01872800
v -0.02280800 0.07696000 0.01482700
v -0.00839300 0.08270000 0.02960100
v -0.01387600 0.08922800 0.03125900
v -0.00864500 0.08675100 0.03217300
v -0.01256400 0.08407200 0.02920500
v -0.01250900 0.08692100 0.03093800
v -0.00571300 0.08601200 0.03247300
v -0.00853200 0.08925300 0.03317000
v -0.00843200 0.09077700 0.03356400
v -0.00415000 0.08911900 0.03399700
v -0.00267200 0.08885500 0.03407900
v -0.01673500 0.06148900 -0.04003500
v -0.01045800 0.07130700 -0.03786800
v -0.01671400 0.08120800 -0.03221200
v -0.02846900 0.06223200 -0.01726200
v -0.02795300 0.06326300 -0.01301400
v -0.03011000 0.06861300 -0.01485700
v -0.03066000 0.07078800 -0.01381600
v -0.03027900 0.07863600 -0.01838600
v -0.03072400 0.08096400 -0.01716900
v -0.03077800 0.08756500 -0.01645700
v -0.03198800 0.08557200 -0.01380600
v -0.01815200 0.07046700 0.00898300
v -0.03328600 0.08623900 0.00602800
v -0.03383000 0.08820100 0.00529600
v -0.02065900 0.07425200 0.01292200
v -0.01610100 0.07653900 0.01936800
v -0.03421200 0.09015100 0.00451300
v -0.03288200 0.08821700 0.00919700
v -0.03086400 0.08626300 0.01306800
v -0.03164400 0.08821000 0.01261000
v -0.01131100 0.07273500 0.01587700
v -0.03228900 0.09015300 0.01195500
v -0.02085000 0.07938700 0.01967700
v -0.03011800 0.08818400 0.01576200
v -0.02744500 0.08619200 0.01880900
v -0.02841300 0.08814300 0.01855000
v -0.00767500 0.07358800 0.01839500
v -0.02922400 0.09009900 0.01811200
v -0.01839600 0.08094200 0.02325900
v -0.02646700 0.08808700 0.02114500
v -0.00819700 0.07590100 0.02182200
v -0.01939500 0.08327400 0.02472100
v -0.02430500 0.08801500 0.02352400
v -0.01255700 0.07954800 0.02500100
v -0.01943600 0.08463900 0.02574000
v -0.02531200 0.09000400 0.02322100
v -0.02010200 0.08571600 0.02596600
v -0.00832200 0.07805400 0.02473400
v -0.01725000 0.08446000 0.02707100
v -0.02113800 0.08842100 0.02654600
v -0.01770400 0.08611600 0.02785200
v -0.00400700 0.07879700 0.02658700
v -0.03390800 0.08596000 -0.00587600
v -0.03419300 0.08803700 -0.00479900
v -0.03439800 0.09006400 -0.00391400
v -0.01620800 0.07353700 0.01488100
v 0.00469000 0.06231700 0.00101200
v 0.00895000 0.06219500 0.00063300
v 0.01297900 0.06189700 -0.00029300
v 0.01700700 0.06132000 -0.00209000
v 0.02062500 0.06042900 -0.00486000
v 0.02361400 0.05924700 -0.00853400
v 0.02589400 0.05781400 -0.01299100
v 0.02740700 0.05618900 -0.01804500
v 0.02811500 0.05444800 -0.02345900
v 0.02800000 0.05267600 -0.02897100
v 0.02751200 0.05159200 -0.03234000
v 0.02670900 0.05055100 -0.03557900
v 0.02387900 0.04850200 -0.04195000
v 0.02137400 0.04743300 -0.04527300
v 0.01837600 0.04658000 -0.04792600
v 0.01535500 0.04601500 -0.04968200
v 0.01204500 0.04562700 -0.05089000
v 0.00633300 0.04532700 -0.05182400
v 0.00848000 0.09396000 -0.03406300
v 0.01565400 0.09396000 -0.03148600
v 0.02162000 0.09396000 -0.02779300
v 0.02735600 0.09396100 -0.02224300
v 0.03179800 0.09396100 -0.01530600
v 0.03400600 0.09396100 -0.00948700
v 0.03499300 0.09396100 -0.00471800
v 0.03528800 0.09396100 0.00113800
v 0.03461100 0.09396100 0.00691700
v 0.03205300 0.09396100 0.01470900
v 0.02795800 0.09396100 0.02142800
v 0.02303000 0.09396000 0.02659100
v 0.01748800 0.09396000 0.03046300
v 0.01130500 0.09396000 0.03319700
v 0.00587700 0.09396000 0.03452400
v 0.02052900 0.06351400 -0.03707200
v 0.02255400 0.06407700 -0.03514700
v 0.00728900 0.08312000 -0.03533800
v 0.00769100 0.08853700 -0.03449700
v 0.01029600 0.08329600 -0.03458800
v 0.02619400 0.06535900 -0.03032000
v 0.02246600 0.07175000 -0.03190000
v 0.02080900 0.07139400 -0.03332500
v 0.02404200 0.07211800 -0.03032000
v 0.02854700 0.06650300 -0.02546500
v 0.01617300 0.08714500 -0.03168300
v 0.01362200 0.08352200 -0.03341800
v 0.02630100 0.07270500 -0.02756800
v 0.02969900 0.06728000 -0.02183400
v 0.02831700 0.07330700 -0.02441500
v 0.02653900 0.07998200 -0.02515700
v 0.02960200 0.07374600 -0.02185500
v 0.03028700 0.07400900 -0.02020600
v 0.03104100 0.07433500 -0.01801900
v 0.03039200 0.08074700 -0.01921000
v 0.03210200 0.07494100 -0.01345000
v 0.03170600 0.07622800 -0.00044000
v 0.02967200 0.07023300 -0.00477400
v 0.03236400 0.07588600 -0.00450500
v 0.03405800 0.08192900 -0.00415300
v 0.03244900 0.07529000 -0.01045600
v 0.03253600 0.07559500 -0.00755700
v 0.02558200 0.07140400 0.00439200
v 0.02847400 0.07074100 -0.00110800
v 0.03090100 0.07644300 0.00250800
v 0.02983000 0.07662400 0.00535600
v 0.03346000 0.08221800 0.00270700
v 0.02806700 0.07680200 0.00883700
v 0.02641700 0.07689600 0.01134700
v 0.00716500 0.06532100 0.00500800
v 0.01280000 0.06917200 0.00976300
v 0.03033100 0.08240700 0.01188800
v 0.01023800 0.06915900 0.01051200
v 0.00765400 0.06910800 0.01101000
v 0.02635400 0.08237900 0.01792300
v 0.02418600 0.07695400 0.01404300
v 0.00898300 0.08269800 0.02960700
v 0.01474100 0.08923600 0.03114800
v 0.00970100 0.08676900 0.03205800
v 0.01314200 0.08406900 0.02921900
v 0.01308700 0.08692000 0.03095200
v 0.00662900 0.08602400 0.03242200
v 0.00958300 0.08926700 0.03305500
v 0.01020900 0.09080400 0.03324500
v 0.00613100 0.08915900 0.03380200
v 0.00420600 0.08888000 0.03399400
v 0.00604200 0.09115400 0.03427200
v 0.01134600 0.05557900 -0.04536400
v 0.01114800 0.06052500 -0.04276700
v 0.00758500 0.06694300 -0.04040800
v 0.01097100 0.06454400 -0.04082000
v 0.01438300 0.06408400 -0.04000900
v 0.01125100 0.07132500 -0.03781200
v 0.01193700 0.07541000 -0.03614500
v 0.01928300 0.08340300 -0.03057700
v 0.02070300 0.08159300 -0.03004900
v 0.02189100 0.08338700 -0.02876100
v 0.02881800 0.06289500 -0.01455100
v 0.02832100 0.06354900 -0.01180400
v 0.02199500 0.09075200 -0.02761600
v 0.03075900 0.06887400 -0.01336000
v 0.03135600 0.07114900 -0.01142600
v 0.03241100 0.07911400 -0.01400100
v 0.03305400 0.08142400 -0.01202300
v 0.03323800 0.08778900 -0.01198300
v 0.03391000 0.08581100 -0.00941900
v 0.01980700 0.07041000 0.00822200
v 0.03491200 0.08816300 0.00171200
v 0.02216400 0.07423100 0.01213700
v 0.01735700 0.07656100 0.01901600
v 0.03264300 0.08626600 0.01028200
v 0.03348200 0.08821800 0.00925100
v 0.03400900 0.09016100 0.00852600
v 0.01247900 0.07275100 0.01569500
v 0.03172900 0.08820300 0.01380100
v 0.02215700 0.07940700 0.01910700
v 0.02880400 0.08621300 0.01776000
v 0.02978600 0.08816300 0.01738500
v 0.03073500 0.09011800 0.01660400
v 0.00868400 0.07360500 0.01831900
v 0.01950900 0.08096500 0.02293300
v 0.02770000 0.08810600 0.02037700
v 0.00917700 0.07591900 0.02174300
v 0.02043400 0.08329400 0.02442400
v 0.02526900 0.08802700 0.02317000
v 0.01351800 0.07956600 0.02486800
v 0.02634900 0.09001500 0.02275800
v 0.02126100 0.08574100 0.02556400
v 0.00917700 0.07806700 0.02468000
v 0.01871000 0.08519800 0.02704100
v 0.02208500 0.08843300 0.02628500
v 0.00460900 0.07879600 0.02658800
v 0.02985100 0.06496400 -0.01820100
v 0.03028900 0.08410000 -0.01892800
v 0.01758700 0.07354300 0.01444500
v 0.02650800 0.08374700 -0.02434200
v 0.00030800 0.09396100 -0.03503000
v 0.00848000 0.09396000 -0.03406300
v 0.01565400 0.09396000 -0.03148600
v 0.02162000 0.09396000 -0.02779300
v 0.02735600 0.09396100 -0.02224300
v 0.03179800 0.09396100 -0.01530600
v 0.03400600 0.09396100 -0.00948700
v 0.03499300 0.09396100 -0.00471800
v 0.03528800 0.09396100 0.00113800
v 0.03461100 0.09396100 0.00691700
v 0.03205300 0.09396100 0.01470900
v 0.02795800 0.09396100 0.02142800
v 0.02303000 0.09396000 0.02659100
v 0.01748800 0.09396000 0.03046300
v 0.01130500 0.09396000 0.03319700
v 0.00587700 0.09396000 0.03452400
v 0.00030800 0.09396100 0.03497000
v -0.00815400 0.09396100 0.03393100
v -0.01611400 0.09396100 0.03087800
v -0.02247300 0.09396100 0.02654100
v -0.02680300 0.09396000 0.02210600
v -0.03033600 0.09396000 0.01688000
v -0.03309400 0.09396000 0.01042600
v -0.03457400 0.09396000 0.00284200
v -0.03462100 0.09396100 -0.00226600
v -0.03390500 0.09396100 -0.00741300
v -0.03163200 0.09396100 -0.01434200
v -0.02733200 0.09396100 -0.02150200
v -0.02269300 0.09396000 -0.02641100
v -0.01860100 0.09396000 -0.02948300
v -0.01378500 0.09396000 -0.03206800
v -0.00828700 0.09396000 -0.03395800
v -0.00410600 0.09396000 -0.03475100
v -0.03439200 0.09396100 -0.00003000
v -0.03338400 0.09396100 -0.00833400
v -0.03041700 0.09396100 -0.01615600
v -0.02566500 0.09396100 -0.02304100
v -0.01940400 0.09396100 -0.02858800
v -0.01199700 0.09396100 -0.03247500
v -0.00387500 0.09396100 -0.03447700
v 0.00449100 0.09396100 -0.03447700
v 0.01261300 0.09396100 -0.03247500
v 0.02002000 0.09396100 -0.02858800
v 0.02628100 0.09396100 -0.02304100
v 0.03103300 0.09396100 -0.01615600
v 0.03400000 0.09396100 -0.00833400
v 0.03500800 0.09396100 -0.00003000
v 0.03400000 0.09396100 0.00827400
v 0.03103300 0.09396100 0.01609600
v 0.02628100 0.09396100 0.02298000
v 0.02002000 0.09396100 0.02852700
v 0.01261300 0.09396100 0.03241500
v 0.00449100 0.09396100 0.03441700
v -0.00387500 0.09396100 0.03441700
v -0.01199700 0.09396100 0.03241500
v -0.01940400 0.09396100 0.02852700
v -0.02566500 0.09396100 0.02298000
v -0.03041700 0.09396100 0.01609600
v -0.03338400 0.09396100 0.00827400
v -0.02749900 0.05316500 -0.02744900
v -0.01518500 0.06153000 -0.00143700
v -0.02724700 0.04068700 -0.03996300
v -0.02851600 0.03395700 -0.04350500
v -0.02988400 0.02758300 -0.04691400
v -0.03110400 0.02186700 -0.04975800
v -0.03225900 0.01575300 -0.05233600
v -0.03330000 0.00803200 -0.05458200
v -0.03369200 0.00000000 -0.05541400
v -0.03369200 0.00000000 0.00440600
v -0.03347100 0.00395700 0.00440600
v -0.03281500 0.00783700 0.00440600
v -0.03172500 0.01164300 0.00440600
v -0.03021200 0.01528200 0.00440500
v -0.02828000 0.01870600 0.00440600
v -0.02597900 0.02187400 0.00440500
v -0.02327900 0.02482800 0.00440600
v -0.02027500 0.02741700 0.00440600
v -0.01421000 0.03103800 0.00440600
v -0.00817000 0.03304700 0.00440600
v -0.00395400 0.03375500 0.00440500
v 0.00030800 0.03400000 0.00440600
v 0.00030800 0.03421500 0.00132300
v 0.00030800 0.03508900 -0.00140900
v 0.00030800 0.03659200 -0.00386200
v 0.00030800 0.03862400 -0.00587900
v 0.00030800 0.04115400 -0.00739200
v 0.00030800 0.04398400 -0.00824300
v 0.00030800 0.04694500 -0.00839000
v 0.00030800 0.04985900 -0.00799700
v 0.00030800 0.05257600 -0.00713300
v 0.00030800 0.05515300 -0.00580200
v 0.00030800 0.05811100 -0.00356800
v 0.00030800 0.06025000 -0.00143900
v -0.00101400 0.03417600 0.00148200
v -0.02163400 0.05761300 -0.00857600
v -0.03132700 0.01296500 0.00061300
v -0.02327800 0.05160600 -0.01441800
v -0.03354400 0.00336600 -0.00182000
v -0.03351100 0.00377200 -0.00351400
v -0.03345500 0.00440300 -0.00610100
v -0.03101000 0.02466100 -0.03793000
v -0.03230200 0.01713200 -0.04447900
v -0.00221900 0.03537200 -0.00210400
v -0.00351500 0.03486200 -0.00120200
v -0.00411200 0.03592300 -0.00327900
v -0.00717900 0.03373000 0.00094800
v -0.00677600 0.03426000 -0.00066500
v -0.00641400 0.03483900 -0.00193300
v -0.00550400 0.05771500 -0.00385900
v -0.00732400 0.05636200 -0.00494000
v -0.00962600 0.05601600 -0.00528400
v -0.00930400 0.05477700 -0.00609300
v -0.00876300 0.04719900 -0.00888300
v -0.00906000 0.04899100 -0.00858500
v -0.01175200 0.05326000 -0.00723500
v -0.01298100 0.04792300 -0.00958300
v -0.01329400 0.04919600 -0.00930500
v -0.01353500 0.05050000 -0.00889400
v -0.01640200 0.05282600 -0.00867900
v -0.02365200 0.02720500 -0.00825700
v -0.02034800 0.03974000 -0.01418300
v -0.01988700 0.03468700 -0.01171900
v -0.01621600 0.03868200 -0.01063400
v -0.02208400 0.03227800 -0.01268900
v -0.01936700 0.03143800 -0.00748400
v -0.02191800 0.02910700 -0.00800800
v -0.02324500 0.03077300 -0.01314000
v -0.02438100 0.02914900 -0.01351500
v -0.02877400 0.02031500 -0.01082700
v -0.03024000 0.01754100 -0.01229700
v -0.02926800 0.02169200 -0.01769000
v -0.02995500 0.02010800 -0.01815300
v -0.02628200 0.04844400 -0.02161000
v -0.02626100 0.04155300 -0.02291600
v -0.03105400 0.01758100 -0.02023000
v -0.03221800 0.01385100 -0.02312000
v -0.02770300 0.04475500 -0.03009300
v -0.02808800 0.04088700 -0.03093200
v -0.02864000 0.03730500 -0.03277700
v -0.03299200 0.01003000 -0.02620300
v -0.02945700 0.03270400 -0.03490300
v -0.02849800 0.03835400 -0.03515500
v -0.00568700 0.04103500 -0.00770300
v -0.00854900 0.03719800 -0.00590400
v -0.01125800 0.04016800 -0.00871100
v -0.01341500 0.03365900 -0.00404100
v -0.01184800 0.04398500 -0.00968300
v -0.01952800 0.02904800 -0.00201800
v -0.01803100 0.04621000 -0.01207800
v -0.02025400 0.05225500 -0.01111300
v -0.02155500 0.04544100 -0.01497300
v -0.02444000 0.03330100 -0.01738900
v -0.02376600 0.04062800 -0.01823500
v -0.02465400 0.03564800 -0.01884700
v -0.02508300 0.03470300 -0.01927800
v -0.03221300 0.01118100 -0.00883700
v -0.02791800 0.03050000 -0.02400000
v -0.02956100 0.02657100 -0.02706300
v -0.03057300 0.02281900 -0.02790700
v -0.03354800 0.00545100 -0.04149700
v -0.01206800 0.03653600 -0.00681600
v -0.01457400 0.03591800 -0.00782600
v -0.03364800 0.00225300 -0.01978800
v -0.03110400 0.02186700 -0.04975800
v -0.03225900 0.01575300 -0.05233600
v 0.00030700 0.02780700 -0.06078200
v 0.00030700 0.01595300 -0.06493200
v 0.00030700 0.00818900 -0.06648000
v 0.00030800 0.00000000 -0.06703000
v -0.00786000 0.00000000 -0.06684200
v -0.01578900 0.00000000 -0.06622600
v -0.02344700 0.00000000 -0.06484400
v -0.02874800 0.00000000 -0.06283500
v -0.03051800 0.00000000 -0.06168800
v -0.03200400 0.00000000 -0.06025900
v -0.03294100 0.00000000 -0.05881000
v -0.03351000 0.00000000 -0.05717800
v -0.00742300 0.00821200 -0.06632100
v -0.01270500 0.00557000 -0.06628300
v -0.01126300 0.00825300 -0.06609300
v -0.01993600 0.01062000 -0.06446000
v -0.03163600 0.00272100 -0.06052700
v -0.02939800 0.00535400 -0.06200300
v -0.01842000 0.01557400 -0.06348500
v -0.03250400 0.00272000 -0.05939900
v -0.01214900 0.02148000 -0.06270100
v -0.03211200 0.00405800 -0.05976600
v -0.03269700 0.00405700 -0.05884900
v -0.01830300 0.01840200 -0.06256500
v -0.03313400 0.00405500 -0.05786800
v -0.03177600 0.00799100 -0.05921300
v -0.02968400 0.00795100 -0.06124700
v -0.03260900 0.00799800 -0.05780100
v -0.02421000 0.01757700 -0.06080100
v -0.01810600 0.02445300 -0.06014000
v -0.01802800 0.02704400 -0.05893800
v -0.00685700 0.03658400 -0.05650600
v -0.00915600 0.03666100 -0.05626300
v -0.01793500 0.02993500 -0.05750400
v -0.02352100 0.02534000 -0.05717500
v -0.00762400 0.03951400 -0.05489800
v -0.01065800 0.03965200 -0.05443500
v -0.02317600 0.02906200 -0.05514300
v -0.01781500 0.03537000 -0.05456700
v -0.02283800 0.04257900 -0.04630200
v -0.02599700 0.04064100 -0.04325100
v -0.02456900 0.04397100 -0.04306300
v -0.02393500 0.04019600 -0.04670400
v -0.02508500 0.04065700 -0.04479000
v -0.03185200 0.01055800 -0.05807300
v -0.02965800 0.01385100 -0.05911100
v -0.03185200 0.01182900 -0.05742800
v -0.02907500 0.01966200 -0.05639600
v -0.02954800 0.01672800 -0.05771200
v -0.02725600 0.02160300 -0.05683200
v -0.03057600 0.01839500 -0.05532200
v -0.02838000 0.02364600 -0.05435800
v -0.02640000 0.02726900 -0.05373700
v -0.02788100 0.02636400 -0.05284000
v -0.02929400 0.02490600 -0.05204400
v -0.02752300 0.02828000 -0.05172800
v -0.02695100 0.03131700 -0.04992200
v -0.02819600 0.03009600 -0.04908400
v -0.02133600 0.03766900 -0.05098500
v -0.02515700 0.03463700 -0.04945700
v -0.02666500 0.03437300 -0.04767000
v -0.02664600 0.01083800 -0.06219700
v -0.02508000 0.01222400 -0.06245700
v -0.02478300 0.01403000 -0.06196700
v -0.03145600 0.01623900 -0.05528800
v -0.03061200 0.02072800 -0.05329500
v 0.03430800 0.00000000 -0.05541400
v 0.03387800 0.00841300 -0.05450300
v 0.03279600 0.01621300 -0.05216400
v 0.03071100 0.02661500 -0.04741600
v 0.02839300 0.03769300 -0.04151000
v 0.02728500 0.04457200 -0.03808000
v 0.00469000 0.06231700 0.00101200
v 0.02062500 0.06042900 -0.00486000
v 0.02811500 0.05444800 -0.02345900
v 0.00440200 0.03377400 0.00440500
v 0.00846800 0.03311900 0.00440600
v 0.01202800 0.03213700 0.00440600
v 0.01542300 0.03076000 0.00440600
v 0.02107200 0.02727800 0.00440600
v 0.02593200 0.02266500 0.00440500
v 0.02977200 0.01727100 0.00440600
v 0.03249100 0.01120300 0.00440600
v 0.03384700 0.00570300 0.00440600
v 0.03430800 0.00000000 0.00440600
v 0.00163000 0.03417600 0.00148200
v 0.02225000 0.05761300 -0.00857600
v 0.03194300 0.01296500 0.00061300
v 0.02389400 0.05160600 -0.01441800
v 0.03416000 0.00336600 -0.00181900
v 0.03412600 0.00377200 -0.00351400
v 0.03407000 0.00440300 -0.00610100
v 0.03291800 0.01713200 -0.04447900
v 0.03162600 0.02466100 -0.03793000
v 0.00370400 0.03617700 -0.00350100
v 0.00585700 0.03459000 -0.00095000
v 0.00550600 0.03520200 -0.00221600
v 0.00426200 0.05536300 -0.00563700
v 0.00736100 0.03474900 -0.00186400
v 0.00883800 0.03372400 0.00015400
v 0.00627200 0.05653000 -0.00480600
v 0.00565500 0.05358400 -0.00665700
v 0.00869500 0.05626300 -0.00503100
v 0.00836700 0.05503600 -0.00586000
v 0.00937900 0.04719900 -0.00888300
v 0.00967600 0.04899100 -0.00858500
v 0.01236800 0.05326000 -0.00723500
v 0.01359700 0.04792300 -0.00958300
v 0.01391000 0.04919600 -0.00930500
v 0.01415100 0.05050000 -0.00889400
v 0.01701800 0.05282600 -0.00867900
v 0.02942900 0.01795700 0.00298900
v 0.02108700 0.03958200 -0.01427900
v 0.01706500 0.03846900 -0.01070800
v 0.02071600 0.03447900 -0.01181700
v 0.02276800 0.03219400 -0.01271700
v 0.02019500 0.03126600 -0.00753600
v 0.02325200 0.02832800 -0.00807400
v 0.02470700 0.02957800 -0.01342700
v 0.02675400 0.04863600 -0.02112400
v 0.02786700 0.04667700 -0.02600600
v 0.02687700 0.04155300 -0.02291600
v 0.03283400 0.01385100 -0.02312000
v 0.03167000 0.01758100 -0.02023000
v 0.02846700 0.04278400 -0.03003700
v 0.02823300 0.04591900 -0.02986600
v 0.02892800 0.03933800 -0.03171000
v 0.03360700 0.01003000 -0.02620300
v 0.02873600 0.04096500 -0.03383800
v 0.02985000 0.03389800 -0.03432600
v 0.03037600 0.03074000 -0.04023800
v 0.00640100 0.04097800 -0.00769300
v 0.00906200 0.03567700 -0.00413600
v 0.00941800 0.03707900 -0.00587800
v 0.01205300 0.04003800 -0.00872500
v 0.00995800 0.03621100 -0.00517900
v 0.01491400 0.03282200 -0.00326900
v 0.01254500 0.04391000 -0.00970400
v 0.02034400 0.02889900 -0.00204000
v 0.01870600 0.04612700 -0.01213200
v 0.02087000 0.05225500 -0.01111300
v 0.02221900 0.04535600 -0.01504100
v 0.02934200 0.01965500 -0.00783700
v 0.02969400 0.02209500 -0.01754800
v 0.02696600 0.02520400 -0.01242700
v 0.02467500 0.03397900 -0.01709600
v 0.02442800 0.04054400 -0.01830200
v 0.02486500 0.03646900 -0.01841300
v 0.02558800 0.03495300 -0.01917100
v 0.02826700 0.03130300 -0.02371100
v 0.02995500 0.02731400 -0.02679500
v 0.03112800 0.02302300 -0.02780300
v 0.03416400 0.00545100 -0.04149700
v 0.01315600 0.03595300 -0.00652200
v 0.01442700 0.03678300 -0.00803100
v 0.01567300 0.03528600 -0.00759600
v 0.02885000 0.02642700 -0.02108500
v 0.03426400 0.00225300 -0.01978800
v 0.03411400 0.00000000 -0.05722800
v 0.03359000 0.00000000 -0.05874200
v 0.03284400 0.00000000 -0.05997300
v 0.03188800 0.00000000 -0.06104300
v 0.03077800 0.00000000 -0.06195400
v 0.02913400 0.00000000 -0.06295800
v 0.02334800 0.00000000 -0.06502600
v 0.01529300 0.00000000 -0.06634900
v 0.00030700 0.02780700 -0.06078200
v 0.00030700 0.01595300 -0.06493200
v 0.00030700 0.00818900 -0.06648000
v 0.00749000 0.00820800 -0.06634300
v 0.01270900 0.00556300 -0.06633500
v 0.01151200 0.00824800 -0.06612100
v 0.02030300 0.01075700 -0.06448500
v 0.02971500 0.00550700 -0.06216600
v 0.03207900 0.00285100 -0.06069500
v 0.01902500 0.01578700 -0.06342100
v 0.03282000 0.00285100 -0.05982300
v 0.03334900 0.00285000 -0.05899300
v 0.03263400 0.00425100 -0.05985600
v 0.01275100 0.02291300 -0.06217400
v 0.03318800 0.00425100 -0.05903200
v 0.03353000 0.00424900 -0.05836800
v 0.03379900 0.00424900 -0.05767100
v 0.03228500 0.00822500 -0.05927400
v 0.02997100 0.00817500 -0.06141900
v 0.01884000 0.02060000 -0.06175300
v 0.03315700 0.00828000 -0.05782600
v 0.02468100 0.01921600 -0.06012300
v 0.00643500 0.03655900 -0.05657200
v 0.01865700 0.02660500 -0.05914800
v 0.00831400 0.03660800 -0.05643400
v 0.01019300 0.03667800 -0.05620200
v 0.00965000 0.03956900 -0.05472100
v 0.01878600 0.03317800 -0.05564000
v 0.01208500 0.03970200 -0.05425400
v 0.02671000 0.03699900 -0.04625700
v 0.02350500 0.04387000 -0.04537200
v 0.02548600 0.04253300 -0.04366300
v 0.02529700 0.03674800 -0.04838900
v 0.02450000 0.04208600 -0.04539600
v 0.03233800 0.01086300 -0.05813500
v 0.03232700 0.01216900 -0.05748900
v 0.03007200 0.01464200 -0.05890900
v 0.02593000 0.02406100 -0.05676800
v 0.03076600 0.02066000 -0.05425800
v 0.02915200 0.02277400 -0.05482600
v 0.02999600 0.01779500 -0.05725500
v 0.02640400 0.02648700 -0.05483500
v 0.02138900 0.03207300 -0.05487500
v 0.02262200 0.03152400 -0.05441200
v 0.02606700 0.02988900 -0.05273400
v 0.02247800 0.03487500 -0.05238600
v 0.02222600 0.03744500 -0.05091200
v 0.02164200 0.03832700 -0.05080300
v 0.02700000 0.01121900 -0.06220400
v 0.02548400 0.01268300 -0.06239500
v 0.02520900 0.01489100 -0.06172900
v 0.03147500 0.01621500 -0.05641000
v 0.03209700 0.01540400 -0.05586900
v 0.03193600 0.01700900 -0.05497400
v 0.02829600 0.02765400 -0.05204400
v 0.02932300 0.02651600 -0.05156900
v 0.01718300 0.03892400 -0.05309300
v 0.02901000 0.02826800 -0.05047900
v 0.02897200 0.03132500 -0.04747700
v 0.02790400 0.03360900 -0.04733700
v 0.00030800 0.03400000 0.00440600
v 0.00440200 0.03377400 0.00440500
v 0.00846800 0.03311900 0.00440600
v 0.01202800 0.03213700 0.00440600
v 0.01542300 0.03076000 0.00440600
v 0.02107200 0.02727800 0.00440600
v 0.02593200 0.02266500 0.00440500
v 0.02977200 0.01727100 0.00440600
v 0.03249100 0.01120300 0.00440600
v 0.03384700 0.00570300 0.00440600
v 0.03430800 0.00000000 0.00440600
v -0.03369200 0.00000000 0.00440600
v -0.03347100 0.00395700 0.00440600
v -0.03281500 0.00783700 0.00440600
v -0.03172500 0.01164300 0.00440600
v -0.03021200 0.01528200 0.00440500
v -0.02828000 0.01870600 0.00440600
v -0.02597900 0.02187400 0.00440500
v -0.02327900 0.02482800 0.00440600
v -0.02027500 0.02741700 0.00440600
v -0.01421000 0.03103800 0.00440600
v -0.00817000 0.03304700 0.00440600
v -0.00395400 0.03375500 0.00440500
v -0.03284000 -0.00756600 0.00440600
v -0.03032500 -0.01475200 0.00440600
v -0.02627400 -0.02119900 0.00440600
v -0.02089100 -0.02658200 0.00440600
v -0.01444400 -0.03063300 0.00440600
v -0.00725800 -0.03314800 0.00440600
v 0.00030800 -0.03400000 0.00440600
v 0.00787400 -0.03314800 0.00440600
v 0.01506000 -0.03063300 0.00440600
v 0.02150700 -0.02658200 0.00440600
v 0.02689000 -0.02119900 0.00440600
v 0.03094100 -0.01475200 0.00440600
v 0.03345500 -0.00756600 0.00440600
v 0.00030800 -0.03370000 0.00440600
v -0.00775700 -0.03272100 0.00440600
v -0.01535300 -0.02984000 0.00440600
v -0.02203900 -0.02522500 0.00440600
v -0.02742700 -0.01914400 0.00440600
v -0.03120200 -0.01195000 0.00440600
v -0.03314600 -0.00406200 0.00440600
v -0.03314600 0.00406200 0.00440600
v -0.03120200 0.01195000 0.00440600
v -0.02742700 0.01914400 0.00440600
v -0.02203900 0.02522500 0.00440600
v -0.01535300 0.02984000 0.00440600
v -0.00775700 0.03272100 0.00440600
v 0.00030800 0.03370000 0.00440600
v 0.00837300 0.03272100 0.00440600
v 0.01596900 0.02984000 0.00440600
v 0.02265500 0.02522500 0.00440600
v 0.02804200 0.01914400 0.00440600
v 0.03181800 0.01195000 0.00440600
v 0.03376200 0.00406200 0.00440600
v 0.03376200 -0.00406200 0.00440600
v 0.03181800 -0.01195000 0.00440600
v 0.02804200 -0.01914400 0.00440600
v 0.02265500 -0.02522500 0.00440600
v 0.01596900 -0.02984000 0.00440600
v 0.00837300 -0.03272100 0.00440600
v -0.03343100 -0.00420300 -0.05541400
v -0.03265300 -0.00834100 -0.05541400
v -0.03136900 -0.01235200 -0.05541400
v -0.02959900 -0.01617300 -0.05541400
v -0.02526900 -0.02240100 -0.05541400
v -0.02027600 -0.02706100 -0.05541400
v -0.01445300 -0.03062900 -0.05541400
v -0.00803300 -0.03296100 -0.05541400
v -0.00389500 -0.03373900 -0.05541400
v 0.00030800 -0.03400000 -0.05541400
v 0.00030800 -0.03400000 0.00440600
v -0.03284000 -0.00756600 0.00440600
v -0.03032500 -0.01475200 0.00440600
v -0.02627400 -0.02119900 0.00440600
v -0.02089100 -0.02658200 0.00440600
v -0.01444400 -0.03063300 0.00440600
v -0.00725800 -0.03314800 0.00440600
v 0.00030800 -0.00845900 -0.06690900
v 0.00030800 -0.01695500 -0.06636400
v 0.00030800 -0.02509100 -0.06486100
v 0.00030800 -0.02928400 -0.06313500
v 0.00030800 -0.03134500 -0.06165200
v 0.00030800 -0.03265700 -0.06013400
v 0.00030700 -0.03350500 -0.05845200
v 0.00030700 -0.03387700 -0.05700000
v -0.00304900 -0.03309300 -0.05913900
v -0.00157500 -0.03159200 -0.06138200
v -0.00716300 -0.02006300 -0.06576600
v -0.03311400 -0.00211000 -0.05834000
v -0.03168300 -0.00065100 -0.06062600
v -0.00913000 -0.03178200 -0.05944200
v -0.01191700 -0.03087200 -0.05933900
v -0.01334600 -0.03032200 -0.05923000
v -0.01608000 -0.02909700 -0.05888900
v -0.01449400 -0.02747700 -0.06195900
v -0.00919900 -0.03071300 -0.06097700
v -0.00619100 -0.03053000 -0.06188400
v -0.00837200 -0.02987200 -0.06200800
v -0.01732000 -0.02824800 -0.05912400
v -0.01048000 -0.02914100 -0.06205900
v -0.01251200 -0.02546700 -0.06369400
v -0.01792400 -0.02780800 -0.05922500
v -0.00739000 -0.02887600 -0.06288500
v -0.02065000 -0.02628300 -0.05823200
v -0.02063500 -0.02569300 -0.05944000
v -0.01829000 -0.02598100 -0.06122100
v -0.02007300 -0.02511700 -0.06073600
v -0.02379800 -0.02268500 -0.05951100
v -0.02260700 -0.02237100 -0.06110500
v -0.01250900 -0.01586400 -0.06591600
v -0.01187700 -0.01043200 -0.06639700
v -0.01503900 -0.01362300 -0.06584900
v -0.03200700 -0.00798200 -0.05897200
v -0.03003400 -0.01140400 -0.06045300
v -0.03127300 -0.00739000 -0.06033900
v -0.01805200 -0.00929200 -0.06572400
v -0.01892000 -0.01367400 -0.06520900
v -0.02930000 -0.00806800 -0.06202100
v -0.02855500 -0.01011800 -0.06216000
v -0.03273700 -0.00506500 -0.05858900
v -0.03288400 -0.00410200 -0.05852700
v -0.03176500 -0.00523600 -0.06018900
v -0.02921100 -0.00547300 -0.06238700
v -0.03177700 -0.00374700 -0.06037400
v -0.01494600 -0.02294600 -0.06411900
v -0.02702700 -0.01975700 -0.05779100
v -0.01848500 -0.02208900 -0.06343000
v -0.01610200 -0.02162500 -0.06427100
v -0.02642500 -0.01892100 -0.06008900
v -0.02415900 -0.01961600 -0.06174800
v -0.01827800 -0.01983800 -0.06423100
v -0.02760400 -0.01690500 -0.06024300
v -0.02387400 -0.01590100 -0.06333800
v -0.02126400 -0.01852300 -0.06365800
v -0.01856400 -0.01785500 -0.06462900
v -0.03015600 -0.01412800 -0.05827300
v -0.02847700 -0.01513400 -0.06037600
v -0.02373300 -0.01013400 -0.06437200
v 0.00451100 -0.03373900 -0.05541400
v 0.00864900 -0.03296100 -0.05541400
v 0.01265900 -0.03167700 -0.05541400
v 0.01648000 -0.02990700 -0.05541400
v 0.02270800 -0.02557800 -0.05541400
v 0.02736800 -0.02058500 -0.05541400
v 0.03093600 -0.01476100 -0.05541400
v 0.03326900 -0.00834200 -0.05541400
v 0.03404700 -0.00420300 -0.05541400
v 0.00787400 -0.03314800 0.00440600
v 0.01506000 -0.03063300 0.00440600
v 0.02150700 -0.02658200 0.00440600
v 0.02689000 -0.02119900 0.00440600
v 0.03094100 -0.01475200 0.00440600
v 0.03345500 -0.00756600 0.00440600
v 0.00366400 -0.03309300 -0.05913900
v 0.00219100 -0.03159200 -0.06138200
v 0.00777900 -0.02006300 -0.06576600
v 0.03373000 -0.00211000 -0.05834000
v 0.03229900 -0.00065100 -0.06062600
v 0.01270700 -0.03127300 -0.05816300
v 0.00974600 -0.03178200 -0.05944200
v 0.01253200 -0.03087200 -0.05933900
v 0.00738300 -0.03111600 -0.06122200
v 0.01442100 -0.03011400 -0.05922300
v 0.01511000 -0.02747700 -0.06195900
v 0.00981500 -0.03071300 -0.06097700
v 0.01519200 -0.02978800 -0.05912500
v 0.01669500 -0.02909700 -0.05888900
v 0.00898800 -0.02987200 -0.06200800
v 0.01312800 -0.02546700 -0.06369400
v 0.01859000 -0.02780300 -0.05917300
v 0.00800600 -0.02887600 -0.06288500
v 0.01950300 -0.02712100 -0.05928000
v 0.02244600 -0.02526300 -0.05831200
v 0.02210400 -0.02489600 -0.05955100
v 0.01948400 -0.02545900 -0.06130400
v 0.02152800 -0.02430600 -0.06083400
v 0.01275100 -0.01586100 -0.06595400
v 0.03231200 -0.00890000 -0.05912700
v 0.01192200 -0.01041700 -0.06644300
v 0.01510600 -0.01362900 -0.06591700
v 0.03139600 -0.00874100 -0.06054600
v 0.02935500 -0.01391900 -0.06075500
v 0.02919800 -0.00943600 -0.06227600
v 0.02768000 -0.01261400 -0.06254200
v 0.01805300 -0.00928600 -0.06582000
v 0.01916300 -0.01365900 -0.06528500
v 0.03335300 -0.00506600 -0.05858900
v 0.03350000 -0.00410200 -0.05852700
v 0.03230000 -0.00527000 -0.06028500
v 0.02929800 -0.00641200 -0.06262400
v 0.03233800 -0.00376800 -0.06043600
v 0.02484200 -0.02283900 -0.05851800
v 0.01563100 -0.02277300 -0.06416100
v 0.02472000 -0.02140800 -0.06053500
v 0.02620900 -0.01985200 -0.06028000
v 0.02332600 -0.01739500 -0.06342200
v 0.01681500 -0.02135800 -0.06432700
v 0.02878100 -0.01767200 -0.05850400
v 0.02960300 -0.01680500 -0.05757800
v 0.01906600 -0.02011700 -0.06410500
v 0.02733700 -0.01795400 -0.06051800
v 0.03046900 -0.01466400 -0.05840800
v 0.02325800 -0.01134200 -0.06457300
v 0.02406700 -0.00824100 -0.06461400
v -0.03439200 0.10096100 0.00097000
v -0.03439200 0.10096100 -0.00003000
v -0.03439200 0.10096100 -0.00103000
v -0.03467800 0.10096100 -0.00103000
v -0.03361400 0.10096100 -0.00865200
v -0.03090900 0.10096100 -0.01585700
v -0.02669600 0.10096100 -0.02229600
v -0.02117700 0.10096100 -0.02765900
v -0.01462000 0.10096100 -0.03168700
v -0.00734100 0.10096100 -0.03418400
v 0.00030800 0.10096100 -0.03503000
v 0.00868400 0.10096100 -0.03401300
v 0.01657300 0.10096100 -0.03102100
v 0.02351700 0.10096100 -0.02622800
v 0.02911200 0.10096100 -0.01991200
v 0.03303300 0.10096100 -0.01244100
v 0.03505300 0.10096100 -0.00424900
v 0.03505300 0.10096100 0.00418900
v 0.03303300 0.10096100 0.01238100
v 0.02911200 0.10096100 0.01985200
v 0.02351700 0.10096100 0.02616800
v 0.01657300 0.10096100 0.03096100
v 0.00868400 0.10096100 0.03395300
v 0.00030800 0.10096100 0.03497000
v -0.00734100 0.10096100 0.03412400
v -0.01462000 0.10096100 0.03162700
v -0.02117700 0.10096100 0.02759900
v -0.02669600 0.10096100 0.02223600
v -0.03090900 0.10096100 0.01579600
v -0.03361400 0.10096100 0.00859100
v -0.03467800 0.10096100 0.00097000
v 0.03500800 0.10096100 -0.00003000
v 0.03400000 0.10096100 0.00827400
v 0.03103300 0.10096100 0.01609600
v 0.02628100 0.10096100 0.02298000
v 0.02002000 0.10096100 0.02852700
v 0.01261300 0.10096100 0.03241500
v 0.00449100 0.10096100 0.03441700
v -0.00387500 0.10096100 0.03441700
v -0.01199700 0.10096100 0.03241500
v -0.01940400 0.10096100 0.02852700
v -0.02566500 0.10096100 0.02298000
v -0.03041700 0.10096100 0.01609600
v -0.03338400 0.10096100 0.00827400
v -0.03338400 0.10096100 -0.00833400
v -0.03041700 0.10096100 -0.01615600
v -0.02566500 0.10096100 -0.02304100
v -0.01940400 0.10096100 -0.02858800
v -0.01199700 0.10096100 -0.03247500
v -0.00387500 0.10096100 -0.03447700
v 0.00449100 0.10096100 -0.03447700
v 0.01261300 0.10096100 -0.03247500
v 0.02002000 0.10096100 -0.02858800
v 0.02628100 0.10096100 -0.02304100
v 0.03103300 0.10096100 -0.01615600
v 0.03400000 0.10096100 -0.00833400
v -0.03339200 -0.00100000 0.01140600
v -0.03339200 0.00000000 0.01140600
v -0.03339200 0.00100000 0.01140600
v -0.03367700 0.00100000 0.01140600
v -0.03263800 0.00839900 0.01140600
v -0.03000800 0.01539200 0.01140600
v -0.02591400 0.02164200 0.01140600
v -0.02055400 0.02684700 0.01140600
v -0.01418600 0.03075600 0.01140600
v -0.00711800 0.03317900 0.01140600
v 0.00030800 0.03400000 0.01140600
v 0.00844500 0.03301200 0.01140600
v 0.01610900 0.03010600 0.01140600
v 0.02285400 0.02544900 0.01140600
v 0.02828900 0.01931400 0.01140600
v 0.03209800 0.01205700 0.01140600
v 0.03406000 0.00409800 0.01140600
v 0.03406000 -0.00409800 0.01140600
v 0.03209800 -0.01205700 0.01140600
v 0.02828900 -0.01931400 0.01140600
v 0.02285400 -0.02544900 0.01140600
v 0.01610900 -0.03010600 0.01140600
v 0.00844500 -0.03301200 0.01140600
v 0.00030800 -0.03400000 0.01140600
v -0.00711800 -0.03317900 0.01140600
v -0.01418600 -0.03075600 0.01140600
v -0.02055400 -0.02684700 0.01140600
v -0.02591400 -0.02164200 0.01140600
v -0.03000800 -0.01539200 0.01140600
v -0.03263800 -0.00839900 0.01140600
v -0.03367700 -0.00100000 0.01140600
v 0.00030800 -0.03370000 0.01140600
v -0.00719100 -0.03285500 0.01140600
v -0.01431400 -0.03036300 0.01140600
v -0.02070400 -0.02634800 0.01140600
v -0.02604000 -0.02101200 0.01140600
v -0.03005500 -0.01462200 0.01140600
v -0.03254700 -0.00749900 0.01140600
v 0.00030800 0.03370000 0.01140600
v 0.00837300 0.03272100 0.01140600
v 0.01596900 0.02984000 0.01140600
v 0.02265500 0.02522500 0.01140600
v 0.02804200 0.01914400 0.01140600
v 0.03181800 0.01195000 0.01140600
v 0.03376200 0.00406200 0.01140600
v 0.03376200 -0.00406200 0.01140600
v 0.03181800 -0.01195000 0.01140600
v 0.02804200 -0.01914400 0.01140600
v 0.02265500 -0.02522500 0.01140600
v 0.01596900 -0.02984000 0.01140600
v 0.00837300 -0.03272100 0.01140600
v -0.03254700 0.00749900 0.01140600
v -0.03005500 0.01462200 0.01140600
v -0.02604000 0.02101200 0.01140600
v -0.02070400 0.02634800 0.01140600
v -0.01431400 0.03036300 0.01140600
v -0.00719100 0.03285500 0.01140600
v -0.00711800 -0.03317900 0.01290600
v -0.01418600 -0.03075600 0.01290600
v -0.02055400 -0.02684700 0.01290600
v -0.02591400 -0.02164200 0.01290600
v -0.03000800 -0.01539200 0.01290600
v -0.03263800 -0.00839900 0.01290600
v -0.03367700 -0.00100000 0.01290600
v -0.03367700 -0.00100000 0.01140600
v -0.00711800 -0.03317900 0.01140600
v -0.01418600 -0.03075600 0.01140600
v -0.02055400 -0.02684700 0.01140600
v -0.02591400 -0.02164200 0.01140600
v -0.03000800 -0.01539200 0.01140600
v -0.03263800 -0.00839900 0.01140600
v -0.03339200 0.00100000 0.01290600
v -0.03367700 0.00100000 0.01290600
v -0.03339200 -0.00100000 0.01290600
v -0.03367700 -0.00100000 0.01290600
v 0.00030800 -0.03400000 0.01290600
v -0.00711800 -0.03317900 0.01290600
v -0.01418600 -0.03075600 0.01290600
v -0.02055400 -0.02684700 0.01290600
v -0.02591400 -0.02164200 0.01290600
v -0.03000800 -0.01539200 0.01290600
v -0.03263800 -0.00839900 0.01290600
v 0.00030800 0.03400000 0.01290600
v 0.00844500 0.03301200 0.01290600
v 0.01610900 0.03010600 0.01290600
v 0.02285400 0.02544900 0.01290600
v 0.02828900 0.01931400 0.01290600
v 0.03209800 0.01205700 0.01290600
v 0.03406000 0.00409800 0.01290600
v 0.03406000 -0.00409800 0.01290600
v 0.03209800 -0.01205700 0.01290600
v 0.02828900 -0.01931400 0.01290600
v 0.02285400 -0.02544900 0.01290600
v 0.01610900 -0.03010600 0.01290600
v 0.00844500 -0.03301200 0.01290600
v -0.03263800 0.00839900 0.01290600
v -0.03000800 0.01539200 0.01290600
v -0.02591400 0.02164200 0.01290600
v -0.02055400 0.02684700 0.01290600
v -0.01418600 0.03075600 0.01290600
v -0.00711800 0.03317900 0.01290600
v 0.00030800 0.03000000 0.01290600
v -0.00687200 0.02912800 0.01290600
v -0.01363400 0.02656400 0.01290600
v -0.01958600 0.02245500 0.01290600
v -0.02438200 0.01704200 0.01290600
v -0.02774300 0.01063800 0.01290600
v -0.02947300 0.00361600 0.01290600
v -0.02947300 -0.00361600 0.01290600
v -0.02774300 -0.01063800 0.01290600
v -0.02438200 -0.01704200 0.01290600
v -0.01958600 -0.02245500 0.01290600
v -0.01363400 -0.02656400 0.01290600
v -0.00687200 -0.02912800 0.01290600
v 0.00030800 -0.03000000 0.01290600
v 0.00748700 -0.02912800 0.01290600
v 0.01425000 -0.02656400 0.01290600
v 0.02020200 -0.02245500 0.01290600
v 0.02499700 -0.01704200 0.01290600
v 0.02835800 -0.01063800 0.01290600
v 0.03008900 -0.00361600 0.01290600
v 0.03008900 0.00361600 0.01290600
v 0.02835800 0.01063800 0.01290600
v 0.02499700 0.01704200 0.01290600
v 0.02020200 0.02245500 0.01290600
v 0.01425000 0.02656400 0.01290600
v 0.00748700 0.02912800 0.01290600
v -0.00687200 0.02912800 0.01290600
v -0.01363400 0.02656400 0.01290600
v -0.01958600 0.02245500 0.01290600
v -0.02438200 0.01704200 0.01290600
v -0.02774300 0.01063800 0.01290600
v -0.02947300 0.00361600 0.01290600
v -0.02947300 -0.00361600 0.01290600
v -0.02774300 -0.01063800 0.01290600
v -0.02438200 -0.01704200 0.01290600
v -0.01958600 -0.02245500 0.01290600
v -0.01363400 -0.02656400 0.01290600
v -0.00687200 -0.02912800 0.01290600
v -0.00687200 0.02912800 0.00290600
v -0.01363400 0.02656400 0.00290600
v -0.01958600 0.02245500 0.00290600
v -0.02438200 0.01704200 0.00290600
v -0.02774300 0.01063800 0.00290600
v -0.02947300 0.00361600 0.00290600
v -0.02947300 -0.00361600 0.00290600
v -0.02774300 -0.01063800 0.00290600
v -0.02438200 -0.01704200 0.00290600
v -0.01958600 -0.02245500 0.00290600
v -0.01363400 -0.02656400 0.00290600
v -0.00687200 -0.02912800 0.00290600
v 0.00030800 0.03000000 0.00290600
v -0.00687200 0.02912800 0.00290600
v -0.01363400 0.02656400 0.00290600
v -0.01958600 0.02245500 0.00290600
v -0.02438200 0.01704200 0.00290600
v -0.02774300 0.01063800 0.00290600
v -0.02947300 0.00361600 0.00290600
v -0.02947300 -0.00361600 0.00290600
v -0.02774300 -0.01063800 0.00290600
v -0.02438200 -0.01704200 0.00290600
v -0.01958600 -0.02245500 0.00290600
v -0.01363400 -0.02656400 0.00290600
v -0.00687200 -0.02912800 0.00290600
v 0.00030800 -0.03000000 0.00290600
v 0.00748700 -0.02912800 0.00290600
v 0.01425000 -0.02656400 0.00290600
v 0.02020200 -0.02245500 0.00290600
v 0.02499700 -0.01704200 0.00290600
v 0.02835800 -0.01063800 0.00290600
v 0.03008900 -0.00361600 0.00290600
v 0.03008900 0.00361600 0.00290600
v 0.02835800 0.01063800 0.00290600
v 0.02499700 0.01704200 0.00290600
v 0.02020200 0.02245500 0.00290600
v 0.01425000 0.02656400 0.00290600
v 0.00748700 0.02912800 0.00290600
v -0.03339200 0.00100000 0.01290600
v -0.03367700 0.00100000 0.01290600
v -0.03339200 0.00100000 0.01140600
v -0.03367700 0.00100000 0.01140600
v -0.03367700 -0.00100000 0.01140600
v -0.03339200 -0.00100000 0.01140600
v -0.03339200 -0.00100000 0.01290600
v -0.03367700 -0.00100000 0.01290600
v -0.03339200 -0.00100000 0.01140600
v -0.03339200 0.00000000 0.01140600
v -0.03339200 0.00100000 0.01140600
v -0.03339200 0.00100000 0.01290600
v -0.03339200 -0.00100000 0.01290600
v -0.03467800 0.10096100 0.00097000
v -0.03439200 0.10096100 0.00097000
v -0.03439200 0.10350000 0.00097000
v -0.03467800 0.10350000 0.00097000
v -0.03439200 0.10096100 0.00097000
v -0.03439200 0.10096100 -0.00003000
v -0.03439200 0.10096100 -0.00103000
v -0.03439200 0.10350000 -0.00103000
v -0.03439200 0.10350000 0.00097000
v -0.03439200 0.10350000 -0.00103000
v -0.03467800 0.10350000 -0.00103000
v -0.03439200 0.10096100 -0.00103000
v -0.03467800 0.10096100 -0.00103000
v -0.03467800 0.10350000 0.00097000
v -0.03361400 0.10350000 0.00859100
v -0.03090900 0.10350000 0.01579600
v -0.02669600 0.10350000 0.02223600
v -0.02117700 0.10350000 0.02759900
v -0.01462000 0.10350000 0.03162700
v -0.00734100 0.10350000 0.03412400
v 0.00030800 0.10350000 0.03497000
v 0.00868400 0.10350000 0.03395300
v 0.01657300 0.10350000 0.03096100
v 0.02351700 0.10350000 0.02616800
v 0.02911200 0.10350000 0.01985200
v 0.03303300 0.10350000 0.01238100
v 0.03505300 0.10350000 0.00418900
v 0.03505300 0.10350000 -0.00424900
v 0.03303300 0.10350000 -0.01244100
v 0.02911200 0.10350000 -0.01991200
v 0.02351700 0.10350000 -0.02622800
v 0.01657300 0.10350000 -0.03102100
v 0.00868400 0.10350000 -0.03401300
v 0.00030800 0.10350000 -0.03503000
v -0.00734100 0.10350000 -0.03418400
v -0.01462000 0.10350000 -0.03168700
v -0.02117700 0.10350000 -0.02765900
v -0.02669600 0.10350000 -0.02229600
v -0.03090900 0.10350000 -0.01585700
v -0.03361400 0.10350000 -0.00865200
v -0.03467800 0.10350000 -0.00103000
v -0.03439200 0.10350000 -0.00103000
v -0.03439200 0.10350000 0.00097000
v 0.03130800 0.10350000 -0.00003000
v 0.03040700 0.10350000 -0.00744900
v 0.02775700 0.10350000 -0.01443700
v 0.02351200 0.10350000 -0.02058700
v 0.01791800 0.10350000 -0.02554300
v 0.01130100 0.10350000 -0.02901600
v 0.00404500 0.10350000 -0.03080400
v -0.00342900 0.10350000 -0.03080400
v -0.01068500 0.10350000 -0.02901600
v -0.01730200 0.10350000 -0.02554300
v -0.02289600 0.10350000 -0.02058700
v -0.02714100 0.10350000 -0.01443700
v -0.02979100 0.10350000 -0.00744900
v -0.03069200 0.10350000 -0.00003000
v -0.02979100 0.10350000 0.00738900
v -0.02714100 0.10350000 0.01437600
v -0.02289600 0.10350000 0.02052700
v -0.01730200 0.10350000 0.02548200
v -0.01068500 0.10350000 0.02895500
v -0.00342900 0.10350000 0.03074400
v 0.00404500 0.10350000 0.03074400
v 0.01130100 0.10350000 0.02895500
v 0.01791800 0.10350000 0.02548200
v 0.02351200 0.10350000 0.02052700
v 0.02775700 0.10350000 0.01437600
v 0.03040700 0.10350000 0.00738900
v 0.03130800 0.09350000 -0.00003000
v 0.03040700 0.09350000 -0.00744900
v 0.02775700 0.09350000 -0.01443700
v 0.02351200 0.09350000 -0.02058700
v 0.01791800 0.09350000 -0.02554300
v 0.01130100 0.09350000 -0.02901600
v 0.00404500 0.09350000 -0.03080400
v -0.00342900 0.09350000 -0.03080400
v -0.01068500 0.09350000 -0.02901600
v -0.01730200 0.09350000 -0.02554300
v -0.02289600 0.09350000 -0.02058700
v -0.02714100 0.09350000 -0.01443700
v -0.02979100 0.09350000 -0.00744900
v -0.03069200 0.09350000 -0.00003000
v -0.02979100 0.09350000 0.00738900
v -0.02714100 0.09350000 0.01437600
v -0.02289600 0.09350000 0.02052700
v -0.01730200 0.09350000 0.02548200
v -0.01068500 0.09350000 0.02895500
v -0.00342900 0.09350000 0.03074400
v 0.00404500 0.09350000 0.03074400
v 0.01130100 0.09350000 0.02895500
v 0.01791800 0.09350000 0.02548200
v 0.02351200 0.09350000 0.02052700
v 0.02775700 0.09350000 0.01437600
v 0.03040700 0.09350000 0.00738900
v 0.03040700 0.10350000 -0.00744900
v 0.02775700 0.10350000 -0.01443700
v 0.02351200 0.10350000 -0.02058700
v 0.01791800 0.10350000 -0.02554300
v 0.01130100 0.10350000 -0.02901600
v 0.00404500 0.10350000 -0.03080400
v -0.00342900 0.10350000 -0.03080400
v -0.01068500 0.10350000 -0.02901600
v -0.01730200 0.10350000 -0.02554300
v -0.02289600 0.10350000 -0.02058700
v -0.02714100 0.10350000 -0.01443700
v -0.02979100 0.10350000 -0.00744900
v 0.03040700 0.09350000 -0.00744900
v 0.02775700 0.09350000 -0.01443700
v 0.02351200 0.09350000 -0.02058700
v 0.01791800 0.09350000 -0.02554300
v 0.01130100 0.09350000 -0.02901600
v 0.00404500 0.09350000 -0.03080400
v -0.00342900 0.09350000 -0.03080400
v -0.01068500 0.09350000 -0.02901600
v -0.01730200 0.09350000 -0.02554300
v -0.02289600 0.09350000 -0.02058700
v -0.02714100 0.09350000 -0.01443700
v -0.02979100 0.09350000 -0.00744900
f 109 121 108
f 109 122 121
f 110 123 122
f 110 122 109
f 111 124 123
f 111 123 110
f 112 125 124
f 112 124 111
f 113 126 125
f 113 127 126
f 113 125 112
f 114 128 127
f 114 127 113
f 115 128 114
f 116 129 128
f 116 128 115
f 117 130 129
f 117 129 116
f 118 131 130
f 118 130 117
f 119 132 131
f 119 131 118
f 120 133 132
f 120 132 119
f 107 106 133
f 107 133 120
f 137 149 136
f 137 150 149
f 137 151 150
f 138 151 137
f 139 152 151
f 139 153 152
f 139 151 138
f 140 153 139
f 141 154 153
f 141 153 140
f 142 155 154
f 142 154 141
f 143 156 155
f 143 157 156
f 143 155 142
f 144 157 143
f 145 158 157
f 145 159 158
f 145 157 144
f 146 159 145
f 147 160 159
f 147 161 160
f 147 159 146
f 148 134 161
f 148 161 147
f 135 134 148
f 172 162 163
f 172 171 162
f 173 163 164
f 173 172 163
f 174 164 165
f 174 173 164
f 175 165 166
f 175 174 165
f 176 166 167
f 176 175 166
f 177 167 168
f 177 168 169
f 177 176 167
f 170 177 169
f 192 170 169
f 192 169 178
f 193 178 179
f 193 192 178
f 194 179 180
f 194 193 179
f 195 180 181
f 195 194 180
f 196 181 182
f 196 195 181
f 197 182 183
f 197 196 182
f 198 183 184
f 198 197 183
f 199 184 185
f 199 198 184
f 200 185 186
f 200 199 185
f 201 186 187
f 201 200 186
f 202 187 188
f 202 201 187
f 203 188 189
f 203 202 188
f 191 189 190
f 191 203 189
f 214 211 210
f 214 213 211
f 215 210 209
f 215 214 210
f 216 208 207
f 216 209 208
f 216 215 209
f 217 216 207
f 218 207 206
f 218 217 207
f 219 206 205
f 219 218 206
f 212 205 204
f 212 219 205
f 212 204 232
f 234 212 232
f 235 232 231
f 235 234 232
f 236 231 230
f 236 235 231
f 237 230 229
f 237 236 230
f 238 229 228
f 238 237 229
f 239 228 227
f 239 238 228
f 240 227 226
f 240 239 227
f 241 226 225
f 241 240 226
f 242 225 224
f 242 241 225
f 243 224 223
f 243 242 224
f 244 223 222
f 244 243 223
f 245 222 221
f 245 244 222
f 233 221 220
f 233 245 221
f 254 233 220
f 254 220 252
f 255 252 251
f 255 254 252
f 256 251 250
f 256 255 251
f 257 250 249
f 257 256 250
f 258 249 248
f 258 257 249
f 259 248 247
f 259 258 248
f 253 247 246
f 253 259 247
f 304 280 281
f 304 281 282
f 304 282 283
f 305 304 283
f 305 283 284
f 306 280 304
f 306 304 305
f 307 278 279
f 308 285 286
f 309 278 307
f 309 274 275
f 309 275 276
f 309 276 277
f 309 277 278
f 309 307 310
f 311 286 287
f 311 308 286
f 312 313 308
f 314 287 288
f 314 311 287
f 315 308 311
f 315 312 308
f 316 272 273
f 316 273 274
f 316 274 309
f 316 310 317
f 316 309 310
f 318 315 311
f 319 271 272
f 319 313 312
f 319 312 315
f 320 288 289
f 320 314 288
f 321 318 311
f 321 311 314
f 322 321 314
f 323 271 319
f 323 318 321
f 323 319 315
f 323 315 318
f 324 322 314
f 324 314 320
f 325 324 320
f 326 325 327
f 328 291 292
f 329 330 331
f 329 331 328
f 332 326 327
f 332 327 330
f 333 292 293
f 333 328 292
f 334 329 328
f 335 334 328
f 336 328 333
f 336 335 328
f 337 330 329
f 337 332 330
f 337 329 334
f 338 295 296
f 338 296 297
f 338 297 298
f 339 336 333
f 340 294 295
f 340 295 338
f 341 334 335
f 341 335 336
f 341 337 334
f 342 340 338
f 343 342 338
f 343 338 298
f 344 336 339
f 344 339 345
f 344 341 336
f 346 300 301
f 347 261 262
f 348 349 346
f 348 350 349
f 351 348 346
f 351 346 301
f 352 350 348
f 352 347 350
f 353 261 347
f 353 347 352
f 354 260 261
f 354 348 351
f 354 261 353
f 354 352 348
f 354 353 352
f 354 303 260
f 355 351 301
f 355 354 351
f 355 303 354
f 355 301 302
f 355 302 303
f 356 284 285
f 356 305 284
f 356 285 308
f 356 308 313
f 356 306 305
f 357 307 279
f 357 279 280
f 357 356 313
f 357 306 356
f 357 310 307
f 357 317 310
f 357 280 306
f 358 316 317
f 358 272 316
f 358 357 313
f 358 317 357
f 358 319 272
f 358 313 319
f 359 320 289
f 359 289 290
f 360 290 291
f 360 359 290
f 360 291 328
f 360 331 359
f 360 328 331
f 361 320 359
f 361 359 331
f 362 325 320
f 362 320 361
f 362 331 330
f 362 327 325
f 362 361 331
f 362 330 327
f 363 324 325
f 363 321 322
f 363 322 324
f 363 325 326
f 363 323 321
f 364 363 326
f 364 323 363
f 365 269 270
f 365 270 271
f 365 271 323
f 365 323 364
f 366 364 326
f 366 365 364
f 366 269 365
f 367 333 293
f 367 293 294
f 367 294 340
f 368 332 337
f 369 332 368
f 370 371 345
f 370 333 367
f 370 339 333
f 370 345 339
f 372 266 267
f 373 369 368
f 374 337 341
f 374 368 337
f 374 373 368
f 375 373 374
f 376 340 342
f 376 342 343
f 377 265 266
f 377 266 372
f 377 372 369
f 377 369 373
f 377 373 375
f 378 344 345
f 378 345 371
f 379 375 374
f 380 341 344
f 380 374 341
f 381 374 380
f 381 379 374
f 382 343 298
f 382 376 343
f 382 298 299
f 383 377 375
f 383 264 265
f 383 379 381
f 383 375 379
f 383 265 377
f 384 378 371
f 385 381 380
f 386 371 376
f 386 382 299
f 386 376 382
f 387 378 384
f 387 344 378
f 388 380 344
f 388 385 380
f 389 384 371
f 389 371 386
f 389 346 349
f 389 349 384
f 390 344 387
f 391 263 264
f 391 381 385
f 391 383 381
f 391 385 388
f 391 264 383
f 392 388 344
f 392 344 390
f 393 389 386
f 393 346 389
f 394 390 387
f 394 387 384
f 394 384 349
f 395 262 263
f 395 347 262
f 395 391 388
f 395 388 392
f 395 263 391
f 396 349 350
f 396 350 347
f 396 347 395
f 396 394 349
f 396 390 394
f 396 392 390
f 396 395 392
f 397 300 346
f 397 346 393
f 397 386 299
f 397 299 300
f 397 393 386
f 398 326 332
f 398 366 326
f 398 332 369
f 399 398 369
f 399 366 398
f 399 369 372
f 400 267 268
f 400 268 269
f 400 372 267
f 400 269 366
f 400 366 399
f 400 399 372
f 401 376 371
f 401 370 367
f 401 340 376
f 401 367 340
f 401 371 370
f 280 419 281
f 260 303 434
f 435 415 416
f 436 414 415
f 436 415 435
f 437 279 278
f 438 278 277
f 438 439 437
f 438 277 420
f 438 420 421
f 438 437 278
f 440 413 414
f 440 414 436
f 441 435 442
f 441 436 435
f 443 436 441
f 444 412 413
f 444 413 440
f 445 446 439
f 445 421 422
f 445 439 438
f 445 438 421
f 447 440 436
f 447 436 443
f 448 412 444
f 449 444 440
f 449 440 447
f 450 441 442
f 450 443 441
f 450 447 443
f 451 444 449
f 452 444 451
f 452 448 444
f 453 448 452
f 454 449 447
f 454 451 449
f 454 447 450
f 455 448 453
f 456 457 458
f 459 460 455
f 459 461 460
f 459 458 461
f 462 406 407
f 462 407 463
f 464 463 457
f 464 457 456
f 465 463 464
f 466 456 458
f 466 458 459
f 466 464 456
f 467 462 463
f 467 463 465
f 468 462 467
f 469 298 297
f 469 297 402
f 469 402 403
f 469 403 404
f 470 404 405
f 470 469 404
f 471 465 464
f 471 464 466
f 471 467 465
f 472 469 470
f 473 469 472
f 473 298 469
f 474 468 467
f 474 467 471
f 474 475 468
f 476 301 300
f 477 432 433
f 478 476 479
f 478 479 480
f 481 301 476
f 481 476 478
f 482 478 480
f 482 480 477
f 483 477 433
f 483 433 434
f 483 482 477
f 484 481 478
f 484 478 482
f 485 302 301
f 485 303 302
f 485 301 481
f 485 481 484
f 486 303 485
f 486 483 434
f 486 482 483
f 486 484 482
f 486 434 303
f 486 485 484
f 487 435 416
f 487 416 417
f 487 417 418
f 487 418 419
f 487 419 280
f 488 487 280
f 489 280 279
f 489 488 280
f 490 488 489
f 491 487 488
f 491 488 490
f 491 442 435
f 491 435 487
f 492 489 279
f 492 490 489
f 492 491 490
f 492 442 491
f 493 492 279
f 493 439 446
f 493 437 439
f 493 279 437
f 493 442 492
f 494 446 445
f 494 493 446
f 495 442 493
f 495 493 494
f 495 450 442
f 496 495 494
f 497 409 410
f 498 407 408
f 498 408 409
f 498 463 407
f 498 457 463
f 498 497 457
f 498 409 497
f 499 494 445
f 499 445 422
f 499 422 423
f 499 496 494
f 500 457 497
f 501 500 448
f 501 448 455
f 501 455 460
f 501 460 461
f 501 458 457
f 501 461 458
f 501 457 500
f 502 452 451
f 502 453 452
f 502 455 453
f 502 459 455
f 502 451 454
f 503 502 454
f 503 459 502
f 504 424 425
f 504 425 426
f 505 454 504
f 505 503 454
f 505 426 427
f 505 504 426
f 505 459 503
f 506 405 406
f 506 406 462
f 506 470 405
f 507 505 427
f 507 459 505
f 507 427 428
f 507 466 459
f 508 506 462
f 508 462 468
f 508 475 509
f 508 468 475
f 510 471 466
f 511 466 507
f 511 510 466
f 512 507 428
f 512 428 429
f 512 511 507
f 513 472 470
f 513 473 472
f 514 510 511
f 515 475 474
f 515 509 475
f 516 474 471
f 516 471 510
f 516 510 514
f 517 516 514
f 518 514 511
f 518 512 429
f 518 511 512
f 518 517 514
f 518 429 430
f 519 299 298
f 519 298 473
f 519 473 513
f 520 509 515
f 521 516 517
f 522 519 513
f 522 513 509
f 522 299 519
f 523 479 520
f 523 515 474
f 523 520 515
f 524 474 516
f 524 516 521
f 525 509 520
f 525 479 476
f 525 520 479
f 525 522 509
f 526 524 521
f 526 517 518
f 526 518 430
f 526 430 431
f 526 521 517
f 527 474 524
f 527 523 474
f 528 525 476
f 528 522 525
f 529 479 523
f 529 523 527
f 529 480 479
f 529 477 480
f 530 432 477
f 530 431 432
f 530 524 526
f 530 526 431
f 530 527 524
f 530 529 527
f 530 477 529
f 531 300 299
f 531 299 522
f 531 476 300
f 531 522 528
f 531 528 476
f 532 410 411
f 532 411 412
f 532 497 410
f 532 448 500
f 532 412 448
f 532 500 497
f 533 504 454
f 533 454 450
f 533 424 504
f 534 470 506
f 534 508 509
f 534 513 470
f 534 509 513
f 534 506 508
f 535 423 424
f 535 450 495
f 535 495 496
f 535 424 533
f 535 533 450
f 535 499 423
f 535 496 499
f 572 564 563
f 573 565 564
f 573 564 572
f 571 572 563
f 562 571 563
f 566 565 573
f 574 566 573
f 567 566 574
f 570 571 562
f 561 570 562
f 575 568 567
f 575 567 574
f 560 570 561
f 536 568 575
f 569 570 560
f 559 569 560
f 576 536 575
f 594 569 559
f 558 594 559
f 577 537 576
f 538 537 577
f 593 594 558
f 557 593 558
f 578 538 577
f 539 538 578
f 556 593 557
f 592 593 556
f 579 539 578
f 555 592 556
f 540 539 579
f 591 592 555
f 554 591 555
f 580 540 579
f 541 540 580
f 590 591 554
f 542 541 580
f 581 542 580
f 543 542 581
f 589 590 553
f 582 543 581
f 544 543 582
f 588 589 552
f 551 588 552
f 545 544 582
f 583 545 582
f 550 588 551
f 587 588 550
f 546 545 583
f 584 546 583
f 549 587 550
f 586 587 549
f 547 584 585
f 547 546 584
f 548 585 586
f 548 586 549
f 548 547 585
f 537 536 576
f 553 552 589
f 554 553 590
f 296 627 628
f 296 628 297
f 629 615 616
f 629 616 617
f 629 617 618
f 630 292 291
f 630 293 292
f 631 606 607
f 631 607 608
f 631 608 609
f 632 291 290
f 632 630 291
f 633 604 605
f 633 605 606
f 634 633 606
f 635 606 631
f 635 634 606
f 636 598 599
f 636 599 600
f 637 600 601
f 637 636 600
f 638 618 619
f 638 629 618
f 639 615 629
f 639 629 638
f 640 639 638
f 640 638 619
f 640 619 620
f 641 615 639
f 641 613 614
f 641 614 615
f 642 641 639
f 643 642 639
f 643 639 640
f 644 296 295
f 644 625 626
f 644 626 627
f 644 627 296
f 645 625 644
f 645 624 625
f 645 644 295
f 646 295 596
f 646 645 295
f 647 624 645
f 647 645 646
f 648 622 623
f 649 623 624
f 649 648 623
f 649 624 647
f 650 596 293
f 650 646 596
f 650 649 647
f 650 647 646
f 651 648 649
f 652 651 649
f 653 649 650
f 653 652 649
f 654 293 630
f 654 650 293
f 654 653 650
f 655 610 611
f 656 657 658
f 659 660 657
f 659 661 660
f 662 661 659
f 663 655 661
f 663 661 662
f 664 609 610
f 664 655 663
f 664 610 655
f 665 631 609
f 665 609 664
f 666 664 663
f 667 665 664
f 667 664 666
f 668 290 595
f 668 669 632
f 668 632 290
f 670 665 667
f 671 665 670
f 672 595 288
f 672 668 595
f 672 669 668
f 672 288 597
f 673 669 672
f 674 669 673
f 675 671 637
f 676 598 636
f 677 597 598
f 677 672 597
f 677 673 672
f 677 598 676
f 677 676 674
f 677 674 673
f 678 620 621
f 678 621 622
f 678 640 620
f 678 622 648
f 679 643 640
f 679 678 680
f 679 640 678
f 681 642 643
f 681 613 641
f 681 643 679
f 681 641 642
f 682 678 648
f 682 680 678
f 682 648 651
f 682 658 680
f 683 611 612
f 683 612 613
f 683 681 660
f 683 613 681
f 683 660 661
f 683 655 611
f 683 661 655
f 684 682 651
f 684 658 682
f 684 651 652
f 684 652 653
f 684 653 654
f 684 656 658
f 685 630 632
f 685 684 654
f 685 654 630
f 686 632 669
f 686 685 632
f 686 684 685
f 686 656 684
f 687 659 657
f 687 657 656
f 687 662 659
f 687 663 662
f 688 656 686
f 688 686 669
f 689 656 688
f 689 688 669
f 689 687 656
f 690 689 669
f 690 687 689
f 691 665 671
f 691 671 675
f 691 635 631
f 691 631 665
f 692 674 676
f 692 663 687
f 692 687 690
f 692 690 669
f 692 666 663
f 692 669 674
f 693 676 636
f 693 666 692
f 693 692 676
f 694 667 666
f 694 671 670
f 694 637 671
f 694 636 637
f 694 666 693
f 694 670 667
f 694 693 636
f 695 601 602
f 695 602 603
f 695 637 601
f 695 675 637
f 696 679 680
f 696 681 679
f 697 657 660
f 697 660 681
f 697 680 658
f 697 658 657
f 697 696 680
f 697 681 696
f 698 604 633
f 698 603 604
f 698 633 634
f 698 695 603
f 698 691 675
f 698 635 691
f 698 634 635
f 698 675 695
f 703 704 705
f 713 702 703
f 713 703 705
f 714 705 706
f 714 713 705
f 715 713 714
f 716 706 707
f 716 715 714
f 716 714 706
f 717 709 710
f 718 707 708
f 718 708 709
f 718 716 707
f 718 709 717
f 719 715 716
f 720 710 711
f 720 711 712
f 720 717 710
f 721 701 702
f 721 713 715
f 721 715 719
f 721 702 713
f 722 717 720
f 722 718 717
f 723 722 720
f 724 721 719
f 725 603 602
f 725 712 603
f 725 723 720
f 725 720 712
f 726 727 718
f 726 718 722
f 726 722 723
f 728 725 602
f 728 723 725
f 728 726 723
f 729 724 719
f 730 721 724
f 731 721 730
f 732 281 701
f 733 732 701
f 733 701 721
f 734 733 721
f 734 721 731
f 735 730 724
f 735 731 730
f 735 724 729
f 736 282 281
f 736 732 733
f 736 281 732
f 737 282 736
f 737 283 282
f 737 284 283
f 737 736 733
f 738 734 731
f 738 731 735
f 739 284 737
f 739 737 733
f 739 734 738
f 739 733 734
f 740 285 284
f 740 286 285
f 741 597 288
f 742 287 286
f 742 286 740
f 742 288 287
f 742 741 288
f 742 740 743
f 742 743 744
f 742 744 741
f 745 727 726
f 745 728 602
f 745 726 728
f 746 727 745
f 747 602 700
f 747 745 602
f 747 746 745
f 748 729 749
f 750 735 729
f 750 729 748
f 751 748 749
f 752 750 748
f 753 738 735
f 753 735 750
f 753 750 752
f 754 753 752
f 755 699 599
f 755 754 752
f 756 753 754
f 757 738 753
f 757 753 756
f 758 599 598
f 758 755 599
f 758 754 755
f 758 756 754
f 758 757 756
f 759 740 284
f 759 739 738
f 759 743 740
f 759 284 739
f 760 738 757
f 760 744 743
f 760 741 744
f 760 743 759
f 760 759 738
f 761 598 597
f 761 760 757
f 761 758 598
f 761 597 741
f 761 757 758
f 761 741 760
f 762 718 727
f 762 727 746
f 762 716 718
f 763 716 762
f 763 762 746
f 764 716 763
f 764 763 746
f 764 719 716
f 764 749 729
f 764 746 749
f 764 729 719
f 765 747 700
f 765 746 747
f 765 749 746
f 765 751 749
f 765 700 751
f 766 700 699
f 766 699 755
f 766 748 751
f 766 752 748
f 766 755 752
f 766 751 700
f 773 628 627
f 773 297 628
f 403 773 627
f 772 413 412
f 786 617 616
f 786 618 617
f 786 616 776
f 787 407 774
f 788 782 783
f 789 407 787
f 789 408 407
f 789 409 408
f 790 784 785
f 791 784 790
f 791 783 784
f 792 788 783
f 792 783 791
f 793 769 770
f 793 770 794
f 795 619 618
f 795 620 619
f 796 618 786
f 796 776 777
f 796 795 618
f 796 786 776
f 797 795 796
f 798 626 625
f 798 627 626
f 799 797 796
f 800 799 796
f 800 777 778
f 800 796 777
f 801 627 798
f 801 403 627
f 802 798 625
f 802 624 623
f 802 625 624
f 802 801 798
f 803 404 403
f 803 405 404
f 803 403 801
f 804 803 801
f 804 801 802
f 805 623 622
f 806 804 802
f 806 802 623
f 806 623 805
f 807 405 803
f 807 803 804
f 807 804 806
f 808 806 805
f 809 806 808
f 810 807 806
f 810 806 809
f 811 774 405
f 811 405 807
f 811 787 774
f 811 807 810
f 812 781 782
f 812 782 788
f 813 814 815
f 816 817 818
f 816 815 817
f 819 816 818
f 820 775 409
f 820 409 789
f 821 411 775
f 821 820 822
f 821 775 820
f 823 824 788
f 823 788 792
f 825 821 822
f 826 821 825
f 826 772 412
f 826 411 821
f 826 412 411
f 827 825 822
f 828 793 823
f 829 771 772
f 829 772 826
f 829 825 827
f 829 826 825
f 830 771 829
f 830 829 827
f 831 770 771
f 831 771 830
f 831 830 794
f 831 794 770
f 832 621 620
f 832 622 621
f 832 805 622
f 832 620 795
f 833 799 800
f 833 795 797
f 833 797 799
f 834 835 832
f 834 832 795
f 834 795 833
f 836 834 833
f 837 833 800
f 837 836 833
f 837 778 779
f 837 800 778
f 838 832 835
f 838 808 805
f 838 805 832
f 838 835 814
f 839 779 780
f 839 780 781
f 839 818 817
f 839 817 837
f 839 781 818
f 839 837 779
f 840 808 838
f 840 838 814
f 840 809 808
f 840 810 809
f 840 811 810
f 840 814 813
f 841 811 840
f 841 789 787
f 841 787 811
f 842 841 840
f 842 789 841
f 842 840 813
f 842 820 789
f 843 781 812
f 843 818 781
f 843 812 788
f 843 788 824
f 843 824 844
f 845 843 844
f 845 818 843
f 845 819 818
f 846 813 815
f 846 815 816
f 846 816 819
f 847 822 820
f 847 842 813
f 847 820 842
f 848 822 847
f 848 847 813
f 848 813 846
f 849 848 846
f 849 822 848
f 850 827 822
f 850 830 827
f 850 849 846
f 850 822 849
f 851 794 830
f 851 830 850
f 852 824 823
f 852 793 794
f 852 823 793
f 852 794 851
f 852 844 824
f 853 767 768
f 853 768 769
f 853 793 828
f 853 769 793
f 854 836 837
f 854 835 834
f 854 834 836
f 855 814 835
f 855 835 854
f 856 854 837
f 856 837 817
f 856 815 814
f 856 817 815
f 856 855 854
f 856 814 855
f 857 845 844
f 857 819 845
f 857 846 819
f 857 850 846
f 857 851 850
f 857 852 851
f 857 844 852
f 858 823 792
f 858 767 853
f 858 785 767
f 858 790 785
f 858 828 823
f 858 791 790
f 858 853 828
f 858 792 791
f 870 869 868
f 870 704 869
f 871 865 866
f 871 866 704
f 871 704 870
f 872 871 870
f 873 865 871
f 873 871 872
f 874 863 864
f 874 864 865
f 874 865 873
f 875 861 862
f 875 862 863
f 875 863 874
f 876 873 872
f 877 861 875
f 878 859 860
f 878 860 861
f 878 861 877
f 879 875 874
f 879 877 875
f 880 868 867
f 880 876 872
f 880 870 868
f 880 872 870
f 881 878 877
f 881 877 879
f 882 878 881
f 883 768 767
f 883 767 859
f 883 859 878
f 883 878 882
f 884 879 874
f 884 874 885
f 884 881 879
f 886 876 880
f 887 768 883
f 887 882 881
f 887 883 882
f 887 881 884
f 888 876 886
f 889 867 281
f 889 281 419
f 890 886 880
f 891 880 867
f 891 867 889
f 892 880 891
f 893 889 419
f 893 891 889
f 893 892 891
f 893 419 418
f 894 880 892
f 894 890 880
f 895 892 893
f 895 893 418
f 895 418 417
f 896 772 771
f 897 415 414
f 897 416 415
f 898 413 772
f 898 414 413
f 898 897 414
f 898 772 896
f 898 896 899
f 898 899 900
f 898 900 897
f 901 887 884
f 901 884 885
f 901 768 887
f 902 769 768
f 902 768 901
f 902 901 903
f 904 888 886
f 904 886 890
f 905 770 769
f 906 888 904
f 906 907 888
f 906 905 907
f 908 906 904
f 908 904 890
f 909 890 894
f 910 890 909
f 910 908 890
f 911 908 910
f 911 910 899
f 912 909 894
f 912 910 909
f 912 899 910
f 913 900 899
f 913 899 912
f 913 912 894
f 914 900 913
f 914 416 897
f 914 897 900
f 914 913 894
f 915 901 885
f 915 903 901
f 915 874 873
f 915 885 874
f 916 915 873
f 916 903 915
f 917 876 888
f 917 873 876
f 917 907 903
f 917 888 907
f 917 916 873
f 917 903 916
f 918 903 907
f 919 769 902
f 919 902 903
f 919 903 918
f 920 769 919
f 920 905 769
f 920 907 905
f 920 918 907
f 920 919 918
f 921 908 911
f 922 908 921
f 922 770 905
f 922 905 906
f 922 906 908
f 923 894 892
f 923 892 895
f 923 417 416
f 923 895 417
f 923 416 914
f 923 914 894
f 924 921 911
f 924 770 922
f 924 922 921
f 925 771 770
f 925 924 911
f 925 770 924
f 926 896 771
f 926 771 925
f 926 925 911
f 926 899 896
f 926 911 899
f 986 959 960
f 985 986 960
f 987 959 986
f 958 959 987
f 961 985 960
f 984 985 961
f 988 958 987
f 957 958 988
f 962 984 961
f 983 984 962
f 937 983 962
f 963 956 957
f 963 957 988
f 982 983 937
f 936 982 937
f 955 956 963
f 964 955 963
f 981 982 936
f 981 936 935
f 954 955 964
f 965 954 964
f 934 981 935
f 980 981 934
f 953 954 965
f 933 980 934
f 966 953 965
f 979 980 933
f 952 953 966
f 932 979 933
f 967 952 966
f 978 979 932
f 931 978 932
f 951 952 967
f 968 951 967
f 930 978 931
f 977 978 930
f 929 977 930
f 969 950 968
f 928 977 929
f 976 977 928
f 927 976 928
f 970 938 969
f 939 938 970
f 949 976 927
f 975 976 949
f 940 939 970
f 948 975 949
f 971 940 970
f 941 940 971
f 947 974 975
f 947 975 948
f 942 941 971
f 972 942 971
f 943 942 972
f 946 973 974
f 946 974 947
f 944 972 973
f 944 943 972
f 945 973 946
f 945 944 973
f 938 950 969
f 950 951 968
f 997 998 999
f 997 999 1005
f 996 1005 1004
f 996 997 1005
f 995 996 1004
f 994 1004 1003
f 994 995 1004
f 993 1003 1002
f 993 994 1003
f 992 1002 1001
f 992 993 1002
f 991 1001 1000
f 991 992 1001
f 990 991 1000
f 989 1000 604
f 989 990 1000
f 603 989 604
f 1014 998 997
f 1014 1011 1012
f 1014 1012 1013
f 1014 1013 998
f 1015 1009 1010
f 1015 1010 1011
f 1015 1011 1014
f 1016 1006 1007
f 1016 1007 1008
f 1017 712 711
f 1017 603 712
f 1018 710 709
f 1018 711 710
f 1019 997 996
f 1019 1014 997
f 1020 996 995
f 1020 1019 996
f 1021 1022 1023
f 1021 1020 995
f 1021 995 1022
f 1024 1019 1020
f 1025 1015 1014
f 1025 1014 1019
f 1025 1019 1024
f 1025 1009 1015
f 1026 1025 1024
f 1027 995 994
f 1027 1023 1022
f 1027 1022 995
f 1028 1023 1029
f 1028 1021 1023
f 1028 1024 1020
f 1028 1020 1021
f 1028 1026 1024
f 1030 1027 994
f 1031 1026 1028
f 1031 1008 1009
f 1031 1016 1008
f 1031 1028 1029
f 1031 1025 1026
f 1031 1029 1016
f 1031 1009 1025
f 1032 994 993
f 1032 1030 994
f 1033 1030 1032
f 1034 1027 1030
f 1034 1030 1033
f 1034 1023 1027
f 1035 1034 1033
f 1036 1033 1032
f 1036 1032 993
f 1037 1033 1036
f 1037 1035 1033
f 1038 1006 1016
f 1039 705 704
f 1039 706 705
f 1039 704 1006
f 1039 1006 1038
f 1039 1038 1040
f 1041 990 989
f 1041 1042 990
f 1043 1042 1041
f 1044 707 706
f 1044 1040 1045
f 1044 1039 1040
f 1044 706 1039
f 1046 1047 1042
f 1046 1042 1043
f 1048 1043 1041
f 1048 1041 989
f 1049 989 603
f 1049 1048 989
f 1049 603 1017
f 1050 1043 1048
f 1050 1048 1049
f 1051 708 707
f 1051 709 708
f 1051 1046 1043
f 1051 1043 1050
f 1052 711 1018
f 1052 1018 709
f 1052 709 1051
f 1052 1050 1049
f 1052 1051 1050
f 1052 1017 711
f 1052 1049 1017
f 1053 1023 1034
f 1053 1038 1016
f 1053 1029 1023
f 1053 1016 1029
f 1054 993 992
f 1054 1036 993
f 1055 1053 1034
f 1055 1034 1035
f 1055 1035 1037
f 1056 1038 1053
f 1056 1053 1055
f 1057 1036 1054
f 1058 1037 1036
f 1058 1036 1057
f 1059 1056 1055
f 1060 1054 992
f 1060 1057 1054
f 1060 1061 1058
f 1060 1058 1057
f 1062 1055 1037
f 1062 1061 1045
f 1062 1037 1058
f 1062 1058 1061
f 1062 1059 1055
f 1063 1040 1038
f 1063 1038 1056
f 1063 1045 1040
f 1063 1056 1059
f 1063 1062 1045
f 1063 1059 1062
f 1064 991 990
f 1064 992 991
f 1064 990 1042
f 1064 1060 992
f 1065 1064 1042
f 1065 1060 1064
f 1065 1042 1047
f 1065 1047 1061
f 1065 1061 1060
f 1066 707 1044
f 1066 1045 1061
f 1066 1044 1045
f 1066 1047 1046
f 1066 1061 1047
f 1066 1046 1051
f 1066 1051 707
f 999 998 1067
f 1076 1067 1068
f 1076 1068 1069
f 1076 999 1067
f 1077 1069 1070
f 1077 1076 1069
f 1078 1070 1071
f 1078 1077 1070
f 1079 1071 1072
f 1079 1078 1071
f 1080 1072 1073
f 1080 1073 1074
f 1080 1079 1072
f 1081 1074 1075
f 1081 1080 1074
f 785 1075 767
f 785 1081 1075
f 1082 1012 1011
f 1082 1013 1012
f 1082 998 1013
f 1082 1067 998
f 1083 1010 1009
f 1083 1011 1010
f 1083 1082 1011
f 1084 1007 1006
f 1084 1008 1007
f 1085 859 767
f 1085 860 859
f 1086 862 861
f 1086 863 862
f 1087 1069 1068
f 1088 1068 1067
f 1088 1067 1082
f 1088 1087 1068
f 1089 1087 1088
f 1090 1088 1082
f 1090 1082 1083
f 1091 1087 1089
f 1091 1089 1092
f 1093 1089 1088
f 1093 1088 1090
f 1093 1092 1089
f 1094 1070 1069
f 1094 1069 1087
f 1094 1092 1095
f 1094 1095 1070
f 1094 1087 1091
f 1094 1091 1092
f 1096 1097 1092
f 1096 1093 1090
f 1096 1092 1093
f 1098 1095 1092
f 1098 1070 1095
f 1099 1009 1008
f 1099 1097 1096
f 1099 1084 1097
f 1099 1008 1084
f 1099 1083 1009
f 1099 1090 1083
f 1099 1096 1090
f 1100 1071 1070
f 1100 1070 1098
f 1101 1071 1100
f 1102 1101 1100
f 1103 1098 1092
f 1103 1100 1098
f 1103 1102 1100
f 1104 1102 1103
f 1105 1084 1006
f 1106 1075 1074
f 1107 1006 704
f 1107 704 866
f 1107 1105 1006
f 1107 1108 1105
f 1109 1106 1110
f 1111 1110 1112
f 1111 1109 1110
f 1113 1114 1108
f 1113 1108 1107
f 1113 1107 866
f 1115 1075 1106
f 1116 767 1075
f 1116 1085 767
f 1116 1075 1115
f 1117 1115 1106
f 1117 1106 1109
f 1117 1116 1115
f 1118 864 863
f 1118 865 864
f 1118 1109 1111
f 1118 1117 1109
f 1119 861 860
f 1119 860 1085
f 1119 863 1086
f 1119 1118 863
f 1119 1085 1116
f 1119 1086 861
f 1119 1116 1117
f 1119 1117 1118
f 1120 1071 1101
f 1120 1101 1102
f 1120 1072 1071
f 1121 1103 1092
f 1121 1084 1105
f 1121 1092 1097
f 1121 1097 1084
f 1122 1102 1104
f 1122 1120 1102
f 1123 1122 1124
f 1123 1072 1120
f 1123 1120 1122
f 1125 1121 1105
f 1125 1103 1121
f 1126 1072 1123
f 1127 1073 1072
f 1127 1072 1126
f 1128 1114 1124
f 1128 1105 1108
f 1128 1108 1114
f 1128 1104 1103
f 1128 1124 1122
f 1128 1125 1105
f 1128 1122 1104
f 1128 1103 1125
f 1129 1112 1110
f 1129 1123 1124
f 1129 1124 1112
f 1129 1110 1126
f 1129 1126 1123
f 1130 1074 1073
f 1130 1073 1127
f 1130 1110 1106
f 1130 1106 1074
f 1130 1126 1110
f 1130 1127 1126
f 1131 1124 1114
f 1131 1114 1113
f 1131 1112 1124
f 1132 866 865
f 1132 1111 1112
f 1132 1118 1111
f 1132 1131 1113
f 1132 1112 1131
f 1132 1113 866
f 1132 865 1118
f 1168 1167 1153
f 1166 1152 1167
f 1169 1168 1154
f 1165 1151 1166
f 1170 1169 1155
f 1164 1150 1165
f 1171 1170 1156
f 1157 1171 1156
f 1188 1149 1164
f 1172 1171 1157
f 1158 1172 1157
f 1187 1148 1188
f 1147 1148 1187
f 1173 1172 1158
f 1159 1173 1158
f 1186 1147 1187
f 1174 1173 1159
f 1160 1174 1159
f 1185 1146 1186
f 1175 1174 1160
f 1161 1175 1160
f 1184 1145 1185
f 1176 1175 1161
f 1176 1161 1162
f 1183 1144 1184
f 1163 1176 1162
f 1163 1133 1176
f 1134 1176 1133
f 1182 1143 1183
f 1177 1134 1135
f 1177 1135 1136
f 1137 1177 1136
f 1181 1142 1182
f 1138 1178 1177
f 1138 1177 1137
f 1180 1141 1181
f 1140 1180 1179
f 1140 1141 1180
f 1139 1179 1178
f 1139 1178 1138
f 1139 1140 1179
f 1141 1142 1181
f 1142 1143 1182
f 1143 1144 1183
f 1144 1145 1184
f 1145 1146 1185
f 1146 1147 1186
f 1148 1149 1188
f 1149 1150 1164
f 1150 1151 1165
f 1151 1152 1166
f 1152 1153 1167
f 1153 1154 1168
f 1154 1155 1169
f 1155 1156 1170
f 1208 1209 1237
f 1236 1208 1237
f 1210 1237 1209
f 1238 1237 1210
f 1235 1207 1208
f 1235 1208 1236
f 1239 1210 1211
f 1239 1238 1210
f 1234 1206 1207
f 1234 1207 1235
f 1220 1211 1212
f 1220 1239 1211
f 1233 1205 1206
f 1233 1206 1234
f 1213 1220 1212
f 1221 1220 1213
f 1232 1204 1205
f 1232 1205 1233
f 1214 1221 1213
f 1222 1221 1214
f 1203 1204 1232
f 1231 1203 1232
f 1215 1222 1214
f 1223 1222 1215
f 1202 1203 1231
f 1202 1231 1230
f 1216 1223 1215
f 1224 1223 1216
f 1201 1202 1230
f 1201 1230 1229
f 1217 1224 1216
f 1225 1224 1217
f 1218 1225 1217
f 1228 1201 1229
f 1200 1201 1228
f 1226 1225 1218
f 1219 1226 1218
f 1219 1189 1226
f 1190 1226 1189
f 1199 1200 1228
f 1199 1228 1227
f 1240 1190 1191
f 1240 1191 1192
f 1198 1199 1227
f 1198 1227 1245
f 1193 1240 1192
f 1241 1240 1193
f 1197 1245 1244
f 1197 1198 1245
f 1194 1241 1193
f 1242 1241 1194
f 1196 1244 1243
f 1196 1197 1244
f 1195 1243 1242
f 1195 1242 1194
f 1195 1196 1243
f 1254 191 190
f 1254 190 1246
f 1255 1246 1247
f 1255 1254 1246
f 1256 1247 1248
f 1256 1248 1249
f 1256 1255 1247
f 1257 1256 1249
f 1258 1249 1250
f 1258 1257 1249
f 1259 1250 1251
f 1259 1251 1252
f 1259 1258 1250
f 1253 1259 1252
f 1306 1282 1281
f 1307 1281 1280
f 1307 1306 1281
f 1305 1283 1282
f 1305 1282 1306
f 1308 1280 1279
f 1308 1307 1280
f 1304 1283 1305
f 1264 1283 1304
f 1309 1279 1278
f 1309 1308 1279
f 1303 1264 1304
f 1310 1278 1277
f 1310 1309 1278
f 1265 1264 1303
f 1302 1265 1303
f 1311 1277 1276
f 1311 1310 1277
f 1266 1265 1302
f 1301 1266 1302
f 1312 1276 1275
f 1312 1311 1276
f 1267 1266 1301
f 1300 1267 1301
f 1313 1312 1275
f 1274 1313 1275
f 1268 1267 1300
f 1299 1268 1300
f 1314 1313 1274
f 1273 1314 1274
f 1269 1268 1299
f 1298 1269 1299
f 1270 1269 1298
f 1272 1314 1273
f 1272 1315 1314
f 1297 1270 1298
f 1290 1315 1272
f 1262 1270 1297
f 1263 1270 1262
f 1296 1262 1297
f 1271 1290 1272
f 1260 1262 1296
f 1289 1290 1271
f 1289 1291 1290
f 1284 1261 1260
f 1284 1296 1295
f 1284 1260 1296
f 1288 1292 1291
f 1288 1291 1289
f 1285 1295 1294
f 1285 1284 1295
f 1287 1293 1292
f 1287 1292 1288
f 1286 1294 1293
f 1286 1285 1294
f 1286 1293 1287
f 1316 134 135
f 1316 1328 134
f 1317 1329 1328
f 1317 1328 1316
f 1318 1330 1329
f 1318 1329 1317
f 1319 1331 1330
f 1319 1330 1318
f 1320 1332 1331
f 1320 1331 1319
f 1321 1333 1332
f 1321 1332 1320
f 1322 1334 1333
f 1322 1333 1321
f 1323 1335 1334
f 1323 1334 1322
f 1324 1336 1335
f 1324 1335 1323
f 1325 1337 1336
f 1325 1336 1324
f 1326 1338 1337
f 1326 1337 1325
f 1327 1339 1338
f 1327 1338 1326
f 136 149 1339
f 136 1339 1327
f 1355 1356 1357
f 1360 1357 1358
f 1360 1358 1359
f 1361 1357 1360
f 1362 1353 1354
f 1362 1354 1355
f 1362 1355 1357
f 1362 1357 1361
f 1349 1350 1351
f 1364 1362 1363
f 1365 1362 1364
f 1347 1348 1349
f 1345 1346 1347
f 1342 1340 1341
f 1344 1351 1352
f 1344 1352 1353
f 1344 1349 1351
f 1344 1345 1347
f 1344 1347 1349
f 1343 1365 1340
f 1343 1353 1362
f 1343 1362 1365
f 1343 1344 1353
f 1343 1340 1342
f 1366 1369 1368
f 1366 1367 1369
f 1370 1372 1371
f 1370 1373 1372
f 1375 1377 1376
f 1375 1378 1377
f 1374 1378 1375
f 1381 1380 1379
f 1381 1379 1382
f 1384 1387 1386
f 1384 1383 1387
f 1385 1384 1386
f 1388 1391 1390
f 1389 1391 1388
f 1432 1415 1416
f 1431 1414 1415
f 1431 1415 1432
f 1433 1416 1417
f 1433 1432 1416
f 1430 1413 1414
f 1430 1414 1431
f 1434 1417 1418
f 1434 1433 1417
f 1420 1418 1419
f 1420 1434 1418
f 1429 1412 1413
f 1429 1413 1430
f 1435 1420 1421
f 1435 1434 1420
f 1428 1412 1429
f 1411 1412 1428
f 1393 1421 1392
f 1436 1435 1421
f 1436 1421 1393
f 1427 1411 1428
f 1394 1436 1393
f 1410 1411 1427
f 1437 1436 1394
f 1426 1410 1427
f 1395 1437 1394
f 1409 1410 1426
f 1438 1437 1395
f 1425 1409 1426
f 1396 1438 1395
f 1439 1438 1396
f 1408 1409 1425
f 1424 1408 1425
f 1397 1439 1396
f 1440 1439 1397
f 1407 1408 1424
f 1423 1407 1424
f 1398 1440 1397
f 1441 1440 1398
f 1406 1407 1423
f 1422 1406 1423
f 1399 1441 1398
f 1399 1442 1441
f 1405 1406 1422
f 1405 1422 1447
f 1400 1442 1399
f 1400 1443 1442
f 1404 1405 1447
f 1404 1447 1446
f 1401 1443 1400
f 1401 1444 1443
f 1403 1446 1445
f 1403 1404 1446
f 1402 1445 1444
f 1402 1444 1401
f 1402 1403 1445
f 1459 1457 1458
f 1453 1454 1455
f 1463 1459 1460
f 1463 1460 1461
f 1463 1461 1462
f 1452 1453 1455
f 1465 1456 1457
f 1465 1463 1464
f 1465 1457 1459
f 1465 1459 1463
f 1468 1455 1456
f 1468 1465 1466
f 1468 1466 1467
f 1468 1456 1465
f 1469 1455 1468
f 1469 1452 1455
f 1472 1448 1449
f 1472 1449 1450
f 1472 1450 1451
f 1472 1473 1448
f 1471 1451 1452
f 1471 1469 1470
f 1471 1452 1469
f 1471 1472 1451
f 1474 106 107
f 1474 1486 106
f 1474 1487 1486
f 1475 1487 1474
f 1476 1488 1487
f 1476 1487 1475
f 1477 1489 1488
f 1477 1490 1489
f 1477 1488 1476
f 1478 1490 1477
f 1479 1491 1490
f 1479 1490 1478
f 1480 1492 1491
f 1480 1493 1492
f 1480 1491 1479
f 1481 1494 1493
f 1481 1493 1480
f 1482 1494 1481
f 1483 1495 1494
f 1483 1494 1482
f 1484 1496 1495
f 1484 1495 1483
f 1485 1497 1496
f 1485 121 1497
f 1485 1496 1484
f 108 121 1485

